<svg width="268" height="202" viewBox="0 0 268 202" fill="none" xmlns="http://www.w3.org/2000/svg">
<mask id="mask0_799_4802" style="mask-type:luminance" maskUnits="userSpaceOnUse" x="124" y="14" width="94" height="139">
<path d="M205.411 16.6812L217.244 19.6898C204.671 16.6812 191.359 16.6812 178.046 21.9463C144.765 35.4853 127.754 75.3499 139.588 110.702C146.984 131.762 163.254 146.805 182.484 152.07L171.39 149.062C152.161 143.045 135.89 128.753 128.494 106.941C116.661 72.3412 133.671 32.4766 166.952 18.9377C180.265 13.6725 193.578 12.9204 205.411 16.6812Z" fill="white"/>
</mask>
<g mask="url(#mask0_799_4802)">
<path d="M205.411 16.6815L217.244 19.6902C204.671 16.6815 191.359 16.6815 178.046 21.9466C171.39 24.9553 165.473 28.7161 160.296 33.2291L148.463 30.2204C154.38 25.7075 160.296 21.9466 166.953 18.938C180.265 13.6729 193.578 12.9207 205.411 16.6815Z" fill="#2D0085"/>
<path d="M148.463 30.2207L160.296 33.2294C158.078 35.4858 155.859 36.9902 154.38 39.2467L142.546 36.238C144.765 33.9815 146.984 32.4772 148.463 30.2207Z" fill="#2E008A"/>
<path d="M142.546 36.2385L153.64 39.2472C152.9 40.7515 151.421 43.008 149.942 44.5123L138.108 41.5037C139.588 39.9993 141.067 37.7429 142.546 36.2385Z" fill="#30008F"/>
<path d="M138.109 41.5032L149.203 44.5119C148.463 46.0162 147.723 48.2727 146.244 49.777L135.15 46.7684C135.89 45.2641 137.369 43.0076 138.109 41.5032Z" fill="#320094"/>
<path d="M135.15 46.7679L146.244 49.7766C145.504 51.2809 144.765 53.5374 143.286 55.0417L132.192 52.0331C132.931 50.5288 133.671 48.2723 135.15 46.7679Z" fill="#340099"/>
<path d="M132.192 52.0328L143.286 55.0414C142.546 56.5458 141.807 58.8022 141.067 60.3066L129.973 57.2979C130.713 55.0414 131.452 53.5371 132.192 52.0328Z" fill="#35009E"/>
<path d="M129.973 57.2975L141.067 60.3062C140.327 61.8105 139.588 64.067 139.588 65.5713L127.754 62.5627C128.494 61.0584 129.234 58.8019 129.973 57.2975Z" fill="#3700A3"/>
<path d="M127.755 62.5641L138.848 65.5728C138.848 67.8293 138.109 69.3336 138.109 71.5901L126.275 68.5814C127.015 66.325 127.015 64.8206 127.755 62.5641Z" fill="#3900A8"/>
<path d="M126.275 68.58L137.369 71.5887C137.369 73.093 136.629 75.3495 136.629 77.606L125.535 74.5973C125.535 72.3408 126.275 70.0843 126.275 68.58Z" fill="#3A00AD"/>
<path d="M125.535 74.5977L136.629 77.6063C136.629 79.8628 135.89 82.1193 135.89 84.3758L124.796 81.3671C124.796 79.1106 124.796 76.8541 125.535 74.5977Z" fill="#3C00B3"/>
<path d="M124.796 81.3682L135.89 84.3769C135.89 87.3855 135.89 90.3942 135.89 92.6507L124.796 89.642C124.796 86.6334 124.796 84.3769 124.796 81.3682Z" fill="#3E00B8"/>
<path d="M124.796 89.6408L135.89 92.6495C136.629 97.9146 137.369 103.18 138.848 108.445L127.754 105.436C126.275 100.171 125.535 94.9059 124.796 89.6408Z" fill="#4000BD"/>
<path d="M127.754 105.437L138.848 108.446C138.848 109.198 139.588 109.95 139.588 110.702C140.327 112.959 141.067 115.215 141.807 117.472L130.713 114.463C129.973 112.206 129.234 109.95 128.494 107.693C128.494 106.941 127.754 106.189 127.754 105.437Z" fill="#4100C2"/>
<path d="M130.712 113.71L141.806 116.718C144.025 121.231 146.983 125.744 149.942 129.505L138.848 126.497C135.89 122.736 132.931 118.223 130.712 113.71Z" fill="#4000BD"/>
<path d="M138.848 126.498L149.942 129.507C151.421 131.763 153.64 134.02 155.119 135.524L144.025 132.515C142.546 131.011 140.327 128.754 138.848 126.498Z" fill="#3E00B8"/>
<path d="M144.025 132.514L155.119 135.523C156.598 137.027 158.077 138.531 160.296 140.035L149.202 137.027C147.723 136.275 145.504 134.77 144.025 132.514Z" fill="#3C00B3"/>
<path d="M149.202 137.028L160.296 140.036C161.775 141.541 163.254 142.293 164.733 143.797L153.64 140.788C152.16 140.036 150.681 138.532 149.202 137.028Z" fill="#3A00AD"/>
<path d="M153.64 140.788L165.474 143.797C166.953 144.549 168.432 146.053 169.911 146.806L158.817 143.797C157.338 143.045 155.119 141.54 153.64 140.788Z" fill="#3900A8"/>
<path d="M158.817 143.796L169.911 146.805C171.39 147.557 172.869 148.309 175.088 149.061L163.254 146.053C161.775 145.301 160.296 144.548 158.817 143.796Z" fill="#3700A3"/>
<path d="M163.254 146.053L174.348 149.062C175.827 149.814 178.046 150.566 179.525 150.566L168.432 147.557C166.952 147.557 165.473 146.805 163.254 146.053Z" fill="#35009E"/>
<path d="M168.432 147.557L180.265 150.566C181.005 150.566 181.744 151.318 183.223 151.318L172.13 148.309C170.65 148.309 169.171 148.309 168.432 147.557Z" fill="#340099"/>
</g>
<mask id="mask1_799_4802" style="mask-type:luminance" maskUnits="userSpaceOnUse" x="171" y="146" width="51" height="8">
<path d="M221.682 149.063C208.369 154.328 195.057 155.081 182.484 151.32L171.39 148.311C183.963 151.32 197.275 151.32 210.588 146.055C214.286 146.807 217.984 148.311 221.682 149.063Z" fill="white"/>
</mask>
<g mask="url(#mask1_799_4802)">
<path d="M228.338 134.772L239.432 137.781C234.255 142.294 228.338 146.055 220.942 149.063C207.63 154.329 194.317 155.081 181.744 151.32L170.65 148.311C183.223 151.32 196.536 151.32 209.848 146.055C217.244 143.046 223.161 139.285 228.338 134.772Z" fill="#331485"/>
</g>
<mask id="mask2_799_4802" style="mask-type:luminance" maskUnits="userSpaceOnUse" x="205" y="15" width="59" height="135">
<path d="M260.14 61.0592C271.973 96.4109 254.963 135.523 221.682 149.062C220.942 149.062 220.942 149.062 220.202 149.062C219.463 149.062 219.463 149.062 218.723 148.31C217.984 148.31 217.984 148.31 217.244 147.558C216.504 147.558 216.504 147.558 215.765 146.806C215.025 146.054 215.025 146.806 214.286 146.054C213.546 146.054 213.546 146.054 212.807 145.301C212.067 145.301 212.067 145.301 211.327 144.549C210.588 144.549 210.588 144.549 209.848 144.549C243.13 131.01 260.14 91.1457 248.307 56.5463C240.911 35.4857 224.64 20.4424 205.411 15.1773L217.244 19.6903C236.473 24.9554 252.744 39.2465 260.14 61.0592Z" fill="white"/>
</mask>
<g mask="url(#mask2_799_4802)">
<path d="M205.411 16.6815L217.244 19.6901C217.984 19.6901 219.463 20.4423 220.202 20.4423L209.109 17.4336C207.629 16.6815 206.89 16.6815 205.411 16.6815Z" fill="#3B1799"/>
<path d="M208.369 17.4344L219.462 20.443C220.942 21.1952 223.16 21.9474 224.64 21.9474L213.546 18.9387C212.067 18.1866 210.587 18.1866 208.369 17.4344Z" fill="#3D189E"/>
<path d="M213.546 18.9384L224.64 21.947C226.119 22.6992 227.598 23.4513 229.817 24.2035L218.723 21.1948C216.504 20.4427 215.025 19.6905 213.546 18.9384Z" fill="#3F18A3"/>
<path d="M218.723 21.1952L229.817 24.2038C231.296 24.956 232.775 25.7082 234.254 27.2125L223.161 24.2038C221.681 23.4517 220.202 22.6995 218.723 21.1952Z" fill="#4119A8"/>
<path d="M223.16 24.2031L234.254 27.2117C235.733 27.9639 237.213 29.4682 238.692 30.9725L227.598 27.9639C226.119 26.4596 224.64 25.7074 223.16 24.2031Z" fill="#431AAD"/>
<path d="M227.598 27.9638L239.432 30.9725C240.911 32.4768 243.129 33.9811 244.609 35.4854L233.515 32.4768C231.296 30.9725 229.817 29.4681 227.598 27.9638Z" fill="#451BB3"/>
<path d="M232.775 32.4775L243.869 35.4862C246.088 37.7427 247.567 39.247 249.046 41.5035L237.952 38.4948C236.473 36.2384 234.994 33.9819 232.775 32.4775Z" fill="#471BB8"/>
<path d="M237.952 38.4934L249.046 41.5021C252.004 45.2629 254.963 49.7759 257.181 54.2888L246.088 51.2802C243.869 46.7672 241.65 42.2542 237.952 38.4934Z" fill="#491CBD"/>
<path d="M246.088 51.2816L257.182 54.2903C257.921 56.5468 258.661 58.8032 259.4 61.0597C259.4 61.8119 260.14 62.5641 260.14 63.3162L249.046 60.3076C249.046 59.5554 248.307 58.8032 248.307 58.0511C248.307 55.7946 246.827 53.5381 246.088 51.2816Z" fill="#4A1DC2"/>
<path d="M249.786 59.5543L260.88 62.563C262.359 67.8281 263.098 73.0933 263.838 78.3584L252.744 75.3497C252.005 70.0846 251.265 64.8195 249.786 59.5543Z" fill="#491CBD"/>
<path d="M252.004 75.3506L263.838 78.3592C263.838 81.3679 263.838 84.3765 263.838 86.633L252.744 83.6244C252.744 80.6157 252.744 78.3592 252.004 75.3506Z" fill="#471BB8"/>
<path d="M252.744 83.6232L263.838 86.6318C263.838 88.8883 263.838 91.1448 263.098 93.4013L252.004 90.3926C252.004 88.1361 252.744 85.8797 252.744 83.6232Z" fill="#451BB3"/>
<path d="M252.004 90.3937L263.098 93.4024C263.098 95.6589 262.359 97.1632 261.619 99.4197L250.525 96.411C251.265 94.9067 251.265 92.6502 252.004 90.3937Z" fill="#431AAD"/>
<path d="M250.525 97.1625L261.619 100.171C260.879 102.428 260.879 103.932 260.14 106.188L249.046 103.18C249.785 100.923 250.525 98.6668 250.525 97.1625Z" fill="#4119A8"/>
<path d="M249.046 102.427L260.14 105.436C259.4 106.94 258.661 109.197 257.921 110.701L246.827 107.692C248.306 106.188 248.306 103.932 249.046 102.427Z" fill="#3F18A3"/>
<path d="M247.567 107.694L258.66 110.703C257.921 112.207 257.181 114.463 256.442 115.968L245.348 112.959C246.087 111.455 246.827 109.95 247.567 107.694Z" fill="#3D189E"/>
<path d="M244.609 112.959L255.702 115.967C254.963 117.472 254.223 119.728 252.744 121.232L241.65 118.224C243.129 116.719 243.869 115.215 244.609 112.959Z" fill="#3B1799"/>
<path d="M242.39 118.223L253.484 121.232C252.744 122.736 251.265 124.993 249.786 126.497L238.692 123.489C240.171 121.984 240.911 119.728 242.39 118.223Z" fill="#391694"/>
<path d="M238.692 123.488L249.785 126.497C248.306 128.753 246.827 130.258 245.348 131.762L234.254 128.753C235.733 127.249 237.212 124.992 238.692 123.488Z" fill="#37158F"/>
<path d="M234.254 128.753L245.348 131.762C243.129 134.018 241.65 135.522 239.431 137.779L228.338 134.77C230.556 133.266 232.775 131.009 234.254 128.753Z" fill="#35158A"/>
<path d="M228.338 134.771L239.431 137.779C234.254 142.292 228.338 146.053 220.942 149.062C207.629 154.327 194.317 155.079 181.744 151.318L170.65 148.31C183.223 151.318 196.535 151.318 209.848 146.053C217.244 143.044 223.161 139.284 228.338 134.771Z" fill="#331485"/>
</g>
<path d="M250.308 99.4276C259.872 62.8994 240.108 25.8358 206.164 16.6437C172.22 7.45167 136.95 29.612 127.386 66.1402C117.822 102.668 137.586 139.732 171.53 148.924C205.474 158.116 240.744 135.956 250.308 99.4276Z" fill="#6226FF"/>
<mask id="mask3_799_4802" style="mask-type:luminance" maskUnits="userSpaceOnUse" x="170" y="12" width="98" height="146">
<path d="M206.89 12.9204L217.984 15.9291C237.953 21.1942 255.703 36.9896 263.099 59.5545C275.672 96.4105 257.182 138.532 222.422 152.823C209.109 158.088 194.317 158.84 181.744 155.831L170.651 152.823C183.963 156.583 198.015 155.831 211.328 149.814C246.089 135.523 264.578 93.4018 252.005 56.5458C244.609 33.981 226.859 18.1855 206.89 12.9204Z" fill="white"/>
</mask>
<g mask="url(#mask3_799_4802)">
<path d="M206.891 12.9206L217.984 15.9292C218.724 15.9292 220.203 16.6814 220.943 16.6814L209.849 13.6728C208.37 13.6728 207.63 12.9206 206.891 12.9206Z" fill="#340099"/>
<path d="M209.849 13.6734L220.942 16.6821C223.161 17.4342 224.64 18.1864 226.12 18.9385L215.026 15.9299C213.547 15.1777 211.328 14.4256 209.849 13.6734Z" fill="#35009E"/>
<path d="M215.026 15.9285L226.12 18.9371C227.599 19.6893 229.818 20.4414 231.297 21.1936L220.203 18.185C218.724 17.4328 216.505 16.6806 215.026 15.9285Z" fill="#3700A3"/>
<path d="M220.203 18.1853L231.297 21.194C232.776 21.9461 234.995 23.4504 236.474 24.2026L225.38 21.194C223.161 20.4418 221.682 18.9375 220.203 18.1853Z" fill="#3900A8"/>
<path d="M225.38 21.1951L236.474 24.2038C237.953 25.7081 240.172 26.4603 241.651 27.9646L230.557 24.9559C228.339 23.4516 226.86 21.9473 225.38 21.1951Z" fill="#3A00AD"/>
<path d="M229.818 24.9559L240.911 27.9645C242.391 29.4688 244.609 30.9732 246.089 32.4775L234.995 29.4688C233.516 27.9645 232.036 26.4602 229.818 24.9559Z" fill="#3C00B3"/>
<path d="M235.734 29.4678L246.828 32.4765C249.047 34.733 250.526 36.2373 252.745 39.2459L241.651 36.2373C239.432 33.2286 237.213 31.7243 235.734 29.4678Z" fill="#3E00B8"/>
<path d="M240.911 35.4855L252.005 38.4941C254.964 43.0071 257.922 47.5201 260.141 52.0331L249.047 49.0244C246.828 44.5114 244.609 39.9985 240.911 35.4855Z" fill="#4000BD"/>
<path d="M249.047 49.7758L260.14 52.7845C260.88 55.041 262.359 57.2974 263.099 59.5539C263.099 60.3061 263.838 61.0583 263.838 61.8104L252.745 58.8018C252.745 58.0496 252.005 57.2974 252.005 56.5453C251.265 54.2888 250.526 52.0323 249.047 49.7758Z" fill="#4100C2"/>
<path d="M252.745 58.8033L263.838 61.8119C265.318 67.0771 266.797 72.3422 266.797 78.3595L255.703 75.3509C255.703 69.3336 254.224 64.0684 252.745 58.8033Z" fill="#4000BD"/>
<path d="M255.703 74.5975L267.537 78.3583C267.537 81.367 267.537 84.3756 267.537 87.3843L256.443 84.3757C256.443 80.6148 256.443 77.6062 255.703 74.5975Z" fill="#3E00B8"/>
<path d="M255.703 83.623L266.797 86.6317C266.797 88.8882 266.797 91.1447 266.058 94.1533L254.964 91.1447C255.703 88.8882 255.703 86.6317 255.703 83.623Z" fill="#3C00B3"/>
<path d="M255.703 91.1448L266.797 94.1534C266.797 96.4099 266.057 98.6664 265.318 100.923L254.224 97.9142C254.963 95.6578 254.963 93.4013 255.703 91.1448Z" fill="#3A00AD"/>
<path d="M254.224 97.9153L265.318 100.924C264.578 103.18 264.578 104.685 263.838 106.941L252.745 103.933C253.484 101.676 253.484 99.4197 254.224 97.9153Z" fill="#3900A8"/>
<path d="M252.745 103.933L263.838 106.942C263.099 109.198 262.359 110.702 261.62 112.959L250.526 109.95C251.265 107.694 252.005 105.437 252.745 103.933Z" fill="#3700A3"/>
<path d="M250.526 109.198L261.62 112.206C260.88 113.711 260.141 115.967 259.401 117.472L248.307 114.463C249.047 112.959 249.787 111.454 250.526 109.198Z" fill="#35009E"/>
<path d="M248.307 114.463L259.401 117.471C258.661 118.976 257.182 121.232 256.442 122.736L245.349 119.728C246.088 118.223 246.828 116.719 248.307 114.463Z" fill="#340099"/>
<path d="M245.349 120.48L256.443 123.489C254.963 124.993 254.224 127.25 252.745 128.754L241.651 125.745C242.39 124.241 243.87 121.985 245.349 120.48Z" fill="#320094"/>
<path d="M241.651 125.745L252.745 128.754C251.266 131.01 249.786 132.514 248.307 134.771L237.213 131.762C238.693 129.506 240.172 128.001 241.651 125.745Z" fill="#30008F"/>
<path d="M237.213 131.763L248.307 134.771C246.088 137.028 243.869 139.284 241.651 140.789L230.557 137.78C232.776 135.523 234.994 133.267 237.213 131.763Z" fill="#2E008A"/>
<path d="M230.557 137.78L241.651 140.789C235.734 146.054 229.818 149.815 222.422 152.824C209.109 158.089 194.317 158.841 181.744 155.832L170.651 152.824C183.963 156.584 198.015 155.832 211.328 149.815C218.724 146.806 224.64 142.293 230.557 137.78Z" fill="#2D0085"/>
</g>
<path d="M165.473 15.9295C200.234 1.6384 239.432 19.6903 252.005 56.5463C264.578 93.4023 246.088 135.523 211.328 149.814C176.567 164.106 137.369 146.054 124.796 109.198C112.223 71.5895 130.713 30.2206 165.473 15.9295ZM209.848 146.054C243.13 132.515 260.14 92.6501 248.307 58.0506C236.474 23.4511 199.494 5.39922 166.213 18.9381C132.931 32.4771 116.66 72.3417 128.494 106.941C140.327 141.541 177.307 159.593 209.848 146.054Z" fill="#4500CB"/>
<mask id="mask4_799_4802" style="mask-type:luminance" maskUnits="userSpaceOnUse" x="161" y="48" width="57" height="66">
<path d="M161.775 113.712L163.994 52.7865L217.984 48.2735L215.765 109.199L161.775 113.712Z" fill="white"/>
</mask>
<g mask="url(#mask4_799_4802)">
<path d="M216.505 61.8124L175.828 64.8211L175.088 66.3254L174.348 97.9162L175.088 98.6684H178.786L179.525 97.1641V86.6338C180.265 85.8816 181.005 85.1295 181.744 85.1295L215.765 82.1208L216.505 80.6165V76.1035L215.765 75.3514L183.223 78.36C181.744 78.36 180.265 76.8557 180.265 75.3514C180.265 73.847 181.744 71.5905 183.223 71.5905L215.765 69.3341L217.244 67.8297V63.3168L216.505 61.8124ZM168.432 65.5732H164.734L163.255 67.0776L161.775 112.207L162.515 112.959L215.026 108.447L215.765 106.942V102.429L215.026 101.677L168.432 105.438L167.692 104.686L169.171 66.3254L168.432 65.5732ZM215.765 88.8903L186.921 91.1468L186.182 92.6511V97.1641L186.921 97.9162L215.765 95.6598L216.505 94.1554V89.6424L215.765 88.8903ZM216.505 48.2735L164.734 52.7865L163.994 53.5386V58.0516L164.734 58.8038L217.244 54.2908V49.7778L216.505 48.2735Z" fill="white"/>
</g>
<g clip-path="url(#clip0_799_4802)">
<path d="M77.5295 45.5922L71.2054 52.8769L70.5649 52.8369L76.889 45.5522L77.5295 45.5922Z" fill="#003483"/>
<mask id="mask5_799_4802" style="mask-type:luminance" maskUnits="userSpaceOnUse" x="18" y="45" width="59" height="30">
<path d="M18.9717 74.3708L25.2558 67.0861C37.3036 53.1571 55.6354 44.7916 76.8892 45.5521L70.6051 52.8368C49.3514 52.1164 31.0195 60.4418 18.9717 74.3708Z" fill="white"/>
</mask>
<g mask="url(#mask5_799_4802)">
<path d="M76.8892 45.5521L70.6051 52.8368C49.3514 52.0763 31.0195 60.4418 18.9717 74.3708L25.2558 67.0861C37.3036 53.157 55.6354 44.8316 76.8892 45.5521Z" fill="#003585"/>
</g>
<mask id="mask6_799_4802" style="mask-type:luminance" maskUnits="userSpaceOnUse" x="71" y="45" width="88" height="132">
<path d="M143.172 169.192L136.888 176.477C147.575 164.109 153.298 147.418 151.697 128.846C147.775 88.0593 112.432 54.6777 71.2451 52.8765L77.5292 45.5918C118.716 47.393 154.059 80.7746 157.981 121.561C159.582 140.133 153.859 156.824 143.172 169.192Z" fill="white"/>
</mask>
<g mask="url(#mask6_799_4802)">
<path d="M143.172 169.192L136.888 176.477C147.575 164.109 153.298 147.418 151.697 128.846C147.775 88.0593 112.432 54.6777 71.2451 52.8765L77.5292 45.5918C118.716 47.393 154.059 80.7746 157.981 121.561C159.582 140.133 153.859 156.824 143.172 169.192Z" fill="#003585"/>
</g>
<mask id="mask7_799_4802" style="mask-type:luminance" maskUnits="userSpaceOnUse" x="3" y="67" width="23" height="50">
<path d="M3.80168 116.758C3.68161 100.228 9.32526 85.4981 18.9715 74.3709L25.2556 67.0862C15.6093 78.2534 9.96568 92.983 10.0858 109.474C8.00441 111.915 5.88303 114.357 3.80168 116.758Z" fill="white"/>
</mask>
<g mask="url(#mask7_799_4802)">
<path d="M143.172 169.192L136.888 176.477C124.76 190.486 106.268 198.892 84.8942 198.171C44.1878 196.73 7.92428 162.828 4.08179 122.562C2.44073 103.71 8.20447 86.819 18.9714 74.3709L25.2555 67.0862C14.4885 79.5343 8.7248 96.4252 10.3659 115.277C14.2484 155.544 50.4719 189.446 91.1382 190.846C112.552 191.607 131.044 183.201 143.172 169.192Z" fill="#004B85"/>
</g>
<mask id="mask8_799_4802" style="mask-type:luminance" maskUnits="userSpaceOnUse" x="3" y="109" width="141" height="90">
<path d="M4.08194 122.562C3.92184 120.601 3.84178 118.679 3.80176 116.758C5.88311 114.317 8.00448 111.915 10.0858 109.474C10.0858 111.395 10.2059 113.316 10.366 115.277C14.2485 155.543 50.472 189.445 91.1384 190.846C112.552 191.607 131.044 183.161 143.132 169.152L136.848 176.437C124.72 190.446 106.228 198.851 84.8543 198.131C44.1879 196.73 7.92443 162.828 4.08194 122.562Z" fill="white"/>
</mask>
<g mask="url(#mask8_799_4802)">
<path d="M143.172 169.192L136.888 176.477C124.76 190.486 106.268 198.892 84.8942 198.171C44.1878 196.73 7.92428 162.828 4.08179 122.562C2.44073 103.71 8.20447 86.8189 18.9714 74.3708L25.2555 67.0861C14.4885 79.5342 8.7248 96.4251 10.3659 115.277C14.2484 155.543 50.4719 189.445 91.1382 190.846C112.552 191.607 131.044 183.201 143.172 169.192Z" fill="#004B85"/>
</g>
<path d="M77.2092 41.8696C119.797 43.7108 157.701 79.534 161.744 121.681C165.386 163.388 133.846 196.09 91.4984 194.609C48.7507 193.128 10.646 157.465 6.60338 115.157C2.921 73.0498 34.3414 40.3486 76.5687 41.8296C76.7689 41.8296 76.969 41.8696 77.2092 41.8696ZM91.1382 190.886C131.444 192.287 161.384 161.187 157.941 121.561C154.059 80.7748 118.716 47.3932 77.5294 45.592L76.8889 45.552C36.6629 44.1511 6.88357 75.2913 10.3658 115.277C14.2483 155.583 50.4718 189.445 91.1382 190.886Z" fill="#0064FA"/>
<path d="M77.5297 45.5922C118.716 47.3934 154.059 80.775 157.982 121.561C161.424 161.187 131.485 192.287 91.1785 190.886C50.4721 189.445 14.2487 155.584 10.3661 115.277C6.88389 75.2915 36.6632 44.1513 76.8893 45.5522L77.5297 45.5922Z" fill="#008DFA"/>
<mask id="mask9_799_4802" style="mask-type:luminance" maskUnits="userSpaceOnUse" x="-1" y="64" width="148" height="138">
<path d="M146.174 171.834L139.89 179.119C127.162 193.848 107.709 202.694 85.2144 201.934C42.4667 200.453 4.36198 164.789 0.27933 122.482C-1.44179 102.629 4.60213 84.8577 15.9295 71.8092L22.2135 64.5245C10.9262 77.613 4.84229 95.3445 6.5634 115.157C10.646 157.465 48.7508 193.128 91.4985 194.609C113.993 195.409 133.446 186.564 146.174 171.834Z" fill="white"/>
</mask>
<g mask="url(#mask9_799_4802)">
<path d="M146.174 171.834L139.89 179.119C127.162 193.848 107.709 202.694 85.2144 201.934C42.4667 200.453 4.36198 164.789 0.27933 122.482C-1.44179 102.629 4.60213 84.8577 15.9295 71.8092L22.2135 64.5245C10.9262 77.613 4.84229 95.3445 6.5634 115.157C10.646 157.465 48.7508 193.128 91.4985 194.609C113.993 195.409 133.446 186.564 146.174 171.834Z" fill="#003585"/>
</g>
<path fill-rule="evenodd" clip-rule="evenodd" d="M90.0978 108.953L88.0965 119.64L107.149 122.322L105.828 127.325L87.0958 124.643C85.775 129.006 85.0945 133.689 83.4134 137.692C81.7323 142.375 80.0512 147.058 78.0499 151.381C75.3682 157.064 70.6852 161.067 64.3611 162.067C60.6787 162.748 56.6761 162.388 53.6741 160.066C52.6735 159.386 51.6729 158.065 51.6729 157.064C51.6729 155.743 52.3533 154.062 53.3539 153.382C54.0344 153.062 55.6754 153.382 56.7161 153.702C57.7168 154.703 58.7174 156.024 59.3979 157.384C61.3992 160.066 64.0809 160.386 66.7626 158.385C69.7646 155.703 71.4457 152.021 72.4463 148.339C74.4476 140.333 76.4489 132.608 78.13 124.603V123.282L60.3985 120.601L61.0789 115.597L79.4509 118.279L81.7724 107.912L62.72 104.91L63.4005 99.547L83.1332 102.229C83.8137 100.227 84.1339 98.5463 84.8143 96.8652C86.4954 90.8613 88.1765 84.8174 92.1791 79.494C96.1817 74.1305 100.865 70.8083 107.909 71.1286C110.911 71.1286 113.913 72.1292 115.914 74.4907C116.235 74.8109 116.915 75.4914 116.915 76.1718C116.915 77.4927 116.915 79.1738 115.914 80.1744C114.594 81.1751 112.913 80.8549 111.552 79.494C110.551 78.4933 109.871 77.4927 108.87 76.492C106.869 73.8103 103.867 73.4901 101.505 75.8116C99.8241 77.4927 98.143 79.8142 97.1423 82.1757C94.8208 89.1803 93.1397 96.545 90.7782 103.91L109.15 106.592L107.829 111.595L90.0978 108.953Z" fill="white"/>
</g>
<defs>
<clipPath id="clip0_799_4802">
<rect width="162.025" height="160.184" fill="white" transform="translate(0 41.7896)"/>
</clipPath>
</defs>
</svg>
