<svg xmlns="http://www.w3.org/2000/svg" viewBox="0 0 56 14" fill="none">
    <path d="M16.7999 5.96929L20.7921 2.00429L19.2788 0.5L16.0479 3.71286L12.8171 0.5L11.3038 2.00429L15.2959 5.96929C15.5095 6.17357 15.7787 6.285 16.0572 6.285C16.3172 6.285 16.5957 6.18286 16.7999 5.96929ZM22.5746 10.2129L19.3438 7L22.5746 3.78714L21.0613 2.28286L17.0692 6.24786C16.6514 6.66571 16.6514 7.33429 17.0692 7.75214L21.0613 11.7171L22.5746 10.2129ZM16.0387 10.2871L19.2695 13.5L20.7828 11.9957L16.7907 8.03071C16.3729 7.61286 15.6952 7.61286 15.2774 8.03071L11.2853 11.9957L12.7985 13.5L16.0387 10.2871ZM15.0081 7.75214C15.2124 7.54786 15.3238 7.27857 15.3238 7C15.3238 6.72143 15.2124 6.44286 15.0081 6.24786L11.016 2.28286L9.50273 3.78714L12.7428 7L9.51202 10.2129L11.0253 11.7171L15.0081 7.75214ZM9.45631 12.98H6.09551L5.85413 11.4571H3.67239L3.40315 12.9707H0.0516357L2.93896 1.02H6.9125L9.45631 12.98ZM5.47348 8.89429L5.25995 7.50143C5.25067 7.49214 5.24138 7.42714 5.2321 7.28786C5.22282 7.17643 5.16711 6.72143 5.06499 5.94143C5.0557 5.85786 5.03714 5.73714 5.02785 5.57929C5.00928 5.43071 4.99072 5.23571 4.96286 5.00357L4.86074 3.87071C4.85146 3.98214 4.83289 4.10286 4.81432 4.23286C4.79575 4.36286 4.77718 4.51143 4.75862 4.67857C4.72148 4.99429 4.69363 5.21714 4.68434 5.34714C4.66578 5.46786 4.65649 5.54214 4.65649 5.57L4.43368 7.01857L4.10874 8.89429H5.47348ZM29.5097 12.98V10.1107H26.7245V8.28143H29.2219V5.57929H26.7245V3.83357H29.5097V1.02H23.4751V12.98H29.5097ZM35.8878 10.1014H33.4554V1.02H30.206V12.98H35.8878V10.1014ZM45.8588 12.98H42.5073L42.2659 11.4664H40.0749L39.8057 12.98H36.4541L39.3415 1.02H43.315L45.8588 12.98ZM41.8853 8.89429L41.6717 7.50143C41.6625 7.49214 41.6532 7.42714 41.6439 7.28786C41.6346 7.17643 41.5789 6.72143 41.4768 5.94143C41.4675 5.85786 41.4582 5.73714 41.4396 5.57929C41.4211 5.43071 41.4025 5.23571 41.3747 5.00357L41.2725 3.88C41.2632 3.99143 41.2447 4.11214 41.2261 4.24214C41.2075 4.37214 41.189 4.52071 41.1704 4.68786C41.1333 5.00357 41.1054 5.22643 41.0961 5.35643C41.0776 5.47714 41.0683 5.55143 41.0683 5.57929L40.8455 7.02786L40.5205 8.90357L41.8853 8.89429ZM55.1057 12.98H51.5963L49.9902 8.71786C49.9716 8.64357 49.9438 8.55071 49.9066 8.43C49.8695 8.30929 49.8231 8.17 49.7581 8.00286L49.7859 8.79214V12.9707H46.5551V1.02H49.8788C51.3457 1.02 52.4412 1.30786 53.1653 1.88357C54.0844 2.61714 54.5486 3.65714 54.5486 5.01286C54.5486 6.46143 53.9266 7.455 52.6918 8.01214L55.1057 12.98ZM51.3271 5.05C51.3271 4.15857 50.8536 3.71286 49.9159 3.71286H49.7952V6.56357H50.0088C50.3801 6.56357 50.6958 6.42429 50.9464 6.13643C51.2064 5.84857 51.3271 5.48643 51.3271 5.05Z" fill="#B9BDEA"/>
</svg>
