<svg width="53" height="53" viewBox="0 0 53 53" fill="none" xmlns="http://www.w3.org/2000/svg">
<path d="M48.5846 26.4896C48.5846 38.6859 38.6976 48.5729 26.5013 48.5729C14.305 48.5729 4.41797 38.6859 4.41797 26.4896C4.41797 14.2933 14.305 4.40625 26.5013 4.40625C38.6976 4.40625 48.5846 14.2933 48.5846 26.4896ZM12.1471 26.4896C12.1471 34.4172 18.5737 40.8437 26.5013 40.8437C34.4289 40.8437 40.8555 34.4172 40.8555 26.4896C40.8555 18.562 34.4289 12.1354 26.5013 12.1354C18.5737 12.1354 12.1471 18.562 12.1471 26.4896Z" fill="url(#paint0_angular_512_103759)"/>
<path d="M26.5013 4.42708C29.4013 4.42708 32.273 4.99829 34.9522 6.10808C37.6315 7.21787 40.0659 8.84452 42.1166 10.8951C44.1672 12.9458 45.7938 15.3802 46.9036 18.0595C48.0134 20.7388 48.5846 23.6104 48.5846 26.5104L40.8555 26.5104C40.8555 24.6254 40.4842 22.7588 39.7628 21.0173C39.0415 19.2758 37.9841 17.6934 36.6512 16.3605C35.3183 15.0276 33.7359 13.9703 31.9944 13.2489C30.2529 12.5275 28.3863 12.1563 26.5013 12.1563L26.5013 4.42708Z" fill="url(#paint1_angular_512_103759)"/>
<defs>
<radialGradient id="paint0_angular_512_103759" cx="0" cy="0" r="1" gradientUnits="userSpaceOnUse" gradientTransform="translate(26.5013 26.4896) scale(22.0833)">
<stop offset="0.9999" stop-color="#D3FF56"/>
<stop offset="1" stop-color="#00AFAA" stop-opacity="0.01"/>
</radialGradient>
<radialGradient id="paint1_angular_512_103759" cx="0" cy="0" r="1" gradientUnits="userSpaceOnUse" gradientTransform="translate(26.5013 26.5104) rotate(-90) scale(22.0833)">
<stop offset="0.9999" stop-color="#D3FF56"/>
<stop offset="1" stop-color="#00AFAA" stop-opacity="0.01"/>
</radialGradient>
</defs>
</svg>
