<svg width="32" height="32" viewBox="0 0 32 32" fill="none" xmlns="http://www.w3.org/2000/svg">
<path d="M1.23204 9.98748C1.22527 9.56843 1.30129 9.15229 1.45558 8.76378C1.60988 8.37527 1.8393 8.02235 2.1302 7.726C2.42109 7.42965 2.76752 7.1959 3.14888 7.03871C3.53024 6.88152 3.93873 6.80409 4.35006 6.81099C4.76144 6.80393 5.17 6.88128 5.55143 7.03841C5.93285 7.19555 6.27934 7.42926 6.57027 7.72565C6.8612 8.02203 7.09061 8.37501 7.24485 8.76359C7.39909 9.15217 7.47501 9.56839 7.46808 9.98748C7.47486 10.4065 7.39884 10.8226 7.24453 11.211C7.09022 11.5995 6.86078 11.9523 6.56987 12.2486C6.27896 12.5449 5.93252 12.7785 5.55117 12.9356C5.16981 13.0926 4.76134 13.1699 4.35006 13.1629C3.93882 13.1698 3.53042 13.0924 3.14914 12.9352C2.76785 12.7781 2.42147 12.5445 2.13059 12.2483C1.83971 11.952 1.61027 11.5992 1.45591 11.2108C1.30155 10.8225 1.22542 10.4064 1.23204 9.98748Z" fill="#5162FF"/>
<path d="M10.0709 24.2937V19.4601H10.6156C11.2388 23.0229 12.947 24.7632 15.821 24.7632C18.098 24.7632 19.5883 23.5745 19.5883 21.4757C19.5883 19.2115 17.8539 18.4102 15.1967 17.3613C12.7575 16.3946 10.2092 15.4557 10.2092 12.2559C10.2092 9.24584 12.4317 7.09155 16.1729 7.09155C18.4499 7.09155 19.779 7.7264 21.4862 8.19589V12.8907H20.9414C20.3717 9.77082 18.6634 8.19589 15.9528 8.19589C13.9471 8.19589 12.6997 9.21808 12.6997 11.0683C12.6997 12.6976 13.6486 13.4989 16.6305 14.6588C19.4772 15.7909 22.2422 16.8131 22.2422 20.3192C22.2422 23.7166 19.7213 25.8686 15.845 25.8686C12.7803 25.8675 11.3728 24.8176 10.0709 24.2937Z" fill="white"/>
</svg>
