<svg width="200" height="20" viewBox="0 0 200 20" fill="none" xmlns="http://www.w3.org/2000/svg">
<g clip-path="url(#clip0_909_15448)">
<path d="M-0.0011526 3.43054C-0.00822314 2.99327 0.0711016 2.55904 0.232106 2.15364C0.393111 1.74823 0.632506 1.37997 0.936049 1.07073C1.23959 0.761495 1.60109 0.517588 1.99902 0.353564C2.39696 0.18954 2.82322 0.108738 3.25243 0.115941C3.68169 0.108576 4.10802 0.189286 4.50603 0.353253C4.90404 0.51722 5.26559 0.761095 5.56917 1.07036C5.87274 1.37963 6.11213 1.74796 6.27308 2.15344C6.43403 2.55891 6.51325 2.99323 6.50602 3.43054C6.51309 3.86775 6.43376 4.30195 6.27274 4.70729C6.11173 5.11263 5.87231 5.48083 5.56875 5.78997C5.26519 6.09912 4.90369 6.34291 4.50576 6.5068C4.10782 6.6707 3.68159 6.75136 3.25243 6.744C2.82331 6.7512 2.39715 6.67041 1.99929 6.50646C1.60143 6.34251 1.23999 6.09873 0.936462 5.78962C0.632935 5.48051 0.39352 5.11236 0.232446 4.7071C0.0713726 4.30183 -0.00806909 3.86771 -0.0011526 3.43054V3.43054Z" fill="#5162FF"/>
<path d="M9.22192 18.359V13.3153H9.79033C10.4406 17.0329 12.2231 18.8489 15.2221 18.8489C17.598 18.8489 19.1532 17.6085 19.1532 15.4185C19.1532 13.0559 17.3434 12.2197 14.5707 11.1252C12.0253 10.1165 9.3663 9.1367 9.3663 5.79777C9.3663 2.65688 11.6854 0.408936 15.5893 0.408936C17.9652 0.408936 19.3521 1.07139 21.1335 1.56128V6.46024H20.5651C19.9706 3.2047 18.188 1.56128 15.3596 1.56128C13.2667 1.56128 11.9651 2.62792 11.9651 4.55855C11.9651 6.2587 12.9552 7.0949 16.0667 8.30516C19.0372 9.48647 21.9225 10.5531 21.9225 14.2117C21.9225 17.7568 19.2919 20.0024 15.2471 20.0024C12.0492 20.0013 10.5804 18.9057 9.22192 18.359Z" fill="white"/>
<path d="M31.0614 17.5517C32.504 17.5517 33.8046 17.1186 34.8516 16.3125L35.2188 16.7156C34.456 17.6954 32.7018 20.0012 29.7029 20.0012C26.139 20.0012 23.6209 17.2344 23.6209 13.3153C23.6209 9.68331 25.9969 6.45557 29.6745 6.45557C32.8712 6.45557 34.8232 8.81934 34.5401 12.3065H26.1947V12.4791C26.1947 15.5053 27.9204 17.5517 31.0614 17.5517ZM31.9709 11.153C32.0561 9.07876 31.2069 7.60907 29.5381 7.60907C27.9249 7.60907 26.6812 8.9919 26.3129 11.153H31.9709Z" fill="white"/>
<path d="M43.0549 6.45557C45.3467 6.45557 46.8178 7.34966 46.8178 8.87725C46.8181 9.12327 46.7707 9.36692 46.6784 9.59426C46.5862 9.82161 46.4508 10.0282 46.28 10.2021C46.1093 10.3761 45.9065 10.514 45.6833 10.608C45.4602 10.702 45.221 10.7503 44.9795 10.75C43.7904 10.75 43.1401 9.79913 43.1401 8.87725C43.1378 8.65315 43.1791 8.4308 43.2616 8.22307C43.3442 8.01533 43.4663 7.82632 43.621 7.66698C43.3716 7.60174 43.1144 7.57327 42.8571 7.58244C40.4811 7.58244 38.9532 9.80144 38.9532 12.5625C38.9532 15.6176 40.821 17.5425 43.8188 17.5425C45.2614 17.5425 46.5631 17.1093 47.6101 16.3033L47.9773 16.7063C47.2134 17.6861 45.4604 19.992 42.4615 19.992C38.8975 19.992 36.3795 17.2252 36.3795 13.306C36.3772 9.36715 39.1237 6.45557 43.0549 6.45557Z" fill="white"/>
<path d="M50.5522 15.6211V11.0383C50.5522 9.74122 49.8451 8.76143 48.5719 8.58887V8.00979C50.0681 7.65933 51.5344 7.18723 52.9566 6.59802L53.0976 6.68372V14.9552C53.0976 16.8858 53.9183 17.9525 55.361 17.9525C56.6115 17.9525 57.6244 17.1163 58.4725 15.7914V11.036C58.4725 9.7389 57.7653 8.75912 56.4921 8.58656V8.00749C57.9884 7.6572 59.4547 7.18508 60.8768 6.5957L61.0189 6.6814V15.4428C61.0189 16.7399 61.726 17.7197 62.9993 17.8923V18.4713C61.503 18.8216 60.0367 19.2937 58.6146 19.8831L58.4725 19.7974V17.3757H58.3315C57.3982 19.3075 55.7282 19.9989 54.2855 19.9989C52.079 20.0012 50.5522 18.1853 50.5522 15.6211Z" fill="white"/>
<path d="M64.4135 19.1361C65.6867 18.9635 66.3938 17.978 66.3938 16.6866V11.0384C66.3938 9.74123 65.6867 8.76144 64.4135 8.58887V8.0098C65.9097 7.65934 67.376 7.18724 68.7982 6.59803L68.9392 6.68373V16.6843C68.9392 17.9814 69.6474 18.9612 71.2026 19.1338V19.7129H64.4135V19.1361ZM70.2113 8.32945C70.2108 8.08324 70.2581 7.83937 70.3504 7.61182C70.4427 7.38426 70.5781 7.1775 70.749 7.00341C70.9199 6.82931 71.1229 6.69129 71.3462 6.59728C71.5696 6.50327 71.809 6.45512 72.0507 6.45558C72.2926 6.45466 72.5323 6.50249 72.756 6.5963C72.9797 6.69012 73.1829 6.82808 73.3541 7.00223C73.5253 7.17639 73.6609 7.38332 73.7533 7.61109C73.8457 7.83887 73.8929 8.083 73.8923 8.32945C73.8929 8.57555 73.8458 8.81936 73.7536 9.04684C73.6614 9.27433 73.5261 9.481 73.3552 9.65502C73.1844 9.82904 72.9815 9.96697 72.7582 10.0609C72.5349 10.1548 72.2956 10.2028 72.0541 10.2022C71.8122 10.2031 71.5726 10.1553 71.349 10.0616C71.1254 9.96782 70.9222 9.82996 70.751 9.65593C70.5799 9.48189 70.4442 9.27511 70.3517 9.04747C70.2593 8.81982 70.212 8.5758 70.2124 8.32945H70.2113Z" fill="white"/>
<path d="M82.3207 17.5517C83.7633 17.5517 85.0638 17.1186 86.1109 16.3125L86.4792 16.7156C85.7152 17.6954 83.9611 20.0012 80.9622 20.0012C77.3982 20.0012 74.8802 17.2344 74.8802 13.3153C74.8802 9.68331 77.2573 6.45557 80.9338 6.45557C84.1305 6.45557 86.0824 8.81934 85.7994 12.3065H77.4551V12.4791C77.4551 15.5053 79.1808 17.5517 82.3207 17.5517ZM83.2301 11.153C83.3154 9.07876 82.4662 7.60907 80.7973 7.60907C79.1853 7.60907 77.9405 8.9919 77.5722 11.153H83.2301Z" fill="white"/>
<path d="M87.9218 13.7205C87.9218 9.54189 90.7787 6.45775 94.3142 6.45775C95.3448 6.44283 96.3574 6.73333 97.229 7.29393V4.44141C97.229 3.14428 96.5207 2.1645 95.2486 1.99078V1.41171C96.7448 1.06036 98.211 0.587891 99.6334 -0.0012207L99.7743 0.0856401V15.4461C99.7743 16.7432 100.481 17.723 101.755 17.8956V18.4747C100.258 18.8251 98.7921 19.2972 97.3699 19.8864L97.229 19.8007V17.3791H97.0835C96.2877 19.1661 94.6507 20.0023 93.0387 20.0023C90.2978 20.0011 87.9218 17.5227 87.9218 13.7205ZM94.0322 17.957C95.1634 17.957 96.3514 17.3235 97.229 15.7959V8.49956C96.5776 7.92049 95.5317 7.60663 94.6257 7.60663C92.5612 7.60663 90.4387 9.39365 90.4387 13.0244C90.4387 16.1676 92.0235 17.9547 94.0322 17.9547V17.957Z" fill="white"/>
<path d="M110.524 16.1109V4.29786C110.524 2.85713 109.477 1.73258 107.978 1.56002V0.696045H122.405V6.45897H121.837C121.469 3.37599 120.337 1.84839 117.99 1.84839H113.353V9.80254L116.776 9.77358C118.699 9.77358 119.803 8.76484 119.944 6.89212H120.512V13.8086H119.944C119.803 11.9347 118.693 10.9259 116.776 10.9259L113.353 10.9549V15.826C113.353 17.5262 114.4 18.7654 116.181 18.8233V19.7163H107.978V18.8164C109.475 18.6751 110.524 17.5227 110.524 16.1109Z" fill="white"/>
<path d="M125.743 16.6866V11.0383C125.743 9.74121 125.036 8.76142 123.762 8.58886V8.00979C125.259 7.6595 126.725 7.18739 128.147 6.59801L128.289 6.68372V16.6843C128.289 17.9814 128.996 18.9612 130.27 19.1338V19.7128H123.762V19.1338C125.036 18.9635 125.743 17.9837 125.743 16.6866ZM126.847 0.692636C127.088 0.691873 127.328 0.739773 127.551 0.833587C127.775 0.927401 127.978 1.06529 128.149 1.23931C128.32 1.41332 128.456 1.62005 128.548 1.84761C128.64 2.07518 128.688 2.31909 128.687 2.56535C128.688 2.81146 128.64 3.05526 128.548 3.28274C128.456 3.51022 128.321 3.71691 128.15 3.89099C127.979 4.06507 127.776 4.20311 127.553 4.29719C127.33 4.39127 127.09 4.43955 126.849 4.43924C126.607 4.4397 126.368 4.39154 126.144 4.29753C125.921 4.20352 125.718 4.06551 125.547 3.89142C125.376 3.71732 125.241 3.51055 125.149 3.28299C125.056 3.05544 125.009 2.81156 125.01 2.56535C125.009 2.31939 125.056 2.07577 125.148 1.84843C125.241 1.62109 125.376 1.4145 125.547 1.24052C125.717 1.06655 125.92 0.928596 126.143 0.834577C126.366 0.740557 126.605 0.692331 126.847 0.692636V0.692636Z" fill="white"/>
<path d="M141.443 16.6864V11.4991C141.443 9.56847 140.623 8.50181 139.18 8.50181C137.935 8.50181 136.917 9.338 136.069 10.6629V16.6853C136.069 17.9824 136.776 18.9622 137.766 19.1347V19.7138H131.542V19.1347C132.815 18.9622 133.522 17.9766 133.522 16.6853V11.037C133.522 9.73987 132.815 8.76009 131.542 8.58753V8.00846C133.038 7.658 134.504 7.18588 135.926 6.59667L136.069 6.68237V9.0751H136.209C137.143 7.14448 138.812 6.4519 140.255 6.4519C142.461 6.4519 143.989 8.26787 143.989 10.8332V16.6829C143.989 18.1237 144.498 18.7294 145.969 19.1324V19.7115H139.746V19.1324C140.965 18.7329 141.443 18.1272 141.443 16.6864Z" fill="white"/>
<path d="M147.298 16.6009C147.298 14.727 148.6 13.5168 151.429 12.6516L154.427 11.7251V11.4367C154.427 9.41926 153.551 8.43947 151.796 8.43947C150.382 8.43947 149.25 9.04517 148.034 10.1408L147.666 9.73658C148.43 8.75679 150.269 6.45093 153.041 6.45093C155.417 6.45093 156.974 8.15225 156.974 10.8322V17.4892C156.974 18.1227 157.285 18.44 157.681 18.44C158.067 18.4258 158.441 18.2957 158.755 18.066L159.096 18.498C158.3 19.4245 157.456 19.9387 156.437 19.9387C155.447 19.9387 154.428 19.4198 154.428 17.7197V17.3722H154.287C153.491 19.1303 152.165 19.9954 150.638 19.9954C148.6 20.0012 147.298 18.5026 147.298 16.6009ZM151.537 17.8679C152.471 17.8679 153.603 17.2055 154.423 15.7937V12.7941L152.386 13.4565C150.378 14.1202 149.84 15.1 149.84 16.0508C149.845 17.1765 150.608 17.8679 151.537 17.8679Z" fill="white"/>
<path d="M170.128 16.6866V11.4993C170.128 9.56865 169.307 8.502 167.864 8.502C166.614 8.502 165.601 9.33818 164.753 10.6631V16.6855C164.753 17.9826 165.46 18.9624 166.45 19.1349V19.714H160.226V19.1349C161.499 18.9624 162.206 17.9768 162.206 16.6855V11.0372C162.206 9.74006 161.499 8.76028 160.226 8.58771V8.00864C161.722 7.65948 163.189 7.18853 164.611 6.60033L164.753 6.68604V9.07877H164.894C165.827 7.14814 167.497 6.45557 168.94 6.45557C171.146 6.45557 172.673 8.27153 172.673 10.8368V16.6866C172.673 18.1273 173.182 18.7331 174.653 19.1361V19.7152H168.43V19.1361C169.647 18.7331 170.128 18.1273 170.128 16.6866Z" fill="white"/>
<path d="M182.49 6.45557C184.781 6.45557 186.252 7.34966 186.252 8.87725C186.253 9.12336 186.205 9.36711 186.113 9.59453C186.021 9.82195 185.885 10.0286 185.714 10.2025C185.543 10.3765 185.34 10.5144 185.117 10.6084C184.894 10.7023 184.655 10.7504 184.413 10.75C183.225 10.75 182.575 9.79913 182.575 8.87725C182.572 8.65315 182.614 8.4308 182.696 8.22307C182.779 8.01533 182.901 7.82632 183.056 7.66698C182.806 7.60096 182.549 7.57171 182.292 7.58012C179.916 7.58012 178.388 9.79913 178.388 12.5601C178.388 15.6153 180.255 17.5402 183.253 17.5402C184.696 17.5402 185.998 17.107 187.045 16.301L187.412 16.704C186.648 17.6838 184.894 19.9896 181.896 19.9896C178.331 19.9896 175.814 17.2228 175.814 13.3037C175.814 9.36714 178.557 6.45557 182.49 6.45557Z" fill="white"/>
<path d="M195.841 17.5517C197.284 17.5517 198.586 17.1186 199.633 16.3125L200 16.7156C199.236 17.6954 197.482 20.0012 194.484 20.0012C190.919 20.0012 188.402 17.2344 188.402 13.3153C188.402 9.68331 190.778 6.45557 194.456 6.45557C197.652 6.45557 199.604 8.81934 199.321 12.3065H190.976V12.4791C190.976 15.5053 192.702 17.5517 195.841 17.5517ZM196.751 11.153C196.836 9.07876 195.988 7.60907 194.318 7.60907C192.706 7.60907 191.461 8.9919 191.094 11.153H196.751Z" fill="white"/>
</g>
<defs>
<clipPath id="clip0_909_15448">
<rect width="200" height="20" fill="white"/>
</clipPath>
</defs>
</svg>
