<svg width="24" height="24" viewBox="0 0 24 24" fill="none" xmlns="http://www.w3.org/2000/svg">
<path fill-rule="evenodd" clip-rule="evenodd" d="M3.6001 6.00002C3.6001 5.33728 4.13736 4.80002 4.8001 4.80002H19.2001C19.8628 4.80002 20.4001 5.33728 20.4001 6.00002C20.4001 6.66276 19.8628 7.20002 19.2001 7.20002H4.8001C4.13736 7.20002 3.6001 6.66276 3.6001 6.00002Z" fill="#B9BDEA"/>
<path fill-rule="evenodd" clip-rule="evenodd" d="M3.6001 12C3.6001 11.3373 4.13736 10.8 4.8001 10.8H19.2001C19.8628 10.8 20.4001 11.3373 20.4001 12C20.4001 12.6628 19.8628 13.2 19.2001 13.2H4.8001C4.13736 13.2 3.6001 12.6628 3.6001 12Z" fill="#B9BDEA"/>
<path fill-rule="evenodd" clip-rule="evenodd" d="M3.6001 18C3.6001 17.3373 4.13736 16.8 4.8001 16.8H19.2001C19.8628 16.8 20.4001 17.3373 20.4001 18C20.4001 18.6628 19.8628 19.2 19.2001 19.2H4.8001C4.13736 19.2 3.6001 18.6628 3.6001 18Z" fill="#B9BDEA"/>
</svg>
