<svg width="29" height="26" viewBox="0 0 29 26" fill="none" xmlns="http://www.w3.org/2000/svg">
<path d="M0.000566817 4.19232C-0.00866092 3.63934 0.0948656 3.0902 0.304992 2.57751C0.515119 2.06483 0.827553 1.59911 1.22371 1.20804C1.61986 0.816971 2.09164 0.50852 2.61099 0.30109C3.13034 0.0936597 3.68664 -0.00852481 4.24681 0.000584515C4.80704 -0.00872885 5.36343 0.0933386 5.88287 0.300696C6.40232 0.508054 6.87418 0.816465 7.27038 1.20758C7.66657 1.59869 7.979 2.06449 8.18905 2.57726C8.3991 3.09004 8.50249 3.63928 8.49305 4.19232C8.50229 4.74523 8.39875 5.29434 8.18861 5.80694C7.97847 6.31955 7.66601 6.78518 7.26983 7.17613C6.87366 7.56709 6.40186 7.87539 5.88252 8.08265C5.36318 8.28992 4.80691 8.39193 4.24681 8.38262C3.68677 8.39173 3.13059 8.28956 2.61134 8.08222C2.09209 7.87488 1.62038 7.5666 1.22425 7.17568C0.828112 6.78477 0.515653 6.31921 0.305436 5.80669C0.0952193 5.29418 -0.00845987 4.74518 0.000566817 4.19232V4.19232Z" fill="#5162FF"/>
<path d="M12.0397 23.0717V16.6933H12.7815C13.6302 21.3947 15.9565 23.6913 19.8704 23.6913C22.9713 23.6913 25.001 22.1226 25.001 19.353C25.001 16.3652 22.639 15.3077 19.0203 13.9237C15.6984 12.648 12.2281 11.4089 12.2281 7.1864C12.2281 3.21434 15.2548 0.371521 20.3497 0.371521C23.4505 0.371521 25.2606 1.20928 27.5855 1.82881V8.02418H26.8437C26.0677 3.90712 23.7413 1.82881 20.05 1.82881C17.3185 1.82881 15.6198 3.17772 15.6198 5.61924C15.6198 7.76931 16.912 8.82678 20.9728 10.3573C24.8496 11.8512 28.6152 13.2002 28.6152 17.8269C28.6152 22.3101 25.182 25.15 19.9031 25.15C15.7295 25.1486 13.8127 23.763 12.0397 23.0717Z" fill="white"/>
</svg>
