<svg viewBox="0 0 104 16" fill="none" xmlns="http://www.w3.org/2000/svg">
<g clip-path="url(#clip0_12654_9762)">
<mask id="mask0_12654_9762" style="mask-type:luminance" maskUnits="userSpaceOnUse" x="0" y="0" width="28" height="16">
<path d="M27.1635 0.5H0.81897V15.5H27.1635V0.5Z" fill="white"/>
</mask>
<g mask="url(#mask0_12654_9762)">
<path d="M6.16215 8.12054C5.58971 7.1033 5.05503 6.14752 4.29065 5.16623C3.85787 4.61068 3.44812 4.00254 3.39265 3.30071C3.33381 2.55744 4.27453 2.1974 4.43119 3.01806C4.58237 3.81003 4.5152 4.61281 4.86185 5.36794C5.02738 5.72833 5.33965 5.97397 5.72565 5.80307C6.39237 5.5075 5.75684 4.61299 5.56668 4.22745C5.25565 3.59752 5.21329 2.93713 5.14116 2.25708C5.08923 1.76812 4.89623 1.28376 4.54674 0.930989C4.12672 0.507022 3.58813 0.400588 3.02402 0.596987C2.13896 0.905133 0.44132 2.61747 2.69492 5.33713C3.14259 5.87727 3.70829 6.30584 4.23571 6.76859C5.1206 7.54516 5.8513 8.41771 6.21532 9.49799C6.59121 10.6133 6.66724 11.9394 5.92272 12.8513C4.98662 13.9982 3.94294 13.6206 3.38273 13.0803C2.61322 12.3381 2.88331 11.708 2.7098 10.7811C2.6157 10.2785 2.36581 9.81057 2.05017 9.4082C1.82616 9.12273 1.4515 8.86293 1.12311 9.01735C0.806404 9.16629 0.757313 9.61789 0.901574 9.93666C1.04584 10.2554 1.32089 10.4929 1.52842 10.7745C1.68686 10.9893 2.01278 11.5282 1.94065 12.2772C1.87614 12.9469 1.99771 13.6688 2.32434 14.2651C3.33381 16.1084 5.7781 15.9657 6.7073 13.0711C7.46582 10.7081 6.61638 8.9281 6.16215 8.1209V8.12054Z" fill="#B9BDEA"/>
<path d="M17.9516 2.82791C17.7524 2.64904 17.6566 2.3733 17.6595 2.10553C17.6621 1.83794 17.7548 1.57761 17.8835 1.34278C18.0434 1.05093 18.2679 0.78458 18.5644 0.63334C18.8609 0.4821 19.2361 0.462266 19.5202 0.635819C19.8043 0.809196 19.9586 1.19402 19.8229 1.49774C19.6894 1.79597 19.4137 1.82112 19.1953 2.01433C19.0013 2.18629 19.0509 2.25837 18.9972 2.48841C18.8815 2.9834 18.3531 3.18847 17.9517 2.82791H17.9516Z" fill="#B9BDEA"/>
<path d="M20.3982 3.2725C20.0074 3.10319 19.5771 3.42108 19.3245 3.76411C18.7764 4.50827 18.4878 5.38542 18.4898 6.31075C18.4923 7.5235 18.9896 8.64948 19.416 9.76128C19.8154 10.8031 19.8057 11.9282 19.3497 12.9584C19.1195 13.4785 18.6505 13.8465 18.4357 14.3714C18.2803 14.7513 18.357 15.2791 18.7349 15.44C19.1267 15.607 19.5608 15.2904 19.8055 14.9419C20.8577 13.4435 20.2075 10.6747 19.925 9.86701C18.6208 6.1379 20.3471 5.19275 20.6908 4.34286C20.8446 3.96228 20.7749 3.43578 20.3982 3.2725Z" fill="#B9BDEA"/>
<path d="M12.8909 3.39031C12.2557 0.632401 10.3493 0.332401 9.48851 0.601409C7.38839 1.2579 7.18653 3.47762 7.55799 4.93441C8.12689 7.16564 9.98385 7.0128 10.622 6.61469C11.1333 6.29574 11.2902 5.71275 11.5385 5.89409C11.8796 6.14326 11.1656 6.93152 11.0437 7.06239C9.67318 8.53104 8.2871 9.44821 7.87842 12.249C7.75773 13.0757 7.95852 14.0821 8.36136 14.8156C8.48524 15.0412 8.88187 15.7015 9.43516 15.4321C10.0788 15.1186 9.78926 14.3561 9.67495 14.1184C9.56064 13.8807 8.93911 12.9232 8.86627 12.1247C8.56446 8.81812 11.346 8.22786 12.3324 6.92089C13.3449 5.57957 13.0605 4.12774 12.8907 3.39031H12.8909ZM10.0012 3.07916C9.96294 3.14149 9.9337 3.1971 9.91208 3.25023C9.85271 3.39687 9.85235 3.52402 9.88656 3.71847C9.97836 4.23825 9.62426 4.72066 9.05519 4.53754C8.79077 4.45236 8.58342 4.23169 8.47265 3.97703C8.36189 3.72237 8.33938 3.43671 8.36171 3.15991C8.38936 2.81599 8.48914 2.46871 8.70588 2.20023C8.92263 1.93158 9.26946 1.75413 9.61186 1.79822C9.95426 1.84232 10.2635 2.14126 10.2635 2.48624C10.2635 2.72001 10.1166 2.89055 10.001 3.07898L10.0012 3.07916Z" fill="#B9BDEA"/>
<path d="M26.4264 9.09624C25.44 7.78945 22.7116 7.19919 23.0134 3.89246C23.0863 3.09411 23.6546 2.13638 23.7689 1.89872C23.8831 1.66106 24.1728 0.89866 23.5292 0.585024C22.9759 0.315661 22.5792 0.975874 22.4553 1.20149C22.0523 1.93502 21.8517 2.94146 21.9724 3.76814C22.3811 6.56908 23.7673 7.48609 25.1377 8.95474C25.2598 9.08561 25.9736 9.87387 25.6325 10.123C25.3842 10.3044 25.2273 9.7214 24.716 9.40245C24.0777 9.00433 22.2209 8.85149 21.652 11.0827C21.2805 12.5395 21.4824 14.7592 23.5825 15.4157C24.4431 15.6847 26.3497 15.3847 26.9849 12.6268C27.1547 11.8894 27.4391 10.4376 26.4266 9.09624H26.4264ZM24.3573 13.5307C24.3573 13.8757 24.0481 14.1746 23.7057 14.2187C23.3633 14.2628 23.0164 14.0854 22.7997 13.8167C22.583 13.5483 22.4832 13.2008 22.4555 12.8571C22.4332 12.5803 22.4557 12.2946 22.5665 12.0399C22.6772 11.7853 22.8846 11.5646 23.149 11.4794C23.7179 11.2963 24.072 11.7787 23.9804 12.2985C23.946 12.4928 23.9463 12.6201 24.0059 12.7667C24.0275 12.8199 24.0568 12.8755 24.095 12.9378C24.2106 13.1262 24.3577 13.2968 24.3575 13.5305L24.3573 13.5307Z" fill="#B9BDEA"/>
<path d="M16.3894 5.22903C16.3411 4.9115 16.3161 4.50967 16.3191 4.18487C16.3242 3.63234 16.0906 3.21244 15.6502 3.20058C15.0298 3.18411 14.913 3.70548 14.8981 3.92419C14.8667 4.38641 14.9901 4.7638 15.1896 5.18192C15.5506 5.93865 16.2844 6.96581 16.5931 7.75158C16.9748 8.72277 17.0487 9.66387 16.8665 10.673C16.619 12.0446 15.7853 13.7822 14.139 13.7326C13.8879 13.725 13.6127 13.6259 13.4184 13.4727C13.095 13.2175 12.8501 12.7655 12.7721 12.3598C12.6041 11.4853 13.0071 10.6177 13.1694 9.77491C13.2822 9.19013 13.1104 8.20689 12.3014 8.26356C11.7749 8.3004 11.4837 8.89562 11.402 9.41664C11.2535 10.3645 11.2738 11.327 11.3945 12.2778C11.5119 13.2029 11.9133 14.1263 12.5291 14.7816C13.2494 15.5479 14.491 15.6851 15.4135 15.1836C16.3368 14.6817 17.0693 13.6062 17.4062 12.3412C17.7075 11.2103 17.6848 9.89144 17.3571 8.76103C17.191 8.18777 17.0193 7.61628 16.8577 7.04178C16.6792 6.40796 16.4887 5.8818 16.3893 5.22903H16.3894Z" fill="#B9BDEA"/>
</g>
</g>
<g>
<path d="M64.9125 6.46929L68.9046 2.50429L67.3913 1L64.1605 4.21286L60.9297 1L59.4164 2.50429L63.4085 6.46929C63.622 6.67357 63.8913 6.785 64.1698 6.785C64.4297 6.785 64.7082 6.68286 64.9125 6.46929ZM70.6871 10.7129L67.4563 7.5L70.6871 4.28714L69.1738 2.78286L65.1817 6.74786C64.764 7.16571 64.764 7.83429 65.1817 8.25214L69.1738 12.2171L70.6871 10.7129ZM64.1512 10.7871L67.382 14L68.8953 12.4957L64.9032 8.53071C64.4854 8.11286 63.8077 8.11286 63.3899 8.53071L59.3978 12.4957L60.9111 14L64.1512 10.7871ZM63.1207 8.25214C63.3249 8.04786 63.4363 7.77857 63.4363 7.5C63.4363 7.22143 63.3249 6.94286 63.1207 6.74786L59.1286 2.78286L57.6153 4.28714L60.8554 7.5L57.6246 10.7129L59.1379 12.2171L63.1207 8.25214ZM57.5689 13.48H54.2081L53.9667 11.9571H51.7849L51.5157 13.4707H48.1642L51.0515 1.52H55.0251L57.5689 13.48ZM53.586 9.39429L53.3725 8.00143C53.3632 7.99214 53.3539 7.92714 53.3446 7.78786C53.3354 7.67643 53.2797 7.22143 53.1775 6.44143C53.1683 6.35786 53.1497 6.23714 53.1404 6.07929C53.1218 5.93071 53.1033 5.73571 53.0754 5.50357L52.9733 4.37071C52.964 4.48214 52.9454 4.60286 52.9269 4.73286C52.9083 4.86286 52.8897 5.01143 52.8712 5.17857C52.834 5.49429 52.8062 5.71714 52.7969 5.84714C52.7783 5.96786 52.769 6.04214 52.769 6.07L52.5462 7.51857L52.2213 9.39429H53.586ZM77.6223 13.48V10.6107H74.8371V8.78143H77.3345V6.07929H74.8371V4.33357H77.6223V1.52H71.5877V13.48H77.6223ZM84.0004 10.6014H81.568V1.52H78.3186V13.48H84.0004V10.6014ZM93.9714 13.48H90.6199L90.3785 11.9664H88.1875L87.9182 13.48H84.5667L87.454 1.52H91.4276L93.9714 13.48ZM89.9978 9.39429L89.7843 8.00143C89.775 7.99214 89.7657 7.92714 89.7564 7.78786C89.7472 7.67643 89.6915 7.22143 89.5893 6.44143C89.58 6.35786 89.5708 6.23714 89.5522 6.07929C89.5336 5.93071 89.5151 5.73571 89.4872 5.50357L89.3851 4.38C89.3758 4.49143 89.3572 4.61214 89.3387 4.74214C89.3201 4.87214 89.3015 5.02071 89.283 5.18786C89.2458 5.50357 89.218 5.72643 89.2087 5.85643C89.1901 5.97714 89.1808 6.05143 89.1808 6.07929L88.958 7.52786L88.6331 9.40357L89.9978 9.39429ZM103.218 13.48H99.7089L98.1027 9.21786C98.0842 9.14357 98.0563 9.05071 98.0192 8.93C97.9821 8.80929 97.9356 8.67 97.8706 8.50286L97.8985 9.29214V13.4707H94.6677V1.52H97.9913C99.4582 1.52 100.554 1.80786 101.278 2.38357C102.197 3.11714 102.661 4.15714 102.661 5.51286C102.661 6.96143 102.039 7.955 100.804 8.51214L103.218 13.48ZM99.4396 5.55C99.4396 4.65857 98.9662 4.21286 98.0285 4.21286H97.9078V7.06357H98.1213C98.4927 7.06357 98.8083 6.92429 99.059 6.63643C99.3189 6.34857 99.4396 5.98643 99.4396 5.55Z" fill="#B9BDEA"/>
<path d="M37.3241 10.9999V8.51595H34.7321V7.07595H37.3241V4.54395H38.8241V7.07595H41.4041V8.51595H38.8241V10.9999H37.3241Z" fill="#B9BDEA"/>
</g>
<defs>
<clipPath id="clip0_12654_9762">
<rect width="26.3445" height="15" fill="white" transform="translate(0.81897 0.5)"/>
</clipPath>
</defs>
</svg>
