<svg xmlns="http://www.w3.org/2000/svg" viewBox="0 0 28 16" fill="none">
  <g opacity="0.6" clip-path="url(#clip0_12057_176071)">
    <mask id="mask0_12057_176071" style="mask-type:luminance" maskUnits="userSpaceOnUse" x="0" y="0" width="28" height="16">
      <path d="M27.051 0.5H0.706421V15.5H27.051V0.5Z" fill="white"/>
    </mask>
    <g mask="url(#mask0_12057_176071)">
      <path d="M6.0496 8.12005C5.47717 7.10282 4.94248 6.14703 4.1781 5.16574C3.74532 4.61019 3.33558 4.00205 3.2801 3.30022C3.22127 2.55695 4.16198 2.19691 4.31864 3.01757C4.46982 3.80955 4.40265 4.61232 4.7493 5.36746C4.91483 5.72785 5.2271 5.97348 5.6131 5.80258C6.27982 5.50701 5.64429 4.6125 5.45413 4.22696C5.1431 3.59703 5.10074 2.93664 5.02861 2.25659C4.97668 1.76763 4.78368 1.28328 4.43419 0.930501C4.01417 0.506534 3.47558 0.4001 2.91148 0.596499C2.02641 0.904645 0.328772 2.61698 2.58237 5.33664C3.03004 5.87678 3.59574 6.30535 4.12316 6.76811C5.00805 7.54467 5.73875 8.41722 6.10277 9.4975C6.47867 10.6129 6.5547 11.9389 5.81017 12.8508C4.87407 13.9977 3.83039 13.6201 3.27018 13.0798C2.50067 12.3376 2.77076 11.7075 2.59726 10.7806C2.50315 10.278 2.25326 9.81008 1.93762 9.40772C1.71361 9.12224 1.33896 8.86244 1.01056 9.01687C0.693856 9.1658 0.644764 9.6174 0.789026 9.93617C0.933287 10.2549 1.20834 10.4924 1.41587 10.774C1.57431 10.9888 1.90023 11.5277 1.8281 12.2767C1.76359 12.9464 1.88516 13.6683 2.21179 14.2646C3.22127 16.108 5.66556 15.9652 6.59475 13.0706C7.35327 10.7076 6.50383 8.92761 6.0496 8.12041V8.12005Z" fill="#B9BDEA"/>
      <path d="M17.839 2.82791C17.6398 2.64904 17.5441 2.3733 17.5469 2.10553C17.5496 1.83794 17.6423 1.57761 17.7709 1.34278C17.9308 1.05093 18.1554 0.78458 18.4518 0.63334C18.7483 0.4821 19.1235 0.462266 19.4076 0.635819C19.6917 0.809196 19.8461 1.19402 19.7103 1.49774C19.5769 1.79597 19.3011 1.82112 19.0828 2.01433C18.8887 2.18629 18.9383 2.25837 18.8846 2.48841C18.7689 2.9834 18.2406 3.18847 17.8392 2.82791H17.839Z" fill="#B9BDEA"/>
      <path d="M20.2856 3.27152C19.8948 3.10222 19.4645 3.4201 19.212 3.76314C18.6638 4.50729 18.3753 5.38445 18.3772 6.30977C18.3797 7.52252 18.877 8.6485 19.3034 9.7603C19.7029 10.8022 19.6931 11.9272 19.2371 12.9574C19.0069 13.4775 18.538 13.8455 18.3232 14.3705C18.1678 14.7503 18.2445 15.2781 18.6223 15.4391C19.0142 15.6061 19.4482 15.2894 19.693 14.9409C20.7451 13.4425 20.0949 10.6738 19.8124 9.86603C18.5082 6.13693 20.2346 5.19177 20.5782 4.34189C20.732 3.96131 20.6624 3.4348 20.2856 3.27152Z" fill="#B9BDEA"/>
      <path d="M12.7783 3.38934C12.1432 0.631424 10.2367 0.331424 9.37596 0.600432C7.27584 1.25693 7.07398 3.47664 7.44545 4.93343C8.01434 7.16466 9.8713 7.01183 10.5095 6.61372C11.0208 6.29477 11.1776 5.71177 11.4259 5.89311C11.7671 6.14229 11.053 6.93054 10.9311 7.06141C9.56063 8.53007 8.17455 9.44724 7.76587 12.248C7.64518 13.0747 7.84597 14.0811 8.24881 14.8147C8.37269 15.0403 8.76932 15.7005 9.32262 15.4311C9.9663 15.1177 9.67671 14.3551 9.5624 14.1174C9.44809 13.8798 8.82656 12.9222 8.75372 12.1237C8.45191 8.81714 11.2335 8.22688 12.2199 6.91991C13.2324 5.57859 12.9479 4.12676 12.7782 3.38934H12.7783ZM9.88867 3.07818C9.85039 3.14052 9.82115 3.19613 9.79953 3.24925C9.74016 3.39589 9.7398 3.52304 9.77401 3.71749C9.86581 4.23727 9.51171 4.71968 8.94264 4.53656C8.67822 4.45138 8.47087 4.23072 8.3601 3.97605C8.24934 3.72139 8.22683 3.43574 8.24916 3.15894C8.27681 2.81502 8.37659 2.46773 8.59333 2.19925C8.81008 1.9306 9.15691 1.75315 9.49931 1.79725C9.84171 1.84134 10.151 2.14028 10.151 2.48526C10.151 2.71903 10.004 2.88957 9.88849 3.078L9.88867 3.07818Z" fill="#B9BDEA"/>
      <path d="M26.3139 9.09624C25.3275 7.78945 22.5991 7.19919 22.9009 3.89246C22.9737 3.09411 23.5421 2.13638 23.6564 1.89872C23.7705 1.66106 24.0603 0.89866 23.4166 0.585024C22.8633 0.315661 22.4667 0.975874 22.3428 1.20149C21.9398 1.93502 21.7392 2.94146 21.8599 3.76814C22.2685 6.56908 23.6548 7.48609 25.0251 8.95474C25.1472 9.08561 25.8611 9.87387 25.5199 10.123C25.2716 10.3044 25.1148 9.7214 24.6035 9.40245C23.9651 9.00433 22.1083 8.85149 21.5394 11.0827C21.168 12.5395 21.3698 14.7592 23.47 15.4157C24.3306 15.6847 26.2372 15.3847 26.8723 12.6268C27.0421 11.8894 27.3266 10.4376 26.3141 9.09624H26.3139ZM24.2448 13.5307C24.2448 13.8757 23.9355 14.1746 23.5931 14.2187C23.2507 14.2628 22.9039 14.0854 22.6872 13.8167C22.4704 13.5483 22.3706 13.2008 22.343 12.8571C22.3206 12.5803 22.3432 12.2946 22.4539 12.0399C22.5647 11.7853 22.772 11.5646 23.0365 11.4794C23.6054 11.2963 23.9595 11.7787 23.8678 12.2985C23.8334 12.4928 23.8338 12.6201 23.8933 12.7667C23.915 12.8199 23.9442 12.8755 23.9825 12.9378C24.098 13.1262 24.2451 13.2968 24.245 13.5305L24.2448 13.5307Z" fill="#B9BDEA"/>
      <path d="M16.2769 5.22854C16.2285 4.91101 16.2035 4.50918 16.2065 4.18439C16.2117 3.63185 15.9781 3.21195 15.5377 3.20009C14.9172 3.18362 14.8004 3.70499 14.7855 3.9237C14.7542 4.38592 14.8775 4.76331 15.0771 5.18143C15.4381 5.93816 16.1718 6.96532 16.4805 7.75109C16.8623 8.72229 16.9362 9.66338 16.754 10.6725C16.5064 12.0441 15.6727 13.7817 14.0265 13.7322C13.7754 13.7245 13.5001 13.6254 13.3059 13.4722C12.9825 13.217 12.7375 12.765 12.6596 12.3593C12.4915 11.4848 12.8946 10.6172 13.0569 9.77442C13.1696 9.18964 12.9979 8.20641 12.1888 8.26308C11.6623 8.29991 11.3711 8.89513 11.2894 9.41615C11.1409 10.364 11.1613 11.3265 11.282 12.2773C11.3993 13.2025 11.8007 14.1258 12.4166 14.7811C13.1368 15.5474 14.3785 15.6846 15.3009 15.1831C16.2243 14.6812 16.9567 13.6057 17.2936 12.3407C17.5949 11.2098 17.5722 9.89095 17.2445 8.76054C17.0785 8.18728 16.9068 7.61579 16.7451 7.04129C16.5667 6.40747 16.3761 5.88132 16.2767 5.22854H16.2769Z" fill="#B9BDEA"/>
    </g>
  </g>
  <defs>
    <clipPath id="clip0_12057_176071">
      <rect width="26.3445" height="15" fill="white" transform="translate(0.706421 0.5)"/>
    </clipPath>
  </defs>
</svg>
