<svg width="33" height="33" viewBox="0 0 33 33" fill="none" xmlns="http://www.w3.org/2000/svg">
<path fill-rule="evenodd" clip-rule="evenodd" d="M16.5 0C25.6137 0 33 7.38633 33 16.5C33 25.6137 25.6137 33 16.5 33C7.38633 33 0 25.6137 0 16.5C0 7.38633 7.38633 0 16.5 0Z" fill="url(#paint0_radial_3257_56658)"/>
<path d="M10.4858 12.7401C13.8052 9.4981 19.1935 9.4981 22.5128 12.7401L22.9124 13.1333C23.08 13.2944 23.08 13.5586 22.9124 13.7198L21.546 15.054C21.4622 15.1377 21.3269 15.1377 21.2431 15.054L20.6952 14.519C18.3749 12.2567 14.6237 12.2567 12.3034 14.519L11.7169 15.0926C11.6331 15.1764 11.4978 15.1764 11.414 15.0926L10.0476 13.7584C9.87998 13.5973 9.87998 13.3331 10.0476 13.1719L10.4858 12.7401ZM25.3423 15.4987L26.5604 16.6846C26.728 16.8458 26.728 17.11 26.5604 17.2711L21.0755 22.6272C20.9079 22.7883 20.6372 22.7883 20.4761 22.6272L16.5831 18.8245C16.5444 18.7858 16.4735 18.7858 16.4349 18.8245L12.5419 22.6272C12.3743 22.7883 12.1036 22.7883 11.9425 22.6272L6.43818 17.2711C6.27061 17.11 6.27061 16.8458 6.43818 16.6846L7.65635 15.4987C7.82393 15.3375 8.09463 15.3375 8.25576 15.4987L12.1487 19.3014C12.1874 19.3401 12.2583 19.3401 12.297 19.3014L16.1899 15.4987C16.3575 15.3375 16.6282 15.3375 16.7894 15.4987L20.6823 19.3014C20.721 19.3401 20.7919 19.3401 20.8306 19.3014L24.7235 15.4987C24.904 15.3375 25.1747 15.3375 25.3423 15.4987Z" fill="white"/>
<defs>
<radialGradient id="paint0_radial_3257_56658" cx="0" cy="0" r="1" gradientUnits="userSpaceOnUse" gradientTransform="translate(0.000102282 16.5005) scale(33)">
<stop stop-color="#5D9DF6"/>
<stop offset="1" stop-color="#006FFF"/>
</radialGradient>
</defs>
</svg>
