<svg width="1008" height="813" viewBox="0 0 1008 813" fill="none" xmlns="http://www.w3.org/2000/svg">
<path d="M40 42C40 40.8954 40.8954 40 42 40H966C967.105 40 968 40.8954 968 42V771C968 772.105 967.105 773 966 773H42C40.8954 773 40 772.105 40 771V42Z" fill="#444444"/>
<path d="M42 41H966V39H42V41ZM967 42V771H969V42H967ZM966 772H42V774H966V772ZM41 771V42H39V771H41ZM42 772C41.4477 772 41 771.552 41 771H39C39 772.657 40.3432 774 42 774V772ZM967 771C967 771.552 966.552 772 966 772V774C967.657 774 969 772.657 969 771H967ZM966 41C966.552 41 967 41.4477 967 42H969C969 40.3431 967.657 39 966 39V41ZM42 39C40.3431 39 39 40.3432 39 42H41C41 41.4477 41.4477 41 42 41V39Z" fill="white" fill-opacity="0.1"/>
<g opacity="0.3">
<path d="M798.745 568.42L772.066 537.916L693.235 556.924L711.8 589.502L798.745 568.42Z" fill="#02081F"/>
<path d="M672.645 526.739L691.592 554.269L769.606 535.465L742.399 510.003L672.645 526.739Z" fill="#02081F"/>
<path d="M498.076 354.932L475.193 355.926L477.279 390.827L497.885 389.927L498.076 354.932Z" fill="#02081F"/>
<path d="M474.964 353.027L498.091 352.022L498.152 314.466L471.328 315.627L474.964 353.027Z" fill="#02081F"/>
<path d="M585.181 442.297L569.465 436.836L571.016 463.169L587.297 468.851L585.181 442.297Z" fill="#02081F"/>
<path d="M606.328 453.299L607.574 466.149L616.627 464L616.207 460.201L606.328 453.299Z" fill="#02081F"/>
<path d="M571.986 402.887L569.411 433.624L585.333 439.154L588.573 408.621L571.986 402.887Z" fill="#02081F"/>
<path d="M654.499 423.219L642.512 449.756L643.521 454.374L645.331 453.439L656.18 430.789L654.499 423.219Z" fill="#02081F"/>
<path d="M654.538 444.231L654.797 442.152L650.725 450.656L651.581 450.215L654.538 444.231Z" fill="#02081F"/>
<path d="M549.7 397.456L547.836 428.459L565.668 432.601L568.258 401.749L549.7 397.456Z" fill="#02081F"/>
<path d="M547.836 431.498L548.775 457.848L567.127 462.129L565.568 435.616L547.836 431.498Z" fill="#02081F"/>
<path d="M609.797 419.432L606.061 449.169L616.559 456.5L620.761 427.053L609.797 419.432Z" fill="#02081F"/>
<path d="M189.468 607.057L116.994 580.799V626.134L167.327 644.491L189.468 607.057Z" fill="#02081F"/>
<path d="M215.536 569.878L136.186 541.314L116.994 560.903V577.587L191.149 604.454L215.536 569.878Z" fill="#02081F"/>
<path d="M116.994 629.353V675.251L146.767 686.184L165.868 647.181L116.994 629.353Z" fill="#02081F"/>
<path d="M116.994 689.455H145.331L145.53 688.955L116.994 678.475V689.455Z" fill="#02081F"/>
<path d="M116.994 531.648V556.041L132.862 539.839L116.994 531.648Z" fill="#02081F"/>
<path d="M497.862 392.837L477.386 393.732L477.867 424.921L497.556 424.05L497.862 392.837Z" fill="#02081F"/>
<path d="M168.419 509.741L116.994 483.374V528.139L135.292 537.579L168.419 509.741Z" fill="#02081F"/>
<path d="M169.42 648.244L150.312 687.264L159.29 689.454H268.918L274.021 673.59L169.42 648.244Z" fill="#02081F"/>
<path d="M476.744 454.211L497.113 453.311L497.518 426.966L477.837 427.826L476.744 454.211Z" fill="#02081F"/>
<path d="M496.563 476.809L497.052 456.227L476.523 457.133L474.208 475.955L496.563 476.809Z" fill="#02081F"/>
<path d="M726.958 629.439L709.485 592.929L614.947 606.023L624.099 643.771L726.958 629.439Z" fill="#02081F"/>
<path d="M272.852 689.454H386.698L277.727 674.292L272.852 689.454Z" fill="#02081F"/>
<path d="M401.871 646.989L394.353 687.386L439.888 689.454H509.964L509.627 651.863L401.871 646.989Z" fill="#02081F"/>
<path d="M711.869 379.197L683.891 402.26L682.5 413.448L710.242 392.744L711.869 379.197Z" fill="#02081F"/>
<path d="M707.377 398.954L681.752 418.078L677.221 427.437L701.845 410.456L707.377 398.954Z" fill="#02081F"/>
<path d="M708.897 360.178L680.56 386.482L683.272 398.484L712.236 374.608L708.897 360.178Z" fill="#02081F"/>
<path d="M669.512 438.776L687.237 427.175L693.296 420.274L674.196 433.449L669.512 438.776Z" fill="#02081F"/>
<path d="M681.301 440.653L669.039 444.725L657.991 450.424L657.693 450.575L668.091 447.467L681.301 440.653Z" fill="#02081F"/>
<path d="M671.888 371.216L679.017 383.334L707.828 356.588L699.217 342.106L671.888 371.216Z" fill="#02081F"/>
<path d="M727.921 431.3L700.21 434.408L675.708 447.049L699.21 446.142L727.921 431.3Z" fill="#02081F"/>
<path d="M689.805 429.342L676.9 438.945L698.415 431.799L713.909 420.245L689.805 429.342Z" fill="#02081F"/>
<path d="M716.751 292.687L685.641 322.778L699.752 336.959L733.743 309.603L716.751 292.687Z" fill="#02081F"/>
<path d="M204.909 484.797L151.107 457.377L116.994 473.933V479.87L171.147 507.638L204.909 484.797Z" fill="#02081F"/>
<path d="M607.215 284.188L634.207 293.355L657.059 258.616L624.871 247.753L607.215 284.188Z" fill="#02081F"/>
<path d="M660.428 259.987L637.584 294.726L660.925 305.967L688.33 273.331L660.428 259.987Z" fill="#02081F"/>
<path d="M663.989 307.709L682.99 320.646L714.161 290.491L691.378 275.096L663.989 307.709Z" fill="#02081F"/>
<path d="M602.432 285.937L573.002 279.25L563.154 317.208L587.962 322.877L602.432 285.937Z" fill="#02081F"/>
<path d="M639.785 344.029L655.416 354.752L680.774 323.04L662.094 310.318L639.785 344.029Z" fill="#02081F"/>
<path d="M632.649 296.004L606.015 286.965L591.552 323.882L613.961 331.539L632.649 296.004Z" fill="#02081F"/>
<path d="M697.215 339.23L683.402 325.346L658.151 356.919L669.658 368.59L697.215 339.23Z" fill="#02081F"/>
<path d="M669.589 374.416L649.61 404.264L655.347 414.116L676.396 385.994L669.589 374.416Z" fill="#02081F"/>
<path d="M672.622 428.529L658.129 445.219L657.319 446.892L671.025 431.823L672.622 428.529Z" fill="#02081F"/>
<path d="M659.023 308.494L636.018 297.41L617.353 332.91L636.668 342.274L659.023 308.494Z" fill="#02081F"/>
<path d="M532.991 313.06L559.426 316.545L569.282 278.582L537.949 274.475L532.991 313.06Z" fill="#02081F"/>
<path d="M618.53 378.704L635.094 344.958L616.1 335.745L602.241 370.751L618.53 378.704Z" fill="#02081F"/>
<path d="M680.04 401.342L677.55 390.316L657.128 417.608L659.183 426.891L680.04 401.342Z" fill="#02081F"/>
<path d="M667.457 371.192L656.272 359.858L637.684 391.762L647.188 401.47L667.457 371.192Z" fill="#02081F"/>
<path d="M633.329 392.419L620.593 383.618L610.385 415.906L621.762 423.818L633.329 392.419Z" fill="#02081F"/>
<path d="M653.544 357.378L638.234 346.869L621.731 380.481L634.811 389.52L653.544 357.378Z" fill="#02081F"/>
<path d="M583.905 470.861L571.742 466.62L573.193 472.319L583.905 470.861Z" fill="#02081F"/>
<path d="M851.706 317.777L881.006 313.147V281.876L844.907 290.845L851.706 317.777Z" fill="#02081F"/>
<path d="M827.617 262.078L843.722 288.086L881.006 278.82V257.936L873.504 245.993L827.617 262.078Z" fill="#02081F"/>
<path d="M849.239 347.77L881.006 345.463V316.115L851.989 320.699L849.239 347.77Z" fill="#02081F"/>
<path d="M836.25 377.181L881.006 377.751V348.385L848.551 350.738L836.25 377.181Z" fill="#02081F"/>
<path d="M881.006 251.192V244.035L877.094 244.959L881.006 251.192Z" fill="#02081F"/>
<path d="M812.963 405.1L856.887 409.661L881.006 381.486V380.655L834.577 380.063L812.963 405.1Z" fill="#02081F"/>
<path d="M875.108 242.391L881.006 240.997V201.918L845.9 214.129L875.108 242.391Z" fill="#02081F"/>
<path d="M878.508 109.727L854.846 113.142L881.006 125.237V110.877L878.508 109.727Z" fill="#02081F"/>
<path d="M881.006 414.906V386.813L860.829 410.387L881.006 414.906Z" fill="#02081F"/>
<path d="M866.276 108.536H842.576L849.827 110.906L866.276 108.536Z" fill="#02081F"/>
<path d="M822.078 123.343L881.006 150.693V128.635L849.468 114.054L822.078 123.343Z" fill="#02081F"/>
<path d="M804.689 186.419L843.226 211.869L881.006 198.723V194.256L841.606 168.405L804.689 186.419Z" fill="#02081F"/>
<path d="M881.006 190.416V154.515L845.273 166.976L881.006 190.416Z" fill="#02081F"/>
<path d="M513.447 651.863L513.784 689.454H583.76L629.157 687.386L620.944 646.989L513.447 651.863Z" fill="#02081F"/>
<path d="M116.994 432.682V470.489L148.066 455.414L116.994 432.682Z" fill="#02081F"/>
<path d="M636.797 689.454H750.001L744.981 674.292L636.797 689.454Z" fill="#02081F"/>
<path d="M876.315 689.454H881.006V687.113L876.117 688.943L876.315 689.454Z" fill="#02081F"/>
<path d="M874.864 686.172L881.006 683.877V637.671L855.465 647.163L874.864 686.172Z" fill="#02081F"/>
<path d="M844.846 112.439L832.919 108.536H778.308L817.968 121.554L844.846 112.439Z" fill="#02081F"/>
<path d="M573.812 276.404L603.632 283.177L621.288 246.754L585.784 238.737L573.812 276.404Z" fill="#02081F"/>
<path d="M829.565 604.449L881.006 585.453V541.75L804.391 569.861L829.565 604.449Z" fill="#02081F"/>
<path d="M811.466 484.762L846.267 507.639L881.006 489.334V465.586L863.763 457.383L811.466 484.762Z" fill="#02081F"/>
<path d="M853.983 644.485L881.006 634.436V588.682L831.292 607.045L853.983 644.485Z" fill="#02081F"/>
<path d="M881.006 462.158V444.539L866.757 455.379L881.006 462.158Z" fill="#02081F"/>
<path d="M881.006 535.918V492.866L849.04 509.712L881.006 535.918Z" fill="#02081F"/>
<path d="M822.575 439.915L863.296 453.909L881.006 440.432V417.933L858.376 412.862L822.575 439.915Z" fill="#02081F"/>
<path d="M748.687 673.584L753.936 689.455H862.494L871.326 687.27L851.92 648.25L748.687 673.584Z" fill="#02081F"/>
<path d="M116.994 242.763V261.428L126.452 244.982L116.994 242.763Z" fill="#02081F"/>
<path d="M176.174 262.101L130.035 246.01L116.994 268.677V277.025L161.459 288.074L176.174 262.101Z" fill="#02081F"/>
<path d="M146.462 114.048L116.994 128.02V150.995L175.028 123.384L146.462 114.048Z" fill="#02081F"/>
<path d="M160.39 290.863L116.994 280.081V311.735L155.011 317.759L160.39 290.863Z" fill="#02081F"/>
<path d="M117.368 154.399L116.994 154.655V192.409L154.377 167.011L117.368 154.399Z" fill="#02081F"/>
<path d="M195.771 186.449L158.044 168.411L116.994 196.307V197.573L158.625 211.864L195.771 186.449Z" fill="#02081F"/>
<path d="M156.027 214.158L116.994 200.757V239.725L128.339 242.379L156.027 214.158Z" fill="#02081F"/>
<path d="M191.21 439.944L153.934 412.862L116.994 421.279V428.651L151.519 453.909L191.21 439.944Z" fill="#02081F"/>
<path d="M784.756 138.453L814.018 123.425L768.674 108.536H736.249L723.528 118.272L784.756 138.453Z" fill="#02081F"/>
<path d="M173.546 377.181L159.855 350.738L116.994 347.601V358.778L126.704 377.786L173.546 377.181Z" fill="#02081F"/>
<path d="M154.858 320.704L116.994 314.704V344.685L159.03 347.764L154.858 320.704Z" fill="#02081F"/>
<path d="M116.994 366.801V378.843L122.77 378.117L116.994 366.801Z" fill="#02081F"/>
<path d="M124.519 380.841L116.994 381.788V418.247L151.389 410.41L124.519 380.841Z" fill="#02081F"/>
<path d="M564.675 120.119L568.143 108.536H500.123L500.322 117.424L564.675 120.119Z" fill="#02081F"/>
<path d="M496.502 117.424L496.303 108.536H428.321L432.309 120.125L496.502 117.424Z" fill="#02081F"/>
<path d="M428.482 120.474L424.371 108.536H352.722L366.368 128.484L428.482 120.474Z" fill="#02081F"/>
<path d="M643.826 108.536H572.063L568.487 120.462L631.075 128.479L643.826 108.536Z" fill="#02081F"/>
<path d="M116.994 109.843V124.592L141.091 113.171L116.994 109.843Z" fill="#02081F"/>
<path d="M693.846 142.27L716.98 119.556L667.09 108.536H648.074L634.88 129.182L693.846 142.27Z" fill="#02081F"/>
<path d="M730.863 108.536H680.781L719.647 117.122L730.863 108.536Z" fill="#02081F"/>
<path d="M179.123 121.56L218.111 108.536H162.72L151.099 112.405L179.123 121.56Z" fill="#02081F"/>
<path d="M153.193 108.536H128.897L146.072 110.912L153.193 108.536Z" fill="#02081F"/>
<path d="M315.851 108.536H265.648L277.421 117.127L315.851 108.536Z" fill="#02081F"/>
<path d="M213.45 138.453L273.517 118.307L260.139 108.536H227.607L183.134 123.396L213.45 138.453Z" fill="#02081F"/>
<path d="M304.337 142.27L362.547 129.199L348.413 108.536H329.397L280.179 119.538L304.337 142.27Z" fill="#02081F"/>
<path d="M678.253 416.771L679.383 407.656L660 431.404L659.053 438.887L678.253 416.771Z" fill="#02081F"/>
<path d="M181.43 260.969L224.819 281.533L244.599 260.963L204.802 236.918L181.43 260.969Z" fill="#02081F"/>
<path d="M241.986 211.3L276.963 238.365L309.991 222.274L280.699 192.571L241.986 211.3Z" fill="#02081F"/>
<path d="M263.577 392.518L254.218 374.834L214.39 361.642L225.438 382.718L263.577 392.518Z" fill="#02081F"/>
<path d="M247.143 258.784L273.937 240.172L238.892 213.054L207.384 234.769L247.143 258.784Z" fill="#02081F"/>
<path d="M255.211 328.297L265.197 310.143L226.072 285.832L214.039 307.39L255.211 328.297Z" fill="#02081F"/>
<path d="M253.378 371.39L250.306 352.969L209.126 335.948L212.656 357.901L253.378 371.39Z" fill="#02081F"/>
<path d="M208.859 332.532L250.574 349.774L254.019 331.185L213.114 310.411L208.859 332.532Z" fill="#02081F"/>
<path d="M441.623 319.403L448.85 356.332L471.167 353.352L467.53 315.964L441.623 319.403Z" fill="#02081F"/>
<path d="M402.673 199.2L416.899 235.257L454.84 230.285L447.467 193.361L402.673 199.2Z" fill="#02081F"/>
<path d="M417.908 238.075L430.208 275.742L461.701 271.588L455.36 233.166L417.908 238.075Z" fill="#02081F"/>
<path d="M431.034 278.582L440.973 316.54L467.202 313.06L462.129 274.481L431.034 278.582Z" fill="#02081F"/>
<path d="M332.552 175.033L355.282 206.734L397.753 197.091L382.106 163.845L332.552 175.033Z" fill="#02081F"/>
<path d="M284 191.185L313.239 220.83L351.554 207.759L328.786 176L284 191.185Z" fill="#02081F"/>
<path d="M385.857 163.206L401.481 196.405L446.841 190.497L438.712 156.351L385.857 163.206Z" fill="#02081F"/>
<path d="M202.189 186.39L239.106 209.255L278.216 190.329L247.311 164.699L202.189 186.39Z" fill="#02081F"/>
<path d="M567.501 465.255L549.18 460.979L551.61 475.252L569.434 472.83L567.501 465.255Z" fill="#02081F"/>
<path d="M202.67 404.804L241.971 405.919L222.894 385.227L180.422 380.516L202.67 404.804Z" fill="#02081F"/>
<path d="M538.362 271.582L570.091 275.742L582.063 238.081L544.329 233.166L538.362 271.582Z" fill="#02081F"/>
<path d="M550.112 478.343L508.489 480.184L508.779 481.677L553.199 479.708L550.112 478.343Z" fill="#02081F"/>
<path d="M645.515 500.76L628.386 485.86L572.345 493.499L581.429 509.515L645.515 500.76Z" fill="#02081F"/>
<path d="M624.336 483.461L609.851 475.525L562.833 481.921L570.535 490.792L624.336 483.461Z" fill="#02081F"/>
<path d="M600.713 473.817L593.302 472.534L556.034 477.599L559.991 479.354L600.713 473.817Z" fill="#02081F"/>
<path d="M244.721 464.058L275.87 453.032L236.134 432.973L199.064 440.908L244.721 464.058Z" fill="#02081F"/>
<path d="M274.143 506.569L299.677 486.859L244.729 467.381L211.869 484.402L274.143 506.569Z" fill="#02081F"/>
<path d="M416.135 569.384L330.444 557.661L313.001 590.169L407.548 603.17L416.135 569.384Z" fill="#02081F"/>
<path d="M271.149 427.762L244.951 408.911L206.62 407.825L237.15 429.894L271.149 427.762Z" fill="#02081F"/>
<path d="M328.266 554.263L345.953 526.756L275.251 510.009L249.199 535.441L328.266 554.263Z" fill="#02081F"/>
<path d="M221.129 568.408L309.235 589.496L326.708 556.935L246.822 537.922L221.129 568.408Z" fill="#02081F"/>
<path d="M413.744 325.683L424.325 361.834L445.122 357L437.902 320.094L413.744 325.683Z" fill="#02081F"/>
<path d="M279.492 240.578L311.274 270.949L338.779 257.454L312.153 224.673L279.492 240.578Z" fill="#02081F"/>
<path d="M356.993 209.377L377.69 244.041L413.179 235.937L398.945 199.85L356.993 209.377Z" fill="#02081F"/>
<path d="M315.522 223.302L342.133 256.054L374.107 245.075L353.394 210.382L315.522 223.302Z" fill="#02081F"/>
<path d="M249.985 260.742L286.032 288.301L308.257 272.726L276.466 242.344L249.985 260.742Z" fill="#02081F"/>
<path d="M227.921 283.224L267.153 307.605L283.472 290.462L247.449 262.921L227.921 283.224Z" fill="#02081F"/>
<path d="M291.815 390.415L289.309 375.845L254.554 355.345L257.48 372.906L291.815 390.415Z" fill="#02081F"/>
<path d="M293.649 354.351L301.701 339.515L268.138 312.333L258.359 330.098L293.649 354.351Z" fill="#02081F"/>
<path d="M254.126 351.418L289.653 372.372L292.35 357.378L257.465 333.398L254.126 351.418Z" fill="#02081F"/>
<path d="M431.782 401.749L433.738 432.59L451.303 428.459L450.057 397.473L431.782 401.749Z" fill="#02081F"/>
<path d="M425.036 364.709L431.377 398.804L449.843 394.487L445.565 359.928L425.036 364.709Z" fill="#02081F"/>
<path d="M451.211 431.521L433.769 435.622L431.408 462.106L449.469 457.842L451.211 431.521Z" fill="#02081F"/>
<path d="M379.142 246.742L397.058 283.177L426.488 276.415L414.187 238.737L379.142 246.742Z" fill="#02081F"/>
<path d="M666.724 524.834L648.265 503.334L582.766 512.286L592.53 535.011L666.724 524.834Z" fill="#02081F"/>
<path d="M398.273 285.931L412.774 322.871L437.253 317.207L427.32 279.256L398.273 285.931Z" fill="#02081F"/>
<path d="M280.141 451.702L307.806 446.909L275.06 430.428L242.101 432.497L280.141 451.702Z" fill="#02081F"/>
<path d="M412.605 473.742L454.076 479.342L457.102 477.692L418.901 472.539L412.605 473.742Z" fill="#02081F"/>
<path d="M507.771 541.68L429.383 538.189L420.75 566.869L508.436 570.79L507.771 541.68Z" fill="#02081F"/>
<path d="M449.37 491.076L505.983 493.58L505.334 484.576L455.627 482.38L449.37 491.076Z" fill="#02081F"/>
<path d="M450.034 473.788L462.129 475.421L470.395 475.787L472.634 457.517L452.976 460.177L450.034 473.788Z" fill="#02081F"/>
<path d="M474.055 425.241L473.574 394.092L453.854 396.735L455.1 427.797L474.055 425.241Z" fill="#02081F"/>
<path d="M472.909 454.531L474.002 428.198L455.085 430.748L453.343 457.18L472.909 454.531Z" fill="#02081F"/>
<path d="M347.787 524.148L364.969 502.573L303.481 488.062L278.116 507.644L347.787 524.148Z" fill="#02081F"/>
<path d="M416.922 566.544L425.571 537.829L349.727 527.5L332.086 554.937L416.922 566.544Z" fill="#02081F"/>
<path d="M304.933 430.882L284.458 416.196L252.3 410.195L276.443 427.57L304.933 430.882Z" fill="#02081F"/>
<path d="M246.891 406.199L280.905 412.542L265.701 396.125L228.891 386.674L246.891 406.199Z" fill="#02081F"/>
<path d="M453.602 393.819L473.474 391.153L471.389 356.274L449.316 359.219L453.602 393.819Z" fill="#02081F"/>
<path d="M299.914 407.883L292.701 394.365L259.788 377.576L268.429 393.9L299.914 407.883Z" fill="#02081F"/>
<path d="M302.718 484.733L326.524 471.378L279.767 454.856L249.076 465.719L302.718 484.733Z" fill="#02081F"/>
<path d="M138.73 539.014L217.469 567.363L243.216 536.812L171.781 511.246L138.73 539.014Z" fill="#02081F"/>
<path d="M208.66 356.977L205.023 334.385L158.854 321.663L162.949 348.217L208.66 356.977Z" fill="#02081F"/>
<path d="M158.724 318.538L205.229 331.353L209.569 308.773L164.019 292.031L158.724 318.538Z" fill="#02081F"/>
<path d="M210.692 305.955L222.916 284.055L179.543 263.496L164.997 289.161L210.692 305.955Z" fill="#02081F"/>
<path d="M232.711 430.684L200.997 407.767L158.625 412.252L195.083 438.748L232.711 430.684Z" fill="#02081F"/>
<path d="M208.011 482.88L241.131 465.731L194.381 442.03L155.019 455.879L208.011 482.88Z" fill="#02081F"/>
<path d="M155.355 409.666L198.3 405.118L175.349 380.063L129.004 380.661L155.355 409.666Z" fill="#02081F"/>
<path d="M220.984 382.078L209.485 360.131L164.347 351.481L177.702 377.28L220.984 382.078Z" fill="#02081F"/>
<path d="M132.007 243.501L178.054 259.557L201.669 235.252L159.465 215.512L132.007 243.501Z" fill="#02081F"/>
<path d="M204.221 233.032L236.035 211.097L198.988 188.156L162.155 213.357L204.221 233.032Z" fill="#02081F"/>
<path d="M216.797 140.509L247.976 161.12L300.601 143.379L276.328 120.537L216.797 140.509Z" fill="#02081F"/>
<path d="M306.66 144.779L330.566 172.448L380.693 161.138L364.221 131.848L306.66 144.779Z" fill="#02081F"/>
<path d="M250.849 163.328L281.638 188.871L326.921 173.517L302.947 145.767L250.849 163.328Z" fill="#02081F"/>
<path d="M121.074 152.482L157.693 164.954L209.73 140.08L179.116 124.865L121.074 152.482Z" fill="#02081F"/>
<path d="M244.454 162.636L213.084 141.903L161.429 166.598L198.926 184.525L244.454 162.636Z" fill="#02081F"/>
<path d="M170.887 645.554L275.022 670.784L290.134 631.519L193.021 608.132L170.887 645.554Z" fill="#02081F"/>
<path d="M578.916 512.663L510.804 515.696L511.515 538.77L588.649 535.325L578.916 512.663Z" fill="#02081F"/>
<path d="M568.411 493.9L509.979 496.491L510.697 512.791L577.441 509.823L568.411 493.9Z" fill="#02081F"/>
<path d="M245.432 534.396L271.576 508.864L208.347 486.354L174.745 509.097L245.432 534.396Z" fill="#02081F"/>
<path d="M566.218 491.088L558.646 482.374L509.161 484.57L509.811 493.592L566.218 491.088Z" fill="#02081F"/>
<path d="M600.644 569.739L512.317 573.701L512.897 607.899L610.378 603.508L600.644 569.739Z" fill="#02081F"/>
<path d="M611.149 606.383L512.943 610.81L513.417 648.953L620.295 644.108L611.149 606.383Z" fill="#02081F"/>
<path d="M589.78 538.189L511.591 541.674L512.256 570.79L599.72 566.869L589.78 538.189Z" fill="#02081F"/>
<path d="M509.123 610.81L410.665 606.383L402.459 644.108L509.597 648.953L509.123 610.81Z" fill="#02081F"/>
<path d="M368.018 131.215L384.459 160.441L437.963 153.504L429.376 123.302L368.018 131.215Z" fill="#02081F"/>
<path d="M429.223 470.977L446.276 473.283L448.927 461.014L430.934 465.26L429.223 470.977Z" fill="#02081F"/>
<path d="M307.898 592.22L219.104 570.97L194.747 605.5L291.296 628.748L307.898 592.22Z" fill="#02081F"/>
<path d="M406.868 606.035L311.611 592.935L295.024 629.434L398.662 643.771L406.868 606.035Z" fill="#02081F"/>
<path d="M293.84 632.222L278.728 671.481L390.564 687.038L398.082 646.641L293.84 632.222Z" fill="#02081F"/>
<path d="M458.637 229.947L497.869 228.274L497.556 191.078L451.265 193.042L458.637 229.947Z" fill="#02081F"/>
<path d="M844.173 351.441L798.34 360.126L787.972 382.102L832.148 377.286L844.173 351.441Z" fill="#02081F"/>
<path d="M786.223 385.221L768.223 405.925L808.647 404.804L829.642 380.493L786.223 385.221Z" fill="#02081F"/>
<path d="M819.458 442.03L774.022 465.696L808.326 482.886L859.843 455.908L819.458 442.03Z" fill="#02081F"/>
<path d="M810.373 407.767L779.905 430.655L818.701 438.748L853.739 412.269L810.373 407.767Z" fill="#02081F"/>
<path d="M842.454 215.5L800.716 235.222L825.646 259.569L871.418 243.524L842.454 215.5Z" fill="#02081F"/>
<path d="M848.062 321.623L801.465 334.374L799.012 357.001L845.357 348.223L848.062 321.623Z" fill="#02081F"/>
<path d="M795.59 308.755L801.129 331.376L848.009 318.549L841.308 291.996L795.59 308.755Z" fill="#02081F"/>
<path d="M780.959 284.031L794.36 305.978L840.177 289.184L824.255 263.467L780.959 284.031Z" fill="#02081F"/>
<path d="M746.074 508.841L773.395 534.396L842.683 509.12L808.051 486.354L746.074 508.841Z" fill="#02081F"/>
<path d="M708.026 590.181L689.491 557.661L604.449 569.378L614.19 603.176L708.026 590.181Z" fill="#02081F"/>
<path d="M850.431 645.56L827.747 608.138L731.902 631.508L747.656 670.784L850.431 645.56Z" fill="#02081F"/>
<path d="M728.189 632.222L624.734 646.635L632.954 687.038L743.943 671.486L728.189 632.222Z" fill="#02081F"/>
<path d="M845.694 511.246L775.664 536.789L802.412 567.363L879.601 539.037L845.694 511.246Z" fill="#02081F"/>
<path d="M713.206 592.209L730.687 628.754L825.975 605.517L800.831 570.964L713.206 592.209Z" fill="#02081F"/>
<path d="M617.781 161.12L668.557 172.448L691.585 144.791L633.291 131.854L617.781 161.12Z" fill="#02081F"/>
<path d="M470.999 312.729L498.152 311.555L498.091 272.761L465.918 274.144L470.999 312.729Z" fill="#02081F"/>
<path d="M465.498 271.257L498.075 269.857L497.884 231.185L459.157 232.841L465.498 271.257Z" fill="#02081F"/>
<path d="M460.043 479.667L504.913 481.648L504.631 480.208L462.465 478.349L460.043 479.667Z" fill="#02081F"/>
<path d="M450.646 190.16L497.525 188.168L497.105 153.731L442.517 156.037L450.646 190.16Z" fill="#02081F"/>
<path d="M500.887 150.827L556.316 153.162L563.895 122.995L500.383 120.334L500.887 150.827Z" fill="#02081F"/>
<path d="M687.742 554.949L668.855 527.494L593.608 537.817L603.563 566.55L687.742 554.949Z" fill="#02081F"/>
<path d="M785.169 141.903L754.738 162.607L801.488 184.531L838.183 166.627L785.169 141.903Z" fill="#02081F"/>
<path d="M720.808 120.543L697.567 143.356L751.201 161.121L781.455 140.533L720.808 120.543Z" fill="#02081F"/>
<path d="M765.075 211.068L798.096 233.044L839.689 213.386L801.48 188.15L765.075 211.068Z" fill="#02081F"/>
<path d="M877.591 152.511L818.029 124.871L788.484 140.045L841.904 164.954L877.591 152.511Z" fill="#02081F"/>
<path d="M441.776 153.162L497.067 150.826L496.555 120.328L433.196 122.995L441.776 153.162Z" fill="#02081F"/>
<path d="M560.121 153.498L614.03 160.435L629.509 131.226L567.7 123.308L560.121 153.498Z" fill="#02081F"/>
<path d="M672.209 173.5L718.356 188.871L748.374 163.351L695.298 145.767L672.209 173.5Z" fill="#02081F"/>
<path d="M508.489 573.701L419.94 569.739L411.352 603.508L509.077 607.899L508.489 573.701Z" fill="#02081F"/>
<path d="M366.062 463.675L403.552 472.475L411.75 470.907L378.225 463.047L366.062 463.675Z" fill="#02081F"/>
<path d="M347.779 430.777L356.252 449.459L359.812 451.243L360.057 449.773L348.948 423.905L347.779 430.777Z" fill="#02081F"/>
<path d="M366.283 437.603L354.838 408.598L350.178 417.393L362.188 445.376L366.283 437.603Z" fill="#02081F"/>
<path d="M346.152 359.946L335.654 371.181L355.389 401.389L364.305 391.78L346.152 359.946Z" fill="#02081F"/>
<path d="M376.536 426.199L365.695 395.323L357.199 404.479L369.003 434.379L376.536 426.199Z" fill="#02081F"/>
<path d="M348.849 357.367L367.154 389.474L379.684 380.493L363.525 346.922L348.849 357.367Z" fill="#02081F"/>
<path d="M368.774 455.652L367.185 443.703L363.953 449.837L364.488 453.59L368.774 455.652Z" fill="#02081F"/>
<path d="M355.786 464.302L335.761 470.866L385.949 482.67L399.464 474.555L355.786 464.302Z" fill="#02081F"/>
<path d="M392.443 463.338L393.681 453.485L384.413 460.201L384.283 461.107L392.443 463.338Z" fill="#02081F"/>
<path d="M391.007 419.542L380.593 427.048L384.131 456.39L394.101 449.175L391.007 419.542Z" fill="#02081F"/>
<path d="M407.976 466.986L410.466 444.208L397.891 450.575L396.164 464.215L407.976 466.986Z" fill="#02081F"/>
<path d="M341.56 450.197L322.376 449.419L356.03 461.281L370.875 460.515L341.56 450.197Z" fill="#02081F"/>
<path d="M390.495 415.917L380.792 383.694L368.621 392.413L379.623 423.748L390.495 415.917Z" fill="#02081F"/>
<path d="M436.022 509.509L443.67 493.516L387.118 485.866L371.379 500.737L436.022 509.509Z" fill="#02081F"/>
<path d="M408.144 410.311L394.59 417.137L397.723 447.171L410.719 440.595L408.144 410.311Z" fill="#02081F"/>
<path d="M524.847 355.926L501.896 354.932L501.705 389.927L522.371 390.833L524.847 355.926Z" fill="#02081F"/>
<path d="M528.865 315.627L501.972 314.466L501.911 352.022L525.091 353.027L528.865 315.627Z" fill="#02081F"/>
<path d="M544.054 427.803L545.918 396.735L526.031 394.086L524.931 425.241L544.054 427.803Z" fill="#02081F"/>
<path d="M501.338 426.961L500.933 453.317L521.355 454.217L521.08 427.826L501.338 426.961Z" fill="#02081F"/>
<path d="M366.643 344.946L382.878 378.675L398.685 370.762L385.093 335.768L366.643 344.946Z" fill="#02081F"/>
<path d="M544.933 457.191L543.993 430.742L524.908 428.186L525.183 454.537L544.933 457.191Z" fill="#02081F"/>
<path d="M347.871 413.971L353.013 404.281L333.607 374.573L327.495 385.977L347.871 413.971Z" fill="#02081F"/>
<path d="M321.879 323.028L346.977 354.717L361.982 344.04L339.826 310.353L321.879 323.028Z" fill="#02081F"/>
<path d="M342.867 308.482L365.076 342.257L383.841 332.921L365.229 297.427L342.867 308.482Z" fill="#02081F"/>
<path d="M306.278 339.213L333.439 368.532L344.28 356.942L319.297 325.404L306.278 339.213Z" fill="#02081F"/>
<path d="M575.47 364.709L554.643 359.922L549.96 394.481L568.701 398.815L575.47 364.709Z" fill="#02081F"/>
<path d="M528.644 356.268L526.176 391.152L546.208 393.825L550.899 359.219L528.644 356.268Z" fill="#02081F"/>
<path d="M547.805 475.531L545.185 460.172L525.328 457.505L526.764 476.466L547.805 475.531Z" fill="#02081F"/>
<path d="M324.645 401.324L344.639 426.6L346.167 417.625L326.509 390.63L324.645 401.324Z" fill="#02081F"/>
<path d="M776.558 432.973L737.953 452.991L770.4 464.058L814.782 440.943L776.558 432.973Z" fill="#02081F"/>
<path d="M797.469 335.873L755.701 352.957L753.584 371.448L795.078 357.913L797.469 335.873Z" fill="#02081F"/>
<path d="M739.435 507.673L712.786 488.056L652.154 502.544L670.704 524.16L739.435 507.673Z" fill="#02081F"/>
<path d="M770.446 467.381L716.606 486.824L743.438 506.575L804.475 484.431L770.446 467.381Z" fill="#02081F"/>
<path d="M793.603 361.549L752.912 374.829L744.439 392.582L783.618 382.724L793.603 361.549Z" fill="#02081F"/>
<path d="M742.529 396.125L728.12 412.606L763.409 406.198L780.47 386.575L742.529 396.125Z" fill="#02081F"/>
<path d="M765.396 408.905L740.206 427.745L775.488 429.894L804.872 407.819L765.396 408.905Z" fill="#02081F"/>
<path d="M592.225 410.253L589.016 440.589L602.463 447.223L606.252 417.137L592.225 410.253Z" fill="#02081F"/>
<path d="M597.833 372.232L579.122 365.795L572.361 399.826L589.176 405.635L597.833 372.232Z" fill="#02081F"/>
<path d="M709.027 485.912L684.181 472.69L632.473 485.006L649.793 500.063L709.027 485.912Z" fill="#02081F"/>
<path d="M589.154 444.121L591.201 469.867L603.83 467.038L602.233 450.575L589.154 444.121Z" fill="#02081F"/>
<path d="M647.142 463.709L633.466 463.047L600.682 470.831L610.233 472.481L647.142 463.709Z" fill="#02081F"/>
<path d="M678.856 470.913L657.464 464.296L614.526 474.503L629.448 482.682L678.856 470.913Z" fill="#02081F"/>
<path d="M648.196 207.762L687.253 220.856L715.903 191.224L670.261 176.021L648.196 207.762Z" fill="#02081F"/>
<path d="M429.826 436.882L414.508 442.296L411.712 467.863L413.247 468.223L427.488 463.169L429.826 436.882Z" fill="#02081F"/>
<path d="M601.576 197.079L644.598 206.734L666.624 175.045L616.444 163.851L601.576 197.079Z" fill="#02081F"/>
<path d="M552.145 190.492L597.84 196.405L612.693 163.212L559.456 156.357L552.145 190.492Z" fill="#02081F"/>
<path d="M501.345 188.168L548.348 190.161L555.652 156.043L500.925 153.737L501.345 188.168Z" fill="#02081F"/>
<path d="M403.063 372.226L411.261 405.618L427.71 399.826L421.384 365.819L403.063 372.226Z" fill="#02081F"/>
<path d="M426.587 466.689L418.687 469.495L425.464 470.471L426.587 466.689Z" fill="#02081F"/>
<path d="M727.646 240.143L755.464 258.796L794.925 234.793L762.233 213.043L727.646 240.143Z" fill="#02081F"/>
<path d="M797.584 236.896L758.069 260.934L778.972 281.551L822.261 260.992L797.584 236.896Z" fill="#02081F"/>
<path d="M792.098 310.353L750.865 331.167L755.303 349.82L797.53 332.549L792.098 310.353Z" fill="#02081F"/>
<path d="M411.826 408.621L414.424 439.125L429.979 433.624L428.031 402.916L411.826 408.621Z" fill="#02081F"/>
<path d="M738.594 310.12L749.566 328.332L791.021 307.407L777.819 285.786L738.594 310.12Z" fill="#02081F"/>
<path d="M719.349 192.566L690.645 222.251L724.582 238.371L759.1 211.324L719.349 192.566Z" fill="#02081F"/>
<path d="M751.919 164.699L721.794 190.3L761.965 209.255L798.241 186.419L751.919 164.699Z" fill="#02081F"/>
<path d="M500.383 476.809L522.952 476.635L521.47 457.128L500.872 456.221L500.383 476.809Z" fill="#02081F"/>
<path d="M704.81 412.379L694.243 424.422L722.535 413.745L735.256 399.193L704.81 412.379Z" fill="#02081F"/>
<path d="M766.038 465.754L734.079 454.856L688.292 471.331L713.481 484.739L766.038 465.754Z" fill="#02081F"/>
<path d="M736.402 430.428L704.588 446.874L733.659 451.702L770.66 432.514L736.402 430.428Z" fill="#02081F"/>
<path d="M724.796 416.196L705.024 430.934L734.988 427.571L758.352 410.102L724.796 416.196Z" fill="#02081F"/>
<path d="M331.124 438.498L318.349 429.342L296.476 420.82L311.771 431.8L331.124 438.498Z" fill="#02081F"/>
<path d="M330.283 469.501L350.996 462.704L312.375 449.099L285.634 453.729L330.283 469.501Z" fill="#02081F"/>
<path d="M728.173 453.764L700.073 449.094L662.3 462.658L684.449 469.501L728.173 453.764Z" fill="#02081F"/>
<path d="M313.2 446.142L335.112 447.025L309.991 434.408L283.862 431.375L313.2 446.142Z" fill="#02081F"/>
<path d="M747.488 333.299L712.121 357.355L715.621 372.459L751.804 351.429L747.488 333.299Z" fill="#02081F"/>
<path d="M293.114 374.591L321.314 398.333L323.377 386.499L295.673 360.346L293.114 374.591Z" fill="#02081F"/>
<path d="M286.696 413.744L313.414 424.154L302.465 412.385L273.525 399.523L286.696 413.744Z" fill="#02081F"/>
<path d="M367.2 500.058L383.092 485.041L330.612 472.696L307.111 485.877L367.2 500.058Z" fill="#02081F"/>
<path d="M751.613 355.199L716.11 375.834L714.345 390.537L749.581 372.917L751.613 355.199Z" fill="#02081F"/>
<path d="M328.511 426.897L323.781 418.09L299.6 399.564L305.399 410.445L328.511 426.897Z" fill="#02081F"/>
<path d="M322.765 413.181L320.847 402.277L293.786 379.493L296.063 392.733L322.765 413.181Z" fill="#02081F"/>
<path d="M747.64 377.362L713.657 394.359L707.064 408.063L739.748 393.906L747.64 377.362Z" fill="#02081F"/>
<path d="M628.195 460.195L631.656 438.068L624.138 430.336L620.027 459.109L622.908 462.089L628.195 460.195Z" fill="#02081F"/>
<path d="M529.194 312.729L534.152 274.144L501.911 272.761L501.972 311.555L529.194 312.729Z" fill="#02081F"/>
<path d="M586.991 325.683L562.497 320.089L555.117 356.995L576.196 361.84L586.991 325.683Z" fill="#02081F"/>
<path d="M558.769 319.403L532.662 315.964L528.888 353.352L551.388 356.338L558.769 319.403Z" fill="#02081F"/>
<path d="M506.984 515.702L438.689 512.669L430.361 535.319L507.694 538.764L506.984 515.702Z" fill="#02081F"/>
<path d="M447.551 493.905L439.942 509.817L506.877 512.785L506.159 496.496L447.551 493.905Z" fill="#02081F"/>
<path d="M404.01 475.531L390.862 483.42L445.221 490.78L451.578 481.956L404.01 475.531Z" fill="#02081F"/>
<path d="M501.896 269.851L534.565 271.257L540.532 232.841L501.705 231.185L501.896 269.851Z" fill="#02081F"/>
<path d="M638.585 449.849L634.712 443.133L632.274 458.731L637.416 456.884L638.585 449.849Z" fill="#02081F"/>
<path d="M690.293 449.396L669.459 450.197L640.755 460.485L657.174 461.281L690.293 449.396Z" fill="#02081F"/>
<path d="M426.51 535.006L434.861 512.298L368.828 503.34L351.721 524.816L426.51 535.006Z" fill="#02081F"/>
<path d="M653.078 417.41L647.799 408.325L635.682 437.586L640.327 445.643L653.078 417.41Z" fill="#02081F"/>
<path d="M612.685 334.287L590.59 326.74L579.817 362.85L598.803 369.374L612.685 334.287Z" fill="#02081F"/>
<path d="M607.032 414.07L617.315 381.562L601.332 373.754L592.706 407.035L607.032 414.07Z" fill="#02081F"/>
<path d="M645.377 404.49L636.278 395.19L624.856 426.188L632.947 434.512L645.377 404.49Z" fill="#02081F"/>
<path d="M324.836 383.24L331.269 371.233L304.375 342.204L296.575 356.57L324.836 383.24Z" fill="#02081F"/>
<path d="M313.49 273.319L340.964 305.955L363.663 294.737L340.643 259.999L313.49 273.319Z" fill="#02081F"/>
<path d="M626.307 245.063L658.908 256.06L685.121 223.314L646.531 210.376L626.307 245.063Z" fill="#02081F"/>
<path d="M368.591 295.998L387.225 331.527L409.183 323.888L394.697 286.97L368.591 295.998Z" fill="#02081F"/>
<path d="M586.762 235.925L622.717 244.046L642.925 209.389L600.43 199.85L586.762 235.925Z" fill="#02081F"/>
<path d="M388.493 334.281L402.123 369.363L420.712 362.856L410.138 326.752L388.493 334.281Z" fill="#02081F"/>
<path d="M693.594 272.703L716.69 288.313L752.622 260.766L725.132 242.327L693.594 272.703Z" fill="#02081F"/>
<path d="M343.99 258.604L367.017 293.349L393.482 284.2L375.566 247.764L343.99 258.604Z" fill="#02081F"/>
<path d="M688.513 224.661L662.277 257.437L690.538 270.955L722.061 240.596L688.513 224.661Z" fill="#02081F"/>
<path d="M345.197 438.201L343.989 431.416L325.775 408.389L327.25 416.76L345.197 438.201Z" fill="#02081F"/>
<path d="M335.708 432.276L335.173 431.637L335.257 431.788L335.708 432.276Z" fill="#02081F"/>
<path d="M544.81 230.279L583.034 235.257L596.702 199.205L551.572 193.367L544.81 230.279Z" fill="#02081F"/>
<path d="M380.135 459.649L380.624 459.12L377.178 430.562L370.272 438.062L372.808 457.07L380.135 459.649Z" fill="#02081F"/>
<path d="M501.689 228.274L541.013 229.947L547.775 193.042L501.376 191.078L501.689 228.274Z" fill="#02081F"/>
<path d="M384.07 381.556L393.841 414.029L407.724 407.041L399.564 373.795L384.07 381.556Z" fill="#02081F"/>
<path d="M501.682 392.837L501.376 424.056L521.118 424.921L522.218 393.732L501.682 392.837Z" fill="#02081F"/>
<path d="M320.893 427.175L335.578 437.167L332.124 433.455L316.179 422.104L320.893 427.175Z" fill="#02081F"/>
<path d="M349.498 449.541L339.894 444.725L332.056 442.012L342.927 447.473L349.498 449.541Z" fill="#02081F"/>
<path d="M288.568 290.474L319.663 320.623L337.923 307.727L310.48 275.12L288.568 290.474Z" fill="#02081F"/>
<path d="M269.987 309.58L303.734 336.924L317.05 322.802L286.032 292.728L269.987 309.58Z" fill="#02081F"/>
<path d="M755.227 262.897L719.303 290.439L736.562 307.628L775.871 283.247L755.227 262.897Z" fill="#02081F"/>
<path d="M701.853 339.497L710.731 354.41L746.441 330.116L735.691 312.264L701.853 339.497Z" fill="#02081F"/>
</g>
<rect x="43" y="43" width="64.1719" height="30" rx="3" fill="#444444"/>
<rect x="43.5" y="43.5" width="63.1719" height="29" rx="2.5" stroke="white" stroke-opacity="0.0980392"/>
<path d="M51.4219 61L49.2344 53H50.2188L51.8906 59.5156H51.9688L53.6719 53H54.7656L56.4688 59.5156H56.5469L58.2188 53H59.2031L57.0156 61H56.0156L54.25 54.625H54.1875L52.4219 61H51.4219ZM62.1641 61.125C61.6224 61.125 61.1471 60.9961 60.7383 60.7383C60.332 60.4805 60.0143 60.1198 59.7852 59.6562C59.5586 59.1927 59.4453 58.651 59.4453 58.0312C59.4453 57.4062 59.5586 56.8607 59.7852 56.3945C60.0143 55.9284 60.332 55.5664 60.7383 55.3086C61.1471 55.0508 61.6224 54.9219 62.1641 54.9219C62.7057 54.9219 63.1797 55.0508 63.5859 55.3086C63.9948 55.5664 64.3125 55.9284 64.5391 56.3945C64.7682 56.8607 64.8828 57.4062 64.8828 58.0312C64.8828 58.651 64.7682 59.1927 64.5391 59.6562C64.3125 60.1198 63.9948 60.4805 63.5859 60.7383C63.1797 60.9961 62.7057 61.125 62.1641 61.125ZM62.1641 60.2969C62.5755 60.2969 62.9141 60.1914 63.1797 59.9805C63.4453 59.7695 63.6419 59.4922 63.7695 59.1484C63.8971 58.8047 63.9609 58.4323 63.9609 58.0312C63.9609 57.6302 63.8971 57.2565 63.7695 56.9102C63.6419 56.5638 63.4453 56.2839 63.1797 56.0703C62.9141 55.8568 62.5755 55.75 62.1641 55.75C61.7526 55.75 61.4141 55.8568 61.1484 56.0703C60.8828 56.2839 60.6862 56.5638 60.5586 56.9102C60.431 57.2565 60.3672 57.6302 60.3672 58.0312C60.3672 58.4323 60.431 58.8047 60.5586 59.1484C60.6862 59.4922 60.8828 59.7695 61.1484 59.9805C61.4141 60.1914 61.7526 60.2969 62.1641 60.2969ZM66.29 61V55H67.1807V55.9062H67.2432C67.3525 55.6094 67.5505 55.3685 67.8369 55.1836C68.1234 54.9987 68.4463 54.9062 68.8057 54.9062C68.8734 54.9062 68.958 54.9076 69.0596 54.9102C69.1611 54.9128 69.238 54.9167 69.29 54.9219V55.8594C69.2588 55.8516 69.1872 55.8398 69.0752 55.8242C68.9658 55.806 68.8499 55.7969 68.7275 55.7969C68.4359 55.7969 68.1755 55.8581 67.9463 55.9805C67.7197 56.1003 67.54 56.2669 67.4072 56.4805C67.277 56.6914 67.2119 56.9323 67.2119 57.2031V61H66.29ZM70.3828 61V55H71.2734V55.9375H71.3516C71.4766 55.6172 71.6784 55.3685 71.957 55.1914C72.2357 55.0117 72.5703 54.9219 72.9609 54.9219C73.3568 54.9219 73.6862 55.0117 73.9492 55.1914C74.2148 55.3685 74.4219 55.6172 74.5703 55.9375H74.6328C74.7865 55.6276 75.0169 55.3815 75.3242 55.1992C75.6315 55.0143 76 54.9219 76.4297 54.9219C76.9661 54.9219 77.4049 55.0898 77.7461 55.4258C78.0872 55.7591 78.2578 56.2786 78.2578 56.9844V61H77.3359V56.9844C77.3359 56.5417 77.2148 56.2253 76.9727 56.0352C76.7305 55.8451 76.4453 55.75 76.1172 55.75C75.6953 55.75 75.3685 55.8776 75.1367 56.1328C74.9049 56.3854 74.7891 56.7057 74.7891 57.0937V61H73.8516V56.8906C73.8516 56.5495 73.7409 56.2747 73.5195 56.0664C73.2982 55.8555 73.013 55.75 72.6641 55.75C72.4245 55.75 72.2005 55.8138 71.9922 55.9414C71.7865 56.069 71.6198 56.2461 71.4922 56.4727C71.3672 56.6966 71.3047 56.9557 71.3047 57.25V61H70.3828ZM80.8652 57.3906V61H79.9434V53H80.8652V55.9375H80.9434C81.084 55.6276 81.2949 55.3815 81.5762 55.1992C81.86 55.0143 82.2376 54.9219 82.709 54.9219C83.1178 54.9219 83.4759 55.0039 83.7832 55.168C84.0905 55.3294 84.3288 55.5781 84.498 55.9141C84.6699 56.2474 84.7559 56.6719 84.7559 57.1875V61H83.834V57.25C83.834 56.7734 83.7103 56.4049 83.4629 56.1445C83.2181 55.8815 82.8783 55.75 82.4434 55.75C82.1413 55.75 81.8704 55.8138 81.6309 55.9414C81.3939 56.069 81.2064 56.2552 81.0684 56.5C80.9329 56.7448 80.8652 57.0417 80.8652 57.3906ZM88.8799 61.125C88.3382 61.125 87.863 60.9961 87.4541 60.7383C87.0479 60.4805 86.7301 60.1198 86.501 59.6562C86.2744 59.1927 86.1611 58.651 86.1611 58.0312C86.1611 57.4062 86.2744 56.8607 86.501 56.3945C86.7301 55.9284 87.0479 55.5664 87.4541 55.3086C87.863 55.0508 88.3382 54.9219 88.8799 54.9219C89.4215 54.9219 89.8955 55.0508 90.3018 55.3086C90.7106 55.5664 91.0283 55.9284 91.2549 56.3945C91.484 56.8607 91.5986 57.4062 91.5986 58.0312C91.5986 58.651 91.484 59.1927 91.2549 59.6562C91.0283 60.1198 90.7106 60.4805 90.3018 60.7383C89.8955 60.9961 89.4215 61.125 88.8799 61.125ZM88.8799 60.2969C89.2913 60.2969 89.6299 60.1914 89.8955 59.9805C90.1611 59.7695 90.3577 59.4922 90.4854 59.1484C90.613 58.8047 90.6768 58.4323 90.6768 58.0312C90.6768 57.6302 90.613 57.2565 90.4854 56.9102C90.3577 56.5638 90.1611 56.2839 89.8955 56.0703C89.6299 55.8568 89.2913 55.75 88.8799 55.75C88.4684 55.75 88.1299 55.8568 87.8643 56.0703C87.5986 56.2839 87.402 56.5638 87.2744 56.9102C87.1468 57.2565 87.083 57.6302 87.083 58.0312C87.083 58.4323 87.1468 58.8047 87.2744 59.1484C87.402 59.4922 87.5986 59.7695 87.8643 59.9805C88.1299 60.1914 88.4684 60.2969 88.8799 60.2969ZM93.9277 53V61H93.0059V53H93.9277ZM98.1318 61.125C97.5537 61.125 97.055 60.9974 96.6357 60.7422C96.2191 60.4844 95.8975 60.125 95.6709 59.6641C95.4469 59.2005 95.335 58.6615 95.335 58.0469C95.335 57.4323 95.4469 56.8906 95.6709 56.4219C95.8975 55.9505 96.2126 55.5833 96.6162 55.3203C97.0225 55.0547 97.4964 54.9219 98.0381 54.9219C98.3506 54.9219 98.6592 54.974 98.9639 55.0781C99.2686 55.1823 99.5459 55.3516 99.7959 55.5859C100.046 55.8177 100.245 56.125 100.394 56.5078C100.542 56.8906 100.616 57.362 100.616 57.9219V58.3125H95.9912V57.5156H99.6787C99.6787 57.1771 99.611 56.875 99.4756 56.6094C99.3428 56.3437 99.1527 56.1341 98.9053 55.9805C98.6605 55.8268 98.3714 55.75 98.0381 55.75C97.6709 55.75 97.3532 55.8411 97.085 56.0234C96.8193 56.2031 96.6149 56.4375 96.4717 56.7266C96.3285 57.0156 96.2568 57.3255 96.2568 57.6562V58.1875C96.2568 58.6406 96.335 59.0247 96.4912 59.3398C96.6501 59.6523 96.8701 59.8906 97.1514 60.0547C97.4326 60.2161 97.7594 60.2969 98.1318 60.2969C98.374 60.2969 98.5928 60.263 98.7881 60.1953C98.986 60.125 99.1566 60.0208 99.2998 59.8828C99.443 59.7422 99.5537 59.5677 99.6318 59.3594L100.522 59.6094C100.429 59.9115 100.271 60.1771 100.05 60.4062C99.8285 60.6328 99.555 60.8099 99.2295 60.9375C98.904 61.0625 98.5381 61.125 98.1318 61.125Z" fill="white"/>
</svg>
