<svg viewBox="0 0 750 448" fill="none" xmlns="http://www.w3.org/2000/svg">
<g clip-path="url(#clip0_865_3438)">
<rect width="750" height="448" fill="#142C46"/>
<rect width="750" height="448" fill="url(#paint0_radial_865_3438)" fill-opacity="0.5"/>
<g opacity="0.3">
<path d="M674.745 432.42L648.066 401.916L569.235 420.924L587.8 453.502L674.745 432.42Z" fill="#02081F"/>
<path d="M548.645 390.739L567.592 418.269L645.606 399.465L618.399 374.003L548.645 390.739Z" fill="#02081F"/>
<path d="M374.076 218.932L351.193 219.926L353.279 254.827L373.885 253.927L374.076 218.932Z" fill="#02081F"/>
<path d="M350.964 217.027L374.091 216.022L374.152 178.466L347.328 179.627L350.964 217.027Z" fill="#02081F"/>
<path d="M461.181 306.297L445.465 300.836L447.016 327.169L463.297 332.851L461.181 306.297Z" fill="#02081F"/>
<path d="M482.328 317.299L483.574 330.149L492.627 328L492.207 324.201L482.328 317.299Z" fill="#02081F"/>
<path d="M447.986 266.887L445.411 297.623L461.333 303.154L464.573 272.621L447.986 266.887Z" fill="#02081F"/>
<path d="M530.499 287.219L518.512 313.756L519.521 318.374L521.331 317.439L532.18 294.789L530.499 287.219Z" fill="#02081F"/>
<path d="M530.538 308.231L530.797 306.151L526.725 314.656L527.581 314.215L530.538 308.231Z" fill="#02081F"/>
<path d="M425.7 261.456L423.836 292.459L441.668 296.601L444.258 265.749L425.7 261.456Z" fill="#02081F"/>
<path d="M423.836 295.498L424.775 321.848L443.127 326.129L441.568 299.616L423.836 295.498Z" fill="#02081F"/>
<path d="M485.797 283.432L482.061 313.169L492.559 320.5L496.761 291.053L485.797 283.432Z" fill="#02081F"/>
<path d="M65.4679 471.057L-7.00635 444.799V490.134L43.3268 508.491L65.4679 471.057Z" fill="#02081F"/>
<path d="M91.536 433.878L12.1856 405.314L-7.00635 424.903V441.587L67.1487 468.454L91.536 433.878Z" fill="#02081F"/>
<path d="M-7.00635 395.648V420.041L8.86219 403.839L-7.00635 395.648Z" fill="#02081F"/>
<path d="M373.862 256.837L353.386 257.732L353.867 288.921L373.556 288.05L373.862 256.837Z" fill="#02081F"/>
<path d="M44.4193 373.741L-7.00635 347.373V392.139L11.2918 401.579L44.4193 373.741Z" fill="#02081F"/>
<path d="M352.744 318.211L373.113 317.311L373.518 290.966L353.837 291.826L352.744 318.211Z" fill="#02081F"/>
<path d="M372.563 340.809L373.052 320.227L352.523 321.133L350.208 339.955L372.563 340.809Z" fill="#02081F"/>
<path d="M587.869 243.197L559.891 266.26L558.501 277.448L586.242 256.744L587.869 243.197Z" fill="#02081F"/>
<path d="M583.377 262.954L557.752 282.078L553.221 291.437L577.845 274.456L583.377 262.954Z" fill="#02081F"/>
<path d="M584.897 224.178L556.56 250.482L559.272 262.484L588.236 238.608L584.897 224.178Z" fill="#02081F"/>
<path d="M545.512 302.776L563.237 291.175L569.296 284.274L550.196 297.449L545.512 302.776Z" fill="#02081F"/>
<path d="M557.301 304.653L545.039 308.725L533.991 314.424L533.693 314.575L544.091 311.467L557.301 304.653Z" fill="#02081F"/>
<path d="M547.888 235.216L555.017 247.334L583.828 220.588L575.217 206.106L547.888 235.216Z" fill="#02081F"/>
<path d="M603.921 295.3L576.21 298.408L551.708 311.049L575.21 310.142L603.921 295.3Z" fill="#02081F"/>
<path d="M565.805 293.342L552.9 302.945L574.415 295.799L589.909 284.245L565.805 293.342Z" fill="#02081F"/>
<path d="M592.751 156.687L561.641 186.778L575.752 200.959L609.743 173.603L592.751 156.687Z" fill="#02081F"/>
<path d="M80.9086 348.797L27.1068 321.377L-7.00635 337.933V343.87L47.1469 371.638L80.9086 348.797Z" fill="#02081F"/>
<path d="M483.215 148.188L510.207 157.355L533.059 122.616L500.871 111.753L483.215 148.188Z" fill="#02081F"/>
<path d="M536.428 123.987L513.584 158.726L536.925 169.967L564.33 137.331L536.428 123.987Z" fill="#02081F"/>
<path d="M539.989 171.709L558.99 184.646L590.161 154.491L567.378 139.096L539.989 171.709Z" fill="#02081F"/>
<path d="M478.432 149.937L449.002 143.25L439.154 181.208L463.962 186.877L478.432 149.937Z" fill="#02081F"/>
<path d="M515.785 208.028L531.416 218.752L556.774 187.04L538.094 174.318L515.785 208.028Z" fill="#02081F"/>
<path d="M508.649 160.004L482.015 150.965L467.552 187.882L489.961 195.539L508.649 160.004Z" fill="#02081F"/>
<path d="M573.215 203.23L559.402 189.346L534.151 220.919L545.658 232.59L573.215 203.23Z" fill="#02081F"/>
<path d="M545.589 238.416L525.61 268.264L531.347 278.116L552.396 249.994L545.589 238.416Z" fill="#02081F"/>
<path d="M548.622 292.529L534.129 309.219L533.319 310.892L547.025 295.823L548.622 292.529Z" fill="#02081F"/>
<path d="M535.022 172.494L512.018 161.41L493.353 196.91L512.667 206.274L535.022 172.494Z" fill="#02081F"/>
<path d="M408.991 177.06L435.426 180.545L445.282 142.582L413.949 138.475L408.991 177.06Z" fill="#02081F"/>
<path d="M494.53 242.704L511.094 208.958L492.1 199.745L478.241 234.751L494.53 242.704Z" fill="#02081F"/>
<path d="M556.04 265.342L553.55 254.316L533.128 281.608L535.183 290.891L556.04 265.342Z" fill="#02081F"/>
<path d="M543.457 235.192L532.272 223.858L513.684 255.762L523.188 265.47L543.457 235.192Z" fill="#02081F"/>
<path d="M509.329 256.419L496.593 247.618L486.385 279.905L497.762 287.818L509.329 256.419Z" fill="#02081F"/>
<path d="M529.545 221.378L514.234 210.869L497.731 244.481L510.811 253.52L529.545 221.378Z" fill="#02081F"/>
<path d="M459.905 334.861L447.742 330.62L449.193 336.319L459.905 334.861Z" fill="#02081F"/>
<path d="M727.706 181.777L757.006 177.147V145.876L720.907 154.845L727.706 181.777Z" fill="#02081F"/>
<path d="M703.617 126.078L719.722 152.086L757.006 142.82V121.936L749.504 109.993L703.617 126.078Z" fill="#02081F"/>
<path d="M725.239 211.77L757.006 209.463V180.115L727.989 184.699L725.239 211.77Z" fill="#02081F"/>
<path d="M712.25 241.181L757.006 241.751V212.385L724.551 214.738L712.25 241.181Z" fill="#02081F"/>
<path d="M688.963 269.1L732.886 273.661L757.006 245.486V244.655L710.577 244.063L688.963 269.1Z" fill="#02081F"/>
<path d="M751.108 106.391L757.006 104.997V65.9183L721.9 78.1292L751.108 106.391Z" fill="#02081F"/>
<path d="M757.006 278.906V250.813L736.829 274.387L757.006 278.906Z" fill="#02081F"/>
<path d="M698.078 -12.6569L757.006 14.6928V-7.36473L725.468 -21.9458L698.078 -12.6569Z" fill="#02081F"/>
<path d="M680.689 50.4193L719.226 75.8694L757.006 62.7232V58.2559L717.606 32.405L680.689 50.4193Z" fill="#02081F"/>
<path d="M757.006 54.4161V18.5153L721.273 30.976L757.006 54.4161Z" fill="#02081F"/>
<path d="M-7.00635 296.682V334.489L24.0661 319.414L-7.00635 296.682Z" fill="#02081F"/>
<path d="M449.812 140.404L479.632 147.177L497.288 110.754L461.784 102.737L449.812 140.404Z" fill="#02081F"/>
<path d="M705.565 468.449L757.006 449.453V405.75L680.391 433.861L705.565 468.449Z" fill="#02081F"/>
<path d="M687.466 348.762L722.267 371.639L757.006 353.334V329.586L739.763 321.383L687.466 348.762Z" fill="#02081F"/>
<path d="M757.006 326.158V308.539L742.757 319.379L757.006 326.158Z" fill="#02081F"/>
<path d="M757.006 399.918V356.866L725.04 373.712L757.006 399.918Z" fill="#02081F"/>
<path d="M698.575 303.915L739.296 317.909L757.006 304.432V281.933L734.376 276.862L698.575 303.915Z" fill="#02081F"/>
<path d="M-7.00635 106.763V125.428L2.45213 108.982L-7.00635 106.763Z" fill="#02081F"/>
<path d="M52.1741 126.101L6.03535 110.01L-7.00635 132.677V141.025L37.4592 152.074L52.1741 126.101Z" fill="#02081F"/>
<path d="M22.4616 -21.9515L-7.00635 -7.98043V14.9949L51.028 -12.6162L22.4616 -21.9515Z" fill="#02081F"/>
<path d="M36.3896 154.863L-7.00635 144.081V175.735L31.0109 181.759L36.3896 154.863Z" fill="#02081F"/>
<path d="M-6.63198 18.399L-7.00635 18.6547V56.4086L30.3768 31.0108L-6.63198 18.399Z" fill="#02081F"/>
<path d="M71.771 50.4485L34.0441 32.411L-7.00635 60.3067V61.5731L34.6247 75.8637L71.771 50.4485Z" fill="#02081F"/>
<path d="M32.0271 78.1583L-7.00635 64.7565V103.725L4.33924 106.379L32.0271 78.1583Z" fill="#02081F"/>
<path d="M67.2098 303.944L29.9337 276.862L-7.00635 285.279V292.651L27.5194 317.909L67.2098 303.944Z" fill="#02081F"/>
<path d="M660.756 2.45297L690.018 -12.5754L644.673 -27.4644H612.249L599.528 -17.7281L660.756 2.45297Z" fill="#02081F"/>
<path d="M49.5459 241.181L35.8548 214.738L-7.00635 211.601V222.778L2.70425 241.786L49.5459 241.181Z" fill="#02081F"/>
<path d="M30.8581 184.704L-7.00635 178.704V208.685L35.0296 211.764L30.8581 184.704Z" fill="#02081F"/>
<path d="M0.519181 244.841L-7.00635 245.788V282.247L27.3895 274.41L0.519181 244.841Z" fill="#02081F"/>
<path d="M569.846 6.26961L592.981 -16.4443L543.09 -27.4644H524.074L510.88 -6.81849L569.846 6.26961Z" fill="#02081F"/>
<path d="M89.4503 2.45297L149.517 -17.6933L136.139 -27.4644H103.607L59.1343 -12.6045L89.4503 2.45297Z" fill="#02081F"/>
<path d="M180.337 6.26961L238.547 -6.80107L224.413 -27.4644H205.397L156.179 -16.4617L180.337 6.26961Z" fill="#02081F"/>
<path d="M554.253 280.771L555.383 271.656L536 295.404L535.053 302.887L554.253 280.771Z" fill="#02081F"/>
<path d="M57.4304 124.969L100.819 145.533L120.599 124.963L80.8016 100.918L57.4304 124.969Z" fill="#02081F"/>
<path d="M117.986 75.3001L152.963 102.365L185.991 86.2737L156.699 56.5713L117.986 75.3001Z" fill="#02081F"/>
<path d="M139.577 256.518L130.218 238.834L90.39 225.642L101.438 246.718L139.577 256.518Z" fill="#02081F"/>
<path d="M123.143 122.784L149.937 104.172L114.892 77.0544L83.3842 98.7692L123.143 122.784Z" fill="#02081F"/>
<path d="M131.211 192.297L141.197 174.143L102.072 149.832L90.0387 171.39L131.211 192.297Z" fill="#02081F"/>
<path d="M129.377 235.39L126.306 216.969L85.1259 199.948L88.6556 221.901L129.377 235.39Z" fill="#02081F"/>
<path d="M84.8586 196.532L126.574 213.774L130.019 195.185L89.1142 174.411L84.8586 196.532Z" fill="#02081F"/>
<path d="M317.623 183.404L324.85 220.333L347.167 217.352L343.53 179.964L317.623 183.404Z" fill="#02081F"/>
<path d="M278.673 63.1996L292.899 99.2572L330.84 94.2845L323.467 57.3613L278.673 63.1996Z" fill="#02081F"/>
<path d="M293.908 102.075L306.208 139.741L337.701 135.588L331.36 97.1659L293.908 102.075Z" fill="#02081F"/>
<path d="M307.034 142.582L316.973 180.539L343.202 177.06L338.129 138.481L307.034 142.582Z" fill="#02081F"/>
<path d="M208.552 39.0334L231.282 70.7341L273.753 61.0908L258.106 27.8448L208.552 39.0334Z" fill="#02081F"/>
<path d="M160 55.1852L189.239 84.8295L227.554 71.7588L204.786 40L160 55.1852Z" fill="#02081F"/>
<path d="M261.857 27.2059L277.481 60.4054L322.841 54.4975L314.712 20.3511L261.857 27.2059Z" fill="#02081F"/>
<path d="M78.1887 50.3902L115.106 73.2552L154.216 54.3289L123.311 28.6987L78.1887 50.3902Z" fill="#02081F"/>
<path d="M443.501 329.255L425.18 324.979L427.61 339.252L445.434 336.83L443.501 329.255Z" fill="#02081F"/>
<path d="M78.6702 268.804L117.971 269.919L98.8936 249.227L56.4221 244.516L78.6702 268.804Z" fill="#02081F"/>
<path d="M414.362 135.582L446.091 139.741L458.063 102.08L420.329 97.1659L414.362 135.582Z" fill="#02081F"/>
<path d="M426.112 342.343L384.489 344.184L384.779 345.677L429.199 343.708L426.112 342.343Z" fill="#02081F"/>
<path d="M521.515 364.76L504.386 349.86L448.345 357.499L457.429 373.515L521.515 364.76Z" fill="#02081F"/>
<path d="M500.336 347.461L485.851 339.525L438.833 345.921L446.535 354.792L500.336 347.461Z" fill="#02081F"/>
<path d="M476.713 337.817L469.302 336.534L432.034 341.599L435.991 343.354L476.713 337.817Z" fill="#02081F"/>
<path d="M120.721 328.058L151.87 317.032L112.134 296.973L75.064 304.908L120.721 328.058Z" fill="#02081F"/>
<path d="M150.143 370.569L175.677 350.859L120.729 331.381L87.8687 348.402L150.143 370.569Z" fill="#02081F"/>
<path d="M292.135 433.384L206.444 421.661L189.001 454.169L283.548 467.17L292.135 433.384Z" fill="#02081F"/>
<path d="M147.149 291.762L120.951 272.911L82.6201 271.825L113.15 293.894L147.149 291.762Z" fill="#02081F"/>
<path d="M204.266 418.263L221.953 390.757L151.251 374.009L125.199 399.441L204.266 418.263Z" fill="#02081F"/>
<path d="M97.1288 432.408L185.235 453.496L202.708 420.935L122.823 401.922L97.1288 432.408Z" fill="#02081F"/>
<path d="M289.744 189.683L300.325 225.834L321.122 221L313.902 184.095L289.744 189.683Z" fill="#02081F"/>
<path d="M155.491 104.578L187.274 134.949L214.779 121.454L188.153 88.6729L155.491 104.578Z" fill="#02081F"/>
<path d="M232.993 73.3772L253.69 108.041L289.179 99.9368L274.945 63.8501L232.993 73.3772Z" fill="#02081F"/>
<path d="M191.522 87.302L218.133 120.054L250.107 109.075L229.395 74.3823L191.522 87.302Z" fill="#02081F"/>
<path d="M125.985 124.742L162.032 152.301L184.257 136.726L152.466 106.344L125.985 124.742Z" fill="#02081F"/>
<path d="M103.921 147.224L143.153 171.605L159.472 154.462L123.449 126.921L103.921 147.224Z" fill="#02081F"/>
<path d="M167.815 254.415L165.309 239.845L130.554 219.345L133.48 236.906L167.815 254.415Z" fill="#02081F"/>
<path d="M169.649 218.351L177.701 203.515L144.138 176.333L134.359 194.098L169.649 218.351Z" fill="#02081F"/>
<path d="M130.126 215.418L165.653 236.372L168.35 221.378L133.465 197.398L130.126 215.418Z" fill="#02081F"/>
<path d="M307.782 265.749L309.738 296.59L327.303 292.459L326.057 261.473L307.782 265.749Z" fill="#02081F"/>
<path d="M301.036 228.709L307.377 262.803L325.843 258.487L321.565 223.928L301.036 228.709Z" fill="#02081F"/>
<path d="M327.211 295.521L309.769 299.622L307.408 326.106L325.469 321.842L327.211 295.521Z" fill="#02081F"/>
<path d="M255.142 110.742L273.058 147.177L302.488 140.415L290.187 102.737L255.142 110.742Z" fill="#02081F"/>
<path d="M542.724 388.834L524.265 367.334L458.766 376.286L468.53 399.011L542.724 388.834Z" fill="#02081F"/>
<path d="M274.273 149.931L288.774 186.871L313.253 181.207L303.32 143.256L274.273 149.931Z" fill="#02081F"/>
<path d="M156.141 315.702L183.806 310.909L151.06 294.428L118.101 296.497L156.141 315.702Z" fill="#02081F"/>
<path d="M288.605 337.742L330.076 343.342L333.102 341.692L294.901 336.539L288.605 337.742Z" fill="#02081F"/>
<path d="M383.771 405.68L305.383 402.189L296.75 430.869L384.436 434.79L383.771 405.68Z" fill="#02081F"/>
<path d="M325.37 355.076L381.983 357.58L381.334 348.576L331.627 346.38L325.37 355.076Z" fill="#02081F"/>
<path d="M326.034 337.788L338.129 339.421L346.395 339.787L348.634 321.517L328.976 324.177L326.034 337.788Z" fill="#02081F"/>
<path d="M350.055 289.241L349.574 258.092L329.854 260.735L331.1 291.797L350.055 289.241Z" fill="#02081F"/>
<path d="M348.909 318.531L350.002 292.198L331.085 294.748L329.343 321.18L348.909 318.531Z" fill="#02081F"/>
<path d="M223.787 388.148L240.969 366.573L179.482 352.062L154.116 371.644L223.787 388.148Z" fill="#02081F"/>
<path d="M292.922 430.544L301.571 401.829L225.727 391.5L208.086 418.937L292.922 430.544Z" fill="#02081F"/>
<path d="M180.933 294.882L160.458 280.196L128.3 274.195L152.443 291.57L180.933 294.882Z" fill="#02081F"/>
<path d="M122.891 270.198L156.905 276.542L141.701 260.125L104.891 250.674L122.891 270.198Z" fill="#02081F"/>
<path d="M329.602 257.819L349.474 255.153L347.389 220.274L325.316 223.22L329.602 257.819Z" fill="#02081F"/>
<path d="M175.914 271.883L168.701 258.365L135.788 241.576L144.429 257.9L175.914 271.883Z" fill="#02081F"/>
<path d="M178.717 348.733L202.524 335.378L155.767 318.856L125.076 329.719L178.717 348.733Z" fill="#02081F"/>
<path d="M14.7299 403.014L93.469 431.363L119.216 400.812L47.781 375.246L14.7299 403.014Z" fill="#02081F"/>
<path d="M84.66 220.977L81.0233 198.385L34.854 185.663L38.9491 212.217L84.66 220.977Z" fill="#02081F"/>
<path d="M34.724 182.538L81.2294 195.353L85.5691 172.773L40.0186 156.031L34.724 182.538Z" fill="#02081F"/>
<path d="M86.6922 169.955L98.9164 148.054L55.5434 127.496L40.9966 153.161L86.6922 169.955Z" fill="#02081F"/>
<path d="M108.711 294.684L76.9969 271.767L34.6248 276.252L71.0834 302.747L108.711 294.684Z" fill="#02081F"/>
<path d="M84.0106 346.88L117.131 329.731L70.3806 306.03L31.0187 319.879L84.0106 346.88Z" fill="#02081F"/>
<path d="M31.3548 273.666L74.3 269.118L51.349 244.063L5.00403 244.661L31.3548 273.666Z" fill="#02081F"/>
<path d="M96.9835 246.078L85.4851 224.131L40.3473 215.481L53.7022 241.28L96.9835 246.078Z" fill="#02081F"/>
<path d="M8.00647 107.501L54.0535 123.557L77.6691 99.2515L35.4651 79.5118L8.00647 107.501Z" fill="#02081F"/>
<path d="M80.2211 97.0324L112.035 75.0969L74.9876 52.1564L38.1545 77.3566L80.2211 97.0324Z" fill="#02081F"/>
<path d="M92.7966 4.50935L123.976 25.1203L176.601 7.37909L152.328 -15.4626L92.7966 4.50935Z" fill="#02081F"/>
<path d="M182.66 8.77904L206.566 36.4482L256.693 25.1377L240.221 -4.15222L182.66 8.77904Z" fill="#02081F"/>
<path d="M126.849 27.3279L157.638 52.8709L202.921 37.5172L178.947 9.76672L126.849 27.3279Z" fill="#02081F"/>
<path d="M-2.92651 16.4821L33.6926 28.9545L85.7295 4.0795L55.1155 -11.1348L-2.92651 16.4821Z" fill="#02081F"/>
<path d="M120.454 26.6364L89.0836 5.90344L37.4287 30.5983L74.9264 48.5255L120.454 26.6364Z" fill="#02081F"/>
<path d="M454.916 376.663L386.804 379.696L387.515 402.77L464.649 399.325L454.916 376.663Z" fill="#02081F"/>
<path d="M444.411 357.9L385.979 360.491L386.697 376.791L453.441 373.823L444.411 357.9Z" fill="#02081F"/>
<path d="M121.432 398.396L147.576 372.864L84.3466 350.354L50.7454 373.097L121.432 398.396Z" fill="#02081F"/>
<path d="M442.218 355.088L434.646 346.374L385.161 348.57L385.811 357.592L442.218 355.088Z" fill="#02081F"/>
<path d="M476.644 433.739L388.317 437.701L388.897 471.899L486.378 467.508L476.644 433.739Z" fill="#02081F"/>
<path d="M465.78 402.189L387.591 405.674L388.256 434.79L475.72 430.869L465.78 402.189Z" fill="#02081F"/>
<path d="M244.018 -4.7854L260.459 24.4406L313.963 17.5045L305.376 -12.6975L244.018 -4.7854Z" fill="#02081F"/>
<path d="M305.223 334.977L322.276 337.283L324.927 325.014L306.934 329.26L305.223 334.977Z" fill="#02081F"/>
<path d="M183.898 456.22L95.104 434.97L70.7473 469.5L167.296 492.748L183.898 456.22Z" fill="#02081F"/>
<path d="M334.637 93.9475L373.869 92.2745L373.556 55.0782L327.265 57.0418L334.637 93.9475Z" fill="#02081F"/>
<path d="M720.173 215.441L674.34 224.126L663.972 246.102L708.148 241.286L720.173 215.441Z" fill="#02081F"/>
<path d="M662.223 249.221L644.223 269.925L684.647 268.804L705.642 244.493L662.223 249.221Z" fill="#02081F"/>
<path d="M695.457 306.03L650.022 329.696L684.326 346.886L735.843 319.908L695.457 306.03Z" fill="#02081F"/>
<path d="M686.373 271.767L655.905 294.655L694.701 302.747L729.739 276.269L686.373 271.767Z" fill="#02081F"/>
<path d="M718.454 79.5002L676.716 99.2224L701.646 123.569L747.418 107.524L718.454 79.5002Z" fill="#02081F"/>
<path d="M724.062 185.623L677.465 198.374L675.013 221.001L721.357 212.223L724.062 185.623Z" fill="#02081F"/>
<path d="M671.59 172.755L677.129 195.376L724.009 182.549L717.308 155.996L671.59 172.755Z" fill="#02081F"/>
<path d="M656.959 148.031L670.36 169.978L716.177 153.184L700.255 127.467L656.959 148.031Z" fill="#02081F"/>
<path d="M622.074 372.841L649.395 398.396L718.683 373.12L684.051 350.354L622.074 372.841Z" fill="#02081F"/>
<path d="M584.026 454.181L565.491 421.661L480.449 433.378L490.19 467.176L584.026 454.181Z" fill="#02081F"/>
<path d="M721.694 375.246L651.664 400.789L678.412 431.363L755.601 403.037L721.694 375.246Z" fill="#02081F"/>
<path d="M589.206 456.209L606.687 492.754L701.974 469.518L676.831 434.964L589.206 456.209Z" fill="#02081F"/>
<path d="M493.781 25.1204L544.557 36.4484L567.585 8.79082L509.291 -4.14624L493.781 25.1204Z" fill="#02081F"/>
<path d="M346.999 176.729L374.152 175.555L374.091 136.761L341.918 138.144L346.999 176.729Z" fill="#02081F"/>
<path d="M341.498 135.257L374.075 133.857L373.884 95.1851L335.157 96.8407L341.498 135.257Z" fill="#02081F"/>
<path d="M336.043 343.667L380.913 345.648L380.631 344.208L338.465 342.349L336.043 343.667Z" fill="#02081F"/>
<path d="M326.646 54.1604L373.525 52.1678L373.105 17.731L318.517 20.0372L326.646 54.1604Z" fill="#02081F"/>
<path d="M376.887 14.8265L432.316 17.1618L439.895 -13.0053L376.383 -15.6659L376.887 14.8265Z" fill="#02081F"/>
<path d="M563.742 418.949L544.855 391.494L469.608 401.817L479.563 430.55L563.742 418.949Z" fill="#02081F"/>
<path d="M661.169 5.90344L630.738 26.6074L677.488 48.5313L714.183 30.6273L661.169 5.90344Z" fill="#02081F"/>
<path d="M596.808 -15.4567L573.567 7.35601L627.201 25.1205L657.455 4.53274L596.808 -15.4567Z" fill="#02081F"/>
<path d="M641.075 75.0676L674.096 97.0438L715.689 77.3855L677.48 52.1504L641.075 75.0676Z" fill="#02081F"/>
<path d="M753.591 16.5111L694.029 -11.129L664.484 4.04457L717.904 28.9544L753.591 16.5111Z" fill="#02081F"/>
<path d="M317.776 17.1617L373.067 14.8264L372.555 -15.6719L309.196 -13.0054L317.776 17.1617Z" fill="#02081F"/>
<path d="M436.121 17.4985L490.03 24.4346L505.509 -4.77397L443.7 -12.6919L436.121 17.4985Z" fill="#02081F"/>
<path d="M548.209 37.4998L594.356 52.8709L624.374 27.3511L571.298 9.76672L548.209 37.4998Z" fill="#02081F"/>
<path d="M384.489 437.701L295.94 433.739L287.353 467.508L385.077 471.899L384.489 437.701Z" fill="#02081F"/>
<path d="M242.062 327.675L279.552 336.475L287.75 334.907L254.225 327.047L242.062 327.675Z" fill="#02081F"/>
<path d="M223.779 294.777L232.252 313.459L235.812 315.243L236.057 313.773L224.948 287.905L223.779 294.777Z" fill="#02081F"/>
<path d="M242.283 301.603L230.838 272.598L226.178 281.393L238.188 309.376L242.283 301.603Z" fill="#02081F"/>
<path d="M222.152 223.946L211.654 235.181L231.389 265.389L240.305 255.78L222.152 223.946Z" fill="#02081F"/>
<path d="M252.536 290.199L241.695 259.323L233.199 268.479L245.003 298.379L252.536 290.199Z" fill="#02081F"/>
<path d="M224.849 221.366L243.154 253.474L255.684 244.493L239.525 210.922L224.849 221.366Z" fill="#02081F"/>
<path d="M244.774 319.652L243.185 307.703L239.953 313.837L240.488 317.59L244.774 319.652Z" fill="#02081F"/>
<path d="M231.786 328.302L211.761 334.866L261.949 346.671L275.464 338.555L231.786 328.302Z" fill="#02081F"/>
<path d="M268.443 327.338L269.681 317.485L260.413 324.201L260.283 325.107L268.443 327.338Z" fill="#02081F"/>
<path d="M267.007 283.542L256.593 291.048L260.131 320.39L270.101 313.175L267.007 283.542Z" fill="#02081F"/>
<path d="M283.976 330.986L286.466 308.208L273.891 314.575L272.164 328.215L283.976 330.986Z" fill="#02081F"/>
<path d="M217.56 314.197L198.376 313.419L232.03 325.281L246.875 324.515L217.56 314.197Z" fill="#02081F"/>
<path d="M266.495 279.917L256.792 247.694L244.621 256.413L255.623 287.748L266.495 279.917Z" fill="#02081F"/>
<path d="M312.022 373.509L319.67 357.516L263.118 349.866L247.379 364.737L312.022 373.509Z" fill="#02081F"/>
<path d="M284.144 274.311L270.59 281.137L273.723 311.17L286.719 304.594L284.144 274.311Z" fill="#02081F"/>
<path d="M400.847 219.926L377.896 218.932L377.705 253.927L398.371 254.833L400.847 219.926Z" fill="#02081F"/>
<path d="M404.865 179.627L377.972 178.466L377.911 216.022L401.091 217.027L404.865 179.627Z" fill="#02081F"/>
<path d="M420.054 291.803L421.918 260.735L402.031 258.086L400.931 289.241L420.054 291.803Z" fill="#02081F"/>
<path d="M377.338 290.961L376.933 317.317L397.355 318.217L397.08 291.826L377.338 290.961Z" fill="#02081F"/>
<path d="M242.642 208.946L258.878 242.675L274.685 234.762L261.093 199.768L242.642 208.946Z" fill="#02081F"/>
<path d="M420.933 321.191L419.993 294.742L400.908 292.186L401.183 318.537L420.933 321.191Z" fill="#02081F"/>
<path d="M223.871 277.971L229.013 268.281L209.607 238.573L203.495 249.977L223.871 277.971Z" fill="#02081F"/>
<path d="M197.879 187.028L222.977 218.717L237.982 208.04L215.826 174.353L197.879 187.028Z" fill="#02081F"/>
<path d="M218.866 172.482L241.076 206.257L259.84 196.921L241.229 161.427L218.866 172.482Z" fill="#02081F"/>
<path d="M182.278 203.213L209.438 232.532L220.28 220.942L195.297 189.404L182.278 203.213Z" fill="#02081F"/>
<path d="M451.47 228.709L430.643 223.922L425.96 258.481L444.701 262.815L451.47 228.709Z" fill="#02081F"/>
<path d="M404.644 220.268L402.176 255.152L422.208 257.825L426.899 223.219L404.644 220.268Z" fill="#02081F"/>
<path d="M423.805 339.531L421.185 324.172L401.328 321.505L402.764 340.466L423.805 339.531Z" fill="#02081F"/>
<path d="M200.645 265.324L220.639 290.6L222.167 281.625L202.509 254.63L200.645 265.324Z" fill="#02081F"/>
<path d="M652.558 296.973L613.953 316.991L646.4 328.058L690.782 304.943L652.558 296.973Z" fill="#02081F"/>
<path d="M673.469 199.873L631.701 216.957L629.584 235.448L671.078 221.913L673.469 199.873Z" fill="#02081F"/>
<path d="M615.435 371.673L588.786 352.056L528.154 366.544L546.704 388.16L615.435 371.673Z" fill="#02081F"/>
<path d="M646.446 331.381L592.606 350.824L619.438 370.575L680.475 348.431L646.446 331.381Z" fill="#02081F"/>
<path d="M669.603 225.549L628.912 238.829L620.439 256.582L659.618 246.724L669.603 225.549Z" fill="#02081F"/>
<path d="M618.529 260.125L604.12 276.606L639.409 270.198L656.47 250.575L618.529 260.125Z" fill="#02081F"/>
<path d="M641.396 272.906L616.206 291.745L651.489 293.894L680.872 271.819L641.396 272.906Z" fill="#02081F"/>
<path d="M468.225 274.253L465.016 304.589L478.463 311.223L482.252 281.137L468.225 274.253Z" fill="#02081F"/>
<path d="M473.833 236.232L455.122 229.795L448.361 263.826L465.176 269.635L473.833 236.232Z" fill="#02081F"/>
<path d="M585.027 349.912L560.181 336.69L508.473 349.006L525.793 364.063L585.027 349.912Z" fill="#02081F"/>
<path d="M465.154 308.121L467.201 333.867L479.83 331.038L478.233 314.575L465.154 308.121Z" fill="#02081F"/>
<path d="M523.142 327.709L509.466 327.047L476.682 334.831L486.233 336.481L523.142 327.709Z" fill="#02081F"/>
<path d="M554.856 334.913L533.464 328.296L490.526 338.503L505.448 346.682L554.856 334.913Z" fill="#02081F"/>
<path d="M524.196 71.7623L563.253 84.8562L591.903 55.2235L546.261 40.0209L524.196 71.7623Z" fill="#02081F"/>
<path d="M305.826 300.882L290.508 306.297L287.712 331.863L289.247 332.223L303.488 327.169L305.826 300.882Z" fill="#02081F"/>
<path d="M477.576 61.0792L520.598 70.734L542.624 39.0449L492.444 27.8506L477.576 61.0792Z" fill="#02081F"/>
<path d="M428.145 54.4916L473.84 60.4054L488.693 27.2116L435.456 20.3568L428.145 54.4916Z" fill="#02081F"/>
<path d="M377.345 52.168L424.348 54.1606L431.652 20.0432L376.925 17.7369L377.345 52.168Z" fill="#02081F"/>
<path d="M279.063 236.226L287.261 269.618L303.71 263.826L297.384 229.819L279.063 236.226Z" fill="#02081F"/>
<path d="M302.587 330.689L294.687 333.495L301.464 334.471L302.587 330.689Z" fill="#02081F"/>
<path d="M603.646 104.143L631.464 122.796L670.925 98.7926L638.233 77.043L603.646 104.143Z" fill="#02081F"/>
<path d="M673.584 100.895L634.069 124.934L654.972 145.551L698.261 124.992L673.584 100.895Z" fill="#02081F"/>
<path d="M668.098 174.353L626.864 195.167L631.303 213.82L673.53 196.55L668.098 174.353Z" fill="#02081F"/>
<path d="M287.826 272.621L290.424 303.125L305.979 297.624L304.031 266.916L287.826 272.621Z" fill="#02081F"/>
<path d="M614.594 174.12L625.566 192.332L667.021 171.407L653.819 149.786L614.594 174.12Z" fill="#02081F"/>
<path d="M595.349 56.5657L566.645 86.2506L600.582 102.371L635.1 75.3236L595.349 56.5657Z" fill="#02081F"/>
<path d="M627.919 28.6987L597.794 54.2998L637.965 73.2552L674.241 50.4193L627.919 28.6987Z" fill="#02081F"/>
<path d="M376.383 340.809L398.952 340.635L397.47 321.128L376.872 320.221L376.383 340.809Z" fill="#02081F"/>
<path d="M580.81 276.379L570.243 288.422L598.535 277.745L611.256 263.193L580.81 276.379Z" fill="#02081F"/>
<path d="M642.038 329.754L610.079 318.856L564.292 335.331L589.481 348.739L642.038 329.754Z" fill="#02081F"/>
<path d="M612.402 294.428L580.588 310.874L609.659 315.702L646.66 296.514L612.402 294.428Z" fill="#02081F"/>
<path d="M600.796 280.196L581.024 294.934L610.988 291.571L634.352 274.102L600.796 280.196Z" fill="#02081F"/>
<path d="M207.124 302.498L194.349 293.342L172.476 284.82L187.771 295.8L207.124 302.498Z" fill="#02081F"/>
<path d="M206.283 333.501L226.996 326.704L188.375 313.099L161.634 317.729L206.283 333.501Z" fill="#02081F"/>
<path d="M604.173 317.764L576.073 313.094L538.3 326.658L560.449 333.501L604.173 317.764Z" fill="#02081F"/>
<path d="M189.2 310.142L211.112 311.025L185.991 298.408L159.862 295.375L189.2 310.142Z" fill="#02081F"/>
<path d="M623.488 197.299L588.121 221.355L591.621 236.459L627.804 215.429L623.488 197.299Z" fill="#02081F"/>
<path d="M169.114 238.591L197.314 262.333L199.376 250.499L171.673 224.346L169.114 238.591Z" fill="#02081F"/>
<path d="M162.696 277.744L189.414 288.155L178.465 276.385L149.525 263.524L162.696 277.744Z" fill="#02081F"/>
<path d="M243.2 364.058L259.092 349.041L206.612 336.696L183.111 349.877L243.2 364.058Z" fill="#02081F"/>
<path d="M627.613 219.199L592.11 239.834L590.345 254.537L625.581 236.917L627.613 219.199Z" fill="#02081F"/>
<path d="M204.511 290.897L199.781 282.09L175.6 263.564L181.399 274.445L204.511 290.897Z" fill="#02081F"/>
<path d="M198.765 277.181L196.847 266.277L169.786 243.493L172.063 256.733L198.765 277.181Z" fill="#02081F"/>
<path d="M623.64 241.362L589.657 258.359L583.064 272.063L615.748 257.906L623.64 241.362Z" fill="#02081F"/>
<path d="M504.195 324.195L507.656 302.068L500.138 294.336L496.027 323.109L498.908 326.089L504.195 324.195Z" fill="#02081F"/>
<path d="M405.194 176.729L410.152 138.144L377.911 136.761L377.972 175.555L405.194 176.729Z" fill="#02081F"/>
<path d="M462.991 189.683L438.497 184.089L431.117 220.995L452.196 225.84L462.991 189.683Z" fill="#02081F"/>
<path d="M434.769 183.404L408.662 179.964L404.888 217.352L427.388 220.338L434.769 183.404Z" fill="#02081F"/>
<path d="M382.984 379.702L314.689 376.669L306.361 399.319L383.694 402.764L382.984 379.702Z" fill="#02081F"/>
<path d="M323.551 357.905L315.942 373.817L382.877 376.785L382.159 360.496L323.551 357.905Z" fill="#02081F"/>
<path d="M280.01 339.531L266.862 347.42L321.221 354.78L327.578 345.956L280.01 339.531Z" fill="#02081F"/>
<path d="M377.896 133.851L410.565 135.257L416.532 96.8407L377.705 95.1851L377.896 133.851Z" fill="#02081F"/>
<path d="M514.585 313.849L510.712 307.133L508.274 322.731L513.416 320.884L514.585 313.849Z" fill="#02081F"/>
<path d="M566.293 313.396L545.459 314.197L516.755 324.485L533.174 325.281L566.293 313.396Z" fill="#02081F"/>
<path d="M302.51 399.006L310.861 376.297L244.827 367.34L227.721 388.816L302.51 399.006Z" fill="#02081F"/>
<path d="M529.078 281.41L523.799 272.325L511.682 301.585L516.327 309.643L529.078 281.41Z" fill="#02081F"/>
<path d="M488.685 198.286L466.59 190.74L455.817 226.85L474.803 233.374L488.685 198.286Z" fill="#02081F"/>
<path d="M483.031 278.07L493.315 245.562L477.332 237.754L468.706 271.035L483.031 278.07Z" fill="#02081F"/>
<path d="M521.377 268.49L512.278 259.19L500.856 290.188L508.947 298.512L521.377 268.49Z" fill="#02081F"/>
<path d="M200.836 247.24L207.269 235.233L180.376 206.204L172.575 220.57L200.836 247.24Z" fill="#02081F"/>
<path d="M189.49 137.319L216.964 169.955L239.663 158.738L216.643 123.999L189.49 137.319Z" fill="#02081F"/>
<path d="M502.307 109.063L534.908 120.06L561.121 87.3134L522.531 74.3763L502.307 109.063Z" fill="#02081F"/>
<path d="M244.591 159.998L263.225 195.527L285.183 187.888L270.697 150.971L244.591 159.998Z" fill="#02081F"/>
<path d="M462.762 99.9252L498.717 108.046L518.925 73.3888L476.43 63.8501L462.762 99.9252Z" fill="#02081F"/>
<path d="M264.493 198.281L278.123 233.362L296.712 226.856L286.138 190.752L264.493 198.281Z" fill="#02081F"/>
<path d="M569.594 136.703L592.69 152.313L628.622 124.766L601.132 106.327L569.594 136.703Z" fill="#02081F"/>
<path d="M219.99 122.604L243.017 157.349L269.482 148.2L251.566 111.764L219.99 122.604Z" fill="#02081F"/>
<path d="M564.513 88.6611L538.277 121.437L566.538 134.955L598.061 104.596L564.513 88.6611Z" fill="#02081F"/>
<path d="M221.197 302.201L219.989 295.416L201.775 272.389L203.25 280.76L221.197 302.201Z" fill="#02081F"/>
<path d="M211.708 296.276L211.173 295.637L211.257 295.788L211.708 296.276Z" fill="#02081F"/>
<path d="M420.81 94.2789L459.034 99.2574L472.702 63.2055L427.572 57.3673L420.81 94.2789Z" fill="#02081F"/>
<path d="M256.135 323.649L256.624 323.12L253.178 294.562L246.272 302.062L248.808 321.07L256.135 323.649Z" fill="#02081F"/>
<path d="M377.689 92.2745L417.013 93.9475L423.775 57.0418L377.376 55.0782L377.689 92.2745Z" fill="#02081F"/>
<path d="M260.07 245.556L269.841 278.029L283.724 271.041L275.564 237.795L260.07 245.556Z" fill="#02081F"/>
<path d="M377.682 256.837L377.376 288.056L397.118 288.921L398.218 257.732L377.682 256.837Z" fill="#02081F"/>
<path d="M196.893 291.175L211.578 301.167L208.124 297.455L192.179 286.104L196.893 291.175Z" fill="#02081F"/>
<path d="M225.498 313.541L215.894 308.725L208.056 306.012L218.927 311.473L225.498 313.541Z" fill="#02081F"/>
<path d="M164.568 154.474L195.663 184.623L213.923 171.727L186.48 139.12L164.568 154.474Z" fill="#02081F"/>
<path d="M145.987 173.58L179.734 200.924L193.05 186.802L162.032 156.728L145.987 173.58Z" fill="#02081F"/>
<path d="M631.227 126.897L595.303 154.439L612.562 171.628L651.871 147.247L631.227 126.897Z" fill="#02081F"/>
<path d="M577.853 203.497L586.731 218.41L622.441 194.116L611.691 176.264L577.853 203.497Z" fill="#02081F"/>
</g>
<rect x="0.456299" y="247.028" width="769.301" height="200.972" fill="url(#paint1_linear_865_3438)"/>
<g opacity="0.8" filter="url(#filter0_f_865_3438)">
<ellipse cx="376.753" cy="243.921" rx="181.677" ry="75.7914" fill="#5365F6"/>
</g>
<path opacity="0.2" d="M354.341 138.823C379.475 146.275 423.289 174.011 397.474 225.334L354.341 138.823Z" fill="black"/>
<mask id="mask0_865_3438" style="mask-type:luminance" maskUnits="userSpaceOnUse" x="365" y="97" width="94" height="139">
<path d="M446.411 99.6812L458.245 102.69C445.672 99.6812 432.359 99.6812 419.046 104.946C385.765 118.485 368.754 158.35 380.588 193.702C387.984 214.762 404.255 229.805 423.484 235.07L412.39 232.062C393.161 226.045 376.89 211.753 369.494 189.941C357.661 155.341 374.671 115.477 407.953 101.938C421.265 96.6725 434.578 95.9204 446.411 99.6812Z" fill="white"/>
</mask>
<g mask="url(#mask0_865_3438)">
<path d="M446.411 99.6814L458.245 102.69C445.672 99.6814 432.359 99.6814 419.046 104.947C412.39 107.955 406.473 111.716 401.296 116.229L389.463 113.22C395.38 108.707 401.296 104.947 407.953 101.938C421.265 96.6728 434.578 95.9206 446.411 99.6814Z" fill="#2D0085"/>
<path d="M389.463 113.221L401.296 116.229C399.078 118.486 396.859 119.99 395.38 122.247L383.546 119.238C385.765 116.982 387.984 115.477 389.463 113.221Z" fill="#2E008A"/>
<path d="M383.546 119.239L394.64 122.247C393.9 123.752 392.421 126.008 390.942 127.512L379.109 124.504C380.588 122.999 382.067 120.743 383.546 119.239Z" fill="#30008F"/>
<path d="M379.109 124.503L390.203 127.512C389.463 129.016 388.723 131.273 387.244 132.777L376.151 129.768C376.89 128.264 378.369 126.007 379.109 124.503Z" fill="#320094"/>
<path d="M376.15 129.768L387.244 132.777C386.505 134.281 385.765 136.537 384.286 138.042L373.192 135.033C373.932 133.529 374.671 131.272 376.15 129.768Z" fill="#340099"/>
<path d="M373.192 135.033L384.286 138.041C383.546 139.546 382.807 141.802 382.067 143.307L370.973 140.298C371.713 138.041 372.453 136.537 373.192 135.033Z" fill="#35009E"/>
<path d="M370.973 140.297L382.067 143.306C381.328 144.81 380.588 147.067 380.588 148.571L368.755 145.563C369.494 144.058 370.234 141.802 370.973 140.297Z" fill="#3700A3"/>
<path d="M368.755 145.564L379.848 148.573C379.848 150.829 379.109 152.334 379.109 154.59L367.275 151.582C368.015 149.325 368.015 147.821 368.755 145.564Z" fill="#3900A8"/>
<path d="M367.275 151.58L378.369 154.589C378.369 156.093 377.629 158.35 377.629 160.606L366.536 157.597C366.536 155.341 367.275 153.084 367.275 151.58Z" fill="#3A00AD"/>
<path d="M366.536 157.598L377.629 160.606C377.629 162.863 376.89 165.119 376.89 167.376L365.796 164.367C365.796 162.111 365.796 159.854 366.536 157.598Z" fill="#3C00B3"/>
<path d="M365.796 164.368L376.89 167.377C376.89 170.386 376.89 173.394 376.89 175.651L365.796 172.642C365.796 169.633 365.796 167.377 365.796 164.368Z" fill="#3E00B8"/>
<path d="M365.796 172.641L376.89 175.65C377.629 180.915 378.369 186.18 379.848 191.445L368.754 188.436C367.275 183.171 366.536 177.906 365.796 172.641Z" fill="#4000BD"/>
<path d="M368.755 188.437L379.848 191.446C379.848 192.198 380.588 192.95 380.588 193.702C381.328 195.959 382.067 198.215 382.807 200.472L371.713 197.463C370.973 195.206 370.234 192.95 369.494 190.693C369.494 189.941 368.755 189.189 368.755 188.437Z" fill="#4100C2"/>
<path d="M371.713 196.71L382.807 199.718C385.025 204.231 387.984 208.744 390.942 212.505L379.848 209.496C376.89 205.736 373.931 201.223 371.713 196.71Z" fill="#4000BD"/>
<path d="M379.848 209.498L390.942 212.507C392.421 214.763 394.64 217.02 396.119 218.524L385.025 215.515C383.546 214.011 381.328 211.754 379.848 209.498Z" fill="#3E00B8"/>
<path d="M385.025 215.514L396.119 218.522C397.598 220.027 399.077 221.531 401.296 223.035L390.202 220.027C388.723 219.275 386.504 217.77 385.025 215.514Z" fill="#3C00B3"/>
<path d="M390.202 220.028L401.296 223.036C402.775 224.541 404.255 225.293 405.734 226.797L394.64 223.788C393.161 223.036 391.682 221.532 390.202 220.028Z" fill="#3A00AD"/>
<path d="M394.64 223.788L406.474 226.797C407.953 227.549 409.432 229.053 410.911 229.806L399.817 226.797C398.338 226.045 396.119 224.54 394.64 223.788Z" fill="#3900A8"/>
<path d="M399.817 226.796L410.911 229.805C412.39 230.557 413.869 231.309 416.088 232.061L404.254 229.053C402.775 228.3 401.296 227.548 399.817 226.796Z" fill="#3700A3"/>
<path d="M404.255 229.053L415.349 232.062C416.828 232.814 419.046 233.566 420.526 233.566L409.432 230.557C407.953 230.557 406.473 229.805 404.255 229.053Z" fill="#35009E"/>
<path d="M409.432 230.557L421.265 233.566C422.005 233.566 422.744 234.318 424.224 234.318L413.13 231.309C411.651 231.309 410.171 231.309 409.432 230.557Z" fill="#340099"/>
</g>
<mask id="mask1_865_3438" style="mask-type:luminance" maskUnits="userSpaceOnUse" x="412" y="229" width="51" height="8">
<path d="M462.682 232.063C449.369 237.328 436.057 238.081 423.484 234.32L412.39 231.311C424.963 234.32 438.275 234.32 451.588 229.055C455.286 229.807 458.984 231.311 462.682 232.063Z" fill="white"/>
</mask>
<g mask="url(#mask1_865_3438)">
<path d="M469.338 217.772L480.432 220.781C475.255 225.294 469.338 229.055 461.942 232.063C448.63 237.329 435.317 238.081 422.744 234.32L411.651 231.311C424.224 234.32 437.536 234.32 450.849 229.055C458.245 226.046 464.161 222.285 469.338 217.772Z" fill="#331485"/>
</g>
<mask id="mask2_865_3438" style="mask-type:luminance" maskUnits="userSpaceOnUse" x="446" y="98" width="59" height="135">
<path d="M501.14 144.059C512.974 179.411 495.963 218.523 462.682 232.062C461.942 232.062 461.942 232.062 461.203 232.062C460.463 232.062 460.463 232.062 459.723 231.31C458.984 231.31 458.984 231.31 458.244 230.558C457.505 230.558 457.505 230.558 456.765 229.806C456.025 229.054 456.025 229.806 455.286 229.054C454.546 229.054 454.546 229.054 453.807 228.301C453.067 228.301 453.067 228.301 452.327 227.549C451.588 227.549 451.588 227.549 450.848 227.549C484.13 214.01 501.14 174.146 489.307 139.546C481.911 118.486 465.64 103.442 446.411 98.1772L458.244 102.69C477.473 107.955 493.744 122.246 501.14 144.059Z" fill="white"/>
</mask>
<g mask="url(#mask2_865_3438)">
<path d="M446.411 99.6814L458.244 102.69C458.984 102.69 460.463 103.442 461.202 103.442L450.109 100.434C448.629 99.6814 447.89 99.6814 446.411 99.6814Z" fill="#3B1799"/>
<path d="M449.369 100.434L460.463 103.443C461.942 104.195 464.161 104.947 465.64 104.947L454.546 101.939C453.067 101.186 451.588 101.186 449.369 100.434Z" fill="#3D189E"/>
<path d="M454.546 101.938L465.64 104.947C467.119 105.699 468.598 106.451 470.817 107.203L459.723 104.195C457.504 103.443 456.025 102.69 454.546 101.938Z" fill="#3F18A3"/>
<path d="M459.723 104.195L470.817 107.204C472.296 107.956 473.775 108.708 475.254 110.212L464.161 107.204C462.681 106.452 461.202 105.699 459.723 104.195Z" fill="#4119A8"/>
<path d="M464.161 107.203L475.254 110.212C476.733 110.964 478.213 112.468 479.692 113.972L468.598 110.964C467.119 109.459 465.64 108.707 464.161 107.203Z" fill="#431AAD"/>
<path d="M468.598 110.964L480.432 113.972C481.911 115.477 484.13 116.981 485.609 118.485L474.515 115.477C472.296 113.972 470.817 112.468 468.598 110.964Z" fill="#451BB3"/>
<path d="M473.776 115.478L484.869 118.486C487.088 120.743 488.567 122.247 490.046 124.503L478.953 121.495C477.473 119.238 475.994 116.982 473.776 115.478Z" fill="#471BB8"/>
<path d="M478.952 121.493L490.046 124.502C493.004 128.263 495.963 132.776 498.182 137.289L487.088 134.28C484.869 129.767 482.65 125.254 478.952 121.493Z" fill="#491CBD"/>
<path d="M487.088 134.282L498.182 137.29C498.921 139.547 499.661 141.803 500.401 144.06C500.401 144.812 501.14 145.564 501.14 146.316L490.046 143.308C490.046 142.555 489.307 141.803 489.307 141.051C489.307 138.795 487.828 136.538 487.088 134.282Z" fill="#4A1DC2"/>
<path d="M490.786 142.554L501.88 145.563C503.359 150.828 504.098 156.093 504.838 161.358L493.744 158.35C493.005 153.085 492.265 147.819 490.786 142.554Z" fill="#491CBD"/>
<path d="M493.005 158.35L504.838 161.359C504.838 164.368 504.838 167.376 504.838 169.633L493.744 166.624C493.744 163.616 493.744 161.359 493.005 158.35Z" fill="#471BB8"/>
<path d="M493.744 166.623L504.838 169.632C504.838 171.888 504.838 174.145 504.098 176.401L493.005 173.393C493.005 171.136 493.744 168.88 493.744 166.623Z" fill="#451BB3"/>
<path d="M493.004 173.394L504.098 176.402C504.098 178.659 503.359 180.163 502.619 182.42L491.525 179.411C492.265 177.907 492.265 175.65 493.004 173.394Z" fill="#431AAD"/>
<path d="M491.525 180.162L502.619 183.171C501.879 185.428 501.879 186.932 501.14 189.188L490.046 186.18C490.786 183.923 491.525 181.667 491.525 180.162Z" fill="#4119A8"/>
<path d="M490.046 185.427L501.14 188.436C500.4 189.94 499.661 192.197 498.921 193.701L487.827 190.692C489.307 189.188 489.307 186.931 490.046 185.427Z" fill="#3F18A3"/>
<path d="M488.567 190.694L499.661 193.703C498.921 195.207 498.182 197.463 497.442 198.968L486.348 195.959C487.088 194.455 487.827 192.95 488.567 190.694Z" fill="#3D189E"/>
<path d="M485.609 195.958L496.702 198.967C495.963 200.471 495.223 202.728 493.744 204.232L482.65 201.224C484.129 199.719 484.869 198.215 485.609 195.958Z" fill="#3B1799"/>
<path d="M483.39 201.223L494.484 204.232C493.744 205.736 492.265 207.993 490.786 209.497L479.692 206.489C481.171 204.984 481.911 202.728 483.39 201.223Z" fill="#391694"/>
<path d="M479.692 206.488L490.786 209.497C489.306 211.753 487.827 213.258 486.348 214.762L475.254 211.753C476.734 210.249 478.213 207.992 479.692 206.488Z" fill="#37158F"/>
<path d="M475.254 211.753L486.348 214.762C484.129 217.018 482.65 218.522 480.432 220.779L469.338 217.77C471.556 216.266 473.775 214.009 475.254 211.753Z" fill="#35158A"/>
<path d="M469.338 217.771L480.432 220.779C475.255 225.292 469.338 229.053 461.942 232.062C448.629 237.327 435.317 238.079 422.744 234.318L411.65 231.31C424.223 234.318 437.536 234.318 450.848 229.053C458.244 226.044 464.161 222.284 469.338 217.771Z" fill="#331485"/>
</g>
<path d="M491.308 182.428C500.872 145.899 481.108 108.836 447.164 99.6438C413.22 90.4517 377.95 112.612 368.386 149.14C358.822 185.668 378.586 222.732 412.53 231.924C446.474 241.116 481.744 218.956 491.308 182.428Z" fill="#6226FF"/>
<mask id="mask3_865_3438" style="mask-type:luminance" maskUnits="userSpaceOnUse" x="411" y="95" width="98" height="146">
<path d="M447.89 95.9204L458.984 98.9291C478.953 104.194 496.703 119.99 504.099 142.554C516.672 179.41 498.182 221.532 463.422 235.823C450.109 241.088 435.317 241.84 422.744 238.831L411.651 235.823C424.963 239.583 439.015 238.831 452.328 232.814C487.088 218.523 505.578 176.402 493.005 139.546C485.609 116.981 467.859 101.186 447.89 95.9204Z" fill="white"/>
</mask>
<g mask="url(#mask3_865_3438)">
<path d="M447.891 95.9207L458.984 98.9293C459.724 98.9293 461.203 99.6815 461.943 99.6815L450.849 96.6728C449.37 96.6728 448.63 95.9207 447.891 95.9207Z" fill="#340099"/>
<path d="M450.849 96.6733L461.942 99.682C464.161 100.434 465.64 101.186 467.12 101.938L456.026 98.9298C454.547 98.1777 452.328 97.4255 450.849 96.6733Z" fill="#35009E"/>
<path d="M456.026 98.9285L467.12 101.937C468.599 102.689 470.818 103.441 472.297 104.194L461.203 101.185C459.724 100.433 457.505 99.6806 456.026 98.9285Z" fill="#3700A3"/>
<path d="M461.203 101.185L472.297 104.194C473.776 104.946 475.995 106.45 477.474 107.203L466.38 104.194C464.161 103.442 462.682 101.937 461.203 101.185Z" fill="#3900A8"/>
<path d="M466.38 104.195L477.474 107.204C478.953 108.708 481.172 109.46 482.651 110.965L471.557 107.956C469.339 106.452 467.859 104.947 466.38 104.195Z" fill="#3A00AD"/>
<path d="M470.818 107.956L481.911 110.965C483.391 112.469 485.609 113.973 487.088 115.478L475.995 112.469C474.515 110.965 473.036 109.46 470.818 107.956Z" fill="#3C00B3"/>
<path d="M476.734 112.468L487.828 115.476C490.047 117.733 491.526 119.237 493.745 122.246L482.651 119.237C480.432 116.229 478.213 114.724 476.734 112.468Z" fill="#3E00B8"/>
<path d="M481.911 118.485L493.005 121.494C495.964 126.007 498.922 130.52 501.141 135.033L490.047 132.024C487.828 127.511 485.609 122.998 481.911 118.485Z" fill="#4000BD"/>
<path d="M490.047 132.776L501.14 135.785C501.88 138.041 503.359 140.298 504.099 142.554C504.099 143.306 504.838 144.058 504.838 144.81L493.745 141.802C493.745 141.05 493.005 140.298 493.005 139.545C492.265 137.289 491.526 135.032 490.047 132.776Z" fill="#4100C2"/>
<path d="M493.745 141.803L504.838 144.812C506.318 150.077 507.797 155.342 507.797 161.359L496.703 158.351C496.703 152.334 495.224 147.068 493.745 141.803Z" fill="#4000BD"/>
<path d="M496.703 157.598L508.536 161.358C508.536 164.367 508.536 167.376 508.536 170.384L497.443 167.376C497.443 163.615 497.443 160.606 496.703 157.598Z" fill="#3E00B8"/>
<path d="M496.703 166.623L507.797 169.632C507.797 171.888 507.797 174.145 507.057 177.153L495.964 174.145C496.703 171.888 496.703 169.632 496.703 166.623Z" fill="#3C00B3"/>
<path d="M496.703 174.145L507.797 177.153C507.797 179.41 507.057 181.666 506.318 183.923L495.224 180.914C495.963 178.658 495.963 176.401 496.703 174.145Z" fill="#3A00AD"/>
<path d="M495.224 180.915L506.318 183.924C505.578 186.181 505.578 187.685 504.838 189.941L493.745 186.933C494.484 184.676 494.484 182.42 495.224 180.915Z" fill="#3900A8"/>
<path d="M493.745 186.933L504.838 189.942C504.099 192.198 503.359 193.702 502.62 195.959L491.526 192.95C492.265 190.694 493.005 188.437 493.745 186.933Z" fill="#3700A3"/>
<path d="M491.526 192.198L502.62 195.206C501.88 196.711 501.141 198.967 500.401 200.472L489.307 197.463C490.047 195.959 490.786 194.454 491.526 192.198Z" fill="#35009E"/>
<path d="M489.307 197.463L500.401 200.471C499.661 201.975 498.182 204.232 497.442 205.736L486.349 202.728C487.088 201.223 487.828 199.719 489.307 197.463Z" fill="#340099"/>
<path d="M486.349 203.48L497.442 206.489C495.963 207.993 495.224 210.25 493.745 211.754L482.651 208.745C483.39 207.241 484.87 204.985 486.349 203.48Z" fill="#320094"/>
<path d="M482.651 208.745L493.745 211.754C492.266 214.01 490.786 215.514 489.307 217.771L478.213 214.762C479.693 212.506 481.172 211.001 482.651 208.745Z" fill="#30008F"/>
<path d="M478.213 214.763L489.307 217.771C487.088 220.028 484.87 222.284 482.651 223.789L471.557 220.78C473.776 218.523 475.994 216.267 478.213 214.763Z" fill="#2E008A"/>
<path d="M471.557 220.78L482.651 223.789C476.734 229.054 470.818 232.815 463.422 235.824C450.109 241.089 435.317 241.841 422.744 238.832L411.651 235.824C424.963 239.584 439.015 238.832 452.328 232.815C459.724 229.806 465.64 225.293 471.557 220.78Z" fill="#2D0085"/>
</g>
<path d="M406.473 98.9296C441.234 84.6385 480.432 102.69 493.005 139.546C505.578 176.402 487.088 218.523 452.328 232.815C417.567 247.106 378.369 229.054 365.796 192.198C353.223 154.59 371.713 113.221 406.473 98.9296ZM450.848 229.054C484.13 215.515 501.14 175.65 489.307 141.051C477.474 106.451 440.494 88.3993 407.213 101.938C373.931 115.477 357.661 155.342 369.494 189.941C381.327 224.541 418.307 242.593 450.848 229.054Z" fill="#4500CB"/>
<mask id="mask4_865_3438" style="mask-type:luminance" maskUnits="userSpaceOnUse" x="402" y="131" width="57" height="66">
<path d="M402.775 196.712L404.994 135.787L458.984 131.274L456.765 192.199L402.775 196.712Z" fill="white"/>
</mask>
<g mask="url(#mask4_865_3438)">
<path d="M457.505 144.812L416.828 147.821L416.088 149.325L415.348 180.916L416.088 181.668H419.786L420.525 180.164V169.634C421.265 168.882 422.005 168.13 422.744 168.13L456.765 165.121L457.505 163.617V159.104L456.765 158.351L424.223 161.36C422.744 161.36 421.265 159.856 421.265 158.351C421.265 156.847 422.744 154.591 424.223 154.591L456.765 152.334L458.244 150.83V146.317L457.505 144.812ZM409.432 148.573H405.734L404.255 150.078L402.775 195.207L403.515 195.96L456.026 191.447L456.765 189.942V185.429L456.026 184.677L409.432 188.438L408.692 187.686L410.171 149.325L409.432 148.573ZM456.765 171.89L427.921 174.147L427.182 175.651V180.164L427.921 180.916L456.765 178.66L457.505 177.155V172.643L456.765 171.89ZM457.505 131.274L405.734 135.787L404.994 136.539V141.052L405.734 141.804L458.244 137.291V132.778L457.505 131.274Z" fill="white"/>
</g>
<g clip-path="url(#clip1_865_3438)">
<path d="M318.529 128.592L312.205 135.877L311.565 135.837L317.889 128.552L318.529 128.592Z" fill="#003483"/>
<mask id="mask5_865_3438" style="mask-type:luminance" maskUnits="userSpaceOnUse" x="259" y="128" width="59" height="30">
<path d="M259.972 157.371L266.256 150.086C278.304 136.157 296.636 127.792 317.889 128.552L311.605 135.837C290.351 135.116 272.02 143.442 259.972 157.371Z" fill="white"/>
</mask>
<g mask="url(#mask5_865_3438)">
<path d="M317.889 128.552L311.605 135.837C290.351 135.076 272.019 143.442 259.972 157.371L266.256 150.086C278.304 136.157 296.635 127.832 317.889 128.552Z" fill="#003585"/>
</g>
<mask id="mask6_865_3438" style="mask-type:luminance" maskUnits="userSpaceOnUse" x="312" y="128" width="88" height="132">
<path d="M384.172 252.192L377.887 259.477C388.574 247.109 394.298 230.418 392.697 211.846C388.774 171.059 353.432 137.678 312.245 135.877L318.529 128.592C359.716 130.393 395.059 163.775 398.981 204.561C400.582 223.133 394.858 239.824 384.172 252.192Z" fill="white"/>
</mask>
<g mask="url(#mask6_865_3438)">
<path d="M384.172 252.192L377.887 259.477C388.574 247.109 394.298 230.418 392.697 211.846C388.774 171.059 353.432 137.678 312.245 135.877L318.529 128.592C359.716 130.393 395.059 163.775 398.981 204.561C400.582 223.133 394.858 239.824 384.172 252.192Z" fill="#003585"/>
</g>
<mask id="mask7_865_3438" style="mask-type:luminance" maskUnits="userSpaceOnUse" x="244" y="150" width="23" height="50">
<path d="M244.802 199.758C244.682 183.228 250.325 168.498 259.972 157.371L266.256 150.086C256.609 161.253 250.966 175.983 251.086 192.474C249.004 194.915 246.883 197.357 244.802 199.758Z" fill="white"/>
</mask>
<g mask="url(#mask7_865_3438)">
<path d="M384.172 252.192L377.888 259.477C365.76 273.486 347.268 281.892 325.894 281.171C285.188 279.73 248.924 245.828 245.082 205.562C243.441 186.71 249.204 169.819 259.971 157.371L266.256 150.086C255.489 162.534 249.725 179.425 251.366 198.277C255.248 238.544 291.472 272.446 332.138 273.846C353.552 274.607 372.044 266.201 384.172 252.192Z" fill="#004B85"/>
</g>
<mask id="mask8_865_3438" style="mask-type:luminance" maskUnits="userSpaceOnUse" x="244" y="192" width="141" height="90">
<path d="M245.082 205.562C244.922 203.601 244.842 201.679 244.802 199.758C246.883 197.317 249.005 194.915 251.086 192.474C251.086 194.395 251.206 196.316 251.366 198.277C255.249 238.543 291.472 272.445 332.138 273.846C353.552 274.607 372.044 266.161 384.132 252.152L377.848 259.437C365.72 273.446 347.228 281.851 325.854 281.131C285.188 279.73 248.925 245.828 245.082 205.562Z" fill="white"/>
</mask>
<g mask="url(#mask8_865_3438)">
<path d="M384.172 252.192L377.888 259.477C365.76 273.486 347.268 281.891 325.894 281.171C285.188 279.73 248.925 245.828 245.082 205.562C243.441 186.71 249.205 169.819 259.972 157.371L266.256 150.086C255.489 162.534 249.725 179.425 251.366 198.277C255.249 238.543 291.472 272.445 332.138 273.846C353.552 274.607 372.044 266.201 384.172 252.192Z" fill="#004B85"/>
</g>
<path d="M318.209 124.87C360.797 126.711 398.701 162.534 402.744 204.681C406.386 246.388 374.846 279.09 332.498 277.609C289.751 276.128 251.646 240.465 247.603 198.157C243.921 156.05 275.341 123.349 317.569 124.83C317.769 124.83 317.969 124.87 318.209 124.87ZM332.138 273.886C372.444 275.287 402.384 244.187 398.941 204.561C395.059 163.775 359.716 130.393 318.529 128.592L317.889 128.552C277.663 127.151 247.884 158.291 251.366 198.277C255.248 238.583 291.472 272.445 332.138 273.886Z" fill="#0064FA"/>
<path d="M318.529 128.592C359.716 130.393 395.059 163.775 398.982 204.561C402.424 244.187 372.484 275.287 332.178 273.886C291.472 272.445 255.248 238.584 251.366 198.277C247.884 158.291 277.663 127.151 317.889 128.552L318.529 128.592Z" fill="#008DFA"/>
<mask id="mask9_865_3438" style="mask-type:luminance" maskUnits="userSpaceOnUse" x="240" y="147" width="148" height="138">
<path d="M387.174 254.834L380.89 262.119C368.162 276.848 348.709 285.694 326.214 284.934C283.467 283.453 245.362 247.79 241.279 205.482C239.558 185.629 245.602 167.858 256.929 154.809L263.214 147.525C251.926 160.613 245.842 178.345 247.563 198.157C251.646 240.465 289.751 276.128 332.498 277.609C354.993 278.409 374.446 269.564 387.174 254.834Z" fill="white"/>
</mask>
<g mask="url(#mask9_865_3438)">
<path d="M387.174 254.834L380.89 262.119C368.162 276.848 348.709 285.694 326.214 284.934C283.467 283.453 245.362 247.79 241.279 205.482C239.558 185.629 245.602 167.858 256.929 154.809L263.214 147.525C251.926 160.613 245.842 178.345 247.563 198.157C251.646 240.465 289.751 276.128 332.498 277.609C354.993 278.409 374.446 269.564 387.174 254.834Z" fill="#003585"/>
</g>
<path fill-rule="evenodd" clip-rule="evenodd" d="M331.098 191.953L329.096 202.64L348.149 205.322L346.828 210.325L328.096 207.643C326.775 212.006 326.094 216.689 324.413 220.692C322.732 225.375 321.051 230.058 319.05 234.381C316.368 240.064 311.685 244.067 305.361 245.067C301.678 245.748 297.676 245.388 294.674 243.066C293.673 242.386 292.673 241.065 292.673 240.064C292.673 238.743 293.353 237.062 294.354 236.382C295.034 236.062 296.675 236.382 297.716 236.702C298.717 237.703 299.717 239.024 300.398 240.384C302.399 243.066 305.081 243.386 307.762 241.385C310.764 238.703 312.445 235.021 313.446 231.339C315.447 223.333 317.449 215.608 319.13 207.603V206.282L301.398 203.601L302.079 198.597L320.451 201.279L322.772 190.912L303.72 187.91L304.4 182.547L324.133 185.229C324.813 183.227 325.134 181.546 325.814 179.865C327.495 173.861 329.176 167.817 333.179 162.494C337.181 157.13 341.864 153.808 348.909 154.129C351.911 154.129 354.913 155.129 356.914 157.491C357.234 157.811 357.915 158.491 357.915 159.172C357.915 160.493 357.915 162.174 356.914 163.174C355.593 164.175 353.912 163.855 352.551 162.494C351.551 161.493 350.87 160.493 349.87 159.492C347.868 156.81 344.866 156.49 342.505 158.812C340.824 160.493 339.143 162.814 338.142 165.176C335.821 172.18 334.139 179.545 331.778 186.91L350.15 189.592L348.829 194.595L331.098 191.953Z" fill="white"/>
</g>
</g>
<defs>
<filter id="filter0_f_865_3438" x="108.224" y="81.2771" width="537.057" height="325.287" filterUnits="userSpaceOnUse" color-interpolation-filters="sRGB">
<feFlood flood-opacity="0" result="BackgroundImageFix"/>
<feBlend mode="normal" in="SourceGraphic" in2="BackgroundImageFix" result="shape"/>
<feGaussianBlur stdDeviation="43.4261" result="effect1_foregroundBlur_865_3438"/>
</filter>
<radialGradient id="paint0_radial_865_3438" cx="0" cy="0" r="1" gradientUnits="userSpaceOnUse" gradientTransform="translate(654.04 255.898) rotate(-164.963) scale(550.274 1005.21)">
<stop stop-color="#5162FF" stop-opacity="0"/>
<stop offset="1" stop-color="#5162FF"/>
</radialGradient>
<linearGradient id="paint1_linear_865_3438" x1="385.107" y1="247.028" x2="385.107" y2="448" gradientUnits="userSpaceOnUse">
<stop stop-color="#0A0429" stop-opacity="0"/>
<stop offset="1" stop-color="#0A0429"/>
</linearGradient>
<clipPath id="clip0_865_3438">
<rect width="750" height="448" fill="white"/>
</clipPath>
<clipPath id="clip1_865_3438">
<rect width="162.025" height="160.184" fill="white" transform="translate(241 124.79)"/>
</clipPath>
</defs>
</svg>
