<svg width="327" height="427" viewBox="0 0 327 427" fill="none" xmlns="http://www.w3.org/2000/svg">
<g clip-path="url(#clip0_865_4452)">
<rect width="327" height="427" fill="#142C46"/>
<rect width="327" height="427" fill="url(#paint0_radial_865_4452)" fill-opacity="0.5"/>
<g opacity="0.3">
<path d="M294.189 352.958L282.557 328.353L248.187 343.685L256.281 369.962L294.189 352.958Z" fill="#02081F"/>
<path d="M239.209 319.338L247.47 341.544L281.484 326.376L269.622 305.839L239.209 319.338Z" fill="#02081F"/>
<path d="M163.097 180.758L153.12 181.559L154.03 209.711L163.014 208.985L163.097 180.758Z" fill="#02081F"/>
<path d="M153.02 179.221L163.104 178.411L163.13 148.118L151.435 149.055L153.02 179.221Z" fill="#02081F"/>
<path d="M201.075 251.227L194.223 246.822L194.899 268.062L201.997 272.645L201.075 251.227Z" fill="#02081F"/>
<path d="M210.295 260.101L210.838 270.466L214.786 268.732L214.603 265.668L210.295 260.101Z" fill="#02081F"/>
<path d="M195.322 219.439L194.199 244.231L201.141 248.692L202.554 224.063L195.322 219.439Z" fill="#02081F"/>
<path d="M231.298 235.839L226.071 257.243L226.511 260.968L227.3 260.214L232.031 241.944L231.298 235.839Z" fill="#02081F"/>
<path d="M231.315 252.787L231.428 251.109L229.652 257.969L230.025 257.613L231.315 252.787Z" fill="#02081F"/>
<path d="M185.605 215.058L184.792 240.065L192.567 243.406L193.697 218.52L185.605 215.058Z" fill="#02081F"/>
<path d="M184.792 242.516L185.202 263.77L193.203 267.224L192.524 245.838L184.792 242.516Z" fill="#02081F"/>
<path d="M211.808 232.783L210.179 256.77L214.756 262.683L216.588 238.931L211.808 232.783Z" fill="#02081F"/>
<path d="M28.5441 384.122L-3.05469 362.943V399.51L18.8906 414.317L28.5441 384.122Z" fill="#02081F"/>
<path d="M39.9098 354.134L5.31302 331.094L-3.05469 346.894V360.352L29.2769 382.023L39.9098 354.134Z" fill="#02081F"/>
<path d="M-3.05469 402.106V439.128L9.92659 447.946L18.2543 416.487L-3.05469 402.106Z" fill="#02081F"/>
<path d="M-3.05469 323.297V342.973L3.86399 329.904L-3.05469 323.297Z" fill="#02081F"/>
<path d="M163.004 211.332L154.076 212.054L154.286 237.211L162.87 236.509L163.004 211.332Z" fill="#02081F"/>
<path d="M19.3669 305.628L-3.05469 284.359V320.467L4.92329 328.081L19.3669 305.628Z" fill="#02081F"/>
<path d="M19.8032 417.344L11.4722 448.818L15.3862 450.584H63.1841L65.4093 437.788L19.8032 417.344Z" fill="#02081F"/>
<path d="M153.797 260.837L162.677 260.11L162.854 238.861L154.273 239.554L153.797 260.837Z" fill="#02081F"/>
<path d="M162.437 279.064L162.651 262.463L153.7 263.194L152.691 278.375L162.437 279.064Z" fill="#02081F"/>
<path d="M262.89 402.176L255.272 372.727L214.053 383.288L218.043 413.736L262.89 402.176Z" fill="#02081F"/>
<path d="M121.152 416.332L117.874 448.916L137.727 450.584H168.28L168.134 420.263L121.152 416.332Z" fill="#02081F"/>
<path d="M256.311 200.33L244.113 218.933L243.506 227.957L255.602 211.257L256.311 200.33Z" fill="#02081F"/>
<path d="M254.352 216.266L243.18 231.692L241.205 239.24L251.941 225.544L254.352 216.266Z" fill="#02081F"/>
<path d="M255.015 184.989L242.66 206.206L243.843 215.887L256.471 196.629L255.015 184.989Z" fill="#02081F"/>
<path d="M237.844 248.387L245.572 239.03L248.213 233.463L239.885 244.09L237.844 248.387Z" fill="#02081F"/>
<path d="M242.983 249.9L237.637 253.185L232.82 257.782L232.69 257.904L237.224 255.397L242.983 249.9Z" fill="#02081F"/>
<path d="M238.879 193.892L241.987 203.667L254.549 182.094L250.795 170.412L238.879 193.892Z" fill="#02081F"/>
<path d="M263.31 242.356L251.228 244.863L240.545 255.059L250.791 254.328L263.31 242.356Z" fill="#02081F"/>
<path d="M246.691 240.777L241.065 248.523L250.445 242.759L257.201 233.44L246.691 240.777Z" fill="#02081F"/>
<path d="M258.44 130.551L244.875 154.823L251.028 166.261L265.848 144.196L258.44 130.551Z" fill="#02081F"/>
<path d="M35.2762 285.507L11.8186 263.391L-3.05469 276.745V281.534L20.5561 303.931L35.2762 285.507Z" fill="#02081F"/>
<path d="M210.682 123.696L222.45 131.09L232.414 103.069L218.38 94.307L210.682 123.696Z" fill="#02081F"/>
<path d="M233.883 104.175L223.923 132.196L234.099 141.262L246.048 114.938L233.883 104.175Z" fill="#02081F"/>
<path d="M235.435 142.668L243.719 153.103L257.31 128.78L247.377 116.362L235.435 142.668Z" fill="#02081F"/>
<path d="M208.596 125.106L195.765 119.713L191.471 150.329L202.287 154.903L208.596 125.106Z" fill="#02081F"/>
<path d="M224.882 171.963L231.697 180.613L242.753 155.034L234.609 144.772L224.882 171.963Z" fill="#02081F"/>
<path d="M221.771 133.226L210.159 125.936L203.853 155.713L213.623 161.889L221.771 133.226Z" fill="#02081F"/>
<path d="M249.922 168.093L243.899 156.894L232.89 182.361L237.907 191.774L249.922 168.093Z" fill="#02081F"/>
<path d="M237.877 196.474L229.166 220.549L231.668 228.496L240.845 205.813L237.877 196.474Z" fill="#02081F"/>
<path d="M239.199 240.121L232.88 253.583L232.527 254.933L238.503 242.778L239.199 240.121Z" fill="#02081F"/>
<path d="M233.27 143.301L223.24 134.36L215.102 162.995L223.523 170.548L233.27 143.301Z" fill="#02081F"/>
<path d="M178.32 146.984L189.846 149.795L194.143 119.174L180.482 115.861L178.32 146.984Z" fill="#02081F"/>
<path d="M215.615 199.932L222.837 172.713L214.556 165.281L208.513 193.517L215.615 199.932Z" fill="#02081F"/>
<path d="M242.434 218.192L241.348 209.299L232.444 231.312L233.34 238.8L242.434 218.192Z" fill="#02081F"/>
<path d="M236.947 193.874L232.071 184.732L223.966 210.466L228.11 218.295L236.947 193.874Z" fill="#02081F"/>
<path d="M222.067 210.995L216.514 203.896L212.064 229.939L217.024 236.321L222.067 210.995Z" fill="#02081F"/>
<path d="M230.881 182.731L224.206 174.254L217.011 201.366L222.714 208.657L230.881 182.731Z" fill="#02081F"/>
<path d="M200.519 274.266L195.216 270.846L195.848 275.442L200.519 274.266Z" fill="#02081F"/>
<path d="M317.28 150.789L330.055 147.054V121.831L314.315 129.066L317.28 150.789Z" fill="#02081F"/>
<path d="M306.777 105.862L313.799 126.84L330.055 119.366V102.521L326.784 92.8872L306.777 105.862Z" fill="#02081F"/>
<path d="M316.204 174.981L330.055 173.121V149.448L317.403 153.145L316.204 174.981Z" fill="#02081F"/>
<path d="M310.541 198.704L330.055 199.164V175.477L315.904 177.375L310.541 198.704Z" fill="#02081F"/>
<path d="M300.388 221.224L319.539 224.902L330.055 202.176V201.506L309.812 201.028L300.388 221.224Z" fill="#02081F"/>
<path d="M327.483 89.9821L330.055 88.8575V57.3368L314.749 67.1861L327.483 89.9821Z" fill="#02081F"/>
<path d="M330.055 229.134V206.474L321.257 225.488L330.055 229.134Z" fill="#02081F"/>
<path d="M304.362 -6.04211L330.055 16.0182V-1.77343L316.304 -13.5345L304.362 -6.04211Z" fill="#02081F"/>
<path d="M296.78 44.8353L313.582 65.3634L330.055 54.7596V51.1563L312.876 30.3049L296.78 44.8353Z" fill="#02081F"/>
<path d="M330.055 48.0591V19.1014L314.475 29.1523L330.055 48.0591Z" fill="#02081F"/>
<path d="M169.799 420.263L169.946 450.584H200.455L220.249 448.916L216.668 416.332L169.799 420.263Z" fill="#02081F"/>
<path d="M-3.05469 243.472V273.966L10.4929 261.807L-3.05469 243.472Z" fill="#02081F"/>
<path d="M327.377 447.937L330.055 446.086V408.816L318.919 416.472L327.377 447.937Z" fill="#02081F"/>
<path d="M196.118 117.417L209.119 122.88L216.818 93.5011L201.338 87.0348L196.118 117.417Z" fill="#02081F"/>
<path d="M307.626 382.018L330.055 366.696V331.446L296.65 354.12L307.626 382.018Z" fill="#02081F"/>
<path d="M299.735 285.479L314.909 303.931L330.055 289.167V270.011L322.537 263.395L299.735 285.479Z" fill="#02081F"/>
<path d="M318.273 414.312L330.055 406.206V369.302L308.379 384.113L318.273 414.312Z" fill="#02081F"/>
<path d="M330.055 267.247V253.035L323.842 261.779L330.055 267.247Z" fill="#02081F"/>
<path d="M330.055 326.741V292.016L316.118 305.604L330.055 326.741Z" fill="#02081F"/>
<path d="M304.579 249.305L322.333 260.593L330.055 249.722V231.575L320.188 227.484L304.579 249.305Z" fill="#02081F"/>
<path d="M272.364 437.783L274.652 450.584H321.984L325.834 448.823L317.374 417.349L272.364 437.783Z" fill="#02081F"/>
<path d="M-3.05469 90.282V105.337L1.06921 92.0719L-3.05469 90.282Z" fill="#02081F"/>
<path d="M22.748 105.881L2.63149 92.9014L-3.05469 111.185V117.918L16.3323 126.831L22.748 105.881Z" fill="#02081F"/>
<path d="M9.79335 -13.5392L-3.05469 -2.27006V16.2619L22.2483 -6.00926L9.79335 -13.5392Z" fill="#02081F"/>
<path d="M15.8659 129.08L-3.05469 120.383V145.915L13.5208 150.774L15.8659 129.08Z" fill="#02081F"/>
<path d="M-2.89146 19.0077L-3.05469 19.2139V49.6662L13.2444 29.1803L-2.89146 19.0077Z" fill="#02081F"/>
<path d="M31.2922 44.8588L14.8433 30.3097L-3.05469 52.8104V53.8319L15.0964 65.3587L31.2922 44.8588Z" fill="#02081F"/>
<path d="M13.9639 67.2096L-3.05469 56.3997V87.8314L1.89199 89.9727L13.9639 67.2096Z" fill="#02081F"/>
<path d="M29.3036 249.329L13.0512 227.484L-3.05469 234.274V240.22L11.9985 260.593L29.3036 249.329Z" fill="#02081F"/>
<path d="M288.09 6.14554L300.848 -5.97638L281.078 -17.9858H266.941L261.394 -10.1326L288.09 6.14554Z" fill="#02081F"/>
<path d="M21.6021 198.704L15.6328 177.375L-3.05469 174.845V183.86L1.17913 199.192L21.6021 198.704Z" fill="#02081F"/>
<path d="M13.4542 153.15L-3.05469 148.31V172.493L15.273 174.976L13.4542 153.15Z" fill="#02081F"/>
<path d="M0.226443 201.656L-3.05469 202.42V231.828L11.9419 225.507L0.226443 201.656Z" fill="#02081F"/>
<path d="M248.453 9.22405L258.54 -9.09706L236.788 -17.9858H228.496L222.744 -1.33284L248.453 9.22405Z" fill="#02081F"/>
<path d="M39.0005 6.14554L65.1896 -10.1045L59.3568 -17.9858H45.173L25.7827 -5.99982L39.0005 6.14554Z" fill="#02081F"/>
<path d="M78.6272 9.22405L104.007 -1.31879L97.8443 -17.9858H89.5532L68.0942 -9.11112L78.6272 9.22405Z" fill="#02081F"/>
<path d="M241.654 230.638L242.147 223.286L233.696 242.441L233.283 248.476L241.654 230.638Z" fill="#02081F"/>
<path d="M25.0398 104.967L43.9571 121.554L52.5813 104.962L35.2296 85.568L25.0398 104.967Z" fill="#02081F"/>
<path d="M51.4419 64.9042L66.6916 86.7349L81.092 73.7555L68.3205 49.7975L51.4419 64.9042Z" fill="#02081F"/>
<path d="M60.8557 211.075L56.7751 196.811L39.4102 186.17L44.2269 203.17L60.8557 211.075Z" fill="#02081F"/>
<path d="M53.6905 103.205L65.3726 88.1922L50.0929 66.3193L36.3555 83.8345L53.6905 103.205Z" fill="#02081F"/>
<path d="M57.2081 159.274L61.5619 144.631L44.5033 125.022L39.2568 142.41L57.2081 159.274Z" fill="#02081F"/>
<path d="M56.4087 194.033L55.0696 179.174L37.115 165.445L38.654 183.153L56.4087 194.033Z" fill="#02081F"/>
<path d="M36.9985 162.69L55.1863 176.597L56.6886 161.603L38.854 144.847L36.9985 162.69Z" fill="#02081F"/>
<path d="M138.484 152.101L141.635 181.888L151.365 179.484L149.779 149.327L138.484 152.101Z" fill="#02081F"/>
<path d="M121.502 55.1438L127.704 84.228L144.246 80.217L141.032 50.4347L121.502 55.1438Z" fill="#02081F"/>
<path d="M128.144 86.5007L133.507 116.883L147.238 113.532L144.473 82.5413L128.144 86.5007Z" fill="#02081F"/>
<path d="M133.867 119.174L138.2 149.79L149.636 146.984L147.424 115.866L133.867 119.174Z" fill="#02081F"/>
<path d="M90.929 35.6514L100.839 61.2213L119.357 53.443L112.534 26.6267L90.929 35.6514Z" fill="#02081F"/>
<path d="M69.8164 48.6963L82.5645 72.6074L99.2699 62.0646L89.3433 36.4479L69.8164 48.6963Z" fill="#02081F"/>
<path d="M114.17 26.1113L120.982 52.8901L140.759 48.1247L137.214 20.5822L114.17 26.1113Z" fill="#02081F"/>
<path d="M34.0903 44.8118L50.1862 63.2548L67.2381 47.9888L53.7638 27.3154L34.0903 44.8118Z" fill="#02081F"/>
<path d="M193.367 269.744L185.379 266.296L186.438 277.809L194.209 275.855L193.367 269.744Z" fill="#02081F"/>
<path d="M34.3003 220.985L51.4354 221.885L43.1177 205.194L24.6001 201.394L34.3003 220.985Z" fill="#02081F"/>
<path d="M180.662 113.528L194.496 116.883L199.716 86.5054L183.263 82.5413L180.662 113.528Z" fill="#02081F"/>
<path d="M185.785 280.301L167.637 281.787L167.764 282.991L187.131 281.403L185.785 280.301Z" fill="#02081F"/>
<path d="M227.38 298.383L219.912 286.365L195.479 292.526L199.439 305.445L227.38 298.383Z" fill="#02081F"/>
<path d="M218.147 284.429L211.831 278.029L191.331 283.188L194.689 290.343L218.147 284.429Z" fill="#02081F"/>
<path d="M207.847 276.651L204.616 275.616L188.367 279.702L190.092 281.117L207.847 276.651Z" fill="#02081F"/>
<path d="M52.6346 268.779L66.2155 259.886L48.8905 243.706L32.728 250.107L52.6346 268.779Z" fill="#02081F"/>
<path d="M65.4626 303.069L76.5951 287.171L52.6378 271.459L38.3108 285.188L65.4626 303.069Z" fill="#02081F"/>
<path d="M127.371 353.735L90.0094 344.28L82.4045 370.501L123.627 380.987L127.371 353.735Z" fill="#02081F"/>
<path d="M64.1569 239.503L52.7346 224.298L36.0225 223.422L49.3335 241.222L64.1569 239.503Z" fill="#02081F"/>
<path d="M89.0602 341.539L96.7717 319.352L65.9457 305.843L54.5867 326.357L89.0602 341.539Z" fill="#02081F"/>
<path d="M42.3481 352.948L80.7623 369.958L88.3805 343.694L53.5506 328.358L42.3481 352.948Z" fill="#02081F"/>
<path d="M126.328 157.166L130.942 186.325L140.009 182.426L136.861 152.658L126.328 157.166Z" fill="#02081F"/>
<path d="M67.7944 88.5201L81.6518 113.017L93.6437 102.132L82.0349 75.6907L67.7944 88.5201Z" fill="#02081F"/>
<path d="M101.585 63.3533L110.609 91.3129L126.082 84.7763L119.876 55.6687L101.585 63.3533Z" fill="#02081F"/>
<path d="M83.5039 74.5849L95.1061 101.003L109.047 92.147L100.016 64.1639L83.5039 74.5849Z" fill="#02081F"/>
<path d="M54.9297 104.784L70.6458 127.013L80.3359 114.451L66.4753 89.9445L54.9297 104.784Z" fill="#02081F"/>
<path d="M45.3096 122.918L62.4147 142.584L69.53 128.756L53.8238 106.541L45.3096 122.918Z" fill="#02081F"/>
<path d="M73.1674 209.378L72.0748 197.627L56.9216 181.091L58.1974 195.256L73.1674 209.378Z" fill="#02081F"/>
<path d="M73.9669 180.29L77.4779 168.322L62.8444 146.398L58.5806 160.727L73.9669 180.29Z" fill="#02081F"/>
<path d="M56.7351 177.923L72.2247 194.825L73.4006 182.731L58.1908 163.388L56.7351 177.923Z" fill="#02081F"/>
<path d="M134.193 218.52L135.046 243.397L142.704 240.065L142.161 215.072L134.193 218.52Z" fill="#02081F"/>
<path d="M131.252 188.644L134.017 216.145L142.068 212.663L140.202 184.788L131.252 188.644Z" fill="#02081F"/>
<path d="M142.664 242.535L135.059 245.843L134.03 267.205L141.904 263.765L142.664 242.535Z" fill="#02081F"/>
<path d="M111.242 93.4917L119.053 122.88L131.885 117.426L126.522 87.0348L111.242 93.4917Z" fill="#02081F"/>
<path d="M236.628 317.801L228.58 300.459L200.022 307.68L204.279 326.01L236.628 317.801Z" fill="#02081F"/>
<path d="M119.583 125.101L125.905 154.898L136.578 150.329L132.248 119.717L119.583 125.101Z" fill="#02081F"/>
<path d="M68.0775 258.812L80.1394 254.947L65.8623 241.653L51.4919 243.322L68.0775 258.812Z" fill="#02081F"/>
<path d="M125.832 276.59L143.913 281.107L145.232 279.776L128.577 275.62L125.832 276.59Z" fill="#02081F"/>
<path d="M167.324 331.389L133.147 328.573L129.383 351.707L167.614 354.869L167.324 331.389Z" fill="#02081F"/>
<path d="M141.861 290.572L166.545 292.592L166.262 285.329L144.589 283.558L141.861 290.572Z" fill="#02081F"/>
<path d="M142.151 276.628L147.424 277.944L151.028 278.24L152.005 263.503L143.434 265.649L142.151 276.628Z" fill="#02081F"/>
<path d="M152.624 237.469L152.414 212.345L143.817 214.477L144.36 239.531L152.624 237.469Z" fill="#02081F"/>
<path d="M152.124 261.095L152.601 239.854L144.353 241.911L143.594 263.231L152.124 261.095Z" fill="#02081F"/>
<path d="M97.5711 317.248L105.063 299.845L78.2541 288.141L67.1948 303.936L97.5711 317.248Z" fill="#02081F"/>
<path d="M127.714 351.444L131.485 328.283L98.4171 319.952L90.7256 342.082L127.714 351.444Z" fill="#02081F"/>
<path d="M78.8869 242.019L69.9595 230.174L55.939 225.333L66.4652 239.348L78.8869 242.019Z" fill="#02081F"/>
<path d="M53.5807 222.11L68.4108 227.226L61.7819 213.985L45.7327 206.361L53.5807 222.11Z" fill="#02081F"/>
<path d="M143.707 212.124L152.371 209.974L151.461 181.841L141.838 184.216L143.707 212.124Z" fill="#02081F"/>
<path d="M76.6985 223.468L73.554 212.565L59.2036 199.023L62.9711 212.19L76.6985 223.468Z" fill="#02081F"/>
<path d="M77.9208 285.456L88.3005 274.683L67.9142 261.357L54.5332 270.119L77.9208 285.456Z" fill="#02081F"/>
<path d="M6.42236 329.239L40.7526 352.105L51.9784 327.463L20.8327 306.841L6.42236 329.239Z" fill="#02081F"/>
<path d="M36.9119 182.408L35.3263 164.185L15.1965 153.923L16.982 175.342L36.9119 182.408Z" fill="#02081F"/>
<path d="M15.1396 151.402L35.416 161.739L37.3081 143.526L17.4481 130.021L15.1396 151.402Z" fill="#02081F"/>
<path d="M37.7978 141.253L43.1276 123.588L24.2169 107.005L17.8745 127.707L37.7978 141.253Z" fill="#02081F"/>
<path d="M47.3981 241.86L33.5707 223.375L15.0964 226.992L30.9924 248.364L47.3981 241.86Z" fill="#02081F"/>
<path d="M36.6287 283.961L51.069 270.129L30.686 251.011L13.5242 262.182L36.6287 283.961Z" fill="#02081F"/>
<path d="M13.6708 224.907L32.3949 221.238L22.3883 201.028L2.18188 201.511L13.6708 224.907Z" fill="#02081F"/>
<path d="M42.285 202.654L37.2717 184.952L17.5916 177.975L23.4143 198.784L42.285 202.654Z" fill="#02081F"/>
<path d="M3.49097 90.8771L23.5675 103.828L33.8639 84.2234L15.4629 68.3014L3.49097 90.8771Z" fill="#02081F"/>
<path d="M34.9765 82.4335L48.8472 64.7403L32.6947 46.2365L16.6355 66.563L34.9765 82.4335Z" fill="#02081F"/>
<path d="M40.4595 7.80428L54.0537 24.4291L76.9983 10.119L66.4154 -8.30518L40.4595 7.80428Z" fill="#02081F"/>
<path d="M79.6396 11.2483L90.0626 33.5662L111.918 24.4432L104.736 0.817871L79.6396 11.2483Z" fill="#02081F"/>
<path d="M55.3062 26.2097L68.7305 46.8127L88.4739 34.4284L78.0209 12.0448L55.3062 26.2097Z" fill="#02081F"/>
<path d="M-1.27588 17.4615L14.6901 27.5217L37.3782 7.45753L24.0305 -4.81433L-1.27588 17.4615Z" fill="#02081F"/>
<path d="M52.5181 25.652L38.8406 8.92871L16.3191 28.8476L32.6681 43.3077L52.5181 25.652Z" fill="#02081F"/>
<path d="M20.4429 415.175L65.8457 435.525L72.4346 403.854L30.0931 384.989L20.4429 415.175Z" fill="#02081F"/>
<path d="M198.343 307.984L168.647 310.43L168.957 329.042L202.587 326.263L198.343 307.984Z" fill="#02081F"/>
<path d="M193.763 292.85L168.287 294.94L168.6 308.088L197.7 305.693L193.763 292.85Z" fill="#02081F"/>
<path d="M52.9443 325.513L64.3433 304.92L36.7752 286.763L22.125 305.107L52.9443 325.513Z" fill="#02081F"/>
<path d="M192.807 290.582L189.506 283.553L167.93 285.324L168.214 292.601L192.807 290.582Z" fill="#02081F"/>
<path d="M207.817 354.021L169.306 357.217L169.559 384.802L212.061 381.259L207.817 354.021Z" fill="#02081F"/>
<path d="M212.397 383.579L169.579 387.149L169.786 417.916L216.385 414.008L212.397 383.579Z" fill="#02081F"/>
<path d="M203.08 328.573L168.99 331.385L169.28 354.869L207.414 351.707L203.08 328.573Z" fill="#02081F"/>
<path d="M167.914 387.149L124.986 383.579L121.408 414.008L168.12 417.916L167.914 387.149Z" fill="#02081F"/>
<path d="M106.392 0.306975L113.56 23.8807L136.888 18.286L133.144 -6.07495L106.392 0.306975Z" fill="#02081F"/>
<path d="M133.077 274.36L140.512 276.22L141.668 266.324L133.823 269.749L133.077 274.36Z" fill="#02081F"/>
<path d="M80.1795 372.155L41.4655 355.015L30.8459 382.867L72.941 401.619L80.1795 372.155Z" fill="#02081F"/>
<path d="M123.331 383.298L81.7985 372.732L74.5667 402.172L119.753 413.736L123.331 383.298Z" fill="#02081F"/>
<path d="M74.0501 404.421L67.4612 436.087L116.222 448.635L119.5 416.051L74.0501 404.421Z" fill="#02081F"/>
<path d="M145.902 79.9452L163.007 78.5957L162.871 48.5931L142.688 50.1769L145.902 79.9452Z" fill="#02081F"/>
<path d="M313.996 177.942L294.013 184.947L289.492 202.673L308.753 198.789L313.996 177.942Z" fill="#02081F"/>
<path d="M288.729 205.19L280.881 221.889L298.506 220.985L307.66 201.375L288.729 205.19Z" fill="#02081F"/>
<path d="M303.22 251.011L283.41 270.101L298.366 283.966L320.828 262.205L303.22 251.011Z" fill="#02081F"/>
<path d="M299.259 223.375L285.975 241.836L302.89 248.364L318.166 227.006L299.259 223.375Z" fill="#02081F"/>
<path d="M313.246 68.292L295.048 84.1999L305.918 103.838L325.874 90.8958L313.246 68.292Z" fill="#02081F"/>
<path d="M315.691 153.89L295.375 164.176L294.306 182.426L314.512 175.346L315.691 153.89Z" fill="#02081F"/>
<path d="M292.813 143.512L295.228 161.758L315.668 151.412L312.746 129.993L292.813 143.512Z" fill="#02081F"/>
<path d="M286.434 123.569L292.277 141.272L312.253 127.725L305.311 106.982L286.434 123.569Z" fill="#02081F"/>
<path d="M271.224 304.901L283.136 325.513L313.346 305.126L298.246 286.763L271.224 304.901Z" fill="#02081F"/>
<path d="M254.635 370.51L246.554 344.28L209.476 353.731L213.723 380.992L254.635 370.51Z" fill="#02081F"/>
<path d="M316.724 415.179L306.834 384.994L265.045 403.845L271.914 435.525L316.724 415.179Z" fill="#02081F"/>
<path d="M263.426 404.421L218.32 416.046L221.904 448.635L270.295 436.091L263.426 404.421Z" fill="#02081F"/>
<path d="M314.658 306.841L284.125 327.444L295.788 352.105L329.442 329.258L314.658 306.841Z" fill="#02081F"/>
<path d="M256.894 372.146L264.516 401.624L306.061 382.881L295.098 355.01L256.894 372.146Z" fill="#02081F"/>
<path d="M215.289 24.4292L237.427 33.5663L247.467 11.2577L222.051 0.822632L215.289 24.4292Z" fill="#02081F"/>
<path d="M151.292 146.717L163.13 145.77L163.104 114.479L149.076 115.594L151.292 146.717Z" fill="#02081F"/>
<path d="M148.893 113.265L163.097 112.136L163.014 80.9434L146.128 82.2788L148.893 113.265Z" fill="#02081F"/>
<path d="M146.515 281.37L166.078 282.968L165.955 281.805L147.571 280.306L146.515 281.37Z" fill="#02081F"/>
<path d="M142.418 47.8529L162.857 46.2457L162.674 18.4689L138.873 20.3291L142.418 47.8529Z" fill="#02081F"/>
<path d="M164.323 16.1261L188.49 18.0098L191.794 -6.32306L164.103 -8.46912L164.323 16.1261Z" fill="#02081F"/>
<path d="M245.791 342.092L237.557 319.947L204.749 328.273L209.089 351.449L245.791 342.092Z" fill="#02081F"/>
<path d="M288.269 8.92871L275.002 25.6286L295.385 43.3124L311.384 28.8711L288.269 8.92871Z" fill="#02081F"/>
<path d="M260.208 -8.30042L250.075 10.1003L273.459 24.4292L286.651 7.82308L260.208 -8.30042Z" fill="#02081F"/>
<path d="M279.509 64.7167L293.906 82.4427L312.04 66.5863L295.381 46.2316L279.509 64.7167Z" fill="#02081F"/>
<path d="M328.566 17.4848L302.597 -4.80981L289.715 7.42924L313.006 27.5215L328.566 17.4848Z" fill="#02081F"/>
<path d="M138.55 18.0096L162.657 16.1259L162.434 -8.474L134.809 -6.32325L138.55 18.0096Z" fill="#02081F"/>
<path d="M190.149 18.2813L213.653 23.876L220.402 0.316303L193.453 -6.07031L190.149 18.2813Z" fill="#02081F"/>
<path d="M239.019 34.4143L259.139 46.8127L272.227 26.2284L249.086 12.0448L239.019 34.4143Z" fill="#02081F"/>
<path d="M167.637 357.217L129.03 354.021L125.286 381.259L167.894 384.802L167.637 357.217Z" fill="#02081F"/>
<path d="M105.539 268.47L121.885 275.569L125.459 274.303L110.842 267.964L105.539 268.47Z" fill="#02081F"/>
<path d="M97.5679 241.935L101.262 257.004L102.814 258.442L102.921 257.257L98.0775 236.392L97.5679 241.935Z" fill="#02081F"/>
<path d="M105.636 247.441L100.646 224.045L98.6138 231.139L103.85 253.71L105.636 247.441Z" fill="#02081F"/>
<path d="M96.8582 184.802L92.2812 193.864L100.885 218.23L104.773 210.48L96.8582 184.802Z" fill="#02081F"/>
<path d="M110.106 238.242L105.379 213.338L101.675 220.722L106.822 244.84L110.106 238.242Z" fill="#02081F"/>
<path d="M98.0342 182.722L106.015 208.619L111.478 201.375L104.433 174.297L98.0342 182.722Z" fill="#02081F"/>
<path d="M106.722 261.999L106.029 252.36L104.62 257.309L104.853 260.336L106.722 261.999Z" fill="#02081F"/>
<path d="M101.059 268.976L92.3279 274.271L114.21 283.792L120.103 277.246L101.059 268.976Z" fill="#02081F"/>
<path d="M117.041 268.198L117.581 260.251L113.54 265.668L113.484 266.399L117.041 268.198Z" fill="#02081F"/>
<path d="M116.415 232.873L111.875 238.927L113.417 262.594L117.764 256.775L116.415 232.873Z" fill="#02081F"/>
<path d="M123.813 271.141L124.899 252.768L119.416 257.904L118.664 268.906L123.813 271.141Z" fill="#02081F"/>
<path d="M94.8563 257.599L86.4919 256.971L101.165 266.539L107.638 265.921L94.8563 257.599Z" fill="#02081F"/>
<path d="M116.192 229.949L111.961 203.957L106.655 210.99L111.452 236.265L116.192 229.949Z" fill="#02081F"/>
<path d="M136.042 305.44L139.376 292.54L114.719 286.369L107.857 298.365L136.042 305.44Z" fill="#02081F"/>
<path d="M123.887 225.427L117.977 230.933L119.343 255.158L125.009 249.853L123.887 225.427Z" fill="#02081F"/>
<path d="M174.769 181.559L164.762 180.758L164.679 208.985L173.69 209.716L174.769 181.559Z" fill="#02081F"/>
<path d="M176.521 149.055L164.796 148.118L164.769 178.411L174.876 179.221L176.521 149.055Z" fill="#02081F"/>
<path d="M183.144 239.536L183.956 214.477L175.286 212.34L174.806 237.469L183.144 239.536Z" fill="#02081F"/>
<path d="M164.519 238.856L164.343 260.115L173.247 260.842L173.127 239.554L164.519 238.856Z" fill="#02081F"/>
<path d="M105.792 172.703L112.871 199.909L119.763 193.527L113.837 165.3L105.792 172.703Z" fill="#02081F"/>
<path d="M183.527 263.241L183.117 241.907L174.796 239.845L174.916 261.099L183.527 263.241Z" fill="#02081F"/>
<path d="M97.6077 228.379L99.8495 220.563L91.3885 196.601L88.7236 205.799L97.6077 228.379Z" fill="#02081F"/>
<path d="M86.2754 155.024L97.218 180.585L103.76 171.973L94.1001 144.8L86.2754 155.024Z" fill="#02081F"/>
<path d="M95.4258 143.291L105.109 170.534L113.29 163.004L105.176 134.374L95.4258 143.291Z" fill="#02081F"/>
<path d="M79.4731 168.079L91.3152 191.727L96.042 182.379L85.1493 156.941L79.4731 168.079Z" fill="#02081F"/>
<path d="M196.841 188.644L187.76 184.783L185.719 212.658L193.89 216.154L196.841 188.644Z" fill="#02081F"/>
<path d="M176.425 181.836L175.349 209.973L184.083 212.129L186.128 184.216L176.425 181.836Z" fill="#02081F"/>
<path d="M184.779 278.033L183.637 265.644L174.979 263.494L175.605 278.788L184.779 278.033Z" fill="#02081F"/>
<path d="M87.4812 218.178L96.1987 238.566L96.8649 231.326L88.294 209.552L87.4812 218.178Z" fill="#02081F"/>
<path d="M284.515 243.706L267.683 259.853L281.831 268.779L301.181 250.135L284.515 243.706Z" fill="#02081F"/>
<path d="M293.633 165.384L275.421 179.165L274.499 194.08L292.59 183.162L293.633 165.384Z" fill="#02081F"/>
<path d="M268.33 303.959L256.711 288.136L230.275 299.822L238.363 317.258L268.33 303.959Z" fill="#02081F"/>
<path d="M281.85 271.459L258.376 287.142L270.075 303.074L296.687 285.212L281.85 271.459Z" fill="#02081F"/>
<path d="M291.947 186.095L274.206 196.807L270.511 211.126L287.593 203.175L291.947 186.095Z" fill="#02081F"/>
<path d="M269.679 213.985L263.396 227.278L278.783 222.11L286.221 206.281L269.679 213.985Z" fill="#02081F"/>
<path d="M279.649 224.293L268.666 239.489L284.049 241.223L296.86 223.417L279.649 224.293Z" fill="#02081F"/>
<path d="M204.146 225.38L202.747 249.849L208.61 255.2L210.262 230.933L204.146 225.38Z" fill="#02081F"/>
<path d="M206.591 194.712L198.433 189.52L195.485 216.969L202.817 221.655L206.591 194.712Z" fill="#02081F"/>
<path d="M255.072 286.407L244.239 275.742L221.694 285.676L229.246 297.821L255.072 286.407Z" fill="#02081F"/>
<path d="M202.807 252.698L203.7 273.465L209.206 271.183L208.51 257.904L202.807 252.698Z" fill="#02081F"/>
<path d="M228.09 268.498L222.127 267.964L207.834 274.243L211.998 275.573L228.09 268.498Z" fill="#02081F"/>
<path d="M241.917 274.308L232.59 268.971L213.87 277.204L220.375 283.802L241.917 274.308Z" fill="#02081F"/>
<path d="M228.55 62.0506L245.578 72.6121L258.07 48.7104L238.17 36.4479L228.55 62.0506Z" fill="#02081F"/>
<path d="M133.34 246.859L126.662 251.226L125.442 271.848L126.112 272.139L132.321 268.062L133.34 246.859Z" fill="#02081F"/>
<path d="M208.223 53.4335L226.981 61.2211L236.584 35.6606L214.706 26.6312L208.223 53.4335Z" fill="#02081F"/>
<path d="M186.671 48.12L206.594 52.89L213.07 26.1159L189.859 20.5868L186.671 48.12Z" fill="#02081F"/>
<path d="M164.523 46.2458L185.015 47.853L188.2 20.3339L164.339 18.4736L164.523 46.2458Z" fill="#02081F"/>
<path d="M121.672 194.708L125.246 221.641L132.418 216.969L129.66 189.539L121.672 194.708Z" fill="#02081F"/>
<path d="M131.928 270.902L128.484 273.165L131.438 273.952L131.928 270.902Z" fill="#02081F"/>
<path d="M263.19 88.1687L275.318 103.215L292.523 83.8532L278.27 66.3099L263.19 88.1687Z" fill="#02081F"/>
<path d="M293.683 85.5494L276.454 104.939L285.568 121.568L304.442 104.986L293.683 85.5494Z" fill="#02081F"/>
<path d="M291.291 144.8L273.313 161.589L275.248 176.635L293.659 162.704L291.291 144.8Z" fill="#02081F"/>
<path d="M125.492 224.064L126.625 248.668L133.407 244.231L132.557 219.462L125.492 224.064Z" fill="#02081F"/>
<path d="M267.963 144.613L272.747 159.302L290.821 142.425L285.065 124.984L267.963 144.613Z" fill="#02081F"/>
<path d="M259.572 49.7928L247.057 73.7368L261.854 86.7396L276.904 64.923L259.572 49.7928Z" fill="#02081F"/>
<path d="M273.773 27.3154L260.638 47.9653L278.153 63.2548L293.969 44.8353L273.773 27.3154Z" fill="#02081F"/>
<path d="M164.103 279.064L173.943 278.924L173.297 263.189L164.316 262.458L164.103 279.064Z" fill="#02081F"/>
<path d="M253.233 227.095L248.626 236.809L260.961 228.196L266.508 216.459L253.233 227.095Z" fill="#02081F"/>
<path d="M279.928 270.147L265.994 261.357L246.031 274.646L257.014 285.46L279.928 270.147Z" fill="#02081F"/>
<path d="M267.007 241.653L253.136 254.919L265.811 258.812L281.944 243.336L267.007 241.653Z" fill="#02081F"/>
<path d="M261.947 230.174L253.326 242.061L266.391 239.348L276.577 225.258L261.947 230.174Z" fill="#02081F"/>
<path d="M90.306 248.162L84.7364 240.777L75.1995 233.904L81.8683 242.759L90.306 248.162Z" fill="#02081F"/>
<path d="M89.9396 273.17L98.9702 267.687L82.1315 256.714L70.4727 260.448L89.9396 273.17Z" fill="#02081F"/>
<path d="M263.42 260.476L251.168 256.709L234.699 267.65L244.356 273.17L263.42 260.476Z" fill="#02081F"/>
<path d="M82.4911 254.328L92.0447 255.041L81.092 244.863L69.6997 242.417L82.4911 254.328Z" fill="#02081F"/>
<path d="M271.841 163.309L256.421 182.712L257.947 194.895L273.723 177.933L271.841 163.309Z" fill="#02081F"/>
<path d="M73.7336 196.615L86.0287 215.765L86.9281 206.22L74.8496 185.125L73.7336 196.615Z" fill="#02081F"/>
<path d="M70.9357 228.196L82.5845 236.593L77.8111 227.1L65.1929 216.726L70.9357 228.196Z" fill="#02081F"/>
<path d="M106.035 297.816L112.964 285.704L90.0826 275.747L79.8362 286.379L106.035 297.816Z" fill="#02081F"/>
<path d="M273.639 180.974L258.16 197.617L257.39 209.477L272.753 195.265L273.639 180.974Z" fill="#02081F"/>
<path d="M89.1666 238.805L87.1047 231.701L76.5618 216.758L79.0901 225.535L89.1666 238.805Z" fill="#02081F"/>
<path d="M86.6617 227.742L85.8256 218.947L74.0269 200.569L75.0195 211.248L86.6617 227.742Z" fill="#02081F"/>
<path d="M271.907 198.85L257.091 212.56L254.216 223.614L268.466 212.195L271.907 198.85Z" fill="#02081F"/>
<path d="M219.829 265.663L221.338 247.815L218.06 241.579L216.268 264.787L217.524 267.191L219.829 265.663Z" fill="#02081F"/>
<path d="M176.665 146.717L178.827 115.594L164.769 114.479L164.796 145.77L176.665 146.717Z" fill="#02081F"/>
<path d="M201.864 157.166L191.185 152.653L187.967 182.422L197.158 186.33L201.864 157.166Z" fill="#02081F"/>
<path d="M189.559 152.101L178.177 149.327L176.531 179.484L186.341 181.892L189.559 152.101Z" fill="#02081F"/>
<path d="M166.981 310.435L137.204 307.989L133.573 326.259L167.291 329.037L166.981 310.435Z" fill="#02081F"/>
<path d="M141.068 292.854L137.751 305.688L166.934 308.083L166.621 294.944L141.068 292.854Z" fill="#02081F"/>
<path d="M122.085 278.033L116.352 284.397L140.053 290.333L142.824 283.216L122.085 278.033Z" fill="#02081F"/>
<path d="M164.762 112.131L179.006 113.265L181.608 82.2788L164.679 80.9434L164.762 112.131Z" fill="#02081F"/>
<path d="M224.359 257.318L222.67 251.901L221.608 264.482L223.849 262.992L224.359 257.318Z" fill="#02081F"/>
<path d="M246.904 256.952L237.82 257.599L225.305 265.897L232.464 266.539L246.904 256.952Z" fill="#02081F"/>
<path d="M131.895 326.006L135.536 307.689L106.745 300.464L99.2866 317.787L131.895 326.006Z" fill="#02081F"/>
<path d="M230.678 231.153L228.377 223.825L223.094 247.426L225.119 253.925L230.678 231.153Z" fill="#02081F"/>
<path d="M213.067 164.105L203.433 158.019L198.736 187.145L207.014 192.407L213.067 164.105Z" fill="#02081F"/>
<path d="M210.602 228.459L215.085 202.238L208.117 195.94L204.356 222.784L210.602 228.459Z" fill="#02081F"/>
<path d="M227.321 220.732L223.353 213.23L218.373 238.233L221.901 244.948L227.321 220.732Z" fill="#02081F"/>
<path d="M87.5644 203.592L90.3692 193.906L78.6437 170.492L75.2427 182.08L87.5644 203.592Z" fill="#02081F"/>
<path d="M82.6177 114.929L94.5963 141.253L104.493 132.205L94.4564 104.184L82.6177 114.929Z" fill="#02081F"/>
<path d="M219.006 92.1374L233.22 101.007L244.649 74.5941L227.824 64.1591L219.006 92.1374Z" fill="#02081F"/>
<path d="M106.642 133.222L114.766 161.88L124.34 155.718L118.024 125.94L106.642 133.222Z" fill="#02081F"/>
<path d="M201.764 84.7669L217.441 91.3175L226.251 63.3626L207.724 55.6687L201.764 84.7669Z" fill="#02081F"/>
<path d="M115.319 164.101L121.262 192.398L129.366 187.15L124.756 158.028L115.319 164.101Z" fill="#02081F"/>
<path d="M248.343 114.432L258.413 127.023L274.079 104.803L262.094 89.9307L248.343 114.432Z" fill="#02081F"/>
<path d="M95.9155 103.06L105.955 131.085L117.494 123.705L109.683 94.3164L95.9155 103.06Z" fill="#02081F"/>
<path d="M246.128 75.6812L234.689 102.118L247.011 113.022L260.755 88.534L246.128 75.6812Z" fill="#02081F"/>
<path d="M96.4418 247.923L95.9154 242.45L87.9741 223.876L88.617 230.628L96.4418 247.923Z" fill="#02081F"/>
<path d="M92.3047 243.144L92.0715 242.628L92.1082 242.75L92.3047 243.144Z" fill="#02081F"/>
<path d="M183.473 80.2124L200.139 84.2281L206.098 55.1486L186.421 50.4395L183.473 80.2124Z" fill="#02081F"/>
<path d="M111.675 265.223L111.888 264.796L110.386 241.761L107.375 247.811L108.48 263.142L111.675 265.223Z" fill="#02081F"/>
<path d="M164.673 78.5957L181.818 79.9452L184.766 50.1769L164.536 48.5931L164.673 78.5957Z" fill="#02081F"/>
<path d="M113.39 202.233L117.651 228.426L123.703 222.789L120.146 195.973L113.39 202.233Z" fill="#02081F"/>
<path d="M164.669 211.332L164.536 236.513L173.144 237.211L173.623 212.054L164.669 211.332Z" fill="#02081F"/>
<path d="M85.8456 239.03L92.2479 247.089L90.7423 244.095L83.7903 234.939L85.8456 239.03Z" fill="#02081F"/>
<path d="M98.3173 257.07L94.1301 253.185L90.7124 250.997L95.4525 255.401L98.3173 257.07Z" fill="#02081F"/>
<path d="M71.7517 128.766L85.3093 153.084L93.2706 142.682L81.3053 116.381L71.7517 128.766Z" fill="#02081F"/>
<path d="M63.6506 144.177L78.3641 166.233L84.1702 154.842L70.6459 130.584L63.6506 144.177Z" fill="#02081F"/>
<path d="M275.215 106.523L259.552 128.738L267.077 142.603L284.216 122.937L275.215 106.523Z" fill="#02081F"/>
<path d="M251.944 168.308L255.815 180.337L271.384 160.741L266.697 146.342L251.944 168.308Z" fill="#02081F"/>
</g>
<rect y="249.585" width="327" height="177" fill="url(#paint1_linear_865_4452)"/>
<g opacity="0.8" filter="url(#filter0_f_865_4452)">
<ellipse cx="166" cy="184.585" rx="134" ry="56" fill="#5365F6"/>
</g>
<mask id="mask0_865_4452" style="mask-type:luminance" maskUnits="userSpaceOnUse" x="157" y="58" width="73" height="108">
<path d="M220.61 60.4761L229.814 62.8016C220.035 60.4761 209.681 60.4761 199.326 64.5457C173.441 75.0105 160.21 105.823 169.414 133.148C175.166 149.427 187.822 161.054 202.778 165.124L194.149 162.798C179.193 158.147 166.538 147.101 160.785 130.241C151.582 103.498 164.812 72.685 190.698 62.2202C201.052 58.1506 211.406 57.5692 220.61 60.4761Z" fill="white"/>
</mask>
<g mask="url(#mask0_865_4452)">
<path d="M220.61 60.4763L229.814 62.8018C220.035 60.4763 209.681 60.4763 199.326 64.546C194.149 66.8715 189.547 69.7784 185.52 73.2666L176.317 70.9411C180.919 67.4529 185.52 64.546 190.698 62.2205C201.052 58.1508 211.406 57.5695 220.61 60.4763Z" fill="#2D0085"/>
<path d="M176.317 70.9415L185.521 73.267C183.795 75.0112 182.069 76.1739 180.919 77.918L171.715 75.5925C173.441 73.8484 175.166 72.6857 176.317 70.9415Z" fill="#2E008A"/>
<path d="M171.715 75.5928L180.343 77.9183C179.768 79.081 178.617 80.8252 177.467 81.9879L168.263 79.6624C169.414 78.4997 170.564 76.7555 171.715 75.5928Z" fill="#30008F"/>
<path d="M168.264 79.6621L176.892 81.9876C176.317 83.1504 175.742 84.8945 174.591 86.0572L165.963 83.7317C166.538 82.569 167.688 80.8249 168.264 79.6621Z" fill="#320094"/>
<path d="M165.962 83.7314L174.591 86.0569C174.015 87.2197 173.44 88.9638 172.29 90.1266L163.661 87.8011C164.236 86.6383 164.812 84.8942 165.962 83.7314Z" fill="#340099"/>
<path d="M163.662 87.8008L172.29 90.1263C171.715 91.289 171.14 93.0332 170.564 94.1959L161.936 91.8704C162.511 90.1263 163.086 88.9635 163.662 87.8008Z" fill="#35009E"/>
<path d="M161.936 91.8701L170.565 94.1956C169.989 95.3584 169.414 97.1025 169.414 98.2653L160.21 95.9397C160.785 94.777 161.361 93.0329 161.936 91.8701Z" fill="#3700A3"/>
<path d="M160.21 95.941L168.838 98.2665C168.838 100.011 168.263 101.173 168.263 102.918L159.059 100.592C159.635 98.8479 159.635 97.6852 160.21 95.941Z" fill="#3900A8"/>
<path d="M159.059 100.591L167.688 102.916C167.688 104.079 167.113 105.823 167.113 107.567L158.484 105.242C158.484 103.498 159.059 101.754 159.059 100.591Z" fill="#3A00AD"/>
<path d="M158.484 105.242L167.113 107.568C167.113 109.312 166.538 111.056 166.538 112.8L157.909 110.474C157.909 108.73 157.909 106.986 158.484 105.242Z" fill="#3C00B3"/>
<path d="M157.909 110.475L166.538 112.801C166.538 115.126 166.538 117.452 166.538 119.196L157.909 116.87C157.909 114.545 157.909 112.801 157.909 110.475Z" fill="#3E00B8"/>
<path d="M157.909 116.87L166.538 119.195C167.113 123.265 167.688 127.334 168.838 131.404L160.21 129.078C159.059 125.009 158.484 120.939 157.909 116.87Z" fill="#4000BD"/>
<path d="M160.21 129.079L168.839 131.405C168.839 131.986 169.414 132.567 169.414 133.149C169.989 134.893 170.565 136.637 171.14 138.381L162.511 136.056C161.936 134.311 161.361 132.567 160.785 130.823C160.785 130.242 160.21 129.66 160.21 129.079Z" fill="#4100C2"/>
<path d="M162.511 135.473L171.139 137.799C172.865 141.287 175.166 144.775 177.467 147.682L168.838 145.357C166.537 142.45 164.236 138.962 162.511 135.473Z" fill="#4000BD"/>
<path d="M168.839 145.358L177.467 147.683C178.618 149.428 180.343 151.172 181.494 152.334L172.865 150.009C171.715 148.846 169.989 147.102 168.839 145.358Z" fill="#3E00B8"/>
<path d="M172.865 150.008L181.494 152.333C182.644 153.496 183.795 154.659 185.52 155.822L176.892 153.496C175.741 152.915 174.015 151.752 172.865 150.008Z" fill="#3C00B3"/>
<path d="M176.892 153.497L185.52 155.822C186.671 156.985 187.821 157.566 188.972 158.729L180.343 156.403C179.193 155.822 178.042 154.659 176.892 153.497Z" fill="#3A00AD"/>
<path d="M180.343 156.403L189.547 158.729C190.698 159.31 191.848 160.473 192.999 161.054L184.37 158.729C183.219 158.148 181.494 156.985 180.343 156.403Z" fill="#3900A8"/>
<path d="M184.37 158.728L192.998 161.054C194.149 161.635 195.299 162.217 197.025 162.798L187.821 160.472C186.671 159.891 185.52 159.31 184.37 158.728Z" fill="#3700A3"/>
<path d="M187.822 160.473L196.45 162.798C197.601 163.379 199.326 163.961 200.477 163.961L191.848 161.635C190.698 161.635 189.547 161.054 187.822 160.473Z" fill="#35009E"/>
<path d="M191.848 161.635L201.052 163.961C201.627 163.961 202.203 164.542 203.353 164.542L194.725 162.217C193.574 162.217 192.424 162.217 191.848 161.635Z" fill="#340099"/>
</g>
<mask id="mask1_865_4452" style="mask-type:luminance" maskUnits="userSpaceOnUse" x="194" y="160" width="40" height="7">
<path d="M233.265 162.799C222.911 166.869 212.557 167.45 202.778 164.544L194.149 162.218C203.928 164.544 214.282 164.544 224.637 160.474C227.513 161.055 230.389 162.218 233.265 162.799Z" fill="white"/>
</mask>
<g mask="url(#mask1_865_4452)">
<path d="M238.442 151.753L247.071 154.079C243.044 157.567 238.442 160.474 232.69 162.799C222.336 166.869 211.981 167.45 202.202 164.544L193.574 162.218C203.353 164.544 213.707 164.544 224.061 160.474C229.814 158.148 234.416 155.242 238.442 151.753Z" fill="#331485"/>
</g>
<mask id="mask2_865_4452" style="mask-type:luminance" maskUnits="userSpaceOnUse" x="220" y="59" width="47" height="104">
<path d="M263.178 94.7775C272.381 122.102 259.151 152.334 233.265 162.798C232.69 162.798 232.69 162.798 232.115 162.798C231.539 162.798 231.539 162.798 230.964 162.217C230.389 162.217 230.389 162.217 229.814 161.636C229.238 161.636 229.238 161.636 228.663 161.054C228.088 160.473 228.088 161.054 227.513 160.473C226.938 160.473 226.937 160.473 226.362 159.892C225.787 159.892 225.787 159.892 225.212 159.31C224.637 159.31 224.637 159.31 224.061 159.31C249.947 148.845 263.178 118.033 253.974 91.2893C248.221 75.0107 235.566 63.3832 220.61 59.3136L229.814 62.8019C244.77 66.8715 257.425 77.9176 263.178 94.7775Z" fill="white"/>
</mask>
<g mask="url(#mask2_865_4452)">
<path d="M220.61 60.4762L229.813 62.8017C230.389 62.8017 231.539 63.3831 232.114 63.3831L223.486 61.0576C222.335 60.4762 221.76 60.4762 220.61 60.4762Z" fill="#3B1799"/>
<path d="M222.91 61.0582L231.539 63.3837C232.689 63.9651 234.415 64.5465 235.566 64.5465L226.937 62.221C225.787 61.6396 224.636 61.6396 222.91 61.0582Z" fill="#3D189E"/>
<path d="M226.937 62.2206L235.566 64.5461C236.716 65.1275 237.867 65.7088 239.592 66.2902L230.964 63.9647C229.238 63.3833 228.087 62.802 226.937 62.2206Z" fill="#3F18A3"/>
<path d="M230.964 63.965L239.592 66.2905C240.743 66.8718 241.893 67.4532 243.044 68.616L234.415 66.2905C233.265 65.7091 232.114 65.1277 230.964 63.965Z" fill="#4119A8"/>
<path d="M234.415 66.2899L243.044 68.6154C244.194 69.1968 245.345 70.3595 246.495 71.5223L237.866 69.1968C236.716 68.034 235.566 67.4527 234.415 66.2899Z" fill="#431AAD"/>
<path d="M237.866 69.1968L247.07 71.5223C248.221 72.685 249.946 73.8478 251.097 75.0105L242.468 72.685C240.743 71.5223 239.592 70.3595 237.866 69.1968Z" fill="#451BB3"/>
<path d="M241.893 72.6855L250.522 75.011C252.248 76.7552 253.398 77.9179 254.549 79.6621L245.92 77.3366C244.77 75.5924 243.619 73.8483 241.893 72.6855Z" fill="#471BB8"/>
<path d="M245.92 77.3356L254.549 79.6611C256.849 82.568 259.15 86.0562 260.876 89.5445L252.248 87.219C250.522 83.7307 248.796 80.2424 245.92 77.3356Z" fill="#491CBD"/>
<path d="M252.248 87.2201L260.877 89.5456C261.452 91.2897 262.027 93.0338 262.602 94.778C262.602 95.3594 263.178 95.9407 263.178 96.5221L254.549 94.1966C254.549 93.6152 253.974 93.0339 253.974 92.4525C253.974 90.7083 252.823 88.9642 252.248 87.2201Z" fill="#4A1DC2"/>
<path d="M255.124 93.6143L263.753 95.9398C264.903 100.009 265.478 104.079 266.054 108.149L257.425 105.823C256.85 101.754 256.275 97.6839 255.124 93.6143Z" fill="#491CBD"/>
<path d="M256.85 105.824L266.053 108.149C266.053 110.475 266.053 112.8 266.053 114.544L257.425 112.219C257.425 109.893 257.425 108.149 256.85 105.824Z" fill="#471BB8"/>
<path d="M257.425 112.218L266.053 114.544C266.053 116.288 266.053 118.032 265.478 119.776L256.85 117.45C256.85 115.706 257.425 113.962 257.425 112.218Z" fill="#451BB3"/>
<path d="M256.85 117.451L265.478 119.777C265.478 121.521 264.903 122.684 264.328 124.428L255.699 122.102C256.274 120.94 256.274 119.196 256.85 117.451Z" fill="#431AAD"/>
<path d="M255.699 122.683L264.328 125.009C263.752 126.753 263.752 127.916 263.177 129.66L254.549 127.334C255.124 125.59 255.699 123.846 255.699 122.683Z" fill="#4119A8"/>
<path d="M254.548 126.752L263.177 129.078C262.602 130.241 262.027 131.985 261.451 133.148L252.823 130.822C253.973 129.659 253.973 127.915 254.548 126.752Z" fill="#3F18A3"/>
<path d="M253.398 130.823L262.027 133.149C261.451 134.312 260.876 136.056 260.301 137.218L251.672 134.893C252.248 133.73 252.823 132.567 253.398 130.823Z" fill="#3D189E"/>
<path d="M251.097 134.892L259.726 137.218C259.15 138.381 258.575 140.125 257.425 141.288L248.796 138.962C249.947 137.799 250.522 136.637 251.097 134.892Z" fill="#3B1799"/>
<path d="M249.371 138.962L258 141.287C257.425 142.45 256.274 144.194 255.124 145.357L246.495 143.032C247.646 141.869 248.221 140.125 249.371 138.962Z" fill="#391694"/>
<path d="M246.495 143.031L255.123 145.357C253.973 147.101 252.823 148.264 251.672 149.426L243.043 147.101C244.194 145.938 245.344 144.194 246.495 143.031Z" fill="#37158F"/>
<path d="M243.044 147.101L251.672 149.426C249.947 151.17 248.796 152.333 247.07 154.077L238.442 151.752C240.168 150.589 241.893 148.845 243.044 147.101Z" fill="#35158A"/>
<path d="M238.442 151.752L247.071 154.078C243.044 157.566 238.442 160.473 232.69 162.798C222.335 166.868 211.981 167.449 202.202 164.542L193.573 162.217C203.352 164.542 213.707 164.542 224.061 160.473C229.813 158.147 234.415 155.24 238.442 151.752Z" fill="#331485"/>
</g>
<path d="M255.531 124.434C262.969 96.1998 247.597 67.5519 221.196 60.447C194.795 53.3421 167.362 70.4706 159.924 98.7047C152.485 126.939 167.857 155.587 194.258 162.692C220.659 169.796 248.092 152.668 255.531 124.434Z" fill="#6226FF"/>
<mask id="mask3_865_4452" style="mask-type:luminance" maskUnits="userSpaceOnUse" x="193" y="57" width="76" height="113">
<path d="M221.761 57.5692L230.389 59.8947C245.921 63.9643 259.727 76.1732 265.479 93.6145C275.258 122.102 260.877 154.659 233.841 165.705C223.486 169.775 211.982 170.356 202.203 168.031L193.574 165.705C203.928 168.612 214.858 168.031 225.212 163.38C252.248 152.333 266.629 119.776 256.85 91.289C251.098 73.8477 237.292 61.6388 221.761 57.5692Z" fill="white"/>
</mask>
<g mask="url(#mask3_865_4452)">
<path d="M221.761 57.5693L230.39 59.8948C230.965 59.8948 232.115 60.4762 232.691 60.4762L224.062 58.1507C222.911 58.1507 222.336 57.5693 221.761 57.5693Z" fill="#340099"/>
<path d="M224.062 58.1512L232.69 60.4767C234.416 61.0581 235.566 61.6395 236.717 62.2209L228.088 59.8954C226.938 59.314 225.212 58.7326 224.062 58.1512Z" fill="#35009E"/>
<path d="M228.088 59.8943L236.717 62.2198C237.867 62.8012 239.593 63.3825 240.744 63.9639L232.115 61.6384C230.965 61.057 229.239 60.4757 228.088 59.8943Z" fill="#3700A3"/>
<path d="M232.115 61.6387L240.744 63.9642C241.894 64.5456 243.62 65.7083 244.771 66.2897L236.142 63.9642C234.416 63.3828 233.266 62.22 232.115 61.6387Z" fill="#3900A8"/>
<path d="M236.142 63.9651L244.77 66.2906C245.921 67.4533 247.647 68.0347 248.797 69.1975L240.169 66.872C238.443 65.7092 237.292 64.5465 236.142 63.9651Z" fill="#3A00AD"/>
<path d="M239.593 66.8718L248.222 69.1973C249.372 70.3601 251.098 71.5228 252.249 72.6856L243.62 70.3601C242.469 69.1973 241.319 68.0346 239.593 66.8718Z" fill="#3C00B3"/>
<path d="M244.195 70.3593L252.823 72.6848C254.549 74.4289 255.7 75.5916 257.425 77.9171L248.797 75.5916C247.071 73.2661 245.345 72.1034 244.195 70.3593Z" fill="#3E00B8"/>
<path d="M248.221 75.0106L256.85 77.3361C259.151 80.8244 261.452 84.3126 263.178 87.8009L254.549 85.4754C252.823 81.9871 251.098 78.4989 248.221 75.0106Z" fill="#4000BD"/>
<path d="M254.549 86.0562L263.178 88.3817C263.753 90.1258 264.904 91.8699 265.479 93.614C265.479 94.1954 266.054 94.7768 266.054 95.3582L257.426 93.0327C257.426 92.4513 256.85 91.8699 256.85 91.2885C256.275 89.5444 255.7 87.8003 254.549 86.0562Z" fill="#4100C2"/>
<path d="M257.425 93.0338L266.054 95.3593C267.204 99.4289 268.355 103.499 268.355 108.15L259.726 105.824C259.726 101.173 258.576 97.1034 257.425 93.0338Z" fill="#4000BD"/>
<path d="M259.727 105.242L268.93 108.149C268.93 110.474 268.93 112.8 268.93 115.125L260.302 112.8C260.302 109.893 260.302 107.567 259.727 105.242Z" fill="#3E00B8"/>
<path d="M259.727 112.218L268.355 114.543C268.355 116.288 268.355 118.032 267.78 120.357L259.151 118.032C259.727 116.288 259.727 114.543 259.727 112.218Z" fill="#3C00B3"/>
<path d="M259.727 118.032L268.355 120.357C268.355 122.101 267.78 123.846 267.205 125.59L258.576 123.264C259.151 121.52 259.151 119.776 259.727 118.032Z" fill="#3A00AD"/>
<path d="M258.576 123.265L267.204 125.591C266.629 127.335 266.629 128.498 266.054 130.242L257.425 127.916C258.001 126.172 258.001 124.428 258.576 123.265Z" fill="#3900A8"/>
<path d="M257.425 127.916L266.054 130.242C265.479 131.986 264.904 133.149 264.328 134.893L255.7 132.567C256.275 130.823 256.85 129.079 257.425 127.916Z" fill="#3700A3"/>
<path d="M255.7 131.986L264.328 134.311C263.753 135.474 263.178 137.218 262.603 138.381L253.974 136.055C254.549 134.892 255.125 133.73 255.7 131.986Z" fill="#35009E"/>
<path d="M253.974 136.055L262.602 138.381C262.027 139.543 260.877 141.287 260.301 142.45L251.673 140.125C252.248 138.962 252.823 137.799 253.974 136.055Z" fill="#340099"/>
<path d="M251.673 140.706L260.302 143.032C259.151 144.194 258.576 145.939 257.425 147.101L248.797 144.776C249.372 143.613 250.523 141.869 251.673 140.706Z" fill="#320094"/>
<path d="M248.797 144.776L257.425 147.101C256.275 148.845 255.125 150.008 253.974 151.752L245.345 149.427C246.496 147.683 247.646 146.52 248.797 144.776Z" fill="#30008F"/>
<path d="M245.345 149.427L253.974 151.753C252.248 153.497 250.523 155.241 248.797 156.404L240.168 154.078C241.894 152.334 243.62 150.59 245.345 149.427Z" fill="#2E008A"/>
<path d="M240.168 154.078L248.797 156.404C244.195 160.473 239.593 163.38 233.841 165.706C223.486 169.775 211.982 170.357 202.203 168.031L193.574 165.706C203.928 168.613 214.858 168.031 225.212 163.38C230.965 161.055 235.566 157.567 240.168 154.078Z" fill="#2D0085"/>
</g>
<path d="M189.547 59.895C216.583 48.8489 247.071 62.8019 256.85 91.2893C266.629 119.777 252.248 152.334 225.212 163.38C198.176 174.426 167.688 160.473 157.909 131.986C148.13 102.917 162.511 70.9412 189.547 59.895ZM224.061 160.473C249.947 150.008 263.178 119.195 253.974 92.4521C244.77 65.7088 216.008 51.7558 190.122 62.2205C164.236 72.6853 151.581 103.498 160.785 130.242C169.989 156.985 198.751 170.938 224.061 160.473Z" fill="#4500CB"/>
<mask id="mask4_865_4452" style="mask-type:luminance" maskUnits="userSpaceOnUse" x="186" y="84" width="45" height="52">
<path d="M186.671 135.475L188.397 88.3838L230.389 84.8955L228.663 131.987L186.671 135.475Z" fill="white"/>
</mask>
<g mask="url(#mask4_865_4452)">
<path d="M229.239 95.3603L197.6 97.6858L197.025 98.8485L196.45 123.266L197.025 123.848H199.901L200.477 122.685V114.546C201.052 113.964 201.627 113.383 202.202 113.383L228.663 111.057L229.239 109.895V106.406L228.663 105.825L203.353 108.151C202.202 108.151 201.052 106.988 201.052 105.825C201.052 104.662 202.202 102.918 203.353 102.918L228.663 101.174L229.814 100.011V96.523L229.239 95.3603ZM191.848 98.2672H188.972L187.821 99.4299L186.671 134.312L187.246 134.894L228.088 131.406L228.663 130.243V126.755L228.088 126.173L191.848 129.08L191.273 128.499L192.423 98.8485L191.848 98.2672ZM228.663 116.29L206.229 118.034L205.654 119.197V122.685L206.229 123.266L228.663 121.522L229.239 120.359V116.871L228.663 116.29ZM229.239 84.8955L188.972 88.3838L188.397 88.9651V92.4534L188.972 93.0348L229.814 89.5465V86.0583L229.239 84.8955Z" fill="white"/>
</g>
<g clip-path="url(#clip1_865_4452)">
<path d="M121.292 82.8755L116.374 88.5146L115.875 88.4837L120.793 82.8445L121.292 82.8755Z" fill="#003483"/>
<mask id="mask5_865_4452" style="mask-type:luminance" maskUnits="userSpaceOnUse" x="75" y="82" width="46" height="24">
<path d="M75.7537 105.153L80.6405 99.5142C90.0096 88.7315 104.266 82.2558 120.794 82.8445L115.907 88.4837C99.3787 87.926 85.1227 94.3707 75.7537 105.153Z" fill="white"/>
</mask>
<g mask="url(#mask5_865_4452)">
<path d="M120.794 82.8442L115.907 88.4833C99.3787 87.8946 85.1227 94.3704 75.7537 105.153L80.6405 99.5138C90.0096 88.7312 104.266 82.2864 120.794 82.8442Z" fill="#003585"/>
</g>
<mask id="mask6_865_4452" style="mask-type:luminance" maskUnits="userSpaceOnUse" x="116" y="82" width="69" height="103">
<path d="M172.339 178.555L167.452 184.194C175.763 174.62 180.214 161.7 178.969 147.323C175.918 115.75 148.433 89.9086 116.404 88.5143L121.291 82.8751C153.32 84.2694 180.805 110.111 183.855 141.684C185.1 156.061 180.649 168.981 172.339 178.555Z" fill="white"/>
</mask>
<g mask="url(#mask6_865_4452)">
<path d="M172.339 178.555L167.452 184.194C175.763 174.62 180.214 161.7 178.969 147.323C175.918 115.75 148.433 89.9086 116.404 88.5143L121.291 82.8751C153.32 84.2694 180.805 110.111 183.855 141.684C185.1 156.061 180.649 168.981 172.339 178.555Z" fill="#003585"/>
</g>
<mask id="mask7_865_4452" style="mask-type:luminance" maskUnits="userSpaceOnUse" x="63" y="99" width="18" height="39">
<path d="M63.9565 137.966C63.8632 125.169 68.252 113.767 75.7535 105.153L80.6403 99.5142C73.1389 108.159 68.75 119.561 68.8434 132.327C67.2248 134.217 65.5751 136.107 63.9565 137.966Z" fill="white"/>
</mask>
<g mask="url(#mask7_865_4452)">
<path d="M172.339 178.556L167.452 184.195C158.021 195.039 143.64 201.546 127.019 200.988C95.3629 199.873 67.1623 173.629 64.1742 142.459C62.898 127.865 67.3802 114.79 75.7533 105.153L80.6401 99.5142C72.2671 109.15 67.7849 122.226 69.0611 136.82C72.0803 167.99 100.25 194.234 131.874 195.318C148.527 195.907 162.907 189.4 172.339 178.556Z" fill="#004B85"/>
</g>
<mask id="mask8_865_4452" style="mask-type:luminance" maskUnits="userSpaceOnUse" x="63" y="132" width="110" height="69">
<path d="M64.1747 142.459C64.0502 140.94 63.9879 139.453 63.9568 137.966C65.5754 136.076 67.2251 134.217 68.8436 132.327C68.8436 133.814 68.937 135.301 69.0615 136.819C72.0808 167.99 100.25 194.234 131.875 195.318C148.527 195.907 162.908 189.369 172.308 178.525L167.421 184.164C157.99 195.008 143.609 201.515 126.988 200.957C95.3634 199.873 67.1628 173.629 64.1747 142.459Z" fill="white"/>
</mask>
<g mask="url(#mask8_865_4452)">
<path d="M172.339 178.556L167.452 184.195C158.021 195.039 143.641 201.546 127.019 200.988C95.3634 199.873 67.1628 173.629 64.1747 142.459C62.8985 127.865 67.3807 114.79 75.7537 105.153L80.6406 99.5142C72.2676 109.15 67.7854 122.226 69.0616 136.82C72.0808 167.99 100.25 194.234 131.875 195.318C148.527 195.907 162.908 189.4 172.339 178.556Z" fill="#004B85"/>
</g>
<path d="M121.042 79.9937C154.161 81.419 183.638 109.15 186.782 141.777C189.614 174.063 165.086 199.377 132.155 198.231C98.9115 197.084 69.2791 169.477 66.1353 136.726C63.2717 104.131 87.706 78.8163 120.544 79.9627C120.7 79.9627 120.856 79.9937 121.042 79.9937ZM131.874 195.349C163.219 196.434 186.501 172.359 183.825 141.684C180.805 110.111 153.321 84.2696 121.291 82.8753L120.793 82.8443C89.5113 81.7598 66.3532 105.866 69.0612 136.819C72.0805 168.021 100.25 194.234 131.874 195.349Z" fill="#0064FA"/>
<path d="M121.291 82.8755C153.321 84.2698 180.805 110.111 183.856 141.684C186.533 172.359 163.25 196.434 131.906 195.349C100.25 194.234 72.0805 168.021 69.0612 136.82C66.3532 105.866 89.5113 81.7601 120.793 82.8445L121.291 82.8755Z" fill="#008DFA"/>
<mask id="mask9_865_4452" style="mask-type:luminance" maskUnits="userSpaceOnUse" x="60" y="97" width="115" height="107">
<path d="M174.673 180.601L169.787 186.24C159.888 197.642 144.761 204.49 127.268 203.901C94.0247 202.755 64.3923 175.147 61.2174 142.397C59.8789 127.028 64.579 113.271 73.3878 103.17L78.2747 97.5311C69.497 107.663 64.7658 121.389 66.1042 136.727C69.2791 169.477 98.9116 197.084 132.155 198.231C149.648 198.85 164.775 192.003 174.673 180.601Z" fill="white"/>
</mask>
<g mask="url(#mask9_865_4452)">
<path d="M174.673 180.601L169.787 186.24C159.888 197.642 144.761 204.49 127.268 203.901C94.0247 202.755 64.3923 175.147 61.2174 142.397C59.8789 127.028 64.579 113.271 73.3878 103.17L78.2747 97.5311C69.497 107.663 64.7658 121.389 66.1042 136.727C69.2791 169.477 98.9116 197.084 132.155 198.231C149.648 198.85 164.775 192.003 174.673 180.601Z" fill="#003585"/>
</g>
<path fill-rule="evenodd" clip-rule="evenodd" d="M131.065 131.924L129.509 140.197L144.325 142.273L143.298 146.146L128.731 144.07C127.703 147.447 127.174 151.072 125.867 154.171C124.56 157.796 123.252 161.421 121.696 164.767C119.61 169.167 115.969 172.266 111.051 173.04C108.187 173.567 105.074 173.288 102.74 171.491C101.962 170.964 101.184 169.942 101.184 169.167C101.184 168.145 101.713 166.843 102.491 166.317C103.02 166.069 104.296 166.317 105.106 166.564C105.884 167.339 106.662 168.362 107.191 169.415C108.747 171.491 110.833 171.739 112.918 170.19C115.253 168.114 116.56 165.263 117.338 162.413C118.895 156.216 120.451 150.236 121.758 144.039V143.016L107.969 140.94L108.498 137.067L122.785 139.143L124.591 131.118L109.775 128.794L110.304 124.642L125.649 126.718C126.178 125.169 126.427 123.868 126.956 122.566C128.264 117.919 129.571 113.24 132.684 109.119C135.796 104.967 139.438 102.396 144.916 102.643C147.251 102.643 149.585 103.418 151.142 105.246C151.391 105.494 151.92 106.021 151.92 106.547C151.92 107.57 151.92 108.871 151.142 109.646C150.114 110.421 148.807 110.173 147.749 109.119C146.971 108.345 146.442 107.57 145.663 106.795C144.107 104.719 141.773 104.471 139.936 106.269C138.629 107.57 137.321 109.367 136.543 111.195C134.738 116.617 133.431 122.319 131.594 128.02L145.881 130.096L144.854 133.969L131.065 131.924Z" fill="white"/>
</g>
</g>
<defs>
<filter id="filter0_f_865_4452" x="-54.8522" y="41.7324" width="441.704" height="285.704" filterUnits="userSpaceOnUse" color-interpolation-filters="sRGB">
<feFlood flood-opacity="0" result="BackgroundImageFix"/>
<feBlend mode="normal" in="SourceGraphic" in2="BackgroundImageFix" result="shape"/>
<feGaussianBlur stdDeviation="43.4261" result="effect1_foregroundBlur_865_4452"/>
</filter>
<radialGradient id="paint0_radial_865_4452" cx="0" cy="0" r="1" gradientUnits="userSpaceOnUse" gradientTransform="translate(285.161 243.902) rotate(-149.575) scale(268.707 855.443)">
<stop stop-color="#5162FF" stop-opacity="0"/>
<stop offset="1" stop-color="#5162FF"/>
</radialGradient>
<linearGradient id="paint1_linear_865_4452" x1="163.5" y1="249.585" x2="163.5" y2="426.585" gradientUnits="userSpaceOnUse">
<stop stop-color="#0A0429" stop-opacity="0"/>
<stop offset="1" stop-color="#0A0429"/>
</linearGradient>
<clipPath id="clip0_865_4452">
<rect width="327" height="427" fill="white"/>
</clipPath>
<clipPath id="clip1_865_4452">
<rect width="126" height="124" fill="white" transform="translate(61 79.9318)"/>
</clipPath>
</defs>
</svg>
