<svg width="22" height="22" viewBox="0 0 22 22" fill="none" xmlns="http://www.w3.org/2000/svg">
<path d="M0 3.38462C0 1.51534 1.51534 0 3.38462 0H18.6154C20.4847 0 22 1.51534 22 3.38462V18.6154C22 20.4847 20.4847 22 18.6154 22H3.38462C1.51534 22 0 20.4847 0 18.6154V3.38462Z" fill="#CBD5E1"/>
<path d="M0 18.6154C0 20.4847 1.51534 22 3.38462 22H5.31814C8.03846 19.8846 9.47937 16.8984 10.756 13.6516C12.0327 10.4047 12.6945 6.84793 12.6923 3.24546C12.6908 2.15984 12.6295 1.07557 12.509 0H3.38461C1.51534 0 0 1.51534 0 3.38462V18.6154Z" fill="#EDEFF0"/>
<path d="M2.76635 1.69238C2.76635 2.06267 2.6532 2.41778 2.45179 2.67961C2.25038 2.94144 1.97722 3.08854 1.69238 3.08854V18.9116C1.97722 18.9116 2.25038 19.0587 2.45179 19.3205C2.6532 19.5824 2.76635 19.9375 2.76635 20.3078H19.2338C19.2338 19.9375 19.347 19.5824 19.5484 19.3205C19.7498 19.0587 20.0229 18.9116 20.3078 18.9116V3.08854C20.0229 3.08854 19.7498 2.94144 19.5484 2.67961C19.347 2.41778 19.2338 2.06267 19.2338 1.69238H2.76635Z" fill="#475569"/>
<path d="M1.69238 3.08854V18.9116C1.98555 18.9116 2.2667 19.0587 2.474 19.3205C2.6813 19.5824 2.79776 19.9375 2.79776 20.3078H7.08773C10.6831 15.7435 12.6986 9.56471 12.6924 3.12623C12.6924 2.64456 12.6784 2.16708 12.6555 1.69238H2.79776C2.79776 2.06267 2.6813 2.41778 2.474 2.67961C2.2667 2.94144 1.98555 3.08854 1.69238 3.08854Z" fill="#94A3B8"/>
<path d="M4.33631 9.71864V8.97825C4.43449 8.97825 4.52865 9.01725 4.59808 9.08668C4.6675 9.1561 4.70651 9.25026 4.70651 9.34844H5.44689C5.44689 9.0539 5.32988 8.77142 5.12161 8.56315C4.91334 8.35487 4.63086 8.23787 4.33631 8.23787V7.86768H3.59593V8.23787C3.30139 8.23787 3.01891 8.35487 2.81063 8.56315C2.60236 8.77142 2.48535 9.0539 2.48535 9.34844C2.48535 9.64299 2.60236 9.92547 2.81063 10.1337C3.01891 10.342 3.30139 10.459 3.59593 10.459V11.1994C3.49775 11.1994 3.40359 11.1604 3.33416 11.091C3.26474 11.0216 3.22574 10.9274 3.22574 10.8292H2.48535C2.48535 11.1238 2.60236 11.4062 2.81063 11.6145C3.01891 11.8228 3.30139 11.9398 3.59593 11.9398V12.31H4.33631V11.9398C4.63086 11.9398 4.91334 11.8228 5.12161 11.6145C5.32988 11.4062 5.44689 11.1238 5.44689 10.8292C5.44689 10.5347 5.32988 10.2522 5.12161 10.0439C4.91334 9.83564 4.63086 9.71864 4.33631 9.71864ZM3.22574 9.34844C3.22574 9.25026 3.26474 9.1561 3.33416 9.08668C3.40359 9.01725 3.49775 8.97825 3.59593 8.97825V9.71864C3.49775 9.71864 3.40359 9.67964 3.33416 9.61021C3.26474 9.54079 3.22574 9.44663 3.22574 9.34844ZM4.33631 11.1994V10.459C4.43449 10.459 4.52865 10.498 4.59808 10.5674C4.6675 10.6369 4.70651 10.731 4.70651 10.8292C4.70651 10.9274 4.6675 11.0216 4.59808 11.091C4.52865 11.1604 4.43449 11.1994 4.33631 11.1994Z" fill="#EDEFF0"/>
<path d="M18.4037 9.71864V8.97825C18.5019 8.97825 18.596 9.01725 18.6655 9.08668C18.7349 9.1561 18.7739 9.25026 18.7739 9.34844H19.5143C19.5138 9.05405 19.3966 8.77186 19.1885 8.56369C18.9803 8.35552 18.6981 8.23836 18.4037 8.23787V7.86768H17.6633V8.23787C17.3688 8.23787 17.0863 8.35487 16.878 8.56315C16.6697 8.77142 16.5527 9.0539 16.5527 9.34844C16.5527 9.64299 16.6697 9.92547 16.878 10.1337C17.0863 10.342 17.3688 10.459 17.6633 10.459V11.1994C17.5651 11.1994 17.471 11.1604 17.4015 11.091C17.3321 11.0216 17.2931 10.9274 17.2931 10.8292H16.5527C16.5527 11.1238 16.6697 11.4062 16.878 11.6145C17.0863 11.8228 17.3688 11.9398 17.6633 11.9398V12.31H18.4037V11.9398C18.6982 11.9398 18.9807 11.8228 19.189 11.6145C19.3973 11.4062 19.5143 11.1238 19.5143 10.8292C19.5143 10.5347 19.3973 10.2522 19.189 10.0439C18.9807 9.83564 18.6982 9.71864 18.4037 9.71864ZM17.6633 9.71864C17.5651 9.71864 17.471 9.67964 17.4015 9.61021C17.3321 9.54079 17.2931 9.44663 17.2931 9.34844C17.2931 9.25026 17.3321 9.1561 17.4015 9.08668C17.471 9.01725 17.5651 8.97825 17.6633 8.97825V9.71864ZM18.4037 11.1994V10.459C18.5019 10.459 18.596 10.498 18.6655 10.5674C18.7349 10.6369 18.7739 10.731 18.7739 10.8292C18.7739 10.9274 18.7349 11.0216 18.6655 11.091C18.596 11.1604 18.5019 11.1994 18.4037 11.1994Z" fill="#CBD5E1"/>
<path d="M2.48535 13.6613C2.48535 13.4773 2.63452 13.3281 2.81852 13.3281H5.11335C5.29735 13.3281 5.44652 13.4773 5.44652 13.6613C5.44652 13.8453 5.29735 13.9945 5.11335 13.9945H2.81852C2.63452 13.9945 2.48535 13.8453 2.48535 13.6613Z" fill="#EDEFF0"/>
<path d="M3.22559 14.6608C3.22559 14.4768 3.37475 14.3276 3.55876 14.3276H4.37281C4.55682 14.3276 4.70599 14.4768 4.70599 14.6608C4.70599 14.8448 4.55682 14.994 4.37281 14.994H3.55876C3.37475 14.994 3.22559 14.8448 3.22559 14.6608Z" fill="#EDEFF0"/>
<path d="M16.5522 13.6613C16.5522 13.4773 16.7014 13.3281 16.8854 13.3281H19.1802C19.3642 13.3281 19.5134 13.4773 19.5134 13.6613C19.5134 13.8453 19.3642 13.9945 19.1802 13.9945H16.8854C16.7014 13.9945 16.5522 13.8453 16.5522 13.6613Z" fill="#CBD5E1"/>
<path d="M17.2925 14.6608C17.2925 14.4768 17.4416 14.3276 17.6257 14.3276H18.4397C18.6237 14.3276 18.7729 14.4768 18.7729 14.6608C18.7729 14.8448 18.6237 14.994 18.4397 14.994H17.6257C17.4416 14.994 17.2925 14.8448 17.2925 14.6608Z" fill="#CBD5E1"/>
<path d="M9.14915 20.4662C9.14915 19.4439 9.97785 18.6152 11.0001 18.6152C12.0224 18.6152 12.8511 19.4439 12.8511 20.4662" stroke="#CBD5E1" stroke-width="0.740385"/>
<g clip-path="url(#clip0_18062_98643)">
<path fill-rule="evenodd" clip-rule="evenodd" d="M11.0796 3.57186C11.0304 3.54375 10.97 3.54375 10.9209 3.57186L9.80086 4.21186C9.72414 4.2557 9.69748 4.35344 9.74132 4.43016C9.77082 4.48179 9.82473 4.51075 9.88021 4.51081V5.63078C9.79185 5.63078 9.72021 5.70242 9.72021 5.79078C9.72021 5.87915 9.79185 5.95078 9.88021 5.95078H12.1202C12.2086 5.95078 12.2802 5.87915 12.2802 5.79078C12.2802 5.70242 12.2086 5.63078 12.1202 5.63078V4.51081C12.1757 4.51077 12.2297 4.48181 12.2592 4.43016C12.303 4.35344 12.2763 4.2557 12.1996 4.21186L11.0796 3.57186ZM10.3602 4.67078C10.2718 4.67078 10.2002 4.74242 10.2002 4.83078V5.31078C10.2002 5.39915 10.2718 5.47078 10.3602 5.47078C10.4486 5.47078 10.5202 5.39915 10.5202 5.31078V4.83078C10.5202 4.74242 10.4486 4.67078 10.3602 4.67078ZM10.8402 4.83078C10.8402 4.74242 10.9118 4.67078 11.0002 4.67078C11.0886 4.67078 11.1602 4.74242 11.1602 4.83078V5.31078C11.1602 5.39915 11.0886 5.47078 11.0002 5.47078C10.9118 5.47078 10.8402 5.39915 10.8402 5.31078V4.83078ZM11.6402 4.67078C11.5518 4.67078 11.4802 4.74242 11.4802 4.83078V5.31078C11.4802 5.39915 11.5518 5.47078 11.6402 5.47078C11.7286 5.47078 11.8002 5.39915 11.8002 5.31078V4.83078C11.8002 4.74242 11.7286 4.67078 11.6402 4.67078Z" fill="#EDEFF0"/>
</g>
<g clip-path="url(#clip1_18062_98643)">
<circle cx="11" cy="11.4312" r="4" fill="#EDEFF0"/>
<path d="M11.0892 8.43967V8.44251C11.092 8.45671 11.092 8.47375 11.092 8.49079V10.5384C11.0892 10.5498 11.0806 10.5526 11.0721 10.5583C11.0125 10.5867 10.9557 10.6122 10.896 10.6378C10.8137 10.6747 10.7285 10.7145 10.6461 10.7514L10.3479 10.8877C10.2656 10.9246 10.1832 10.9615 10.1037 10.9985C10.0071 11.0439 9.90774 11.0865 9.81118 11.1319C9.72883 11.1689 9.64647 11.2086 9.56127 11.2455C9.49311 11.2768 9.42495 11.3052 9.35963 11.3364C9.35395 11.3393 9.34827 11.3421 9.34259 11.3421C9.33975 11.3421 9.33975 11.3421 9.33691 11.3393L9.41359 11.2115C9.56127 10.9672 9.70611 10.7258 9.85378 10.4816C10.01 10.2203 10.169 9.95904 10.3252 9.69777C10.4701 9.45637 10.6177 9.21498 10.7626 8.97358C10.8676 8.79751 10.9756 8.62143 11.0806 8.44535C11.0835 8.43967 11.0863 8.43683 11.0863 8.43115H11.0892C11.0863 8.43399 11.0892 8.43683 11.0892 8.43967Z" fill="#838385"/>
<path d="M12.8324 11.3393L12.8353 11.3422L12.4178 11.5892L11.1057 12.3645C11.1 12.3674 11.0944 12.3702 11.0915 12.3731C11.083 12.3731 11.083 12.3645 11.083 12.3617V12.3361V10.5811C11.083 10.5725 11.083 10.5612 11.0858 10.5527C11.0887 10.5413 11.0972 10.5441 11.1057 10.547C11.1426 10.564 11.1824 10.5811 11.2193 10.5981C11.3301 10.6492 11.4408 10.7003 11.5516 10.7486C11.6482 10.7912 11.7419 10.8366 11.8384 10.8792C11.935 10.9218 12.0315 10.9673 12.1281 11.0099C12.2105 11.0468 12.2957 11.0866 12.378 11.1235C12.4604 11.1604 12.5456 11.2002 12.6279 11.2371C12.6933 11.2655 12.7586 11.2967 12.8239 11.3251C12.8239 11.3336 12.8267 11.3365 12.8324 11.3393Z" fill="#131313"/>
<path d="M11.0887 14.1367C11.0887 14.1396 11.0858 14.1424 11.0858 14.1452H11.083C11.083 14.1396 11.0773 14.1367 11.0745 14.131C10.8984 13.884 10.7223 13.6341 10.5462 13.387C10.3673 13.1342 10.1856 12.8786 10.0067 12.6259C9.83342 12.3816 9.65734 12.1346 9.4841 11.8903C9.43866 11.825 9.39322 11.7625 9.34779 11.6972C9.34495 11.6915 9.34211 11.6887 9.33643 11.6802C9.34495 11.6802 9.35063 11.6859 9.35347 11.6887C9.60054 11.8335 9.84478 11.9784 10.0919 12.1232C10.3758 12.2908 10.657 12.4583 10.941 12.6259L11.0858 12.7111C11.0915 12.7168 11.0915 12.7224 11.0915 12.7281V14.097C11.0915 14.1112 11.0915 14.1254 11.0887 14.1367Z" fill="#838385"/>
<path d="M9.3335 11.3448V11.342C9.42437 11.3022 9.51241 11.2596 9.60329 11.2199C9.71973 11.1659 9.83617 11.1148 9.9526 11.0608C10.0406 11.0211 10.1315 10.9785 10.2196 10.9387C10.3502 10.8791 10.478 10.8223 10.6086 10.7626C10.6967 10.7229 10.7847 10.6831 10.8756 10.6405C10.9381 10.6121 11.0034 10.5837 11.0659 10.5553C11.0715 10.5525 11.0801 10.5496 11.0829 10.5439C11.0857 10.5439 11.0857 10.5468 11.0829 10.5496V12.353C11.0829 12.3615 11.0801 12.37 11.0857 12.3757C11.0801 12.3842 11.0744 12.3757 11.0715 12.3729C11.046 12.3587 11.0204 12.3445 10.9949 12.3274C10.4468 12.0037 9.89581 11.6771 9.3477 11.3533C9.34486 11.3505 9.33918 11.3476 9.3335 11.3448Z" fill="#333535"/>
<path d="M12.8268 11.6802H12.8297C12.8297 11.6859 12.824 11.6915 12.8211 11.6972C12.2986 12.4328 11.776 13.1711 11.2535 13.9067C11.1995 13.9834 11.1427 14.06 11.0888 14.1367C11.0859 14.1339 11.0859 14.131 11.0859 14.1282V14.1112V12.7338V12.7082C11.2052 12.6372 11.3217 12.5691 11.4409 12.4981C11.901 12.2254 12.3611 11.9557 12.8183 11.683C12.8211 11.6859 12.824 11.683 12.8268 11.6802Z" fill="#2F3030"/>
<path d="M11.0858 10.5496V10.5439V10.5269V8.4651C11.0858 8.45658 11.0829 8.4509 11.0886 8.44238C11.6651 9.39944 12.2416 10.3537 12.8153 11.3107C12.821 11.3192 12.8295 11.3306 12.8323 11.342C12.7926 11.3278 12.7556 11.3079 12.7187 11.2908C12.6733 11.271 12.625 11.2482 12.5796 11.2284C12.5512 11.2142 12.5199 11.2028 12.4915 11.1886C12.4433 11.1659 12.395 11.146 12.3467 11.1233C12.3183 11.1119 12.2899 11.0977 12.2615 11.0835L12.0741 10.9983C12.0428 10.9841 12.0116 10.9699 11.9775 10.9557L11.8412 10.8961C11.8128 10.8847 11.7844 10.8705 11.756 10.8563L11.5685 10.7711C11.5373 10.7569 11.5061 10.7427 11.472 10.7285L11.3357 10.6689C11.3044 10.6547 11.276 10.6405 11.2448 10.6263C11.1908 10.6007 11.1369 10.5752 11.0801 10.5525C11.0886 10.5496 11.0858 10.5496 11.0858 10.5496Z" fill="#2F3030"/>
</g>
<defs>
<clipPath id="clip0_18062_98643">
<rect width="3.2" height="3.2" fill="white" transform="translate(9.3999 3.23096)"/>
</clipPath>
<clipPath id="clip1_18062_98643">
<rect width="8" height="8" fill="white" transform="translate(7 7.43115)"/>
</clipPath>
</defs>
</svg>
