<svg width="22" height="22" viewBox="0 0 22 22" fill="none" xmlns="http://www.w3.org/2000/svg">
<path d="M0 3.38462C0 1.51534 1.51534 0 3.38462 0H18.6154C20.4847 0 22 1.51534 22 3.38462V18.6154C22 20.4847 20.4847 22 18.6154 22H3.38462C1.51534 22 0 20.4847 0 18.6154V3.38462Z" fill="#0090FF"/>
<path d="M0 18.6154C0 20.4847 1.51534 22 3.38462 22H5.31814C8.03846 19.8846 9.47937 16.8984 10.756 13.6516C12.0327 10.4047 12.6945 6.84793 12.6923 3.24546C12.6908 2.15984 12.6295 1.07557 12.509 0H3.38461C1.51534 0 0 1.51534 0 3.38462V18.6154Z" fill="#8DCDFF"/>
<path d="M2.76635 1.69226C2.76635 2.06254 2.6532 2.41766 2.45179 2.67949C2.25038 2.94132 1.97722 3.08841 1.69238 3.08841V18.9115C1.97722 18.9115 2.25038 19.0586 2.45179 19.3204C2.6532 19.5822 2.76635 19.9374 2.76635 20.3076H19.2338C19.2338 19.9374 19.347 19.5822 19.5484 19.3204C19.7498 19.0586 20.0229 18.9115 20.3078 18.9115V3.08841C20.0229 3.08841 19.7498 2.94132 19.5484 2.67949C19.347 2.41766 19.2338 2.06254 19.2338 1.69226H2.76635Z" fill="#05355B"/>
<path d="M1.69238 3.08841V18.9115C1.98555 18.9115 2.2667 19.0586 2.474 19.3204C2.6813 19.5822 2.79776 19.9374 2.79776 20.3076H7.08773C10.6831 15.7434 12.6986 9.56459 12.6924 3.12611C12.6924 2.64444 12.6784 2.16695 12.6555 1.69226H2.79776C2.79776 2.06254 2.6813 2.41766 2.474 2.67949C2.2667 2.94132 1.98555 3.08841 1.69238 3.08841Z" fill="#2A72A8"/>
<path d="M4.33631 9.71864V8.97825C4.43449 8.97825 4.52865 9.01725 4.59808 9.08668C4.6675 9.1561 4.70651 9.25026 4.70651 9.34844H5.44689C5.44689 9.0539 5.32988 8.77142 5.12161 8.56315C4.91334 8.35487 4.63086 8.23787 4.33631 8.23787V7.86768H3.59593V8.23787C3.30139 8.23787 3.01891 8.35487 2.81063 8.56315C2.60236 8.77142 2.48535 9.0539 2.48535 9.34844C2.48535 9.64299 2.60236 9.92547 2.81063 10.1337C3.01891 10.342 3.30139 10.459 3.59593 10.459V11.1994C3.49775 11.1994 3.40359 11.1604 3.33416 11.091C3.26474 11.0216 3.22574 10.9274 3.22574 10.8292H2.48535C2.48535 11.1238 2.60236 11.4062 2.81063 11.6145C3.01891 11.8228 3.30139 11.9398 3.59593 11.9398V12.31H4.33631V11.9398C4.63086 11.9398 4.91334 11.8228 5.12161 11.6145C5.32988 11.4062 5.44689 11.1238 5.44689 10.8292C5.44689 10.5347 5.32988 10.2522 5.12161 10.0439C4.91334 9.83564 4.63086 9.71864 4.33631 9.71864ZM3.22574 9.34844C3.22574 9.25026 3.26474 9.1561 3.33416 9.08668C3.40359 9.01725 3.49775 8.97825 3.59593 8.97825V9.71864C3.49775 9.71864 3.40359 9.67964 3.33416 9.61021C3.26474 9.54079 3.22574 9.44663 3.22574 9.34844ZM4.33631 11.1994V10.459C4.43449 10.459 4.52865 10.498 4.59808 10.5674C4.6675 10.6369 4.70651 10.731 4.70651 10.8292C4.70651 10.9274 4.6675 11.0216 4.59808 11.091C4.52865 11.1604 4.43449 11.1994 4.33631 11.1994Z" fill="#8DCDFF"/>
<path d="M18.4037 9.71864V8.97825C18.5019 8.97825 18.596 9.01725 18.6655 9.08668C18.7349 9.1561 18.7739 9.25026 18.7739 9.34844H19.5143C19.5138 9.05405 19.3966 8.77186 19.1885 8.56369C18.9803 8.35552 18.6981 8.23836 18.4037 8.23787V7.86768H17.6633V8.23787C17.3688 8.23787 17.0863 8.35487 16.878 8.56315C16.6697 8.77142 16.5527 9.0539 16.5527 9.34844C16.5527 9.64299 16.6697 9.92547 16.878 10.1337C17.0863 10.342 17.3688 10.459 17.6633 10.459V11.1994C17.5651 11.1994 17.471 11.1604 17.4015 11.091C17.3321 11.0216 17.2931 10.9274 17.2931 10.8292H16.5527C16.5527 11.1238 16.6697 11.4062 16.878 11.6145C17.0863 11.8228 17.3688 11.9398 17.6633 11.9398V12.31H18.4037V11.9398C18.6982 11.9398 18.9807 11.8228 19.189 11.6145C19.3973 11.4062 19.5143 11.1238 19.5143 10.8292C19.5143 10.5347 19.3973 10.2522 19.189 10.0439C18.9807 9.83564 18.6982 9.71864 18.4037 9.71864ZM17.6633 9.71864C17.5651 9.71864 17.471 9.67964 17.4015 9.61021C17.3321 9.54079 17.2931 9.44663 17.2931 9.34844C17.2931 9.25026 17.3321 9.1561 17.4015 9.08668C17.471 9.01725 17.5651 8.97825 17.6633 8.97825V9.71864ZM18.4037 11.1994V10.459C18.5019 10.459 18.596 10.498 18.6655 10.5674C18.7349 10.6369 18.7739 10.731 18.7739 10.8292C18.7739 10.9274 18.7349 11.0216 18.6655 11.091C18.596 11.1604 18.5019 11.1994 18.4037 11.1994Z" fill="#0090FF"/>
<path d="M2.48535 13.6612C2.48535 13.4772 2.63452 13.328 2.81852 13.328H5.11335C5.29735 13.328 5.44652 13.4772 5.44652 13.6612C5.44652 13.8452 5.29735 13.9943 5.11335 13.9943H2.81852C2.63452 13.9943 2.48535 13.8452 2.48535 13.6612Z" fill="#8DCDFF"/>
<path d="M3.22559 14.6607C3.22559 14.4767 3.37475 14.3275 3.55876 14.3275H4.37281C4.55682 14.3275 4.70599 14.4767 4.70599 14.6607C4.70599 14.8447 4.55682 14.9939 4.37281 14.9939H3.55876C3.37475 14.9939 3.22559 14.8447 3.22559 14.6607Z" fill="#8DCDFF"/>
<path d="M16.5522 13.6612C16.5522 13.4772 16.7014 13.328 16.8854 13.328H19.1802C19.3642 13.328 19.5134 13.4772 19.5134 13.6612C19.5134 13.8452 19.3642 13.9943 19.1802 13.9943H16.8854C16.7014 13.9943 16.5522 13.8452 16.5522 13.6612Z" fill="#0090FF"/>
<path d="M17.2925 14.6607C17.2925 14.4767 17.4416 14.3275 17.6257 14.3275H18.4397C18.6237 14.3275 18.7729 14.4767 18.7729 14.6607C18.7729 14.8447 18.6237 14.9939 18.4397 14.9939H17.6257C17.4416 14.9939 17.2925 14.8447 17.2925 14.6607Z" fill="#0090FF"/>
<path d="M9.14915 20.4663C9.14915 19.4441 9.97785 18.6154 11.0001 18.6154C12.0224 18.6154 12.8511 19.4441 12.8511 20.4663" stroke="#0090FF" stroke-width="0.740385"/>
<g clip-path="url(#clip0_16030_49889)">
<path fill-rule="evenodd" clip-rule="evenodd" d="M11.0796 3.57186C11.0304 3.54375 10.97 3.54375 10.9209 3.57186L9.80086 4.21186C9.72414 4.2557 9.69748 4.35344 9.74132 4.43016C9.77082 4.48179 9.82473 4.51075 9.88021 4.51081V5.63078C9.79185 5.63078 9.72021 5.70242 9.72021 5.79078C9.72021 5.87915 9.79185 5.95078 9.88021 5.95078H12.1202C12.2086 5.95078 12.2802 5.87915 12.2802 5.79078C12.2802 5.70242 12.2086 5.63078 12.1202 5.63078V4.51081C12.1757 4.51077 12.2297 4.48181 12.2592 4.43016C12.303 4.35344 12.2763 4.2557 12.1996 4.21186L11.0796 3.57186ZM10.3602 4.67078C10.2718 4.67078 10.2002 4.74242 10.2002 4.83078V5.31078C10.2002 5.39915 10.2718 5.47078 10.3602 5.47078C10.4486 5.47078 10.5202 5.39915 10.5202 5.31078V4.83078C10.5202 4.74242 10.4486 4.67078 10.3602 4.67078ZM10.8402 4.83078C10.8402 4.74242 10.9118 4.67078 11.0002 4.67078C11.0886 4.67078 11.1602 4.74242 11.1602 4.83078V5.31078C11.1602 5.39915 11.0886 5.47078 11.0002 5.47078C10.9118 5.47078 10.8402 5.39915 10.8402 5.31078V4.83078ZM11.6402 4.67078C11.5518 4.67078 11.4802 4.74242 11.4802 4.83078V5.31078C11.4802 5.39915 11.5518 5.47078 11.6402 5.47078C11.7286 5.47078 11.8002 5.39915 11.8002 5.31078V4.83078C11.8002 4.74242 11.7286 4.67078 11.6402 4.67078Z" fill="#8DCDFF"/>
</g>
<g clip-path="url(#clip1_16030_49889)">
<path d="M11 15.4307C13.2091 15.4307 15 13.6398 15 11.4307C15 9.22152 13.2091 7.43066 11 7.43066C8.79086 7.43066 7 9.22152 7 11.4307C7 13.6398 8.79086 15.4307 11 15.4307Z" fill="#0090FF"/>
<path d="M11.0143 10.7133C11.1073 10.3226 11.2193 9.97135 11.3383 9.7421C11.382 9.6326 11.5595 9.37035 11.7543 9.1971C12.0785 8.90835 12.4423 8.8351 12.821 9.07285L12.7878 9.1256L12.821 9.07285C13.0143 9.1941 13.0918 9.31885 13.0578 9.43635C13.0328 9.52385 12.937 9.59385 12.8858 9.5866C12.8108 9.5941 12.7353 9.5791 12.6633 9.5261C12.6026 9.47941 12.5559 9.4171 12.528 9.34585C12.475 9.22085 12.4055 9.17835 12.3203 9.18835C12.2585 9.19535 12.1868 9.23485 12.164 9.26135L12.1053 9.32635C12.0596 9.37498 12.019 9.42817 11.9843 9.4851C11.8653 9.68335 11.7555 10.0466 11.6033 10.7993L12.6123 10.9471L12.5568 11.3513L11.5328 11.2013L11.489 11.4673L11.4778 11.5338C11.4718 11.5683 11.4653 11.6058 11.4578 11.6458L12.4918 11.7973L12.4325 12.2011L11.3743 12.0461C11.252 12.5656 11.091 13.1223 10.9773 13.3421C10.9333 13.4518 10.756 13.7136 10.5613 13.8871C10.237 14.1756 9.87326 14.2491 9.49451 14.0113C9.30126 13.8901 9.22376 13.7651 9.25776 13.6476C9.28276 13.5601 9.37851 13.4903 9.42976 13.4976C9.50476 13.4901 9.58026 13.5051 9.65226 13.5578C9.70776 13.5988 9.75376 13.6583 9.78751 13.7383C9.84051 13.8631 9.91001 13.9058 9.99526 13.8958C10.057 13.8886 10.1288 13.8491 10.1515 13.8226C10.3783 13.5701 10.558 13.0836 10.7853 11.9601L9.77626 11.8121L9.83176 11.4078L10.8558 11.5578L10.8998 11.2921C10.9095 11.2324 10.9199 11.1728 10.931 11.1133L9.90101 10.9626L9.96001 10.5588L11.0143 10.7133Z" fill="#FBFAFC"/>
</g>
<defs>
<clipPath id="clip0_16030_49889">
<rect width="3.2" height="3.2" fill="white" transform="translate(9.3999 3.23071)"/>
</clipPath>
<clipPath id="clip1_16030_49889">
<rect width="8" height="8" fill="white" transform="translate(7 7.43066)"/>
</clipPath>
</defs>
</svg>
