<svg width="22" height="22" viewBox="0 0 22 22" fill="none" xmlns="http://www.w3.org/2000/svg">
<path d="M0 3.38462C0 1.51534 1.51534 0 3.38462 0H18.6154C20.4847 0 22 1.51534 22 3.38462V18.6154C22 20.4847 20.4847 22 18.6154 22H3.38462C1.51534 22 0 20.4847 0 18.6154V3.38462Z" fill="#408BDC"/>
<path d="M0 18.6154C0 20.4847 1.51534 22 3.38462 22H5.31814C8.03846 19.8846 9.47937 16.8984 10.756 13.6516C12.0327 10.4047 12.6945 6.84793 12.6923 3.24546C12.6908 2.15984 12.6295 1.07557 12.509 0H3.38461C1.51534 0 0 1.51534 0 3.38462V18.6154Z" fill="#9CC9F9"/>
<path d="M2.76635 1.69238C2.76635 2.06267 2.6532 2.41778 2.45179 2.67961C2.25038 2.94144 1.97722 3.08854 1.69238 3.08854V18.9116C1.97722 18.9116 2.25038 19.0587 2.45179 19.3205C2.6532 19.5824 2.76635 19.9375 2.76635 20.3078H19.2338C19.2338 19.9375 19.347 19.5824 19.5484 19.3205C19.7498 19.0587 20.0229 18.9116 20.3078 18.9116V3.08854C20.0229 3.08854 19.7498 2.94144 19.5484 2.67961C19.347 2.41778 19.2338 2.06267 19.2338 1.69238H2.76635Z" fill="#05355B"/>
<path d="M1.69238 3.08854V18.9116C1.98555 18.9116 2.2667 19.0587 2.474 19.3205C2.6813 19.5824 2.79776 19.9375 2.79776 20.3078H7.08773C10.6831 15.7435 12.6986 9.56471 12.6924 3.12623C12.6924 2.64456 12.6784 2.16708 12.6555 1.69238H2.79776C2.79776 2.06267 2.6813 2.41778 2.474 2.67961C2.2667 2.94144 1.98555 3.08854 1.69238 3.08854Z" fill="#2A72A8"/>
<path d="M4.33631 9.71864V8.97825C4.43449 8.97825 4.52865 9.01725 4.59808 9.08668C4.6675 9.1561 4.70651 9.25026 4.70651 9.34844H5.44689C5.44689 9.0539 5.32988 8.77142 5.12161 8.56315C4.91334 8.35487 4.63086 8.23787 4.33631 8.23787V7.86768H3.59593V8.23787C3.30139 8.23787 3.01891 8.35487 2.81063 8.56315C2.60236 8.77142 2.48535 9.0539 2.48535 9.34844C2.48535 9.64299 2.60236 9.92547 2.81063 10.1337C3.01891 10.342 3.30139 10.459 3.59593 10.459V11.1994C3.49775 11.1994 3.40359 11.1604 3.33416 11.091C3.26474 11.0216 3.22574 10.9274 3.22574 10.8292H2.48535C2.48535 11.1238 2.60236 11.4062 2.81063 11.6145C3.01891 11.8228 3.30139 11.9398 3.59593 11.9398V12.31H4.33631V11.9398C4.63086 11.9398 4.91334 11.8228 5.12161 11.6145C5.32988 11.4062 5.44689 11.1238 5.44689 10.8292C5.44689 10.5347 5.32988 10.2522 5.12161 10.0439C4.91334 9.83564 4.63086 9.71864 4.33631 9.71864ZM3.22574 9.34844C3.22574 9.25026 3.26474 9.1561 3.33416 9.08668C3.40359 9.01725 3.49775 8.97825 3.59593 8.97825V9.71864C3.49775 9.71864 3.40359 9.67964 3.33416 9.61021C3.26474 9.54079 3.22574 9.44663 3.22574 9.34844ZM4.33631 11.1994V10.459C4.43449 10.459 4.52865 10.498 4.59808 10.5674C4.6675 10.6369 4.70651 10.731 4.70651 10.8292C4.70651 10.9274 4.6675 11.0216 4.59808 11.091C4.52865 11.1604 4.43449 11.1994 4.33631 11.1994Z" fill="#9CC9F9"/>
<path d="M18.4037 9.71864V8.97825C18.5019 8.97825 18.596 9.01725 18.6655 9.08668C18.7349 9.1561 18.7739 9.25026 18.7739 9.34844H19.5143C19.5138 9.05405 19.3966 8.77186 19.1885 8.56369C18.9803 8.35552 18.6981 8.23836 18.4037 8.23787V7.86768H17.6633V8.23787C17.3688 8.23787 17.0863 8.35487 16.878 8.56315C16.6697 8.77142 16.5527 9.0539 16.5527 9.34844C16.5527 9.64299 16.6697 9.92547 16.878 10.1337C17.0863 10.342 17.3688 10.459 17.6633 10.459V11.1994C17.5651 11.1994 17.471 11.1604 17.4015 11.091C17.3321 11.0216 17.2931 10.9274 17.2931 10.8292H16.5527C16.5527 11.1238 16.6697 11.4062 16.878 11.6145C17.0863 11.8228 17.3688 11.9398 17.6633 11.9398V12.31H18.4037V11.9398C18.6982 11.9398 18.9807 11.8228 19.189 11.6145C19.3973 11.4062 19.5143 11.1238 19.5143 10.8292C19.5143 10.5347 19.3973 10.2522 19.189 10.0439C18.9807 9.83564 18.6982 9.71864 18.4037 9.71864ZM17.6633 9.71864C17.5651 9.71864 17.471 9.67964 17.4015 9.61021C17.3321 9.54079 17.2931 9.44663 17.2931 9.34844C17.2931 9.25026 17.3321 9.1561 17.4015 9.08668C17.471 9.01725 17.5651 8.97825 17.6633 8.97825V9.71864ZM18.4037 11.1994V10.459C18.5019 10.459 18.596 10.498 18.6655 10.5674C18.7349 10.6369 18.7739 10.731 18.7739 10.8292C18.7739 10.9274 18.7349 11.0216 18.6655 11.091C18.596 11.1604 18.5019 11.1994 18.4037 11.1994Z" fill="#408BDC"/>
<path d="M2.48535 13.6613C2.48535 13.4773 2.63452 13.3281 2.81852 13.3281H5.11335C5.29735 13.3281 5.44652 13.4773 5.44652 13.6613C5.44652 13.8453 5.29735 13.9945 5.11335 13.9945H2.81852C2.63452 13.9945 2.48535 13.8453 2.48535 13.6613Z" fill="#9CC9F9"/>
<path d="M3.22559 14.6608C3.22559 14.4768 3.37475 14.3276 3.55876 14.3276H4.37281C4.55682 14.3276 4.70599 14.4768 4.70599 14.6608C4.70599 14.8448 4.55682 14.994 4.37281 14.994H3.55876C3.37475 14.994 3.22559 14.8448 3.22559 14.6608Z" fill="#9CC9F9"/>
<path d="M16.5522 13.6613C16.5522 13.4773 16.7014 13.3281 16.8854 13.3281H19.1802C19.3642 13.3281 19.5134 13.4773 19.5134 13.6613C19.5134 13.8453 19.3642 13.9945 19.1802 13.9945H16.8854C16.7014 13.9945 16.5522 13.8453 16.5522 13.6613Z" fill="#408BDC"/>
<path d="M17.2925 14.6608C17.2925 14.4768 17.4416 14.3276 17.6257 14.3276H18.4397C18.6237 14.3276 18.7729 14.4768 18.7729 14.6608C18.7729 14.8448 18.6237 14.994 18.4397 14.994H17.6257C17.4416 14.994 17.2925 14.8448 17.2925 14.6608Z" fill="#408BDC"/>
<path d="M9.14915 20.4662C9.14915 19.4439 9.97785 18.6152 11.0001 18.6152C12.0224 18.6152 12.8511 19.4439 12.8511 20.4662" stroke="#408BDC" stroke-width="0.740385"/>
<g clip-path="url(#clip0_18062_98759)">
<path fill-rule="evenodd" clip-rule="evenodd" d="M11.0796 3.57186C11.0304 3.54375 10.97 3.54375 10.9209 3.57186L9.80086 4.21186C9.72414 4.2557 9.69748 4.35344 9.74132 4.43016C9.77082 4.48179 9.82473 4.51075 9.88021 4.51081V5.63078C9.79185 5.63078 9.72021 5.70242 9.72021 5.79078C9.72021 5.87915 9.79185 5.95078 9.88021 5.95078H12.1202C12.2086 5.95078 12.2802 5.87915 12.2802 5.79078C12.2802 5.70242 12.2086 5.63078 12.1202 5.63078V4.51081C12.1757 4.51077 12.2297 4.48181 12.2592 4.43016C12.303 4.35344 12.2763 4.2557 12.1996 4.21186L11.0796 3.57186ZM10.3602 4.67078C10.2718 4.67078 10.2002 4.74242 10.2002 4.83078V5.31078C10.2002 5.39915 10.2718 5.47078 10.3602 5.47078C10.4486 5.47078 10.5202 5.39915 10.5202 5.31078V4.83078C10.5202 4.74242 10.4486 4.67078 10.3602 4.67078ZM10.8402 4.83078C10.8402 4.74242 10.9118 4.67078 11.0002 4.67078C11.0886 4.67078 11.1602 4.74242 11.1602 4.83078V5.31078C11.1602 5.39915 11.0886 5.47078 11.0002 5.47078C10.9118 5.47078 10.8402 5.39915 10.8402 5.31078V4.83078ZM11.6402 4.67078C11.5518 4.67078 11.4802 4.74242 11.4802 4.83078V5.31078C11.4802 5.39915 11.5518 5.47078 11.6402 5.47078C11.7286 5.47078 11.8002 5.39915 11.8002 5.31078V4.83078C11.8002 4.74242 11.7286 4.67078 11.6402 4.67078Z" fill="#9CC9F9"/>
</g>
<g clip-path="url(#clip1_18062_98759)">
<path d="M11 15.4312C13.2091 15.4312 15 13.6403 15 11.4312C15 9.22201 13.2091 7.43115 11 7.43115C8.79086 7.43115 7 9.22201 7 11.4312C7 13.6403 8.79086 15.4312 11 15.4312Z" fill="#2775CA"/>
<path d="M12.1 12.0644C12.1 11.481 11.75 11.281 11.05 11.1977C10.55 11.131 10.45 10.9977 10.45 10.7644C10.45 10.531 10.6167 10.381 10.95 10.381C11.25 10.381 11.4167 10.481 11.5 10.731C11.5167 10.781 11.5667 10.8144 11.6167 10.8144H11.8833C11.95 10.8144 12 10.7644 12 10.6977V10.681C11.9333 10.3144 11.6333 10.031 11.25 9.99772V9.59772C11.25 9.53104 11.2 9.48104 11.1167 9.46436H10.8667C10.8 9.46436 10.75 9.51436 10.7333 9.59772V9.98104C10.2333 10.0477 9.9167 10.381 9.9167 10.7977C9.9167 11.3477 10.25 11.5644 10.95 11.6477C11.4167 11.731 11.5667 11.831 11.5667 12.0977C11.5667 12.3644 11.3333 12.5477 11.0167 12.5477C10.5833 12.5477 10.4333 12.3644 10.3833 12.1144C10.3667 12.0477 10.3167 12.0144 10.2667 12.0144H9.98334C9.9167 12.0144 9.8667 12.0644 9.8667 12.131V12.1477C9.93334 12.5644 10.2 12.8644 10.75 12.9477V13.3477C10.75 13.4144 10.8 13.4644 10.8833 13.481H11.1333C11.2 13.481 11.25 13.431 11.2667 13.3477V12.9477C11.7667 12.8644 12.1 12.5144 12.1 12.0644Z" fill="#FBFAFC"/>
<path d="M10.1498 13.8143C8.84984 13.3477 8.18316 11.8977 8.66652 10.6143C8.91652 9.9143 9.46652 9.38098 10.1498 9.13098C10.2165 9.09766 10.2498 9.04766 10.2498 8.9643V8.73098C10.2498 8.6643 10.2165 8.6143 10.1498 8.59766C10.1332 8.59766 10.0998 8.59766 10.0832 8.6143C8.49984 9.1143 7.63316 10.7977 8.13316 12.381C8.43316 13.3143 9.14984 14.031 10.0832 14.331C10.1498 14.3643 10.2165 14.331 10.2332 14.2643C10.2498 14.2477 10.2498 14.231 10.2498 14.1977V13.9643C10.2498 13.9143 10.1998 13.8477 10.1498 13.8143ZM11.9165 8.6143C11.8498 8.58098 11.7832 8.6143 11.7665 8.68098C11.7498 8.69766 11.7498 8.7143 11.7498 8.74766V8.98098C11.7498 9.04766 11.7998 9.1143 11.8498 9.14766C13.1498 9.6143 13.8165 11.0643 13.3332 12.3477C13.0832 13.0477 12.5332 13.581 11.8498 13.831C11.7832 13.8643 11.7498 13.9143 11.7498 13.9977V14.231C11.7498 14.2977 11.7832 14.3477 11.8498 14.3643C11.8665 14.3643 11.8998 14.3643 11.9165 14.3477C13.4998 13.8477 14.3665 12.1643 13.8665 10.581C13.5665 9.63098 12.8332 8.9143 11.9165 8.6143Z" fill="#FBFAFC"/>
</g>
<defs>
<clipPath id="clip0_18062_98759">
<rect width="3.2" height="3.2" fill="white" transform="translate(9.3999 3.23096)"/>
</clipPath>
<clipPath id="clip1_18062_98759">
<rect width="8" height="8" fill="white" transform="translate(7 7.43115)"/>
</clipPath>
</defs>
</svg>
