<svg width="22" height="22" viewBox="0 0 22 22" fill="none" xmlns="http://www.w3.org/2000/svg">
<path d="M0 3.38462C0 1.51534 1.51534 0 3.38462 0H18.6154C20.4847 0 22 1.51534 22 3.38462V18.6154C22 20.4847 20.4847 22 18.6154 22H3.38462C1.51534 22 0 20.4847 0 18.6154V3.38462Z" fill="#FFDB93"/>
<path d="M0 18.6154C0 20.4847 1.51534 22 3.38462 22H5.31814C8.03846 19.8846 9.47937 16.8984 10.756 13.6516C12.0327 10.4047 12.6945 6.84793 12.6923 3.24546C12.6908 2.15984 12.6295 1.07557 12.509 0H3.38461C1.51534 0 0 1.51534 0 3.38462V18.6154Z" fill="#FFF2D8"/>
<path d="M2.76635 1.69238C2.76635 2.06267 2.6532 2.41778 2.45179 2.67961C2.25038 2.94144 1.97722 3.08854 1.69238 3.08854V18.9116C1.97722 18.9116 2.25038 19.0587 2.45179 19.3205C2.6532 19.5824 2.76635 19.9375 2.76635 20.3078H19.2338C19.2338 19.9375 19.347 19.5824 19.5484 19.3205C19.7498 19.0587 20.0229 18.9116 20.3078 18.9116V3.08854C20.0229 3.08854 19.7498 2.94144 19.5484 2.67961C19.347 2.41778 19.2338 2.06267 19.2338 1.69238H2.76635Z" fill="#C58300"/>
<path d="M1.69238 3.08854V18.9116C1.98555 18.9116 2.2667 19.0587 2.474 19.3205C2.6813 19.5824 2.79776 19.9375 2.79776 20.3078H7.08773C10.6831 15.7435 12.6986 9.56471 12.6924 3.12623C12.6924 2.64456 12.6784 2.16708 12.6555 1.69238H2.79776C2.79776 2.06267 2.6813 2.41778 2.474 2.67961C2.2667 2.94144 1.98555 3.08854 1.69238 3.08854Z" fill="#F4B261"/>
<path d="M4.33631 9.71864V8.97825C4.43449 8.97825 4.52865 9.01725 4.59808 9.08668C4.6675 9.1561 4.70651 9.25026 4.70651 9.34844H5.44689C5.44689 9.0539 5.32988 8.77142 5.12161 8.56315C4.91334 8.35487 4.63086 8.23787 4.33631 8.23787V7.86768H3.59593V8.23787C3.30139 8.23787 3.01891 8.35487 2.81063 8.56315C2.60236 8.77142 2.48535 9.0539 2.48535 9.34844C2.48535 9.64299 2.60236 9.92547 2.81063 10.1337C3.01891 10.342 3.30139 10.459 3.59593 10.459V11.1994C3.49775 11.1994 3.40359 11.1604 3.33416 11.091C3.26474 11.0216 3.22574 10.9274 3.22574 10.8292H2.48535C2.48535 11.1238 2.60236 11.4062 2.81063 11.6145C3.01891 11.8228 3.30139 11.9398 3.59593 11.9398V12.31H4.33631V11.9398C4.63086 11.9398 4.91334 11.8228 5.12161 11.6145C5.32988 11.4062 5.44689 11.1238 5.44689 10.8292C5.44689 10.5347 5.32988 10.2522 5.12161 10.0439C4.91334 9.83564 4.63086 9.71864 4.33631 9.71864ZM3.22574 9.34844C3.22574 9.25026 3.26474 9.1561 3.33416 9.08668C3.40359 9.01725 3.49775 8.97825 3.59593 8.97825V9.71864C3.49775 9.71864 3.40359 9.67964 3.33416 9.61021C3.26474 9.54079 3.22574 9.44663 3.22574 9.34844ZM4.33631 11.1994V10.459C4.43449 10.459 4.52865 10.498 4.59808 10.5674C4.6675 10.6369 4.70651 10.731 4.70651 10.8292C4.70651 10.9274 4.6675 11.0216 4.59808 11.091C4.52865 11.1604 4.43449 11.1994 4.33631 11.1994Z" fill="#FFF2D8"/>
<path d="M18.4037 9.71864V8.97825C18.5019 8.97825 18.596 9.01725 18.6655 9.08668C18.7349 9.1561 18.7739 9.25026 18.7739 9.34844H19.5143C19.5138 9.05405 19.3966 8.77186 19.1885 8.56369C18.9803 8.35552 18.6981 8.23836 18.4037 8.23787V7.86768H17.6633V8.23787C17.3688 8.23787 17.0863 8.35487 16.878 8.56315C16.6697 8.77142 16.5527 9.0539 16.5527 9.34844C16.5527 9.64299 16.6697 9.92547 16.878 10.1337C17.0863 10.342 17.3688 10.459 17.6633 10.459V11.1994C17.5651 11.1994 17.471 11.1604 17.4015 11.091C17.3321 11.0216 17.2931 10.9274 17.2931 10.8292H16.5527C16.5527 11.1238 16.6697 11.4062 16.878 11.6145C17.0863 11.8228 17.3688 11.9398 17.6633 11.9398V12.31H18.4037V11.9398C18.6982 11.9398 18.9807 11.8228 19.189 11.6145C19.3973 11.4062 19.5143 11.1238 19.5143 10.8292C19.5143 10.5347 19.3973 10.2522 19.189 10.0439C18.9807 9.83564 18.6982 9.71864 18.4037 9.71864ZM17.6633 9.71864C17.5651 9.71864 17.471 9.67964 17.4015 9.61021C17.3321 9.54079 17.2931 9.44663 17.2931 9.34844C17.2931 9.25026 17.3321 9.1561 17.4015 9.08668C17.471 9.01725 17.5651 8.97825 17.6633 8.97825V9.71864ZM18.4037 11.1994V10.459C18.5019 10.459 18.596 10.498 18.6655 10.5674C18.7349 10.6369 18.7739 10.731 18.7739 10.8292C18.7739 10.9274 18.7349 11.0216 18.6655 11.091C18.596 11.1604 18.5019 11.1994 18.4037 11.1994Z" fill="#FFDB93"/>
<path d="M2.48535 13.6613C2.48535 13.4773 2.63452 13.3281 2.81852 13.3281H5.11335C5.29735 13.3281 5.44652 13.4773 5.44652 13.6613C5.44652 13.8453 5.29735 13.9945 5.11335 13.9945H2.81852C2.63452 13.9945 2.48535 13.8453 2.48535 13.6613Z" fill="#FFF2D8"/>
<path d="M3.22559 14.6608C3.22559 14.4768 3.37475 14.3276 3.55876 14.3276H4.37281C4.55682 14.3276 4.70599 14.4768 4.70599 14.6608C4.70599 14.8448 4.55682 14.994 4.37281 14.994H3.55876C3.37475 14.994 3.22559 14.8448 3.22559 14.6608Z" fill="#FFF2D8"/>
<path d="M16.5522 13.6613C16.5522 13.4773 16.7014 13.3281 16.8854 13.3281H19.1802C19.3642 13.3281 19.5134 13.4773 19.5134 13.6613C19.5134 13.8453 19.3642 13.9945 19.1802 13.9945H16.8854C16.7014 13.9945 16.5522 13.8453 16.5522 13.6613Z" fill="#FFDB93"/>
<path d="M17.2925 14.6608C17.2925 14.4768 17.4416 14.3276 17.6257 14.3276H18.4397C18.6237 14.3276 18.7729 14.4768 18.7729 14.6608C18.7729 14.8448 18.6237 14.994 18.4397 14.994H17.6257C17.4416 14.994 17.2925 14.8448 17.2925 14.6608Z" fill="#FFDB93"/>
<path d="M9.14915 20.4662C9.14915 19.4439 9.97785 18.6152 11.0001 18.6152C12.0224 18.6152 12.8511 19.4439 12.8511 20.4662" stroke="#FFDB93" stroke-width="0.740385"/>
<g clip-path="url(#clip0_18062_98473)">
<path fill-rule="evenodd" clip-rule="evenodd" d="M11.0796 3.57186C11.0304 3.54375 10.97 3.54375 10.9209 3.57186L9.80086 4.21186C9.72414 4.2557 9.69748 4.35344 9.74132 4.43016C9.77082 4.48179 9.82473 4.51075 9.88021 4.51081V5.63078C9.79185 5.63078 9.72021 5.70242 9.72021 5.79078C9.72021 5.87915 9.79185 5.95078 9.88021 5.95078H12.1202C12.2086 5.95078 12.2802 5.87915 12.2802 5.79078C12.2802 5.70242 12.2086 5.63078 12.1202 5.63078V4.51081C12.1757 4.51077 12.2297 4.48181 12.2592 4.43016C12.303 4.35344 12.2763 4.2557 12.1996 4.21186L11.0796 3.57186ZM10.3602 4.67078C10.2718 4.67078 10.2002 4.74242 10.2002 4.83078V5.31078C10.2002 5.39915 10.2718 5.47078 10.3602 5.47078C10.4486 5.47078 10.5202 5.39915 10.5202 5.31078V4.83078C10.5202 4.74242 10.4486 4.67078 10.3602 4.67078ZM10.8402 4.83078C10.8402 4.74242 10.9118 4.67078 11.0002 4.67078C11.0886 4.67078 11.1602 4.74242 11.1602 4.83078V5.31078C11.1602 5.39915 11.0886 5.47078 11.0002 5.47078C10.9118 5.47078 10.8402 5.39915 10.8402 5.31078V4.83078ZM11.6402 4.67078C11.5518 4.67078 11.4802 4.74242 11.4802 4.83078V5.31078C11.4802 5.39915 11.5518 5.47078 11.6402 5.47078C11.7286 5.47078 11.8002 5.39915 11.8002 5.31078V4.83078C11.8002 4.74242 11.7286 4.67078 11.6402 4.67078Z" fill="#FFF2D8"/>
</g>
<path d="M11 15.4312C13.2091 15.4312 15 13.6403 15 11.4312C15 9.22201 13.2091 7.43115 11 7.43115C8.79086 7.43115 7 9.22201 7 11.4312C7 13.6403 8.79086 15.4312 11 15.4312Z" fill="#FFF2D8"/>
<mask id="path-14-outside-1_18062_98473" maskUnits="userSpaceOnUse" x="7.16028" y="7.20706" width="7.41567" height="8.16623" fill="black">
<rect fill="white" x="7.16028" y="7.20706" width="7.41567" height="8.16623"/>
<path fill-rule="evenodd" clip-rule="evenodd" d="M12.7168 10.4516C12.675 9.89886 12.1962 9.70661 11.5877 9.64481L11.6045 8.87915L11.132 8.87219L11.1157 9.61766C10.9917 9.61579 10.8647 9.61632 10.7386 9.61692L10.7551 8.86651L10.283 8.85946L10.2661 9.62489C10.1638 9.62543 10.0633 9.6258 9.9654 9.6244L9.96539 9.62203L9.31397 9.61209L9.30317 10.1098C9.30317 10.1098 9.65209 10.1085 9.64615 10.1147C9.83746 10.1177 9.89745 10.2281 9.91336 10.323L9.89426 11.1953C9.90746 11.1955 9.92467 11.1963 9.94411 11.1992L9.89434 11.1985L9.86728 12.4205C9.85759 12.4798 9.82012 12.574 9.68645 12.5722C9.69238 12.5776 9.34312 12.567 9.34312 12.567L9.2371 13.1223L9.85186 13.1314C9.92126 13.1325 9.98997 13.1343 10.0579 13.136L10.058 13.136L10.058 13.136C10.102 13.1372 10.1457 13.1383 10.1891 13.1392L10.1723 13.9137L10.6441 13.9208L10.661 13.1546C10.7904 13.1592 10.9157 13.1621 11.0381 13.1638L11.0212 13.9265L11.4935 13.9335L11.5106 13.1605C12.3056 13.1274 12.8658 12.9382 12.9508 12.2037C13.0195 11.612 12.743 11.3434 12.2946 11.2298C12.5713 11.096 12.7479 10.8561 12.7167 10.4516L12.7168 10.4516ZM12.0196 12.0975C12.0081 12.6287 11.1626 12.6044 10.7761 12.5932L10.776 12.5932C10.7414 12.5922 10.7105 12.5913 10.6842 12.591L10.7068 11.565C10.739 11.5655 10.7781 11.5651 10.8224 11.5648C11.2188 11.5614 12.0313 11.5546 12.0197 12.0975L12.0196 12.0975ZM10.7947 11.0975C11.1174 11.1075 11.8207 11.1294 11.8315 10.6468C11.8424 10.1532 11.1651 10.1608 10.8343 10.1645C10.7971 10.165 10.7643 10.1653 10.7373 10.1649L10.7169 11.0955C10.7391 11.0958 10.7654 11.0966 10.7947 11.0975Z"/>
</mask>
<path fill-rule="evenodd" clip-rule="evenodd" d="M12.7168 10.4516C12.675 9.89886 12.1962 9.70661 11.5877 9.64481L11.6045 8.87915L11.132 8.87219L11.1157 9.61766C10.9917 9.61579 10.8647 9.61632 10.7386 9.61692L10.7551 8.86651L10.283 8.85946L10.2661 9.62489C10.1638 9.62543 10.0633 9.6258 9.9654 9.6244L9.96539 9.62203L9.31397 9.61209L9.30317 10.1098C9.30317 10.1098 9.65209 10.1085 9.64615 10.1147C9.83746 10.1177 9.89745 10.2281 9.91336 10.323L9.89426 11.1953C9.90746 11.1955 9.92467 11.1963 9.94411 11.1992L9.89434 11.1985L9.86728 12.4205C9.85759 12.4798 9.82012 12.574 9.68645 12.5722C9.69238 12.5776 9.34312 12.567 9.34312 12.567L9.2371 13.1223L9.85186 13.1314C9.92126 13.1325 9.98997 13.1343 10.0579 13.136L10.058 13.136L10.058 13.136C10.102 13.1372 10.1457 13.1383 10.1891 13.1392L10.1723 13.9137L10.6441 13.9208L10.661 13.1546C10.7904 13.1592 10.9157 13.1621 11.0381 13.1638L11.0212 13.9265L11.4935 13.9335L11.5106 13.1605C12.3056 13.1274 12.8658 12.9382 12.9508 12.2037C13.0195 11.612 12.743 11.3434 12.2946 11.2298C12.5713 11.096 12.7479 10.8561 12.7167 10.4516L12.7168 10.4516ZM12.0196 12.0975C12.0081 12.6287 11.1626 12.6044 10.7761 12.5932L10.776 12.5932C10.7414 12.5922 10.7105 12.5913 10.6842 12.591L10.7068 11.565C10.739 11.5655 10.7781 11.5651 10.8224 11.5648C11.2188 11.5614 12.0313 11.5546 12.0197 12.0975L12.0196 12.0975ZM10.7947 11.0975C11.1174 11.1075 11.8207 11.1294 11.8315 10.6468C11.8424 10.1532 11.1651 10.1608 10.8343 10.1645C10.7971 10.165 10.7643 10.1653 10.7373 10.1649L10.7169 11.0955C10.7391 11.0958 10.7654 11.0966 10.7947 11.0975Z" fill="#F7931A"/>
<path d="M11.5877 9.64481L11.358 9.63977L11.3534 9.85192L11.5645 9.87336L11.5877 9.64481ZM12.7168 10.4516L12.7683 10.6755L12.9608 10.6313L12.9459 10.4343L12.7168 10.4516ZM11.6045 8.87915L11.8342 8.88419L11.8392 8.65286L11.6079 8.64945L11.6045 8.87915ZM11.132 8.87219L11.1354 8.64248L10.9074 8.63912L10.9024 8.86715L11.132 8.87219ZM11.1157 9.61766L11.1123 9.84736L11.3404 9.85079L11.3454 9.62269L11.1157 9.61766ZM10.7386 9.61692L10.5089 9.61186L10.5037 9.84777L10.7397 9.84665L10.7386 9.61692ZM10.7551 8.86651L10.9848 8.87158L10.9899 8.64027L10.7585 8.63681L10.7551 8.86651ZM10.283 8.85946L10.2865 8.62976L10.0584 8.62635L10.0534 8.85437L10.283 8.85946ZM10.2661 9.62489L10.2673 9.85462L10.4908 9.85345L10.4957 9.62998L10.2661 9.62489ZM9.9654 9.6244L9.73567 9.62533L9.73658 9.85089L9.96212 9.85411L9.9654 9.6244ZM9.96539 9.62203L10.1951 9.6211L10.1942 9.39576L9.96889 9.39233L9.96539 9.62203ZM9.31397 9.61209L9.31747 9.38239L9.08924 9.37891L9.08429 9.60711L9.31397 9.61209ZM9.30317 10.1098L9.07349 10.1049L9.06838 10.3405L9.30406 10.3396L9.30317 10.1098ZM9.64615 10.1147L9.47957 9.95654L9.11877 10.3365L9.64266 10.3444L9.64615 10.1147ZM9.91336 10.323L10.143 10.328L10.1435 10.3064L10.1399 10.285L9.91336 10.323ZM9.89426 11.1953L9.66459 11.1902L9.65955 11.4203L9.8896 11.4249L9.89426 11.1953ZM9.94411 11.1992L9.94083 11.429L9.97831 10.9721L9.94411 11.1992ZM9.89434 11.1985L9.89763 10.9688L9.66972 10.9656L9.66467 11.1934L9.89434 11.1985ZM9.86728 12.4205L10.094 12.4576L10.0966 12.4417L10.097 12.4256L9.86728 12.4205ZM9.68645 12.5722L9.68948 12.3425L9.08215 12.3345L9.53216 12.7424L9.68645 12.5722ZM9.34312 12.567L9.35008 12.3374L9.15422 12.3314L9.11747 12.5239L9.34312 12.567ZM9.2371 13.1223L9.01145 13.0792L8.96013 13.3479L9.23369 13.352L9.2371 13.1223ZM9.85186 13.1314L9.85556 12.9017L9.85527 12.9017L9.85186 13.1314ZM10.0579 13.136L10.0651 12.9064L10.0638 12.9064L10.0579 13.136ZM10.058 13.136L10.0508 13.3656L10.0512 13.3657L10.058 13.136ZM10.058 13.136L10.0513 13.3657L10.0521 13.3657L10.058 13.136ZM10.1891 13.1392L10.4188 13.1442L10.4237 12.9145L10.194 12.9095L10.1891 13.1392ZM10.1723 13.9137L9.94264 13.9087L9.93764 14.1399L10.1689 14.1434L10.1723 13.9137ZM10.6441 13.9208L10.6407 14.1505L10.8687 14.154L10.8738 13.9259L10.6441 13.9208ZM10.661 13.1546L10.6692 12.925L10.4365 12.9167L10.4314 13.1495L10.661 13.1546ZM11.0381 13.1638L11.2678 13.1689L11.2729 12.9374L11.0413 12.9341L11.0381 13.1638ZM11.0212 13.9265L10.7915 13.9214L10.7864 14.1527L11.0178 14.1562L11.0212 13.9265ZM11.4935 13.9335L11.4901 14.1632L11.7181 14.1665L11.7232 13.9385L11.4935 13.9335ZM11.5106 13.1605L11.501 12.9309L11.2857 12.9399L11.2809 13.1554L11.5106 13.1605ZM12.9508 12.2037L12.7226 12.1772L12.7226 12.1773L12.9508 12.2037ZM12.2946 11.2298L12.1946 11.0229L11.6265 11.2975L12.2381 11.4525L12.2946 11.2298ZM12.7167 10.4516L12.6652 10.2278L12.4724 10.2721L12.4876 10.4693L12.7167 10.4516ZM10.7761 12.5932L10.7827 12.3636L10.7807 12.3636L10.7761 12.5932ZM12.0196 12.0975L11.9681 11.8736L11.7938 11.9137L11.7899 12.0925L12.0196 12.0975ZM10.776 12.5932L10.7694 12.8229L10.7714 12.8229L10.776 12.5932ZM10.6842 12.591L10.4545 12.5859L10.4494 12.8174L10.6809 12.8207L10.6842 12.591ZM10.7068 11.565L10.7103 11.3353L10.4822 11.3318L10.4771 11.5599L10.7068 11.565ZM10.8224 11.5648L10.8243 11.7945L10.8243 11.7945L10.8224 11.5648ZM12.0197 12.0975L12.0712 12.3214L12.2456 12.2813L12.2494 12.1024L12.0197 12.0975ZM11.8315 10.6468L12.0611 10.6519L12.0611 10.6519L11.8315 10.6468ZM10.7947 11.0975L10.7876 11.3271L10.7876 11.3271L10.7947 11.0975ZM10.8343 10.1645L10.8317 9.93483L10.8343 10.1645ZM10.7373 10.1649L10.7407 9.93523L10.5127 9.93187L10.5077 10.1599L10.7373 10.1649ZM10.7169 11.0955L10.4872 11.0904L10.4821 11.3218L10.7135 11.3252L10.7169 11.0955ZM11.5645 9.87336C11.8572 9.90309 12.0872 9.9621 12.2435 10.0592C12.3859 10.1477 12.4727 10.2697 12.4877 10.4689L12.9459 10.4343C12.9192 10.0807 12.7457 9.8303 12.486 9.66897C12.2404 9.51634 11.9267 9.44832 11.6109 9.41625L11.5645 9.87336ZM11.3748 8.87412L11.358 9.63977L11.8174 9.64984L11.8342 8.88419L11.3748 8.87412ZM11.1287 9.10189L11.6011 9.10886L11.6079 8.64945L11.1354 8.64248L11.1287 9.10189ZM11.3454 9.62269L11.3617 8.87722L10.9024 8.86715L10.886 9.61263L11.3454 9.62269ZM10.7397 9.84665C10.8661 9.84605 10.9908 9.84554 11.1123 9.84736L11.1192 9.38796C10.9925 9.38605 10.8633 9.3866 10.7375 9.3872L10.7397 9.84665ZM10.5254 8.86145L10.5089 9.61186L10.9682 9.62198L10.9848 8.87158L10.5254 8.86145ZM10.2796 9.08916L10.7517 9.09622L10.7585 8.63681L10.2865 8.62976L10.2796 9.08916ZM10.4957 9.62998L10.5127 8.86455L10.0534 8.85437L10.0364 9.6198L10.4957 9.62998ZM9.96212 9.85411C10.0625 9.85554 10.1651 9.85515 10.2673 9.85462L10.2649 9.39517C10.1625 9.3957 10.0641 9.39606 9.96867 9.3947L9.96212 9.85411ZM9.73566 9.62296L9.73567 9.62533L10.1951 9.62348L10.1951 9.6211L9.73566 9.62296ZM9.31046 9.8418L9.96188 9.85173L9.96889 9.39233L9.31747 9.38239L9.31046 9.8418ZM9.53284 10.1148L9.54364 9.61708L9.08429 9.60711L9.07349 10.1049L9.53284 10.1148ZM9.81274 10.2729C9.83527 10.2492 9.87037 10.2015 9.87538 10.1308C9.88064 10.0566 9.84986 10.0002 9.82312 9.96794C9.78119 9.91731 9.7294 9.90021 9.72577 9.89885C9.70105 9.88966 9.67961 9.88681 9.67726 9.88645C9.66465 9.88457 9.65289 9.88379 9.64746 9.88345C9.63381 9.8826 9.61696 9.88206 9.60048 9.88167C9.56639 9.88087 9.52159 9.88045 9.47806 9.88022C9.43419 9.88 9.39026 9.87997 9.35739 9.88C9.34093 9.88002 9.32719 9.88005 9.31755 9.88007C9.31273 9.88009 9.30893 9.8801 9.30633 9.88011C9.30503 9.88011 9.30402 9.88011 9.30334 9.88012C9.303 9.88012 9.30274 9.88012 9.30256 9.88012C9.30247 9.88012 9.3024 9.88012 9.30235 9.88012C9.30233 9.88012 9.30231 9.88012 9.3023 9.88012C9.30229 9.88012 9.30229 9.88012 9.30228 9.88012C9.30228 9.88012 9.30227 9.88012 9.30317 10.1098C9.30406 10.3396 9.30406 10.3396 9.30406 10.3396C9.30406 10.3396 9.30407 10.3396 9.30407 10.3396C9.30408 10.3396 9.30409 10.3396 9.30411 10.3396C9.30415 10.3396 9.3042 10.3396 9.30428 10.3396C9.30444 10.3396 9.30468 10.3396 9.305 10.3396C9.30563 10.3396 9.30659 10.3396 9.30784 10.3396C9.31035 10.3396 9.31404 10.3395 9.31875 10.3395C9.32817 10.3395 9.34164 10.3395 9.3578 10.3395C9.39017 10.3394 9.4331 10.3395 9.47571 10.3397C9.51867 10.3399 9.55999 10.3403 9.58965 10.341C9.60505 10.3414 9.61449 10.3417 9.61878 10.342C9.62233 10.3422 9.61746 10.3421 9.6093 10.3409C9.60918 10.3408 9.58936 10.3383 9.56562 10.3295C9.55833 10.3268 9.54611 10.3218 9.53191 10.3137C9.51944 10.3066 9.49359 10.2904 9.46923 10.261C9.44257 10.2288 9.41182 10.1725 9.41708 10.0983C9.42208 10.0278 9.45714 9.98017 9.47957 9.95654L9.81274 10.2729ZM10.1399 10.285C10.127 10.2079 10.0931 10.1048 10.0058 10.0198C9.91478 9.93113 9.79154 9.8872 9.64965 9.88504L9.64266 10.3444C9.66865 10.3448 9.68164 10.3488 9.68594 10.3504C9.68957 10.3517 9.68813 10.3518 9.68522 10.3489C9.67978 10.3436 9.68382 10.3433 9.68679 10.361L10.1399 10.285ZM10.1239 11.2003L10.143 10.328L9.68368 10.318L9.66459 11.1902L10.1239 11.2003ZM9.97831 10.9721C9.94541 10.9671 9.91743 10.9659 9.89892 10.9656L9.8896 11.4249C9.89749 11.4251 9.90392 11.4255 9.90991 11.4264L9.97831 10.9721ZM9.89106 11.4282L9.94083 11.429L9.94739 10.9695L9.89763 10.9688L9.89106 11.4282ZM10.097 12.4256L10.124 11.2036L9.66467 11.1934L9.63761 12.4154L10.097 12.4256ZM9.68342 12.8019C9.81173 12.8036 9.9202 12.7562 9.99516 12.6717C10.0624 12.596 10.0854 12.51 10.094 12.4576L9.64057 12.3834C9.6403 12.3851 9.64012 12.3849 9.64091 12.383C9.64174 12.3809 9.64462 12.3745 9.65155 12.3667C9.65917 12.3581 9.66925 12.3506 9.68017 12.346C9.6907 12.3416 9.6954 12.3426 9.68948 12.3425L9.68342 12.8019ZM9.34312 12.567C9.33617 12.7966 9.33617 12.7966 9.33617 12.7966C9.33618 12.7966 9.33618 12.7966 9.33619 12.7966C9.3362 12.7966 9.33622 12.7966 9.33624 12.7966C9.33629 12.7966 9.33636 12.7966 9.33645 12.7966C9.33662 12.7966 9.33688 12.7966 9.33722 12.7966C9.3379 12.7967 9.3389 12.7967 9.3402 12.7967C9.3428 12.7968 9.34659 12.7969 9.35141 12.7971C9.36103 12.7973 9.37476 12.7977 9.39121 12.7982C9.42408 12.7991 9.46796 12.8003 9.51177 12.8013C9.5553 12.8023 9.59985 12.8031 9.6336 12.8034C9.65001 12.8035 9.66625 12.8035 9.67915 12.8032C9.6844 12.803 9.69485 12.8027 9.70586 12.8017C9.70775 12.8015 9.72649 12.7999 9.74843 12.7937C9.75509 12.7919 9.76666 12.7883 9.78038 12.7821C9.79149 12.7771 9.81924 12.7639 9.84694 12.7368C9.87686 12.7076 9.92295 12.6445 9.91549 12.5535C9.90869 12.4707 9.86128 12.4206 9.84074 12.402L9.53216 12.7424C9.51172 12.7239 9.46436 12.6739 9.45757 12.5911C9.4501 12.5002 9.49616 12.4372 9.526 12.408C9.55363 12.3811 9.58125 12.3679 9.59221 12.363C9.60576 12.3569 9.61713 12.3534 9.62354 12.3516C9.63635 12.348 9.64653 12.3463 9.65041 12.3457C9.65534 12.345 9.6592 12.3446 9.66128 12.3444C9.66783 12.3437 9.67138 12.3438 9.66765 12.3439C9.66258 12.344 9.65252 12.344 9.63701 12.3439C9.60695 12.3437 9.5653 12.3429 9.52225 12.3419C9.47949 12.341 9.43643 12.3398 9.40399 12.3389C9.38779 12.3385 9.37428 12.3381 9.36483 12.3378C9.36011 12.3377 9.35641 12.3376 9.35389 12.3375C9.35263 12.3374 9.35167 12.3374 9.35103 12.3374C9.35071 12.3374 9.35047 12.3374 9.35031 12.3374C9.35023 12.3374 9.35017 12.3374 9.35013 12.3374C9.35011 12.3374 9.3501 12.3374 9.35009 12.3374C9.35009 12.3374 9.35009 12.3374 9.35008 12.3374C9.35008 12.3374 9.35008 12.3374 9.34312 12.567ZM9.46275 13.1654L9.56878 12.6101L9.11747 12.5239L9.01145 13.0792L9.46275 13.1654ZM9.85527 12.9017L9.2405 12.8926L9.23369 13.352L9.84846 13.3611L9.85527 12.9017ZM10.0638 12.9064C9.99603 12.9046 9.92623 12.9028 9.85556 12.9017L9.84817 13.3611C9.91629 13.3622 9.98391 13.3639 10.052 13.3657L10.0638 12.9064ZM10.0651 12.9064L10.0651 12.9064L10.0508 13.3656L10.0508 13.3656L10.0651 12.9064ZM10.0647 12.9064L10.0647 12.9064L10.0512 13.3657L10.0513 13.3657L10.0647 12.9064ZM10.194 12.9095C10.1512 12.9086 10.108 12.9075 10.0639 12.9064L10.0521 13.3657C10.0961 13.3668 10.1402 13.3679 10.1841 13.3689L10.194 12.9095ZM10.402 13.9187L10.4188 13.1442L9.95941 13.1342L9.94264 13.9087L10.402 13.9187ZM10.6476 13.6911L10.1758 13.684L10.1689 14.1434L10.6407 14.1505L10.6476 13.6911ZM10.4314 13.1495L10.4144 13.9158L10.8738 13.9259L10.8907 13.1597L10.4314 13.1495ZM11.0413 12.9341C10.9204 12.9324 10.7967 12.9296 10.6692 12.925L10.6529 13.3842C10.7841 13.3889 10.9111 13.3918 11.0349 13.3935L11.0413 12.9341ZM11.2509 13.9316L11.2678 13.1689L10.8085 13.1587L10.7915 13.9214L11.2509 13.9316ZM11.4969 13.7038L11.0246 13.6968L11.0178 14.1562L11.4901 14.1632L11.4969 13.7038ZM11.2809 13.1554L11.2638 13.9284L11.7232 13.9385L11.7403 13.1656L11.2809 13.1554ZM12.7226 12.1773C12.6877 12.4786 12.564 12.642 12.3828 12.7458C12.1828 12.8603 11.8908 12.9147 11.501 12.9309L11.5202 13.39C11.9255 13.3731 12.311 13.3164 12.6112 13.1445C12.93 12.9618 13.1289 12.6633 13.179 12.2301L12.7226 12.1773ZM12.2381 11.4525C12.4345 11.5022 12.5596 11.5778 12.6329 11.6754C12.7038 11.7699 12.7524 11.9202 12.7226 12.1772L13.179 12.2302C13.2178 11.8955 13.1626 11.6157 13.0003 11.3996C12.8404 11.1866 12.603 11.071 12.351 11.0071L12.2381 11.4525ZM12.4876 10.4693C12.5003 10.634 12.4698 10.7463 12.4231 10.8258C12.3761 10.9058 12.3015 10.9713 12.1946 11.0229L12.3945 11.4366C12.5644 11.3545 12.7165 11.2332 12.8191 11.0587C12.9221 10.8837 12.9642 10.6738 12.9457 10.434L12.4876 10.4693ZM12.6654 10.2277L12.6652 10.2278L12.7682 10.6755L12.7683 10.6755L12.6654 10.2277ZM10.7694 12.8229C10.9575 12.8283 11.2949 12.8392 11.589 12.7728C11.7366 12.7395 11.8952 12.6823 12.0216 12.5773C12.1564 12.4653 12.2448 12.306 12.2493 12.1025L11.7899 12.0925C11.7886 12.1546 11.767 12.1915 11.7279 12.2239C11.6805 12.2634 11.6014 12.299 11.4879 12.3246C11.2598 12.3761 10.9811 12.3693 10.7827 12.3636L10.7694 12.8229ZM10.7714 12.8229L10.7714 12.8229L10.7807 12.3636L10.7807 12.3636L10.7714 12.8229ZM10.6809 12.8207C10.7052 12.821 10.7343 12.8219 10.7694 12.8229L10.7826 12.3636C10.7486 12.3626 10.7158 12.3617 10.6875 12.3613L10.6809 12.8207ZM10.4771 11.5599L10.4545 12.5859L10.9139 12.596L10.9365 11.57L10.4771 11.5599ZM10.8205 11.335C10.7753 11.3354 10.7392 11.3357 10.7103 11.3353L10.7033 11.7947C10.7388 11.7952 10.7809 11.7949 10.8243 11.7945L10.8205 11.335ZM12.2494 12.1024C12.2537 11.9009 12.1783 11.737 12.0504 11.6171C11.9304 11.5047 11.7762 11.4418 11.6322 11.4041C11.3463 11.3293 11.0127 11.3334 10.8205 11.335L10.8243 11.7945C11.0286 11.7928 11.2994 11.7919 11.5159 11.8486C11.6232 11.8766 11.6947 11.9135 11.7362 11.9524C11.7697 11.9838 11.7915 12.0226 11.79 12.0926L12.2494 12.1024ZM12.071 12.3214L12.0712 12.3214L11.9682 11.8736L11.9681 11.8736L12.071 12.3214ZM11.6018 10.6417C11.6005 10.6989 11.5822 10.7284 11.5561 10.752C11.5228 10.7821 11.4647 10.8118 11.3751 10.8338C11.1933 10.8786 10.9688 10.8731 10.8019 10.8679L10.7876 11.3271C10.9433 11.332 11.2318 11.3424 11.485 11.28C11.613 11.2484 11.7528 11.1937 11.8645 11.0925C11.9835 10.9848 12.057 10.8361 12.0611 10.6519L11.6018 10.6417ZM10.8369 10.3943C11.0088 10.3923 11.2266 10.3915 11.3984 10.4402C11.4823 10.464 11.534 10.4942 11.5625 10.5233C11.5845 10.5458 11.6032 10.5774 11.6018 10.6418L12.0611 10.6519C12.0652 10.4695 12.0033 10.3168 11.891 10.2021C11.7852 10.0939 11.649 10.0337 11.5237 9.99814C11.2768 9.92816 10.9906 9.93303 10.8317 9.93483L10.8369 10.3943ZM10.734 10.3946C10.7646 10.3951 10.8007 10.3947 10.8369 10.3943L10.8317 9.93483C10.7935 9.93526 10.764 9.93557 10.7407 9.93523L10.734 10.3946ZM10.9466 11.1005L10.967 10.17L10.5077 10.1599L10.4872 11.0904L10.9466 11.1005ZM10.8019 10.8679C10.7731 10.867 10.7448 10.8661 10.7203 10.8658L10.7135 11.3252C10.7335 11.3255 10.7576 11.3262 10.7876 11.3271L10.8019 10.8679Z" fill="#FFDB93" mask="url(#path-14-outside-1_18062_98473)"/>
<defs>
<clipPath id="clip0_18062_98473">
<rect width="3.2" height="3.2" fill="white" transform="translate(9.3999 3.23096)"/>
</clipPath>
</defs>
</svg>
