<svg width="13" height="12" viewBox="0 0 13 12" fill="none" xmlns="http://www.w3.org/2000/svg">
<path fill-rule="evenodd" clip-rule="evenodd" d="M2.1875 3.125C1.87684 3.125 1.625 3.37684 1.625 3.6875V10.0625C1.625 10.3732 1.87684 10.625 2.1875 10.625H8.5625C8.87316 10.625 9.125 10.3732 9.125 10.0625V7.0625C9.125 6.75184 9.37684 6.5 9.6875 6.5C9.99816 6.5 10.25 6.75184 10.25 7.0625V10.0625C10.25 10.9945 9.49448 11.75 8.5625 11.75H2.1875C1.25552 11.75 0.5 10.9945 0.5 10.0625V3.6875C0.5 2.75552 1.25552 2 2.1875 2H5.9375C6.24816 2 6.5 2.25184 6.5 2.5625C6.5 2.87316 6.24816 3.125 5.9375 3.125H2.1875Z" fill="currentColor"/>
<path fill-rule="evenodd" clip-rule="evenodd" d="M3.64539 8.56489C3.85381 8.79525 4.20952 8.81304 4.43989 8.60461L11.375 2.32999V4.4375C11.375 4.74816 11.6268 5 11.9375 5C12.2482 5 12.5 4.74816 12.5 4.4375V1.0625C12.5 0.75184 12.2482 0.5 11.9375 0.5H8.5625C8.25184 0.5 8 0.75184 8 1.0625C8 1.37316 8.25184 1.625 8.5625 1.625H10.4774L3.68511 7.77039C3.45475 7.97881 3.43696 8.33452 3.64539 8.56489Z" fill="currentColor"/>
</svg>
