<svg width="20" height="20" viewBox="0 0 20 20" fill="none" xmlns="http://www.w3.org/2000/svg">
<path d="M13.75 12.4337V17.5877C13.75 17.6541 13.7324 17.7192 13.699 17.7766C13.6656 17.8339 13.6176 17.8813 13.5599 17.9141C13.5022 17.9468 13.4368 17.9636 13.3705 17.9628C13.3041 17.962 13.2392 17.9436 13.1823 17.9095L10 16L6.81775 17.9095C6.76078 17.9436 6.69577 17.962 6.62936 17.9628C6.56295 17.9636 6.49753 17.9467 6.43978 17.9139C6.38204 17.8811 6.33404 17.8335 6.30069 17.7761C6.26735 17.7187 6.24985 17.6534 6.25 17.587V12.4345C5.27961 11.6575 4.57449 10.5984 4.23209 9.40338C3.88969 8.20838 3.92692 6.93652 4.33862 5.76359C4.75032 4.59065 5.51617 3.57454 6.53034 2.85569C7.5445 2.13684 8.75691 1.75073 10 1.75073C11.2431 1.75073 12.4555 2.13684 13.4697 2.85569C14.4838 3.57454 15.2497 4.59065 15.6614 5.76359C16.0731 6.93652 16.1103 8.20838 15.7679 9.40338C15.4255 10.5984 14.7204 11.6575 13.75 12.4345V12.4337ZM10 12.25C11.1935 12.25 12.3381 11.7759 13.182 10.932C14.0259 10.088 14.5 8.94346 14.5 7.74998C14.5 6.55651 14.0259 5.41191 13.182 4.568C12.3381 3.72409 11.1935 3.24998 10 3.24998C8.80653 3.24998 7.66193 3.72409 6.81802 4.568C5.97411 5.41191 5.5 6.55651 5.5 7.74998C5.5 8.94346 5.97411 10.088 6.81802 10.932C7.66193 11.7759 8.80653 12.25 10 12.25ZM10 10.75C9.20435 10.75 8.44129 10.4339 7.87868 9.8713C7.31607 9.30869 7 8.54563 7 7.74998C7 6.95433 7.31607 6.19127 7.87868 5.62866C8.44129 5.06605 9.20435 4.74998 10 4.74998C10.7956 4.74998 11.5587 5.06605 12.1213 5.62866C12.6839 6.19127 13 6.95433 13 7.74998C13 8.54563 12.6839 9.30869 12.1213 9.8713C11.5587 10.4339 10.7956 10.75 10 10.75Z" fill="white"/>
</svg>
