<svg width="109" height="5" viewBox="0 0 109 5" fill="none" xmlns="http://www.w3.org/2000/svg">
<path d="M3.68421 0H7L3.31579 5H0L3.68421 0Z" fill="#BD47FB"/>
<path d="M10.6842 0H14L10.3158 5H7L10.6842 0Z" fill="#BD47FB"/>
<path d="M17.6842 0H21L17.3158 5H14L17.6842 0Z" fill="#BD47FB"/>
<path d="M24.6842 0H28L24.3158 5H21L24.6842 0Z" fill="#BD47FB"/>
<path d="M31.6842 0H35L31.3158 5H28L31.6842 0Z" fill="#BD47FB"/>
<path d="M38.6842 0H42L38.3158 5H35L38.6842 0Z" fill="#BD47FB"/>
<path d="M45.6842 0H49L45.3158 5H42L45.6842 0Z" fill="#BD47FB"/>
<path d="M52.6842 0H56L52.3158 5H49L52.6842 0Z" fill="#BD47FB"/>
<path d="M59.6842 0H63L59.3158 5H56L59.6842 0Z" fill="#BD47FB"/>
<path d="M66.6842 0H70L66.3158 5H63L66.6842 0Z" fill="#BD47FB"/>
<path d="M73.6842 0H77L73.3158 5H70L73.6842 0Z" fill="#BD47FB"/>
<path d="M80.6842 0H84L80.3158 5H77L80.6842 0Z" fill="#BD47FB"/>
<path d="M87.6842 0H91L87.3158 5H84L87.6842 0Z" fill="#BD47FB"/>
<path d="M94.6842 0H98L94.3158 5H91L94.6842 0Z" fill="#BD47FB"/>
<path d="M101.684 0H105L101.316 5H98L101.684 0Z" fill="#BD47FB"/>
<path d="M108.684 0H112L108.316 5H105L108.684 0Z" fill="#BD47FB"/>
</svg>
