<svg width="100" height="99" viewBox="0 0 100 99" fill="none" xmlns="http://www.w3.org/2000/svg">
<rect x="0.5" width="99" height="99" rx="49.5" fill="white" fill-opacity="0.03"/>
<path d="M65.2587 36.95L42.6454 59.5633L33.2054 50.1233C32.7068 49.6247 32.0305 49.3446 31.3254 49.3446C30.6203 49.3446 29.944 49.6247 29.4454 50.1233C28.9468 50.6219 28.6667 51.2982 28.6667 52.0033C28.6667 52.3525 28.7355 52.6982 28.8691 53.0208C29.0027 53.3433 29.1985 53.6364 29.4454 53.8833L40.7521 65.19C41.7921 66.23 43.4721 66.23 44.5121 65.19L68.9921 40.71C69.2406 40.4605 69.4372 40.1642 69.5705 39.8383C69.7038 39.5124 69.7712 39.1632 69.7687 38.8111C69.7662 38.459 69.6939 38.1108 69.5561 37.7868C69.4182 37.4628 69.2174 37.1693 68.9654 36.9233C67.9787 35.91 66.2987 35.91 65.2587 36.95Z" fill="#5CD167"/>
<rect x="1" y="0.5" width="98" height="98" rx="49" stroke="white" stroke-opacity="0.19"/>
</svg>
