<svg width="20" height="20" viewBox="0 0 20 20" fill="none" xmlns="http://www.w3.org/2000/svg">
<g clip-path="url(#clip0_7082_110606)">
<path d="M14.8516 5.91184C13.9593 5.48979 13.0024 5.17884 12.0019 5.00075C11.9837 4.99731 11.9655 5.0059 11.9561 5.02308C11.8331 5.2487 11.6968 5.54304 11.6013 5.77439C10.5252 5.60833 9.45469 5.60833 8.40069 5.77439C8.30521 5.5379 8.16395 5.2487 8.04034 5.02308C8.03095 5.00647 8.01275 4.99788 7.99453 5.00075C6.99461 5.17827 6.03774 5.48922 5.14488 5.91184C5.13715 5.91528 5.13052 5.92101 5.12613 5.92845C3.31115 8.72357 2.81395 11.45 3.05786 14.1426C3.05896 14.1558 3.06613 14.1684 3.07607 14.1764C4.27354 15.0829 5.4335 15.6332 6.57191 15.998C6.59013 16.0037 6.60944 15.9969 6.62103 15.9814C6.89032 15.6023 7.13037 15.2026 7.33619 14.7822C7.34834 14.7576 7.33675 14.7284 7.31192 14.7187C6.93116 14.5698 6.5686 14.3883 6.21984 14.1821C6.19226 14.1655 6.19005 14.1248 6.21543 14.1054C6.28882 14.0487 6.36223 13.9897 6.43231 13.9301C6.44499 13.9193 6.46265 13.917 6.47756 13.9238C8.76875 15.0022 11.2492 15.0022 13.5134 13.9238C13.5283 13.9164 13.546 13.9187 13.5592 13.9296C13.6293 13.9891 13.7027 14.0487 13.7766 14.1054C13.802 14.1248 13.8003 14.1655 13.7728 14.1821C13.424 14.3923 13.0614 14.5698 12.6801 14.7181C12.6553 14.7279 12.6443 14.7576 12.6564 14.7822C12.8666 15.202 13.1067 15.6017 13.371 15.9808C13.3821 15.9969 13.4019 16.0037 13.4201 15.998C14.5641 15.6332 15.724 15.0829 16.9215 14.1764C16.932 14.1684 16.9386 14.1563 16.9397 14.1432C17.2316 11.0302 16.4508 8.32615 14.8698 5.92902C14.8659 5.92101 14.8593 5.91528 14.8516 5.91184ZM7.67835 12.5031C6.98854 12.5031 6.42016 11.8503 6.42016 11.0485C6.42016 10.2468 6.97752 9.59401 7.67835 9.59401C8.38468 9.59401 8.94756 10.2526 8.93651 11.0485C8.93651 11.8503 8.37916 12.5031 7.67835 12.5031ZM12.3303 12.5031C11.6405 12.5031 11.0721 11.8503 11.0721 11.0485C11.0721 10.2468 11.6294 9.59401 12.3303 9.59401C13.0366 9.59401 13.5995 10.2526 13.5885 11.0485C13.5885 11.8503 13.0366 12.5031 12.3303 12.5031Z" fill="white"/>
</g>
<defs>
<clipPath id="clip0_7082_110606">
<rect width="20" height="20" fill="white"/>
</clipPath>
</defs>
</svg>
