<svg width="16" height="16" viewBox="0 0 16 16" fill="none" xmlns="http://www.w3.org/2000/svg">
<g id="Icon/Solid/document-text">
<path id="Icon" fill-rule="evenodd" clip-rule="evenodd" d="M3.2002 3.2001C3.2002 2.31644 3.91654 1.6001 4.8002 1.6001H8.46882C8.89317 1.6001 9.30014 1.76867 9.60019 2.06873L12.3316 4.8001C12.6316 5.10016 12.8002 5.50712 12.8002 5.93147V12.8001C12.8002 13.6838 12.0838 14.4001 11.2002 14.4001H4.80019C3.91654 14.4001 3.2002 13.6838 3.2002 12.8001V3.2001ZM4.8002 8.0001C4.8002 7.55827 5.15837 7.2001 5.6002 7.2001H10.4002C10.842 7.2001 11.2002 7.55827 11.2002 8.0001C11.2002 8.44193 10.842 8.8001 10.4002 8.8001H5.6002C5.15837 8.8001 4.8002 8.44193 4.8002 8.0001ZM5.6002 10.4001C5.15837 10.4001 4.8002 10.7583 4.8002 11.2001C4.8002 11.6419 5.15837 12.0001 5.6002 12.0001H10.4002C10.842 12.0001 11.2002 11.6419 11.2002 11.2001C11.2002 10.7583 10.842 10.4001 10.4002 10.4001H5.6002Z" fill="#CBD5E1"/>
</g>
</svg>
