<svg width="12" height="14" viewBox="0 0 12 14" fill="none" xmlns="http://www.w3.org/2000/svg">
<path fill-rule="evenodd" clip-rule="evenodd" d="M0.399902 12.6001C0.399902 12.1583 0.758074 11.8001 1.1999 11.8001H10.7999C11.2417 11.8001 11.5999 12.1583 11.5999 12.6001C11.5999 13.0419 11.2417 13.4001 10.7999 13.4001H1.1999C0.758074 13.4001 0.399902 13.0419 0.399902 12.6001ZM3.03422 6.43441C3.34664 6.12199 3.85317 6.12199 4.16559 6.43441L5.1999 7.46873L5.1999 1.4001C5.1999 0.95827 5.55807 0.600098 5.9999 0.600098C6.44173 0.600098 6.7999 0.958269 6.7999 1.4001V7.46873L7.83422 6.43441C8.14664 6.12199 8.65317 6.12199 8.96559 6.43441C9.27801 6.74683 9.27801 7.25336 8.96559 7.56578L6.56559 9.96578C6.41556 10.1158 6.21207 10.2001 5.9999 10.2001C5.78773 10.2001 5.58425 10.1158 5.43422 9.96578L3.03422 7.56578C2.7218 7.25336 2.7218 6.74683 3.03422 6.43441Z" fill="#B9BDEA"/>
</svg>
