<svg width="12" height="11" viewBox="0 0 12 11" fill="none" xmlns="http://www.w3.org/2000/svg">
<g clip-path="url(#clip0_10821_188119)">
<path d="M6.00757 0C2.97029 0 0.507568 2.46272 0.507568 5.5C0.507568 8.53728 2.97029 11 6.00757 11C9.04484 11 11.5076 8.53728 11.5076 5.5C11.5076 2.46272 9.04484 0 6.00757 0ZM6.40042 8.15179C6.40042 8.2058 6.35623 8.25 6.30221 8.25H5.71292C5.65891 8.25 5.61471 8.2058 5.61471 8.15179V4.8125C5.61471 4.75848 5.65891 4.71429 5.71292 4.71429H6.30221C6.35623 4.71429 6.40042 4.75848 6.40042 4.8125V8.15179ZM6.00757 3.92857C5.85336 3.92542 5.70653 3.86195 5.59859 3.75179C5.49065 3.64162 5.43019 3.49352 5.43019 3.33929C5.43019 3.18505 5.49065 3.03696 5.59859 2.92679C5.70653 2.81662 5.85336 2.75315 6.00757 2.75C6.16177 2.75315 6.3086 2.81662 6.41655 2.92679C6.52449 3.03696 6.58495 3.18505 6.58495 3.33929C6.58495 3.49352 6.52449 3.64162 6.41655 3.75179C6.3086 3.86195 6.16177 3.92542 6.00757 3.92857Z" fill="#FF658A"/>
</g>
<defs>
<clipPath id="clip0_10821_188119">
<rect width="11.6111" height="11" fill="white" transform="translate(0.388916)"/>
</clipPath>
</defs>
</svg>
