<svg width="22" height="20" viewBox="0 0 22 20" fill="none" xmlns="http://www.w3.org/2000/svg">
<path d="M21.1698 15.7601L13.1149 1.80262C12.6715 1.05637 11.868 0.598877 10.9999 0.598877C10.1318 0.598877 9.32837 1.05637 8.88492 1.80262L0.830037 15.7601C0.402549 16.5166 0.406293 17.4429 0.841287 18.1949C1.27629 18.9467 2.07597 19.4136 2.94503 19.4202H19.055C19.9241 19.4136 20.7238 18.9467 21.1588 18.1949C21.5938 17.443 21.5973 16.5167 21.1698 15.7601ZM9.85236 15.2951C9.85236 14.6613 10.3661 14.1476 10.9998 14.1476C11.6336 14.1476 12.1473 14.6613 12.1473 15.2951C12.1473 15.9288 11.6336 16.4425 10.9998 16.4425C10.3661 16.4425 9.85236 15.9288 9.85236 15.2951ZM11.7498 6.1825V12.5199C11.7498 12.9343 11.4142 13.2699 10.9998 13.2699C10.5855 13.2699 10.2498 12.9343 10.2498 12.5199V6.1825C10.2498 5.76812 10.5855 5.4325 10.9998 5.4325C11.4142 5.4325 11.7498 5.76812 11.7498 6.1825Z" fill="#FF658A"/>
</svg>
