<svg xmlns="http://www.w3.org/2000/svg" enable-background="new 0 0 32 32" viewBox="0 0 32 32" id="shrink">
  <path d="M5.62109 3.5h2.62012c1.96882-.03153 1.97356-2.96728-.00007-3C8.24121.5 2 .5 2 .5 1.61047.52974 1.22084.65407.94928.94887.65465 1.22089.52944 1.60995.50002 2.00001.5 2 .5 8.24121.5 8.24121c.03342 1.96963 2.96622 1.97341 3-.00006 0 .00006 0-2.62005 0-2.62005l7.89502 7.89502c.58594.58594 1.53516.58594 2.12109 0 .58594-.58545.58594-1.53564 0-2.12109L5.62109 3.5zM31.48962 1.93066c-.02808-.7871-.71324-1.41395-1.48965-1.43063C30 .5 23.75879.5 23.75879.5c-1.96961.03343-1.97344 2.9662.00006 3-.00006 0 2.62005 0 2.62005 0l-7.89502 7.89502c-.58594.58545-.58594 1.53564 0 2.12109.58594.58594 1.53516.58594 2.12109 0L28.5 5.62109v2.62012c.03156 1.96886 2.96727 1.97353 3-.00007C31.5 8.24121 31.5 2 31.5 2 31.5 1.97607 31.49072 1.95441 31.48962 1.93066zM30 22.25879c-.82861 0-1.5.67139-1.5 1.5v2.62012l-7.89502-7.89502c-1.41018-1.3669-3.49591.69903-2.12104 2.12114C18.48389 20.60498 26.37891 28.5 26.37891 28.5h-2.62012c-1.96867.03168-1.97374 2.96713.00007 3C23.75879 31.5 30 31.5 30 31.5c.23622-.01004.49598-.05509.69593-.18736.49722-.24485.77775-.77365.80405-1.31264C31.5 30 31.5 23.75879 31.5 23.75879 31.5 22.93018 30.82861 22.25879 30 22.25879zM11.39502 18.48389L3.5 26.37891v-2.62012c-.03164-1.96863-2.96714-1.97377-3 .00007C.5 23.75879.5 30 .5 30c.03501.23475.04992.49594.18731.6958C.93094 31.17981 1.46226 31.495 2 31.5c0 0 6.24121 0 6.24121 0 1.96928-.03314 1.97365-2.9663-.00007-3 .00007 0-2.62005 0-2.62005 0l7.89502-7.89502C14.88308 19.19497 12.8172 17.10911 11.39502 18.48389z" fill="#b9bdea" class="color000000 svgShape"></path>
</svg>