<svg width="12" height="12" viewBox="0 0 12 12" fill="none" xmlns="http://www.w3.org/2000/svg">
<g id="Icon/Solid/external-link">
<g id="Icon">
<path d="M6.60005 1.7998C6.26868 1.7998 6.00005 2.06843 6.00005 2.3998C6.00005 2.73118 6.26868 2.9998 6.60005 2.9998H8.15152L4.37578 6.77554C4.14147 7.00986 4.14147 7.38975 4.37578 7.62407C4.6101 7.85838 4.99 7.85838 5.22431 7.62407L9.00005 3.84833V5.3998C9.00005 5.73118 9.26868 5.9998 9.60005 5.9998C9.93142 5.9998 10.2 5.73118 10.2 5.3998V2.3998C10.2 2.06843 9.93142 1.7998 9.60005 1.7998H6.60005Z" fill="#AAE8B0"/>
<path d="M3.00005 2.9998C2.33731 2.9998 1.80005 3.53706 1.80005 4.1998V8.9998C1.80005 9.66255 2.33731 10.1998 3.00005 10.1998H7.80005C8.46279 10.1998 9.00005 9.66255 9.00005 8.9998V7.1998C9.00005 6.86843 8.73142 6.5998 8.40005 6.5998C8.06868 6.5998 7.80005 6.86843 7.80005 7.1998V8.9998H3.00005V4.1998L4.80005 4.1998C5.13142 4.1998 5.40005 3.93118 5.40005 3.5998C5.40005 3.26843 5.13142 2.9998 4.80005 2.9998H3.00005Z" fill="#AAE8B0"/>
</g>
</g>
</svg>
