<svg width="100" height="99" viewBox="0 0 100 99" fill="none" xmlns="http://www.w3.org/2000/svg">
<rect x="0.5" width="99" height="99" rx="49.5" fill="white" fill-opacity="0.03"/>
<path d="M68.2128 31.4481C67.1713 30.4066 65.4842 30.4066 64.4427 31.4481L48.9978 46.893L33.5529 31.4481C32.5114 30.4084 30.826 30.4101 29.7846 31.4498C28.7449 32.4913 28.7431 34.1767 29.7828 35.2182L45.2277 50.6631L29.7828 66.108C28.7431 67.1495 28.7449 68.8349 29.7846 69.8763C30.826 70.916 32.5114 70.9178 33.5529 69.8781L48.9978 54.4332L64.4427 69.8781C65.4842 70.9178 67.1696 70.916 68.2111 69.8763C69.2508 68.8349 69.2525 67.1495 68.2128 66.108L52.7679 50.6631L68.2128 35.2182C68.7127 34.7183 68.9939 34.0396 68.9939 33.3331C68.9939 32.6267 68.7127 31.948 68.2128 31.4481Z" fill="#FA2256"/>
<rect x="1" y="0.5" width="98" height="98" rx="49" stroke="white" stroke-opacity="0.19"/>
</svg>
