<svg width="75" height="43" viewBox="0 0 75 43" fill="none" xmlns="http://www.w3.org/2000/svg">
<g clip-path="url(#clip0_11860_67789)">
<path d="M21.819 42C33.417 42 42.819 32.598 42.819 21C42.819 9.40202 33.417 0 21.819 0C10.221 0 0.81897 9.40202 0.81897 21C0.81897 32.598 10.221 42 21.819 42Z" fill="#0090FF"/>
<path d="M21.8938 17.2341C22.3821 15.1826 22.9701 13.3386 23.5948 12.135C23.8245 11.5601 24.7564 10.1833 25.7788 9.27376C27.4812 7.75783 29.3908 7.37326 31.3793 8.62145L31.2047 8.89839L31.3793 8.62145C32.3938 9.25801 32.8007 9.91295 32.6222 10.5298C32.491 10.9892 31.9883 11.3567 31.7192 11.3186C31.3255 11.358 30.9291 11.2793 30.5511 11.001C30.2329 10.7559 29.9874 10.4288 29.841 10.0547C29.5628 9.39845 29.1979 9.17533 28.7503 9.22783C28.4262 9.26458 28.0495 9.47195 27.93 9.61108L27.6216 9.95233C27.3818 10.2076 27.169 10.4869 26.9863 10.7858C26.3616 11.8266 25.7854 13.7336 24.9861 17.6856L30.2833 18.4613L29.992 20.5836L24.616 19.7961L24.3863 21.1926L24.3272 21.5417C24.2957 21.7228 24.2616 21.9197 24.2222 22.1297L29.6507 22.9251L29.3397 25.0448L23.7838 24.231C23.142 26.9584 22.2968 29.8813 21.6996 31.035C21.4686 31.6112 20.538 32.9854 19.5156 33.8963C17.8133 35.4109 15.9036 35.7968 13.9152 34.5486C12.9006 33.912 12.4937 33.2558 12.6722 32.6389C12.8035 32.1795 13.3062 31.8133 13.5752 31.8514C13.969 31.812 14.3653 31.8908 14.7433 32.1677C15.0347 32.3829 15.2762 32.6953 15.4534 33.1153C15.7317 33.7703 16.0965 33.9947 16.5441 33.9422C16.8683 33.9041 17.245 33.6968 17.3644 33.5576C18.5548 32.232 19.4985 29.6779 20.6916 23.7795L15.3943 23.0025L15.6857 20.8802L21.0617 21.6677L21.2927 20.2725C21.3438 19.9591 21.3985 19.6462 21.4568 19.3341L16.0493 18.5426L16.359 16.423L21.8938 17.2341Z" fill="white"/>
</g>
<path opacity="0.997" fill-rule="evenodd" clip-rule="evenodd" d="M52.0677 1C52.8645 1 53.6613 1 54.458 1C60.4627 1.42734 65.4879 3.85173 69.5336 8.27317C72.6457 11.8643 74.3701 16.0416 74.7068 20.8049C74.7068 21.5902 74.7068 22.3756 74.7068 23.161C74.2065 29.3698 71.5544 34.4291 66.7507 38.339C62.9587 41.2746 58.6562 42.8282 53.8434 43C53.4564 43 53.0694 43 52.6824 43C46.2643 42.7186 40.9431 40.1805 36.719 35.3854C33.7735 31.8485 32.1401 27.7737 31.819 23.161C31.819 22.387 31.819 21.613 31.819 20.839C32.235 15.2212 34.4887 10.4919 38.5799 6.65122C42.4127 3.22319 46.9086 1.33945 52.0677 1Z" fill="#0390FF"/>
<path fill-rule="evenodd" clip-rule="evenodd" d="M52.17 2.19523C57.8153 1.98838 62.7552 3.72415 66.9895 7.40254C72.0261 12.1192 74.1373 17.9184 73.3236 24.8001C72.4303 30.207 69.8069 34.5493 65.4529 37.8269C60.6049 41.2515 55.2439 42.4578 49.37 41.4464C43.6033 40.2472 39.1244 37.1911 35.9334 32.2781C33.2338 27.7804 32.4029 22.9544 33.4407 17.8001C34.555 13.1272 36.9965 9.3199 40.7651 6.37815C44.1375 3.83296 47.9391 2.43865 52.17 2.19523Z" fill="#FEFEFF"/>
<path fill-rule="evenodd" clip-rule="evenodd" d="M52.4777 3.56111C55.5767 3.46493 58.5246 4.07387 61.3216 5.38794C61.207 5.65209 61.0989 5.9196 60.9973 6.19038C60.9808 6.25792 60.941 6.30344 60.8777 6.32696C55.735 4.08607 50.6017 4.09745 45.4777 6.36111C45.3444 6.03508 45.2079 5.71069 45.068 5.38794C47.4159 4.26883 49.8858 3.65988 52.4777 3.56111Z" fill="#0991FF"/>
<path fill-rule="evenodd" clip-rule="evenodd" d="M42.6762 6.6333C42.8971 6.91812 43.102 7.21973 43.2908 7.53818C41.3683 8.92554 39.7635 10.6101 38.4762 12.5918C38.442 12.6146 38.4079 12.6146 38.3737 12.5918C38.1179 12.4013 37.8561 12.2192 37.5884 12.0455C38.1395 11.1186 38.7826 10.2592 39.5176 9.46745C40.4957 8.42612 41.5485 7.48139 42.6762 6.6333Z" fill="#0A91FF"/>
<path fill-rule="evenodd" clip-rule="evenodd" d="M63.3707 6.66846C63.4566 6.67716 63.5363 6.70564 63.6097 6.75382C65.6502 8.08853 67.3801 9.7503 68.8 11.7392C68.5394 11.9379 68.2662 12.12 67.9804 12.2855C67.9463 12.3083 67.9121 12.3083 67.878 12.2855C66.4947 10.3613 64.8101 8.76211 62.8243 7.48797C63.0068 7.21381 63.1889 6.94064 63.3707 6.66846Z" fill="#0A91FF"/>
<path fill-rule="evenodd" clip-rule="evenodd" d="M58.8967 9.87786C59.5617 9.82206 60.2105 9.89602 60.8431 10.0998C61.3519 10.313 61.756 10.6488 62.0553 11.1071C62.1173 11.5026 62.0604 11.8782 61.8845 12.234C61.4904 12.5571 61.0977 12.5514 60.7065 12.2169C60.4049 11.8697 60.1032 11.5226 59.8016 11.1754C59.3066 10.6727 58.7546 10.5988 58.1455 10.9535C57.1993 11.8154 56.6017 12.8796 56.3528 14.1461C55.929 15.6736 55.5022 17.1988 55.0723 18.7218C56.7108 18.9539 58.3498 19.1815 59.9894 19.4047C59.8922 19.8392 59.784 20.2717 59.665 20.7022C59.642 20.7391 59.6079 20.7618 59.5626 20.7705C57.9964 20.5362 56.4314 20.2972 54.8675 20.0535C54.6835 21.0188 54.5128 21.9863 54.3553 22.9559C56.0513 23.1836 57.7472 23.4112 59.4431 23.6388C59.3458 24.0734 59.2377 24.5059 59.1187 24.9364C59.1054 24.9681 59.0827 24.9909 59.0504 25.0047C57.3843 24.7545 55.7168 24.5154 54.048 24.2876C53.4597 26.8435 52.6231 29.3135 51.5382 31.6974C50.4791 33.6188 48.8457 34.5351 46.6382 34.4462C45.8979 34.3666 45.2662 34.065 44.7431 33.5413C44.402 32.98 44.4759 32.4736 44.965 32.0218C45.2797 31.9865 45.587 32.0207 45.887 32.1242C46.1892 32.4497 46.4453 32.8082 46.6553 33.1998C47.2782 33.8423 47.9441 33.8822 48.6528 33.3193C49.2905 32.6647 49.7401 31.8964 50.0016 31.0144C50.5852 28.8053 51.1201 26.5858 51.6065 24.3559C51.6235 24.2084 51.6292 24.0604 51.6236 23.912C50.0402 23.6932 48.4581 23.4656 46.8772 23.2291C46.9273 22.7742 46.9728 22.3189 47.0138 21.8632C48.6755 22.1022 50.3373 22.3412 51.9992 22.5803C52.197 21.6454 52.4019 20.712 52.6138 19.7803C50.9074 19.5121 49.2001 19.2503 47.4919 18.9949C47.5432 18.5161 47.6001 18.0381 47.6626 17.5608C49.3959 17.7614 51.126 17.9891 52.8528 18.2437C52.8983 18.2323 52.9439 18.2209 52.9894 18.2096C53.3602 16.9769 53.7415 15.7476 54.1333 14.5218C54.6277 13.1629 55.3959 11.9848 56.4382 10.9876C57.1457 10.3663 57.9652 9.99638 58.8967 9.87786Z" fill="#0590FF"/>
<path fill-rule="evenodd" clip-rule="evenodd" d="M36.2933 13.8726C36.6412 13.9783 36.9712 14.1206 37.2835 14.2994C34.922 19.367 34.9163 24.4378 37.2664 29.5116C37.2832 29.5557 37.2889 29.6013 37.2835 29.6482C36.9734 29.7633 36.6661 29.8885 36.3616 30.0238C36.1498 29.6911 35.9734 29.3383 35.8323 28.9652C34.0931 24.6817 33.9565 20.3451 35.4225 15.9555C35.6767 15.2439 35.9669 14.5496 36.2933 13.8726Z" fill="#0990FF"/>
<path fill-rule="evenodd" clip-rule="evenodd" d="M69.9601 13.8728C70.0246 13.8659 70.0759 13.8886 70.1138 13.9411C72.2937 18.5151 72.5668 23.2045 70.9333 28.0094C70.7574 28.4972 70.5638 28.9753 70.3528 29.4435C70.262 29.6482 70.1537 29.8417 70.0284 30.024C69.7098 29.8988 69.4025 29.7565 69.1064 29.5972C71.4704 24.4938 71.4704 19.3946 69.1064 14.2996C69.3864 14.1475 69.6712 14.0052 69.9601 13.8728Z" fill="#0991FF"/>
<path fill-rule="evenodd" clip-rule="evenodd" d="M67.8772 31.1855C68.1893 31.349 68.4853 31.5425 68.765 31.766C68.2965 32.589 67.7447 33.3516 67.1089 34.0538C66.0531 35.2124 64.9034 36.2597 63.6601 37.1953C63.4865 36.9051 63.3044 36.6203 63.1138 36.3416C63.091 36.3075 63.091 36.2734 63.1138 36.2392C64.6464 35.1278 65.9896 33.8188 67.143 32.3124C67.4097 31.9494 67.6545 31.5738 67.8772 31.1855Z" fill="#0A91FF"/>
<path fill-rule="evenodd" clip-rule="evenodd" d="M38.442 31.7314C38.5059 31.7437 38.5571 31.7779 38.5957 31.8339C39.9563 33.741 41.6238 35.3175 43.5981 36.5632C43.3963 36.8302 43.2028 37.1033 43.0176 37.3827C42.7455 37.2635 42.4837 37.1153 42.2323 36.9388C40.4403 35.6419 38.8923 34.0996 37.5884 32.3119C37.868 32.1097 38.1525 31.9161 38.442 31.7314Z" fill="#0A91FF"/>
<path fill-rule="evenodd" clip-rule="evenodd" d="M45.4436 37.5366C50.5985 39.8125 55.7546 39.8125 60.9119 37.5366C61.0548 37.8515 61.1914 38.17 61.3216 38.4927C58.9186 39.654 56.3804 40.2629 53.707 40.3195C50.6782 40.4042 47.7985 39.8009 45.068 38.5098C45.2075 38.1909 45.3327 37.8665 45.4436 37.5366Z" fill="#0991FF"/>
<defs>
<clipPath id="clip0_11860_67789">
<rect width="42" height="42" fill="white" transform="translate(0.81897)"/>
</clipPath>
</defs>
</svg>
