<svg width="20" height="20" viewBox="0 0 20 20" fill="none" xmlns="http://www.w3.org/2000/svg">
<path fill-rule="evenodd" clip-rule="evenodd" d="M15.8333 4.16667H4.16665C3.24617 4.16667 2.49998 4.91286 2.49998 5.83333V14.1667C2.49998 15.0871 3.24617 15.8333 4.16665 15.8333H15.8333C16.7538 15.8333 17.5 15.0871 17.5 14.1667V5.83333C17.5 4.91286 16.7538 4.16667 15.8333 4.16667ZM4.16665 2.5C2.3257 2.5 0.833313 3.99238 0.833313 5.83333V14.1667C0.833313 16.0076 2.3257 17.5 4.16665 17.5H15.8333C17.6743 17.5 19.1666 16.0076 19.1666 14.1667V5.83333C19.1666 3.99238 17.6743 2.5 15.8333 2.5H4.16665Z" fill="#777E91"/>
<path d="M9.36271 6.71801C9.41821 6.62718 9.48291 6.54231 9.55577 6.46471L9.64951 6.361C9.68581 6.31872 9.80029 6.25569 9.89882 6.24452L5.85764 13.5044C5.80379 13.3767 5.73039 13.2818 5.64184 13.2164C5.52695 13.1322 5.40649 13.1083 5.28682 13.1202C5.20505 13.1087 5.05227 13.22 5.01238 13.3596M9.36271 6.71801C9.18076 7.02113 9.01237 7.56599 8.78487 8.66779L8.93354 8.68956M9.36271 6.71801L9.4907 6.79623C9.4908 6.79606 9.49091 6.79589 9.49101 6.79572M9.36271 6.71801L9.49132 6.79521C9.49122 6.79538 9.49111 6.79555 9.49101 6.79572M8.93354 8.68956C8.92363 8.73751 8.91359 8.78657 8.90343 8.83675L10.0455 9.00399C10.2223 9.02987 10.3451 9.19337 10.3208 9.37034C10.2962 9.54958 10.1302 9.67436 9.95119 9.64814L8.64231 9.45641M8.93354 8.68956L10.0673 8.85558C10.3255 8.89338 10.5049 9.13221 10.4695 9.39074C10.4335 9.65258 10.1909 9.83486 9.92944 9.79655L8.7664 9.62619M8.93354 8.68956C9.16056 7.59176 9.32441 7.07358 9.49101 6.79572M8.64231 9.45641L8.5725 9.88083L8.55455 9.98694L8.55349 9.99301C8.55207 10.0012 8.55062 10.0095 8.54916 10.0179L8.69763 10.0397M8.64231 9.45641L8.62057 9.60482L8.7664 9.62619M8.64231 9.45641L8.79032 9.48075L8.7664 9.62619M8.69763 10.0397C8.68964 10.0855 8.68094 10.1351 8.67117 10.1874L9.85026 10.3602C10.0282 10.3862 10.1513 10.5516 10.1252 10.7296C10.0991 10.9074 9.93376 11.0305 9.75589 11.0044L8.38941 10.8043C8.19435 11.6332 7.93746 12.5215 7.75597 12.8721C7.68576 13.0472 7.40295 13.4649 7.09221 13.7417C6.57485 14.202 5.99446 14.3193 5.39013 13.94M8.69763 10.0397L9.87201 10.2117C10.1319 10.2498 10.3117 10.4914 10.2736 10.7513C10.2355 11.0111 9.99397 11.1909 9.73415 11.1528L8.50349 10.9726C8.41306 11.3471 8.31158 11.7276 8.21123 12.0608C8.10112 12.4264 7.98942 12.7452 7.89236 12.9349C7.84878 13.0401 7.75329 13.197 7.63513 13.3576C7.51261 13.5243 7.35733 13.7064 7.19199 13.8537L7.19192 13.8538C6.91772 14.0977 6.61681 14.2597 6.29432 14.3043C5.96952 14.3492 5.63826 14.2728 5.31041 14.067M8.69763 10.0397C8.69885 10.0327 8.70005 10.0258 8.70123 10.019L8.70233 10.0126L8.70245 10.012L8.7204 9.90585L8.72051 9.90517L8.7664 9.62619M5.39013 13.94C5.08179 13.7465 4.95813 13.5471 5.01238 13.3596M5.39013 13.94L5.31039 14.067C5.31039 14.067 5.3104 14.067 5.31041 14.067M5.39013 13.94L5.31041 14.067M5.01238 13.3596L4.86829 13.3179C4.86827 13.318 4.86824 13.3181 4.86821 13.3182M5.01238 13.3596L4.86815 13.3184C4.86817 13.3183 4.86819 13.3182 4.86821 13.3182M5.99577 13.4459C6.03201 13.5311 6.06682 13.5709 6.09191 13.5891C6.11285 13.6042 6.13583 13.6109 6.17163 13.6067L5.99577 13.4459ZM5.99577 13.4459C5.93314 13.2975 5.84436 13.1795 5.73096 13.0957L5.73049 13.0954C5.5872 12.9904 5.43418 12.9578 5.28627 12.9697C5.2374 12.9673 5.1923 12.9801 5.1575 12.9946C5.11536 13.0121 5.07488 13.0376 5.03873 13.0673C4.96802 13.1253 4.89853 13.2122 4.86821 13.3182M5.99577 13.4459L4.86821 13.3182M5.31041 14.067L6.17164 13.6067C6.19886 13.6035 6.23525 13.5918 6.27061 13.5743C6.28755 13.5659 6.30192 13.5574 6.31261 13.55C6.32181 13.5436 6.32545 13.54 6.32549 13.5401L6.32679 13.5386L6.32682 13.5386C6.48889 13.3581 6.64291 13.0843 6.80198 12.625C6.9516 12.193 7.10283 11.6055 7.27088 10.7924L6.13707 10.6261C5.8789 10.5883 5.69946 10.3494 5.73495 10.0909C5.77091 9.82908 6.01349 9.64678 6.27501 9.68509L7.43817 9.85547L7.48426 9.57709C7.48427 9.57702 7.48429 9.57695 7.4843 9.57687C7.49163 9.53186 7.4992 9.48689 7.50702 9.44196L6.339 9.27101C6.07921 9.23299 5.8994 8.99158 5.93737 8.73177C5.97535 8.47185 6.2169 8.29197 6.47681 8.33005L7.70155 8.50954C7.84354 7.93838 8.01254 7.42013 8.19561 7.0652C8.23908 6.96005 8.33457 6.80318 8.45265 6.64257C8.5752 6.47587 8.73059 6.2936 8.89597 6.14646C9.17019 5.90227 9.47112 5.74027 9.79364 5.69574C10.1185 5.6509 10.4497 5.72741 10.7776 5.93319C10.9416 6.03612 11.0696 6.14833 11.1488 6.27129C11.2305 6.39818 11.2609 6.53913 11.2197 6.68164C11.1894 6.78749 11.12 6.8745 11.0493 6.93263C11.0132 6.96234 10.9727 6.98789 10.9306 7.00546C10.8958 7.01997 10.8506 7.03286 10.8017 7.03051M9.49101 6.79572C9.54109 6.71386 9.59943 6.63735 9.66512 6.56739L9.66514 6.56741L9.66705 6.56529L9.76079 6.46158L9.76083 6.46161L9.76245 6.45973C9.76249 6.45977 9.76612 6.45622 9.7753 6.44986C9.78597 6.44248 9.80031 6.43395 9.8172 6.42561C9.85251 6.40819 9.88874 6.39663 9.91572 6.39357L9.9163 6.3935C9.95228 6.38928 9.97525 6.39601 9.9961 6.41105C10.0209 6.42896 10.0555 6.46829 10.0915 6.55262C10.146 6.69078 10.2369 6.81162 10.3546 6.90227L10.3546 6.90229L10.3572 6.90423C10.5006 7.00978 10.6537 7.04242 10.8017 7.03051M10.8017 7.03051C10.8065 7.03013 10.8113 7.02969 10.816 7.02921L10.8011 6.87996M10.8017 7.03051C10.7946 7.03017 10.7874 7.02951 10.7801 7.02848L10.8011 6.87996M10.8011 6.87996C10.6814 6.89193 10.561 6.86799 10.4461 6.78343L10.8011 6.87996Z" fill="#777E91" stroke="#777E91" stroke-width="0.3"/>
<path fill-rule="evenodd" clip-rule="evenodd" d="M12.5 10C12.5 7.69885 14.3655 5.83337 16.6667 5.83337H17.5C17.9602 5.83337 18.3333 6.20647 18.3333 6.66671C18.3333 7.12694 17.9602 7.50004 17.5 7.50004H16.6667C15.286 7.50004 14.1667 8.61933 14.1667 10C14.1667 11.3808 15.286 12.5 16.6667 12.5H17.5C17.9602 12.5 18.3333 12.8731 18.3333 13.3334C18.3333 13.7936 17.9602 14.1667 17.5 14.1667H16.6667C14.3655 14.1667 12.5 12.3012 12.5 10Z" fill="#777E91"/>
<path d="M16.75 9.99996C16.75 10.4602 16.3769 10.8333 15.9166 10.8333C15.4564 10.8333 15.0833 10.4602 15.0833 9.99996C15.0833 9.53972 15.4564 9.16663 15.9166 9.16663C16.3769 9.16663 16.75 9.53972 16.75 9.99996Z" fill="#777E91"/>
</svg>
