<svg width="19" height="18" viewBox="0 0 19 18" fill="none" xmlns="http://www.w3.org/2000/svg">
<g id="Icon/Outline/cog">
<g id="Icon">
<path d="M8.15088 3.23798C8.47068 1.92067 10.3441 1.92067 10.6639 3.23798C10.8705 4.08895 11.8455 4.49278 12.5933 4.03714C13.7509 3.33179 15.0756 4.65653 14.3703 5.81414C13.9146 6.56194 14.3185 7.53688 15.1694 7.74347C16.4867 8.06327 16.4867 9.93673 15.1694 10.2565C14.3185 10.4631 13.9146 11.4381 14.3703 12.1859C15.0756 13.3435 13.7509 14.6682 12.5933 13.9629C11.8455 13.5072 10.8705 13.9111 10.6639 14.762C10.3441 16.0793 8.47068 16.0793 8.15088 14.762C7.94429 13.9111 6.96935 13.5072 6.22155 13.9629C5.06394 14.6682 3.7392 13.3435 4.44455 12.1859C4.90019 11.4381 4.49636 10.4631 3.64539 10.2565C2.32808 9.93673 2.32808 8.06327 3.64539 7.74347C4.49636 7.53688 4.90019 6.56194 4.44455 5.81414C3.7392 4.65653 5.06394 3.33179 6.22155 4.03714C6.96935 4.49278 7.94429 4.08895 8.15088 3.23798Z" stroke="#C4CAFF" stroke-width="1.125" stroke-linecap="round" stroke-linejoin="round"/>
<path d="M11.6574 9C11.6574 10.2426 10.6501 11.25 9.40741 11.25C8.16477 11.25 7.15741 10.2426 7.15741 9C7.15741 7.75736 8.16477 6.75 9.40741 6.75C10.6501 6.75 11.6574 7.75736 11.6574 9Z" stroke="#C4CAFF" stroke-width="1.125" stroke-linecap="round" stroke-linejoin="round"/>
</g>
</g>
</svg>
