<svg width="15" height="15" viewBox="0 0 15 15" fill="none" xmlns="http://www.w3.org/2000/svg">
<path d="M7.5 5.15625V4.65625C7.22386 4.65625 7 4.88011 7 5.15625H7.5ZM7.50469 5.15625H8.00469C8.00469 4.88011 7.78083 4.65625 7.50469 4.65625V5.15625ZM7.50469 5.16094V5.66094C7.78083 5.66094 8.00469 5.43708 8.00469 5.16094H7.50469ZM7.5 5.16094H7C7 5.43708 7.22386 5.66094 7.5 5.66094V5.16094ZM6.80764 6.58404C6.56065 6.70753 6.46054 7.00787 6.58404 7.25486C6.70753 7.50185 7.00787 7.60196 7.25486 7.47846L6.80764 6.58404ZM7.05718 7.01828L6.83357 6.57107L7.05718 7.01828ZM7.72157 7.55124L8.20664 7.6725L7.72157 7.55124ZM7.27843 9.32376L6.79336 9.2025L7.27843 9.32376ZM7.94282 9.85672L8.16643 10.3039L8.16643 10.3039L7.94282 9.85672ZM8.19236 10.291C8.43935 10.1675 8.53946 9.86712 8.41596 9.62014C8.29246 9.37315 7.99212 9.27304 7.74514 9.39654L8.19236 10.291ZM12.625 7.5C12.625 10.3305 10.3305 12.625 7.5 12.625V13.625C10.8827 13.625 13.625 10.8827 13.625 7.5H12.625ZM7.5 12.625C4.66954 12.625 2.375 10.3305 2.375 7.5H1.375C1.375 10.8827 4.11726 13.625 7.5 13.625V12.625ZM2.375 7.5C2.375 4.66954 4.66954 2.375 7.5 2.375V1.375C4.11726 1.375 1.375 4.11726 1.375 7.5H2.375ZM7.5 2.375C10.3305 2.375 12.625 4.66954 12.625 7.5H13.625C13.625 4.11726 10.8827 1.375 7.5 1.375V2.375ZM7.5 5.65625H7.50469V4.65625H7.5V5.65625ZM7.00469 5.15625V5.16094H8.00469V5.15625H7.00469ZM7.50469 4.66094H7.5V5.66094H7.50469V4.66094ZM8 5.16094V5.15625H7V5.16094H8ZM7.25486 7.47846L7.28079 7.4655L6.83357 6.57107L6.80764 6.58404L7.25486 7.47846ZM7.2365 7.42997L6.79336 9.2025L7.7635 9.44503L8.20664 7.6725L7.2365 7.42997ZM8.16643 10.3039L8.19236 10.291L7.74514 9.39654L7.71921 9.40951L8.16643 10.3039ZM6.79336 9.2025C6.59263 10.0054 7.42615 10.6741 8.16643 10.3039L7.71921 9.4095C7.71853 9.40985 7.72061 9.40875 7.72509 9.408C7.72943 9.40728 7.73406 9.40721 7.73841 9.40777C7.74666 9.40884 7.75098 9.41166 7.75274 9.41308C7.75451 9.41449 7.7582 9.41809 7.76103 9.42592C7.76252 9.43004 7.76346 9.43458 7.7637 9.43897C7.76394 9.4435 7.76332 9.44578 7.7635 9.44503L6.79336 9.2025ZM7.28079 7.4655C7.28147 7.46515 7.27939 7.46625 7.27492 7.467C7.27057 7.46772 7.26594 7.46779 7.26159 7.46723C7.25334 7.46616 7.24902 7.46334 7.24726 7.46192C7.24549 7.46051 7.2418 7.45691 7.23897 7.44908C7.23748 7.44496 7.23654 7.44042 7.2363 7.43603C7.23606 7.4315 7.23668 7.42922 7.2365 7.42997L8.20664 7.6725C8.40737 6.86956 7.57385 6.20093 6.83357 6.57107L7.28079 7.4655Z" fill="#B9BDEA"/>
</svg>
