<svg width="12" height="14" viewBox="0 0 12 14" fill="none" xmlns="http://www.w3.org/2000/svg">
<path id="Icon" fill-rule="evenodd" clip-rule="evenodd" d="M2.02684 6.31932V4.67041C2.02684 2.39373 3.87245 0.548126 6.14912 0.548126C8.42579 0.548126 10.2714 2.39373 10.2714 4.67041V6.31932C11.1821 6.31932 11.9203 7.05756 11.9203 7.96823V12.0905C11.9203 13.0012 11.1821 13.7394 10.2714 13.7394H2.02684C1.11617 13.7394 0.37793 13.0012 0.37793 12.0905V7.96823C0.37793 7.05756 1.11617 6.31932 2.02684 6.31932ZM8.62249 4.67041V6.31932H3.67575V4.67041C3.67575 3.3044 4.78312 2.19704 6.14912 2.19704C7.51513 2.19704 8.62249 3.3044 8.62249 4.67041Z" fill="#FBFAFC"/>
</svg>
