<svg width="17" height="17" viewBox="0 0 17 17" fill="none" xmlns="http://www.w3.org/2000/svg">
<g id="Icon/Solid/lock-open">
<path id="Icon" d="M8.14374 1.62875C5.89491 1.62875 4.07187 3.4518 4.07187 5.70063V7.32938C3.17233 7.32938 2.44312 8.0586 2.44312 8.95813V13.03C2.44312 13.9295 3.17233 14.6588 4.07187 14.6588H12.2156C13.1152 14.6588 13.8444 13.9295 13.8444 13.03V8.95813C13.8444 8.0586 13.1152 7.32938 12.2156 7.32938H5.70062V5.70063C5.70062 4.35133 6.79444 3.2575 8.14374 3.2575C9.28102 3.2575 10.2387 4.03533 10.5099 5.08925C10.6221 5.52482 11.066 5.78703 11.5016 5.67493C11.9372 5.56282 12.1994 5.11884 12.0873 4.68326C11.6353 2.92721 10.0422 1.62875 8.14374 1.62875Z" fill="#FBFAFC"/>
</g>
</svg>
