<svg width="20" height="20" viewBox="0 0 20 20" fill="none" xmlns="http://www.w3.org/2000/svg">
<path d="M6.94849 6C9.12918 6 10.8968 7.78 10.8968 9.97558C10.8968 12.1712 9.12905 13.951 6.94849 13.951C4.76793 13.951 3 12.1712 3 9.97558C3 7.78 4.76779 6 6.94849 6ZM13.2539 6.23288C14.3443 6.23288 15.2282 7.90838 15.2282 9.97558H15.2283C15.2283 12.0423 14.3444 13.7183 13.2541 13.7183C12.1637 13.7183 11.2798 12.0423 11.2798 9.97558C11.2798 7.90891 12.1636 6.23288 13.2539 6.23288ZM16.3057 6.62271C16.689 6.62271 17 8.12382 17 9.97558C17 11.8268 16.6892 13.3285 16.3057 13.3285C15.9221 13.3285 15.6114 11.8272 15.6114 9.97558C15.6114 8.12395 15.9223 6.62271 16.3057 6.62271Z" fill="white"/>
</svg>
