<svg width="18" height="5" viewBox="0 0 18 5" fill="none" xmlns="http://www.w3.org/2000/svg">
<path d="M2 0.166016C0.9 0.166016 0 1.06602 0 2.16602C0 3.26602 0.9 4.16602 2 4.16602C3.1 4.16602 4 3.26602 4 2.16602C4 1.06602 3.1 0.166016 2 0.166016ZM16 0.166016C14.9 0.166016 14 1.06602 14 2.16602C14 3.26602 14.9 4.16602 16 4.16602C17.1 4.16602 18 3.26602 18 2.16602C18 1.06602 17.1 0.166016 16 0.166016ZM9 0.166016C7.9 0.166016 7 1.06602 7 2.16602C7 3.26602 7.9 4.16602 9 4.16602C10.1 4.16602 11 3.26602 11 2.16602C11 1.06602 10.1 0.166016 9 0.166016Z" fill="#5162FF"/>
</svg>
