<svg width="12" height="12" viewBox="0 0 12 12" fill="none" xmlns="http://www.w3.org/2000/svg">
<path fill-rule="evenodd" clip-rule="evenodd" d="M1.6875 3C1.37684 3 1.125 3.25184 1.125 3.5625V9.9375C1.125 10.2482 1.37684 10.5 1.6875 10.5H8.0625C8.37316 10.5 8.625 10.2482 8.625 9.9375V6.9375C8.625 6.62684 8.87684 6.375 9.1875 6.375C9.49816 6.375 9.75 6.62684 9.75 6.9375V9.9375C9.75 10.8695 8.99448 11.625 8.0625 11.625H1.6875C0.75552 11.625 0 10.8695 0 9.9375V3.5625C0 2.63052 0.755519 1.875 1.6875 1.875H5.4375C5.74816 1.875 6 2.12684 6 2.4375C6 2.74816 5.74816 3 5.4375 3H1.6875Z" fill="white"/>
<path fill-rule="evenodd" clip-rule="evenodd" d="M3.14539 8.43989C3.35381 8.67025 3.70952 8.68804 3.93989 8.47961L10.875 2.20499V4.3125C10.875 4.62316 11.1268 4.875 11.4375 4.875C11.7482 4.875 12 4.62316 12 4.3125V0.9375C12 0.62684 11.7482 0.375 11.4375 0.375H8.0625C7.75184 0.375 7.5 0.62684 7.5 0.9375C7.5 1.24816 7.75184 1.5 8.0625 1.5H9.97738L3.18511 7.64539C2.95475 7.85381 2.93696 8.20952 3.14539 8.43989Z" fill="white"/>
</svg>
