<svg width="21" height="20" viewBox="0 0 21 20" fill="none" xmlns="http://www.w3.org/2000/svg">
<g clip-path="url(#clip0_9166_149630)">
<path d="M18.0928 15.0194C18.0928 15.4261 17.7631 15.7558 17.3563 15.7558H3.82921C3.42249 15.7558 3.09277 15.4261 3.09277 15.0194C3.09277 14.6127 3.42249 14.2829 3.82921 14.2829H3.84277V9.15074C3.84277 5.4774 6.86527 2.5 10.5928 2.5C14.3203 2.5 17.3428 5.4774 17.3428 9.15074V14.2829H17.3563C17.7631 14.2829 18.0928 14.6127 18.0928 15.0194ZM5.34277 14.2829H15.8428V9.15074C15.8428 6.29116 13.4923 3.97287 10.5928 3.97287C7.69327 3.97287 5.34277 6.29116 5.34277 9.15074V14.2829ZM8.98673 17.4424C8.69791 16.9716 9.16549 16.4922 9.71777 16.4922H11.4678C12.0201 16.4922 12.4876 16.9716 12.1988 17.4424C12.1209 17.5693 12.0271 17.6876 11.9186 17.7941C11.567 18.1394 11.0901 18.3333 10.5928 18.3333C10.0955 18.3333 9.61858 18.1394 9.26695 17.7941C9.15844 17.6876 9.06461 17.5693 8.98673 17.4424Z" fill="#B9BDEA"/>
</g>
<defs>
<clipPath id="clip0_9166_149630">
<rect width="20" height="20" fill="white" transform="translate(0.592773)"/>
</clipPath>
</defs>
</svg>
