<svg width="20" height="20" viewBox="0 0 20 20" fill="none" xmlns="http://www.w3.org/2000/svg">
<path fill-rule="evenodd" clip-rule="evenodd" d="M17.7607 11.9347C16.6918 16.2228 12.3474 18.8294 8.0655 17.7604C3.77737 16.6916 1.17074 12.3473 2.23968 8.0655C3.30856 3.77749 7.64668 1.17086 11.9348 2.2398C16.2167 3.30243 18.8296 7.64668 17.7607 11.9347ZM4.00018 7.33581C3.99728 7.15961 4.02984 6.98464 4.09593 6.82128C4.16203 6.65792 4.2603 6.50953 4.38491 6.38492C4.50951 6.26031 4.65791 6.16203 4.82127 6.09594C4.98463 6.02984 5.15961 5.99728 5.33581 6.00019C5.51202 5.99722 5.68703 6.02974 5.85042 6.09581C6.01381 6.16188 6.16223 6.26015 6.28685 6.38477C6.41147 6.50939 6.50974 6.65781 6.57581 6.8212C6.64188 6.98459 6.6744 7.15959 6.67143 7.33581C6.67434 7.51199 6.64177 7.68695 6.57567 7.85028C6.50957 8.01361 6.41129 8.16198 6.28668 8.28655C6.16206 8.41112 6.01366 8.50935 5.85031 8.5754C5.68695 8.64144 5.51198 8.67394 5.33581 8.67098C5.15965 8.67388 4.98471 8.64132 4.82138 8.57526C4.65805 8.50919 4.50968 8.41096 4.38508 8.28641C4.26048 8.16185 4.16219 8.0135 4.09607 7.8502C4.02995 7.6869 3.99734 7.51197 4.00018 7.33581ZM8 11.2006V13.233C8.11445 13.2782 8.23084 13.3327 8.35491 13.3909C8.83538 13.6159 9.43087 13.8949 10.4739 13.8952C12.1343 13.8952 13.2142 12.9903 13.2142 11.5619C13.2142 10.1188 12.0793 9.67647 10.8877 9.21196C10.8619 9.20192 10.8361 9.19187 10.8103 9.1818C9.53303 8.69412 9.12656 8.35718 9.12656 7.6721C9.12656 6.89415 9.6609 6.46434 10.5201 6.46434C11.6816 6.46434 12.4129 7.12656 12.657 8.43839H12.8903V6.46434C12.7192 6.41819 12.557 6.36824 12.3965 6.31878C11.8703 6.15671 11.3615 6 10.6139 6C9.01129 6 8.05927 6.90582 8.05927 8.17144C8.05927 9.48833 9.105 9.8945 10.1292 10.2923C10.1514 10.3009 10.1735 10.3095 10.1957 10.3182C11.3339 10.7592 12.0774 11.0961 12.0774 12.0481C12.0774 12.9306 11.4385 13.4304 10.4631 13.4304C9.23203 13.4304 8.50028 12.6987 8.23334 11.2006H8Z" fill="white"/>
</svg>
