<svg xmlns="http://www.w3.org/2000/svg" enable-background="new 0 0 32 32" viewBox="0 0 32 32" id="shrink">
  <path d="M30.93225 1.07733c-.73132-.73181-2.00574-.73273-2.73889 0l-6.81842 6.81885V6.51965c-.04163-2.50238-3.83258-2.51611-3.87421.00806v6.04498l.01227.12677c.00946.08228.0199.16412.03784.24646.14948.87653.97449 1.56195 1.88647 1.56384h6.05304c1.25262-.0213 1.90729-.99103 1.90826-1.93756 0-.94611-.65564-1.91486-1.91675-1.93665h-1.36804l6.81842-6.81934c.36609-.36566.56763-.85193.56763-1.36945S31.29834 1.44299 30.93225 1.07733zM12.57068 4.59058c-1.06812 0-1.93665.86902-1.93665 1.93713v1.36847L3.81 1.07208c-.89978-.87323-2.05017-.6499-2.72003.0213C.42108 1.76135.19879 2.90942 1.0777 3.8186c.05865.05817 4.8515 4.8515 6.81744 6.81696H6.51953c-1.25262.02039-1.90918.99011-1.90918 1.93713 0 .94653.65564 1.91577 1.91675 1.93707h6.04736c.40021-.00281.80701-.14093 1.14667-.38928.46643-.34534.75305-.90021.78711-1.54779V6.52771C14.50824 5.45959 13.63879 4.59058 12.57068 4.59058zM2.44574 31.5c.49573 0 .99243-.18878 1.36993-.56622l6.81836-6.81891v1.3761c.02081 1.25214.9906 1.90778 1.93762 1.9082.94702 0 1.91577-.65564 1.93658-1.91626v-6.04498l-.01416-.1438c-.00946-.07526-.0199-.15094-.03595-.22662-.14478-.86658-.948-1.53876-1.88745-1.56671H6.51862c-1.25262.0213-1.90826.99103-1.90826 1.93805 0 .94611.65564 1.91492 1.91675 1.93616h1.36804l-6.81934 6.81982c-.75403.755-.75403 1.98395 0 2.73895C1.45331 31.31122 1.94995 31.5 2.44574 31.5zM30.93225 28.1944l-6.81842-6.8194h1.37561c1.25262-.02032 1.9082-.98956 1.9082-1.93707 0-.94653-.65466-1.91583-1.91577-1.93713l-6.0824.00146c-.56006.04352-1.02271.24835-1.30933.56384-.34253.31598-.5459.77814-.58942 1.37183v6.05304c.02081 1.25256.99054 1.9082 1.93756 1.9082.94611 0 1.91486-.65515 1.93665-1.91626v-1.36804l6.81842 6.81891C28.5708 31.31122 29.06659 31.5 29.56232 31.5c.4967 0 .99243-.18878 1.36993-.56622.36609-.36566.56763-.85199.56763-1.36945C31.49988 29.04681 31.29834 28.56049 30.93225 28.1944z" fill="#b9bdea" class="color000000 svgShape"></path>
</svg>