<svg width="20" height="20" viewBox="0 0 20 20" fill="none" xmlns="http://www.w3.org/2000/svg">
<path d="M15.9375 8.125C15.9375 9.81494 14.9056 11.2639 13.4375 11.8761V11.875C13.4375 8.941 11.059 6.5625 8.12501 6.5625H8.12386C8.73608 5.09441 10.1851 4.0625 11.875 4.0625C14.1187 4.0625 15.9375 5.88134 15.9375 8.125ZM6.875 4.375C5.49429 4.375 4.375 5.49429 4.375 6.875V7.8125H5.625V6.875C5.625 6.18464 6.18464 5.625 6.875 5.625H7.8125V4.375H6.875ZM14.375 12.1875V13.125C14.375 13.8154 13.8154 14.375 13.125 14.375H12.1875V15.625H13.125C14.5057 15.625 15.625 14.5057 15.625 13.125V12.1875H14.375ZM8.125 15.9375C10.3687 15.9375 12.1875 14.1187 12.1875 11.875C12.1875 9.63131 10.3687 7.8125 8.125 7.8125C5.88134 7.8125 4.0625 9.63131 4.0625 11.875C4.0625 14.1187 5.88134 15.9375 8.125 15.9375ZM8.125 10.3125L9.6875 11.875L8.125 13.4375L6.5625 11.875L8.125 10.3125Z" fill="white"/>
</svg>
