<svg width="20" height="20" viewBox="0 0 20 20" fill="none" xmlns="http://www.w3.org/2000/svg">
<path fill-rule="evenodd" clip-rule="evenodd" d="M8.19542 16.0082C13.5786 15.8741 16.5184 11.3955 16.5184 7.50371C16.5184 7.37398 16.5156 7.24493 16.5098 7.11682C17.0982 6.69529 17.6092 6.16851 18.0129 5.569C17.4726 5.80677 16.8921 5.96744 16.2828 6.0397C16.9047 5.66965 17.3824 5.08377 17.6073 4.38547C17.0252 4.72804 16.3805 4.97689 15.6944 5.11101C15.1445 4.52997 14.3617 4.16663 13.4954 4.16663C11.8315 4.16663 10.4826 5.50552 10.4826 7.15698C10.4826 7.39129 10.5093 7.61936 10.5607 7.8382C8.05681 7.71355 5.8371 6.52308 4.35118 4.71419C4.09186 5.15579 3.94324 5.66942 3.94324 6.21745C3.94324 7.25463 4.47514 8.16993 5.28357 8.70618C4.78958 8.69071 4.32513 8.55613 3.91882 8.33221C3.91859 8.34468 3.91859 8.35737 3.91859 8.36984C3.91859 9.81862 4.95704 11.0271 6.33528 11.3018C6.08247 11.3701 5.8164 11.4068 5.5415 11.4068C5.34753 11.4068 5.15868 11.3879 4.97471 11.353C5.35823 12.541 6.47064 13.4055 7.78911 13.4297C6.75787 14.2317 5.45894 14.7097 4.04767 14.7097C3.80556 14.7097 3.5667 14.6957 3.33203 14.6682V14.6698C4.61841 15.4877 6.13782 15.9752 7.77074 16.0082H8.19542Z" fill="white"/>
</svg>
