<svg width="20" height="20" viewBox="0 0 20 20" fill="none" xmlns="http://www.w3.org/2000/svg">
<path fill-rule="evenodd" clip-rule="evenodd" d="M18.0002 10C18.0002 14.4183 14.4185 18 10.0002 18C5.58197 18 2.00024 14.4183 2.00024 10C2.00024 5.58172 5.58197 2 10.0002 2C14.4185 2 18.0002 5.58172 18.0002 10ZM12.0002 7C12.0002 8.10457 11.1048 9 10.0002 9C8.89568 9 8.00025 8.10457 8.00025 7C8.00025 5.89543 8.89568 5 10.0002 5C11.1048 5 12.0002 5.89543 12.0002 7ZM10.0002 11C7.98264 11 6.24419 12.195 5.45398 13.9157C6.55427 15.192 8.1829 16 10.0002 16C11.8175 16 13.4461 15.1921 14.5464 13.9158C13.7562 12.195 12.0177 11 10.0002 11Z" fill="#FBFAFC"/>
</svg>
