<svg width="13" height="12" viewBox="0 0 13 12" fill="none" xmlns="http://www.w3.org/2000/svg">
<path d="M6.19409 0C2.8807 0 0.194092 2.68661 0.194092 6C0.194092 9.31339 2.8807 12 6.19409 12C9.50748 12 12.1941 9.31339 12.1941 6C12.1941 2.68661 9.50748 0 6.19409 0ZM6.62266 8.89286C6.62266 8.95179 6.57445 9 6.51552 9H5.87266C5.81373 9 5.76552 8.95179 5.76552 8.89286V5.25C5.76552 5.19107 5.81373 5.14286 5.87266 5.14286H6.51552C6.57445 5.14286 6.62266 5.19107 6.62266 5.25V8.89286ZM6.19409 4.28571C6.02587 4.28228 5.86569 4.21304 5.74794 4.09286C5.63018 3.97267 5.56422 3.81112 5.56422 3.64286C5.56422 3.4746 5.63018 3.31304 5.74794 3.19286C5.86569 3.07267 6.02587 3.00343 6.19409 3C6.36232 3.00343 6.52249 3.07267 6.64025 3.19286C6.75801 3.31304 6.82396 3.4746 6.82396 3.64286C6.82396 3.81112 6.75801 3.97267 6.64025 4.09286C6.52249 4.21304 6.36232 4.28228 6.19409 4.28571Z" fill="#FAAD14"/>
</svg>
