<svg width="25" height="24" viewBox="0 0 25 24" fill="none" xmlns="http://www.w3.org/2000/svg">
<g id="Group 138119">
<g id="Group 138118">
<g id="Group">
<path id="Vector" opacity="0.997" fill-rule="evenodd" clip-rule="evenodd" d="M11.9328 0C12.3881 0 12.8434 0 13.2986 0C16.7299 0.244193 19.6014 1.62956 21.9133 4.1561C23.6916 6.20818 24.677 8.59518 24.8694 11.3171C24.8694 11.7659 24.8694 12.2146 24.8694 12.6634C24.5835 16.2113 23.068 19.1023 20.323 21.3366C18.1562 23.014 15.6977 23.9019 12.9474 24C12.7263 24 12.5051 24 12.284 24C8.61652 23.8392 5.57588 22.3889 3.16206 19.6488C1.47892 17.6277 0.54559 15.2993 0.362061 12.6634C0.362061 12.2211 0.362061 11.7789 0.362061 11.3366C0.599815 8.12638 1.88762 5.42394 4.22548 3.22927C6.41562 1.2704 8.98473 0.193973 11.9328 0Z" fill="#0390FF"/>
</g>
<g id="Group_2">
<path id="Vector_2" fill-rule="evenodd" clip-rule="evenodd" d="M11.9913 0.682779C15.2172 0.56458 18.04 1.55645 20.4596 3.65839C23.3377 6.35363 24.5441 9.66744 24.0791 13.5999C23.5687 16.6895 22.0696 19.1708 19.5816 21.0438C16.8113 23.0006 13.7479 23.69 10.3913 23.112C7.09609 22.4268 4.53673 20.6804 2.71328 17.873C1.17064 15.3029 0.695844 12.5452 1.28889 9.59985C1.92566 6.92963 3.32077 4.75402 5.47425 3.07302C7.40134 1.61862 9.57369 0.821878 11.9913 0.682779Z" fill="#FEFEFF"/>
</g>
<g id="Group_3">
<path id="Vector_3" fill-rule="evenodd" clip-rule="evenodd" d="M12.1669 1.46363C13.9377 1.40867 15.6222 1.75664 17.2205 2.50753C17.155 2.65848 17.0932 2.81134 17.0352 2.96607C17.0258 3.00466 17.003 3.03067 16.9669 3.04412C14.0282 1.76361 11.0948 1.77011 8.16689 3.06363C8.09071 2.87733 8.01266 2.69196 7.93274 2.50753C9.27442 1.86804 10.6858 1.52007 12.1669 1.46363Z" fill="#0991FF"/>
</g>
<g id="Group_4">
<path id="Vector_4" fill-rule="evenodd" clip-rule="evenodd" d="M6.56699 3.21973C6.69323 3.38248 6.8103 3.55483 6.9182 3.7368C5.81965 4.52958 4.90258 5.49219 4.16699 6.6246C4.14747 6.63762 4.12796 6.63762 4.10845 6.6246C3.96226 6.51573 3.81266 6.41167 3.65967 6.31241C3.97458 5.78275 4.34207 5.29169 4.76211 4.83924C5.32099 4.24419 5.92261 3.70435 6.56699 3.21973Z" fill="#0A91FF"/>
</g>
<g id="Group_5">
<path id="Vector_5" fill-rule="evenodd" clip-rule="evenodd" d="M18.3913 3.23926C18.4404 3.24423 18.4859 3.26051 18.5279 3.28804C19.6939 4.05073 20.6824 5.00031 21.4937 6.13682C21.3449 6.25036 21.1888 6.35442 21.0254 6.44901C21.0059 6.46203 20.9864 6.46203 20.9669 6.44901C20.1765 5.34944 19.2138 4.43563 18.0791 3.70755C18.1834 3.55089 18.2874 3.39479 18.3913 3.23926Z" fill="#0A91FF"/>
</g>
<g id="Group_6">
<path id="Vector_6" fill-rule="evenodd" clip-rule="evenodd" d="M15.8353 5.07327C16.2152 5.04139 16.586 5.08365 16.9475 5.2001C17.2382 5.32191 17.4691 5.5138 17.6401 5.77571C17.6756 6.0017 17.6431 6.21633 17.5426 6.41961C17.3173 6.60429 17.0929 6.60104 16.8694 6.40986C16.6971 6.21148 16.5247 6.01311 16.3523 5.81473C16.0695 5.52749 15.754 5.48521 15.406 5.6879C14.8653 6.18041 14.5238 6.78855 14.3816 7.51229C14.1394 8.38509 13.8955 9.25665 13.6499 10.1269C14.5862 10.2596 15.5228 10.3896 16.4597 10.5172C16.4041 10.7655 16.3423 11.0126 16.2743 11.2586C16.2611 11.2797 16.2416 11.2927 16.2157 11.2977C15.3208 11.1638 14.4265 11.0272 13.5328 10.8879C13.4277 11.4395 13.3301 11.9924 13.2401 12.5464C14.2093 12.6765 15.1784 12.8066 16.1475 12.9367C16.0919 13.185 16.0301 13.4321 15.9621 13.6781C15.9545 13.6963 15.9415 13.7093 15.9231 13.7172C14.971 13.5742 14.0182 13.4376 13.0645 13.3074C12.7284 14.7679 12.2503 16.1793 11.6304 17.5416C11.0252 18.6395 10.0918 19.1631 8.83038 19.1123C8.40734 19.0668 8.04636 18.8945 7.74746 18.5952C7.55253 18.2745 7.59481 17.9851 7.87429 17.7269C8.05411 17.7068 8.22972 17.7263 8.40111 17.7855C8.5738 17.9715 8.72014 18.1763 8.84014 18.4001C9.19612 18.7673 9.57661 18.79 9.9816 18.4684C10.346 18.0943 10.6029 17.6553 10.7523 17.1513C11.0858 15.889 11.3915 14.6207 11.6694 13.3464C11.6791 13.2621 11.6824 13.1776 11.6792 13.0928C10.7744 12.9678 9.87032 12.8377 8.96697 12.7025C8.99557 12.4426 9.02158 12.1824 9.04502 11.9221C9.99456 12.0586 10.9442 12.1952 11.8938 12.3318C12.0068 11.7976 12.1239 11.2642 12.245 10.7318C11.27 10.5786 10.2943 10.429 9.31819 10.283C9.34751 10.0094 9.38002 9.73626 9.41575 9.46351C10.4062 9.57817 11.3948 9.70826 12.3816 9.85376C12.4076 9.84726 12.4336 9.84074 12.4597 9.83425C12.6715 9.12988 12.8894 8.42744 13.1133 7.72693C13.3958 6.95042 13.8348 6.27725 14.4304 5.70742C14.8347 5.35239 15.303 5.141 15.8353 5.07327Z" fill="#0590FF"/>
</g>
<g id="Group_7">
<path id="Vector_7" fill-rule="evenodd" clip-rule="evenodd" d="M2.91812 7.35596C3.11691 7.41639 3.30552 7.49769 3.48398 7.59986C2.13456 10.4957 2.1313 13.3932 3.47422 16.2925C3.48378 16.3178 3.48704 16.3438 3.48398 16.3706C3.30677 16.4364 3.13116 16.5079 2.95715 16.5852C2.83613 16.3951 2.73533 16.1935 2.65471 15.9803C1.6609 13.5326 1.58285 11.0546 2.42056 8.5462C2.56577 8.13961 2.73163 7.74286 2.91812 7.35596Z" fill="#0990FF"/>
</g>
<g id="Group_8">
<path id="Vector_8" fill-rule="evenodd" clip-rule="evenodd" d="M22.1572 7.35616C22.1941 7.3522 22.2234 7.3652 22.245 7.39519C23.4907 10.0089 23.6468 12.6886 22.7133 15.4342C22.6128 15.713 22.5022 15.9862 22.3816 16.2537C22.3297 16.3707 22.2679 16.4812 22.1963 16.5854C22.0142 16.5139 21.8386 16.4326 21.6694 16.3415C23.0203 13.4253 23.0203 10.5115 21.6694 7.60007C21.8294 7.51314 21.9922 7.43183 22.1572 7.35616Z" fill="#0991FF"/>
</g>
<g id="Group_9">
<path id="Vector_9" fill-rule="evenodd" clip-rule="evenodd" d="M20.9669 17.249C21.1453 17.3424 21.3145 17.453 21.4743 17.5807C21.2066 18.051 20.8912 18.4868 20.5279 18.888C19.9246 19.5501 19.2677 20.1485 18.5572 20.6832C18.458 20.5173 18.3539 20.3546 18.245 20.1954C18.232 20.1759 18.232 20.1563 18.245 20.1368C19.1208 19.5017 19.8883 18.7538 20.5474 17.8929C20.6998 17.6855 20.8397 17.4709 20.9669 17.249Z" fill="#0A91FF"/>
</g>
<g id="Group_10">
<path id="Vector_10" fill-rule="evenodd" clip-rule="evenodd" d="M4.14747 17.561C4.18398 17.568 4.21325 17.5876 4.23528 17.6196C5.01276 18.7093 5.9656 19.6102 7.09381 20.322C6.97846 20.4746 6.86788 20.6307 6.76211 20.7903C6.60658 20.7222 6.45697 20.6375 6.31333 20.5366C5.28933 19.7956 4.40478 18.9143 3.65967 17.8927C3.81945 17.7772 3.98205 17.6666 4.14747 17.561Z" fill="#0A91FF"/>
</g>
<g id="Group_11">
<path id="Vector_11" fill-rule="evenodd" clip-rule="evenodd" d="M8.14737 20.8779C11.093 22.1784 14.0394 22.1784 16.9864 20.8779C17.0681 21.0578 17.1461 21.2399 17.2205 21.4243C15.8474 22.0879 14.397 22.4358 12.8693 22.4682C11.1386 22.5166 9.49303 22.1718 7.93274 21.434C8.01249 21.2518 8.08402 21.0664 8.14737 20.8779Z" fill="#0991FF"/>
</g>
</g>
</g>
</svg>
