<svg width="32" height="32" viewBox="0 0 32 32" fill="none" xmlns="http://www.w3.org/2000/svg">
<path fill-rule="evenodd" clip-rule="evenodd" d="M1 16C1 24.2843 7.71573 31 16 31C24.2843 31 31 24.2843 31 16C31 7.71573 24.2843 1 16 1C7.71573 1 1 7.71573 1 16ZM16 0C7.16344 0 0 7.16344 0 16C0 24.8366 7.16344 32 16 32C24.8366 32 32 24.8366 32 16C32 7.16344 24.8366 0 16 0Z" fill="url(#paint0_angular_11653_72651)"/>
<g clip-path="url(#clip0_11653_72651)">
<path d="M15.9993 27.5855C22.3982 27.5855 27.5855 22.3982 27.5855 15.9993C27.5855 9.60041 22.3982 4.41309 15.9993 4.41309C9.60041 4.41309 4.41309 9.60041 4.41309 15.9993C4.41309 22.3982 9.60041 27.5855 15.9993 27.5855Z" fill="#F7931A"/>
<path d="M21.0913 14.5654C21.3187 13.0476 20.1622 12.2315 18.5822 11.687L19.0948 9.6304L17.8435 9.31902L17.3439 11.3213C17.0151 11.2387 16.6777 11.162 16.341 11.0852L16.8442 9.06992L15.5929 8.75781L15.0802 10.8136C14.808 10.7514 14.54 10.6905 14.2808 10.6254L14.2822 10.6188L12.5559 10.188L12.2228 11.5247C12.2228 11.5247 13.1518 11.7376 13.1323 11.7507C13.6392 11.8774 13.7304 12.2127 13.7152 12.4792L13.1316 14.8217C13.1663 14.8304 13.2112 14.8435 13.2619 14.863L13.1294 14.8304L12.3111 18.1122C12.2488 18.2657 12.0917 18.4967 11.7369 18.4091C11.7499 18.4272 10.8274 18.1825 10.8274 18.1825L10.2061 19.6148L11.8354 20.0211C12.1381 20.0971 12.435 20.1767 12.7268 20.2513L12.209 22.3311L13.4596 22.6424L13.9723 20.5859C14.3141 20.6778 14.6457 20.7633 14.9702 20.8444L14.4589 22.8923L15.7102 23.2036L16.228 21.1283C18.3627 21.5323 19.9674 21.3694 20.6431 19.4388C21.1876 17.8848 20.6163 16.9876 19.4931 16.4033C20.3114 16.215 20.9269 15.677 21.0913 14.5654V14.5654ZM18.231 18.5757C17.845 20.1304 15.2272 19.2897 14.3785 19.079L15.0665 16.3236C15.9152 16.5358 18.6357 16.9551 18.231 18.5757ZM18.6184 14.543C18.2657 15.9572 16.0875 15.2381 15.3815 15.0622L16.0042 12.5639C16.7103 12.7398 18.9862 13.0679 18.6184 14.543Z" fill="white"/>
</g>
<defs>
<radialGradient id="paint0_angular_11653_72651" cx="0" cy="0" r="1" gradientUnits="userSpaceOnUse" gradientTransform="translate(16 16) rotate(90) scale(16)">
<stop offset="0.385417" stop-color="#15D6E8"/>
<stop offset="0.718753" stop-color="#ADB6FF"/>
<stop offset="1" stop-color="#FF9FAE"/>
</radialGradient>
<clipPath id="clip0_11653_72651">
<rect width="23.1724" height="23.1724" fill="white" transform="translate(4.41309 4.41309)"/>
</clipPath>
</defs>
</svg>
