<svg version="1.1" id="Layer_1" xmlns="http://www.w3.org/2000/svg" xmlns:xlink="http://www.w3.org/1999/xlink" x="0px" y="0px"
	 width="100%" viewBox="0 0 824 824" enable-background="new 0 0 824 824" xml:space="preserve">
<path fill="#3B91F7" opacity="1.000000" stroke="none"
	d="
M372.000000,1.000001
	C398.687561,1.000000 425.375122,1.000000 452.211487,1.360297
	C453.210541,2.143763 454.025513,2.828891 454.916656,2.949125
	C462.851929,4.019739 470.911835,4.460052 478.723236,6.096739
	C497.290436,9.987036 515.983093,13.591827 534.187561,18.831816
	C567.258484,28.350948 598.183838,42.925999 627.624878,60.813541
	C653.463928,76.512619 677.514709,94.556740 698.930725,115.769989
	C713.058228,129.763733 725.835449,145.163635 738.734192,160.344345
	C755.680115,180.288208 768.781372,202.843094 780.841980,225.928955
	C786.988342,237.694214 791.949463,250.105835 797.012390,262.403931
	C805.860168,283.895813 812.416504,306.144653 816.872864,328.928284
	C819.530762,342.516815 820.978027,356.341064 823.080444,370.042328
	C823.192993,370.775787 824.336426,371.351074 825.000000,372.000000
	C825.000000,398.687561 825.000000,425.375122 824.639404,452.212219
	C823.855774,453.212006 823.170837,454.026947 823.050598,454.918060
	C821.979980,462.853027 821.061157,470.808441 819.998718,478.744568
	C817.449829,497.784729 812.707092,516.303162 807.136414,534.671204
	C797.709656,565.754150 784.404724,595.064819 768.005371,623.040039
	C751.807800,650.671082 732.735535,676.219482 710.238953,698.928284
	C696.244812,713.054382 680.869507,725.861328 665.656128,738.718445
	C645.553528,755.707581 623.006470,769.116516 599.592224,780.929260
	C586.285828,787.642456 572.641785,793.974365 558.581909,798.835510
	C539.630676,805.387878 520.306458,811.081604 500.812012,815.770203
	C486.127808,819.301880 470.920715,820.651794 455.963654,823.079224
	C455.224640,823.199158 454.650787,824.336426 454.000000,825.000000
	C427.312439,825.000000 400.624878,825.000000 373.787933,824.639404
	C372.788483,823.855713 371.973724,823.170837 371.082764,823.050598
	C363.149170,821.979919 355.195099,821.061462 347.260406,819.998535
	C328.222382,817.448059 309.701416,812.722412 291.339325,807.135437
	C260.274811,797.683472 230.950150,784.441528 202.977448,768.026489
	C176.219391,752.324158 151.367676,733.957703 129.228851,712.349060
	C114.288261,697.766296 100.855743,681.586792 87.289146,665.661072
	C70.209618,645.611572 56.992668,622.940552 45.053467,599.584534
	C39.078148,587.895386 33.993393,575.724060 28.985426,563.573181
	C20.128029,542.082397 13.573317,519.828125 9.125827,497.038330
	C6.473795,483.448853 5.021368,469.626251 2.919047,455.925446
	C2.808111,455.202484 1.663437,454.638153 1.000004,454.000000
	C1.000000,427.312439 1.000000,400.624878 1.360523,373.787964
	C2.144188,372.788330 2.829282,371.973328 2.949496,371.082153
	C4.019969,363.146271 4.938675,355.189941 6.001074,347.252899
	C8.550146,328.209259 13.254743,309.675507 18.877007,291.319458
	C28.918196,258.536133 43.040234,227.677307 60.823212,198.365967
	C76.505981,172.516342 94.566978,148.477585 115.778748,127.061058
	C129.771500,112.933235 145.194122,100.184395 160.346176,87.251213
	C180.259094,70.254387 202.832306,57.171535 225.944397,45.183456
	C239.303864,38.253990 253.204880,32.068192 267.419098,27.160889
	C286.372620,20.617390 305.693512,14.918482 325.186920,10.230135
	C339.871429,6.698359 355.078766,5.348126 370.036163,2.920558
	C370.775208,2.800614 371.349182,1.663488 372.000000,1.000001
M283.737762,623.779663
	C362.430969,669.358948 443.422424,673.581299 524.798645,633.223877
	C616.047913,587.970154 668.070557,492.580750 659.070923,391.051514
	C653.045044,323.070679 623.410400,266.641113 570.993042,223.139191
	C513.147339,175.132156 446.156769,157.501404 372.039795,169.319397
	C315.822754,178.283264 268.417053,204.689743 230.130692,246.795685
	C192.594772,288.076355 171.413177,336.762054 166.736633,392.431641
	C162.747299,439.920502 171.702057,484.941254 193.741257,527.196777
	C214.706177,567.392578 244.674988,599.364746 283.737762,623.779663
z"/>
<path fill="#FDFEFF" opacity="1.000000" stroke="none"
	d="
M283.429230,623.584473
	C244.674988,599.364746 214.706177,567.392578 193.741257,527.196777
	C171.702057,484.941254 162.747299,439.920502 166.736633,392.431641
	C171.413177,336.762054 192.594772,288.076355 230.130692,246.795685
	C268.417053,204.689743 315.822754,178.283264 372.039795,169.319397
	C446.156769,157.501404 513.147339,175.132156 570.993042,223.139191
	C623.410400,266.641113 653.045044,323.070679 659.070923,391.051514
	C668.070557,492.580750 616.047913,587.970154 524.798645,633.223877
	C443.422424,673.581299 362.430969,669.358948 283.429230,623.584473
M406.869232,187.306488
	C394.630951,188.641174 382.228943,189.124649 370.179657,191.442093
	C248.861237,214.775284 169.257446,331.029755 190.877213,452.885437
	C212.795288,576.422546 332.692108,658.676453 455.875061,634.684326
	C577.188660,611.056213 656.697693,495.006714 635.116150,373.068024
	C615.806274,263.964447 518.423096,184.376892 406.869232,187.306488
z"/>
<path fill="#3C91F7" opacity="1.000000" stroke="none"
	d="
M407.338989,187.302399
	C518.423096,184.376892 615.806274,263.964447 635.116150,373.068024
	C656.697693,495.006714 577.188660,611.056213 455.875061,634.684326
	C332.692108,658.676453 212.795288,576.422546 190.877213,452.885437
	C169.257446,331.029755 248.861237,214.775284 370.179657,191.442093
	C382.228943,189.124649 394.630951,188.641174 407.338989,187.302399
M475.185852,314.337891
	C459.527435,301.047211 444.764832,301.737610 430.116211,316.232910
	C419.128265,327.105804 412.701569,340.458588 408.497040,355.054047
	C406.299225,362.683502 404.322693,370.376678 402.119415,378.509033
	C388.967285,376.462860 376.039307,374.451569 362.595703,372.360046
	C361.853973,378.051727 361.176575,383.249512 360.436584,388.927826
	C373.543823,391.088684 386.245392,393.182678 399.235596,395.324249
	C398.237213,401.571503 397.328827,407.255615 396.332916,413.487427
	C383.279510,411.478088 370.719696,409.544708 357.834869,407.561310
	C357.199280,412.078125 356.829590,415.882233 356.091827,419.613525
	C355.370575,423.261230 356.668182,424.528809 360.313599,425.035034
	C371.314117,426.562531 382.258667,428.492981 394.542816,430.479462
	C390.021423,448.626465 386.110138,466.315430 381.065094,483.674805
	C378.782227,491.529755 374.856384,499.103882 370.556732,506.119446
	C366.450836,512.818909 359.758270,511.699982 356.295715,504.678558
	C354.922943,501.894867 353.326752,499.038025 351.176819,496.862152
	C347.580933,493.222992 341.990601,492.934784 338.915100,495.613831
	C335.171844,498.874603 334.813477,504.090454 338.014984,508.714386
	C345.913269,520.122009 362.125092,524.226685 374.562988,517.980225
	C382.861694,513.812561 388.681549,507.038330 394.025757,499.705383
	C403.611633,486.552307 406.829529,470.964691 410.930573,455.726807
	C412.861359,448.552734 414.432983,441.282013 416.199463,433.921173
	C429.654572,436.060242 442.582886,438.115570 456.017487,440.251373
	C456.777527,434.414825 457.468689,429.107178 458.192627,423.547729
	C446.109528,421.612396 434.776306,419.890137 423.496124,417.871765
	C422.100800,417.622101 419.859589,415.714264 419.932373,414.714783
	C420.313568,409.478455 421.314240,404.287262 422.121063,398.938202
	C435.302612,401.019745 447.865906,403.003662 460.722626,405.033936
	C461.436035,399.144867 462.066742,393.938812 462.736725,388.408386
	C449.894073,386.288971 437.510071,384.245239 423.918304,382.002167
	C427.992279,365.998077 431.422119,350.595154 435.993164,335.538696
	C437.765808,329.699768 441.599365,324.238617 445.428314,319.334839
	C450.179993,313.249237 455.940277,314.544495 459.444244,321.391693
	C461.062927,324.554871 463.189941,327.740387 465.856262,330.012451
	C469.078644,332.758423 473.183380,333.271240 476.824951,330.188354
	C480.368530,327.188446 480.929688,322.783081 478.402832,318.421448
	C477.659912,317.139099 476.609375,316.035034 475.185852,314.337891
M400.896210,240.242859
	C448.985077,237.561081 491.338715,251.998627 527.455383,282.932800
	C532.484070,278.102783 537.116455,273.653351 541.748901,269.203888
	C468.699799,200.306717 349.264526,205.836792 284.835419,268.914490
	C289.247498,273.603180 293.662994,278.295502 298.265533,283.186615
	C301.029327,280.949188 303.689728,278.720001 306.427643,276.590576
	C333.983978,255.158798 365.242371,243.260086 400.896210,240.242859
M248.975662,357.525909
	C256.415466,335.385651 268.149353,315.674194 282.653351,298.918915
	C277.734650,293.686951 273.344727,289.017426 268.955750,284.360626
	C200.990417,357.424683 205.232956,474.737000 268.559448,540.980835
	C273.210999,536.385071 277.873962,531.778015 282.556763,527.151306
	C239.078674,477.172302 230.864304,411.461456 248.975662,357.525909
M603.114685,377.335480
	C596.434509,341.886047 581.048218,310.799896 557.564453,284.440979
	C552.415955,289.341919 547.751587,293.782074 543.652161,297.684418
	C600.904663,374.902222 600.827515,451.606140 543.097229,528.992920
	C545.064880,530.844482 547.436829,532.938904 549.645691,535.192993
	C551.930847,537.524963 554.057861,540.011963 556.708374,542.931641
	C597.841736,494.359985 613.565308,439.955658 603.114685,377.335480
M351.638397,574.922485
	C331.855347,567.460693 314.156097,556.476440 298.489929,542.936340
	C293.477600,547.813477 288.871948,552.294922 284.266876,556.775818
	C312.211456,584.052246 364.536804,610.542542 426.866028,605.933899
	C470.766693,602.687866 509.120850,586.225769 542.776367,556.526062
	C539.848328,553.883789 537.408691,551.857910 535.179443,549.622314
	C532.857361,547.293457 530.738220,544.762268 528.686279,542.492065
	C475.138763,585.589539 416.864685,597.364868 351.638397,574.922485
z"/>
<path fill="#FCFDFF" opacity="1.000000" stroke="none"
	d="
M475.442810,314.593567
	C476.609375,316.035034 477.659912,317.139099 478.402832,318.421448
	C480.929688,322.783081 480.368530,327.188446 476.824951,330.188354
	C473.183380,333.271240 469.078644,332.758423 465.856262,330.012451
	C463.189941,327.740387 461.062927,324.554871 459.444244,321.391693
	C455.940277,314.544495 450.179993,313.249237 445.428314,319.334839
	C441.599365,324.238617 437.765808,329.699768 435.993164,335.538696
	C431.422119,350.595154 427.992279,365.998077 423.918304,382.002167
	C437.510071,384.245239 449.894073,386.288971 462.736725,388.408386
	C462.066742,393.938812 461.436035,399.144867 460.722626,405.033936
	C447.865906,403.003662 435.302612,401.019745 422.121063,398.938202
	C421.314240,404.287262 420.313568,409.478455 419.932373,414.714783
	C419.859589,415.714264 422.100800,417.622101 423.496124,417.871765
	C434.776306,419.890137 446.109528,421.612396 458.192627,423.547729
	C457.468689,429.107178 456.777527,434.414825 456.017487,440.251373
	C442.582886,438.115570 429.654572,436.060242 416.199463,433.921173
	C414.432983,441.282013 412.861359,448.552734 410.930573,455.726807
	C406.829529,470.964691 403.611633,486.552307 394.025757,499.705383
	C388.681549,507.038330 382.861694,513.812561 374.562988,517.980225
	C362.125092,524.226685 345.913269,520.122009 338.014984,508.714386
	C334.813477,504.090454 335.171844,498.874603 338.915100,495.613831
	C341.990601,492.934784 347.580933,493.222992 351.176819,496.862152
	C353.326752,499.038025 354.922943,501.894867 356.295715,504.678558
	C359.758270,511.699982 366.450836,512.818909 370.556732,506.119446
	C374.856384,499.103882 378.782227,491.529755 381.065094,483.674805
	C386.110138,466.315430 390.021423,448.626465 394.542816,430.479462
	C382.258667,428.492981 371.314117,426.562531 360.313599,425.035034
	C356.668182,424.528809 355.370575,423.261230 356.091827,419.613525
	C356.829590,415.882233 357.199280,412.078125 357.834869,407.561310
	C370.719696,409.544708 383.279510,411.478088 396.332916,413.487427
	C397.328827,407.255615 398.237213,401.571503 399.235596,395.324249
	C386.245392,393.182678 373.543823,391.088684 360.436584,388.927826
	C361.176575,383.249512 361.853973,378.051727 362.595703,372.360046
	C376.039307,374.451569 388.967285,376.462860 402.119415,378.509033
	C404.322693,370.376678 406.299225,362.683502 408.497040,355.054047
	C412.701569,340.458588 419.128265,327.105804 430.116211,316.232910
	C444.764832,301.737610 459.527435,301.047211 475.442810,314.593567
z"/>
<path fill="#FCFDFF" opacity="1.000000" stroke="none"
	d="
M400.433533,240.280014
	C365.242371,243.260086 333.983978,255.158798 306.427643,276.590576
	C303.689728,278.720001 301.029327,280.949188 298.265533,283.186615
	C293.662994,278.295502 289.247498,273.603180 284.835419,268.914490
	C349.264526,205.836792 468.699799,200.306717 541.748901,269.203888
	C537.116455,273.653351 532.484070,278.102783 527.455383,282.932800
	C491.338715,251.998627 448.985077,237.561081 400.433533,240.280014
z"/>
<path fill="#FCFDFF" opacity="1.000000" stroke="none"
	d="
M248.863129,357.905884
	C230.864304,411.461456 239.078674,477.172302 282.556763,527.151306
	C277.873962,531.778015 273.210999,536.385071 268.559448,540.980835
	C205.232956,474.737000 200.990417,357.424683 268.955261,284.354248
	C273.344727,289.017426 277.734650,293.686951 282.653351,298.918915
	C268.149353,315.674194 256.415466,335.385651 248.863129,357.905884
z"/>
<path fill="#FCFEFF" opacity="1.000000" stroke="none"
	d="
M603.189209,377.760132
	C613.565308,439.955658 597.841736,494.359985 556.708374,542.931641
	C554.057861,540.011963 551.930847,537.524963 549.645691,535.192993
	C547.436829,532.938904 545.064880,530.844482 543.097229,528.992920
	C600.827515,451.606140 600.904663,374.902222 543.652161,297.684418
	C547.751587,293.782074 552.415955,289.341919 557.564453,284.440979
	C581.048218,310.799896 596.434509,341.886047 603.189209,377.760132
z"/>
<path fill="#FCFEFF" opacity="1.000000" stroke="none"
	d="
M352.008057,575.038818
	C416.864685,597.364868 475.138763,585.589539 528.686279,542.492065
	C530.738220,544.762268 532.857361,547.293457 535.179443,549.622314
	C537.408691,551.857910 539.848328,553.883789 542.776367,556.526062
	C509.120850,586.225769 470.766693,602.687866 426.866028,605.933899
	C364.536804,610.542542 312.211456,584.052246 284.266876,556.775818
	C288.871948,552.294922 293.477600,547.813477 298.489929,542.936340
	C314.156097,556.476440 331.855347,567.460693 352.008057,575.038818
z"/>
</svg>