<svg width="32" height="32" viewBox="0 0 32 32" fill="none" xmlns="http://www.w3.org/2000/svg">
<circle cx="16" cy="16" r="16" fill="#EDEFF0"/>
<path d="M16.3548 4.03408V4.04544C16.3662 4.10224 16.3662 4.1704 16.3662 4.23856V12.429C16.3548 12.4744 16.3207 12.4858 16.2866 12.5085C16.0481 12.6221 15.8209 12.7243 15.5823 12.8265C15.2529 12.9742 14.9121 13.1333 14.5827 13.2809L13.3899 13.8262C13.0605 13.9739 12.731 14.1216 12.413 14.2692C12.0267 14.451 11.6291 14.6214 11.2429 14.8031C10.9135 14.9508 10.584 15.1099 10.2432 15.2575C9.97061 15.3825 9.69798 15.4961 9.4367 15.6211C9.41398 15.6324 9.39126 15.6438 9.36854 15.6438C9.35718 15.6438 9.35718 15.6438 9.34583 15.6324L9.65254 15.1212C10.2432 14.1443 10.8226 13.1787 11.4133 12.2018C12.0381 11.1567 12.6742 10.1116 13.299 9.06646C13.8784 8.10088 14.4691 7.1353 15.0484 6.16972C15.4687 5.46541 15.9004 4.76111 16.3207 4.0568C16.3321 4.03408 16.3434 4.02272 16.3434 4H16.3548C16.3434 4.01136 16.3548 4.02272 16.3548 4.03408Z" fill="#838385"/>
<path d="M23.3287 15.6324L23.34 15.6438L21.6702 16.6321L16.4219 19.7333C16.3992 19.7447 16.3765 19.756 16.3651 19.7674C16.3311 19.7674 16.3311 19.7333 16.3311 19.7219V19.6197V12.5994C16.3311 12.5653 16.3311 12.5198 16.3424 12.4858C16.3538 12.4403 16.3879 12.4517 16.4219 12.463C16.5696 12.5312 16.7286 12.5994 16.8763 12.6675C17.3194 12.872 17.7624 13.0765 18.2054 13.2696C18.5917 13.44 18.9665 13.6217 19.3528 13.7921C19.739 13.9625 20.1252 14.1443 20.5115 14.3147C20.8409 14.4624 21.1817 14.6214 21.5111 14.7691C21.8405 14.9168 22.1813 15.0758 22.5108 15.2235C22.772 15.3371 23.0333 15.462 23.2946 15.5756C23.2946 15.6097 23.306 15.6211 23.3287 15.6324Z" fill="#131313"/>
<path d="M16.3538 26.8218C16.3538 26.8331 16.3425 26.8445 16.3425 26.8559H16.3311C16.3311 26.8331 16.3084 26.8218 16.297 26.7991C15.5927 25.8108 14.8884 24.8111 14.1841 23.8228C13.4684 22.8118 12.7414 21.7894 12.0258 20.7784C11.3328 19.8014 10.6285 18.8131 9.93556 17.8362C9.7538 17.5749 9.57204 17.325 9.39029 17.0637C9.37893 17.041 9.36757 17.0297 9.34485 16.9956C9.37893 16.9956 9.40165 17.0183 9.41301 17.0297C10.4013 17.609 11.3782 18.1884 12.3665 18.7677C13.5025 19.4379 14.6271 20.1082 15.7631 20.7784L16.3425 21.1192C16.3652 21.1419 16.3652 21.1646 16.3652 21.1873V26.6627C16.3652 26.7195 16.3652 26.7763 16.3538 26.8218Z" fill="#838385"/>
<path d="M9.3335 15.6551V15.6438C9.69701 15.4848 10.0492 15.3144 10.4127 15.1553C10.8784 14.9395 11.3442 14.735 11.8099 14.5192C12.1621 14.3601 12.5256 14.1897 12.8777 14.0307C13.4003 13.7921 13.9115 13.5649 14.434 13.3264C14.7862 13.1674 15.1383 13.0083 15.5019 12.8379C15.7518 12.7243 16.013 12.6107 16.263 12.4971C16.2857 12.4858 16.3198 12.4744 16.3311 12.4517C16.3425 12.4517 16.3425 12.4631 16.3311 12.4744V19.6879C16.3311 19.7219 16.3198 19.756 16.3425 19.7787C16.3198 19.8128 16.297 19.7787 16.2857 19.7674C16.1834 19.7106 16.0812 19.6538 15.979 19.5856C13.7865 18.2906 11.5827 16.9842 9.39029 15.6892C9.37894 15.6779 9.35622 15.6665 9.3335 15.6551Z" fill="#333535"/>
<path d="M23.306 16.9956H23.3173C23.3173 17.0183 23.2946 17.041 23.2832 17.0637C21.193 20.0059 19.1028 22.9595 17.0126 25.9016C16.7968 26.2084 16.5696 26.5151 16.3538 26.8218C16.3424 26.8104 16.3424 26.7991 16.3424 26.7877V26.7195V21.2101V21.1078C16.8195 20.8238 17.2853 20.5512 17.7624 20.2672C19.6027 19.1767 21.4429 18.0975 23.2719 17.0069C23.2832 17.0183 23.2946 17.0069 23.306 16.9956Z" fill="#2F3030"/>
<path d="M16.3424 12.4744V12.4516V12.3835V4.13629C16.3424 4.10221 16.3311 4.07949 16.3538 4.04541C18.6598 7.87366 20.9659 11.6905 23.2605 15.5188C23.2832 15.5529 23.3173 15.5983 23.3287 15.6437C23.1696 15.5869 23.022 15.5074 22.8743 15.4393C22.6925 15.3597 22.4994 15.2689 22.3177 15.1894C22.2041 15.1326 22.0791 15.0871 21.9655 15.0303C21.7724 14.9394 21.5793 14.8599 21.3862 14.769C21.2726 14.7236 21.159 14.6668 21.0454 14.61L20.2956 14.2692C20.1707 14.2124 20.0457 14.1556 19.9094 14.0988L19.3641 13.8603C19.2505 13.8148 19.1369 13.758 19.0233 13.7012L18.2736 13.3604C18.1486 13.3036 18.0237 13.2468 17.8874 13.19L17.3421 12.9515C17.2171 12.8947 17.1035 12.8379 16.9786 12.7811C16.7627 12.6788 16.5469 12.5766 16.3197 12.4857C16.3538 12.4744 16.3424 12.4744 16.3424 12.4744Z" fill="#2F3030"/>
</svg>
