<svg width="32" height="32" viewBox="0 0 32 32" fill="none" xmlns="http://www.w3.org/2000/svg">
<path fill-rule="evenodd" clip-rule="evenodd" d="M1 16C1 24.2843 7.71573 31 16 31C24.2843 31 31 24.2843 31 16C31 7.71573 24.2843 1 16 1C7.71573 1 1 7.71573 1 16ZM16 0C7.16344 0 0 7.16344 0 16C0 24.8366 7.16344 32 16 32C24.8366 32 32 24.8366 32 16C32 7.16344 24.8366 0 16 0Z" fill="url(#paint0_angular_11653_72137)"/>
<g clip-path="url(#clip0_11653_72137)">
<circle cx="15.9993" cy="15.9993" r="11.5862" fill="#EDEFF0"/>
<path d="M16.2561 7.33425V7.34247C16.2644 7.3836 16.2644 7.43296 16.2644 7.48232V13.4133C16.2561 13.4462 16.2315 13.4544 16.2068 13.4709C16.034 13.5531 15.8695 13.6272 15.6968 13.7012C15.4582 13.8081 15.2114 13.9233 14.9729 14.0303L14.1091 14.4251C13.8706 14.532 13.632 14.639 13.4017 14.7459C13.122 14.8775 12.8341 15.0009 12.5544 15.1325C12.3159 15.2395 12.0773 15.3546 11.8305 15.4616C11.6331 15.5521 11.4357 15.6343 11.2465 15.7248C11.23 15.733 11.2136 15.7413 11.1971 15.7413C11.1889 15.7413 11.1889 15.7413 11.1807 15.733L11.4028 15.3629C11.8305 14.6554 12.25 13.9562 12.6778 13.2488C13.1302 12.492 13.5909 11.7352 14.0433 10.9784C14.4629 10.2792 14.8906 9.57996 15.3101 8.88075C15.6145 8.37073 15.9271 7.86072 16.2315 7.3507C16.2397 7.33425 16.2479 7.32602 16.2479 7.30957H16.2561C16.2479 7.3178 16.2561 7.32602 16.2561 7.33425Z" fill="#838385"/>
<path d="M21.3065 15.7331L21.3147 15.7413L20.1055 16.457L16.3051 18.7027C16.2886 18.7109 16.2722 18.7191 16.2639 18.7274C16.2393 18.7274 16.2393 18.7027 16.2393 18.6945V18.6204V13.5367C16.2393 13.5121 16.2393 13.4792 16.2475 13.4545C16.2557 13.4216 16.2804 13.4298 16.3051 13.438C16.412 13.4874 16.5272 13.5367 16.6341 13.5861C16.9549 13.7342 17.2757 13.8822 17.5966 14.0221C17.8762 14.1455 18.1477 14.2771 18.4274 14.4005C18.7071 14.5239 18.9868 14.6555 19.2664 14.7789C19.505 14.8858 19.7518 15.001 19.9903 15.1079C20.2289 15.2148 20.4757 15.33 20.7142 15.437C20.9034 15.5192 21.0926 15.6097 21.2818 15.692C21.2818 15.7166 21.2901 15.7249 21.3065 15.7331Z" fill="#131313"/>
<path d="M16.2556 23.8353C16.2556 23.8435 16.2474 23.8517 16.2474 23.8599H16.2392C16.2392 23.8435 16.2227 23.8353 16.2145 23.8188C15.7045 23.1031 15.1945 22.3792 14.6845 21.6636C14.1662 20.9315 13.6398 20.1911 13.1215 19.459C12.6197 18.7516 12.1097 18.0359 11.6079 17.3285C11.4763 17.1393 11.3447 16.9583 11.2131 16.7691C11.2049 16.7526 11.1966 16.7444 11.1802 16.7197C11.2049 16.7197 11.2213 16.7362 11.2295 16.7444C11.9452 17.1639 12.6526 17.5835 13.3683 18.003C14.1909 18.4883 15.0053 18.9737 15.8279 19.459L16.2474 19.7058C16.2639 19.7222 16.2639 19.7387 16.2639 19.7551V23.7201C16.2639 23.7612 16.2639 23.8024 16.2556 23.8353Z" fill="#838385"/>
<path d="M11.1719 15.7494V15.7412C11.4351 15.626 11.6901 15.5027 11.9533 15.3875C12.2906 15.2312 12.6279 15.0831 12.9652 14.9268C13.2202 14.8117 13.4834 14.6883 13.7384 14.5731C14.1168 14.4004 14.487 14.2358 14.8654 14.0631C15.1204 13.9479 15.3754 13.8328 15.6386 13.7094C15.8196 13.6271 16.0088 13.5449 16.1898 13.4626C16.2062 13.4544 16.2309 13.4461 16.2391 13.4297C16.2473 13.4297 16.2473 13.4379 16.2391 13.4461V18.6697C16.2391 18.6944 16.2309 18.719 16.2473 18.7355C16.2309 18.7602 16.2144 18.7355 16.2062 18.7273C16.1322 18.6861 16.0581 18.645 15.9841 18.5956C14.3965 17.6579 12.8006 16.7119 11.213 15.7741C11.2048 15.7659 11.1883 15.7577 11.1719 15.7494Z" fill="#333535"/>
<path d="M21.2896 16.7197H21.2979C21.2979 16.7362 21.2814 16.7526 21.2732 16.7691C19.7596 18.8996 18.246 21.0384 16.7324 23.1689C16.5761 23.3911 16.4116 23.6132 16.2553 23.8353C16.2471 23.827 16.2471 23.8188 16.2471 23.8106V23.7612V19.7716V19.6976C16.5926 19.4919 16.9298 19.2945 17.2753 19.0888C18.6079 18.2991 19.9406 17.5177 21.265 16.728C21.2732 16.7362 21.2814 16.728 21.2896 16.7197Z" fill="#2F3030"/>
<path d="M16.2474 13.4465V13.43V13.3807V7.40858C16.2474 7.3839 16.2392 7.36745 16.2556 7.34277C17.9255 10.115 19.5954 12.8789 21.2571 15.6511C21.2735 15.6758 21.2982 15.7087 21.3064 15.7416C21.1913 15.7004 21.0843 15.6429 20.9774 15.5935C20.8458 15.5359 20.7059 15.4701 20.5743 15.4125C20.492 15.3714 20.4016 15.3385 20.3193 15.2974C20.1795 15.2316 20.0396 15.174 19.8998 15.1082C19.8175 15.0753 19.7353 15.0341 19.653 14.993L19.1101 14.7462C19.0196 14.7051 18.9291 14.664 18.8304 14.6228L18.4355 14.4501C18.3533 14.4172 18.271 14.376 18.1888 14.3349L17.6458 14.0881C17.5554 14.047 17.4649 14.0059 17.3662 13.9647L16.9713 13.792C16.8808 13.7509 16.7986 13.7097 16.7081 13.6686C16.5518 13.5946 16.3955 13.5205 16.231 13.4547C16.2556 13.4465 16.2474 13.4465 16.2474 13.4465Z" fill="#2F3030"/>
</g>
<defs>
<radialGradient id="paint0_angular_11653_72137" cx="0" cy="0" r="1" gradientUnits="userSpaceOnUse" gradientTransform="translate(16 16) rotate(90) scale(16)">
<stop offset="0.385417" stop-color="#15D6E8"/>
<stop offset="0.718753" stop-color="#ADB6FF"/>
<stop offset="1" stop-color="#FF9FAE"/>
</radialGradient>
<clipPath id="clip0_11653_72137">
<rect width="23.1724" height="23.1724" fill="white" transform="translate(4.41309 4.41309)"/>
</clipPath>
</defs>
</svg>
