<svg width="32" height="32" viewBox="0 0 32 32" fill="none" xmlns="http://www.w3.org/2000/svg">
<path fill-rule="evenodd" clip-rule="evenodd" d="M1 16C1 24.2843 7.71573 31 16 31C24.2843 31 31 24.2843 31 16C31 7.71573 24.2843 1 16 1C7.71573 1 1 7.71573 1 16ZM16 0C7.16344 0 0 7.16344 0 16C0 24.8366 7.16344 32 16 32C24.8366 32 32 24.8366 32 16C32 7.16344 24.8366 0 16 0Z" fill="url(#paint0_angular_11652_72103)"/>
<g clip-path="url(#clip0_11652_72103)">
<mask id="mask0_11652_72103" style="mask-type:alpha" maskUnits="userSpaceOnUse" x="4" y="4" width="24" height="24">
<path fill-rule="evenodd" clip-rule="evenodd" d="M4.41309 4.41309H27.5855V27.5855H4.41309V4.41309Z" fill="white"/>
</mask>
<g mask="url(#mask0_11652_72103)">
<path fill-rule="evenodd" clip-rule="evenodd" d="M15.9993 27.585C9.62688 27.585 4.41309 22.3712 4.41309 15.9409C4.47102 9.56845 9.62688 4.35466 16.0572 4.41259C22.4296 4.47052 27.5855 9.62638 27.5855 16.1147C27.5276 22.4291 22.3717 27.585 15.9993 27.585Z" fill="#0090FF"/>
<path fill-rule="evenodd" clip-rule="evenodd" d="M17.1001 14.6088L16.7525 16.4626L20.0545 16.926L19.8228 17.795L16.5787 17.3315C16.347 18.0846 16.2311 18.8957 15.9414 19.5908C15.6518 20.4019 15.3621 21.2129 15.0145 21.966C14.5511 22.9508 13.7401 23.646 12.6394 23.8198C12.0021 23.9357 11.307 23.8777 10.7856 23.4722C10.6118 23.3564 10.438 23.1246 10.438 22.9508C10.438 22.7191 10.5539 22.4295 10.7276 22.3136C10.8435 22.2557 11.1332 22.3136 11.307 22.3715C11.4807 22.5453 11.6545 22.7771 11.7704 23.0088C12.118 23.4722 12.5814 23.5302 13.0449 23.1826C13.5663 22.7191 13.8559 22.0819 14.0297 21.4446C14.3773 20.0543 14.7249 18.7219 15.0145 17.3315V17.0998L11.9442 16.6364L12.0601 15.7674L15.2463 16.2308L15.6518 14.435L12.3497 13.9136L12.4656 12.9867L15.8835 13.4502C15.9994 13.1026 16.0573 12.8129 16.1732 12.5233C16.4628 11.4805 16.7525 10.4377 17.4476 9.51085C18.1428 8.58395 18.9539 8.00464 20.1704 8.06257C20.6918 8.06257 21.2132 8.23636 21.5607 8.64188C21.6187 8.69981 21.7345 8.81567 21.7345 8.93154C21.7345 9.16326 21.7345 9.45292 21.5607 9.62671C21.329 9.8005 21.0394 9.74257 20.8076 9.51085C20.6339 9.33705 20.518 9.16326 20.3442 8.98947C19.9966 8.52602 19.4752 8.46809 19.0697 8.87361C18.7801 9.16326 18.4904 9.56878 18.3166 9.9743C17.9111 11.1908 17.6214 12.4653 17.2159 13.7398L20.4021 14.2033L20.1704 15.0722L17.1001 14.6088" fill="white"/>
</g>
</g>
<defs>
<radialGradient id="paint0_angular_11652_72103" cx="0" cy="0" r="1" gradientUnits="userSpaceOnUse" gradientTransform="translate(16 16) rotate(90) scale(16)">
<stop offset="0.385417" stop-color="#15D6E8"/>
<stop offset="0.718753" stop-color="#ADB6FF"/>
<stop offset="1" stop-color="#FF9FAE"/>
</radialGradient>
<clipPath id="clip0_11652_72103">
<rect width="23.1724" height="23.1724" fill="white" transform="translate(4.41309 4.41309)"/>
</clipPath>
</defs>
</svg>
