<?xml version="1.0" encoding="UTF-8"?><svg id="Layer_1" xmlns="http://www.w3.org/2000/svg" viewBox="0 0 100 100"><defs><style>.cls-1{fill:#6226ff;fill-rule:evenodd;}.cls-1,.cls-2{stroke-width:0px;}.cls-2{fill:#fff;}</style></defs><path class="cls-1" d="M39.34,0h21.33c27.25,0,39.33,12.09,39.33,39.33v21.34c0,27.25-12.09,39.33-39.33,39.33h-21.33C12.09,100,0,87.91,0,60.67v-21.34C0,12.09,12.09,0,39.34,0"/><rect class="cls-2" x="45.94" y="59.13" width="32.48" height="6.09" rx="1.01" ry="1.01"/><rect class="cls-2" x="21.58" y="22.6" width="56.83" height="6.09" rx="1.01" ry="1.01"/><path class="cls-2" d="M27.67,35.79c0-.56-.45-1.01-1.01-1.01h-4.06c-.56,0-1.01.45-1.01,1.01v40.6c0,.56.45,1.01,1.01,1.01h54.8c.56,0,1.01-.45,1.01-1.01v-4.06c0-.56-.45-1.01-1.01-1.01H28.69c-.56,0-1.01-.45-1.01-1.01v-34.51Z"/><path class="cls-2" d="M33.76,35.79c0-.56.45-1.01,1.01-1.01h42.63c.56,0,1.01.45,1.01,1.01v4.06c0,.56-.45,1.01-1.01,1.01h-34.51c-1.68,0-3.04,1.36-3.04,3.04h0c0,1.68,1.36,3.04,3.04,3.04h34.51c.56,0,1.01.45,1.01,1.01v4.06c0,.56-.45,1.01-1.01,1.01h-35.52c-1.12,0-2.03.91-2.03,2.03v9.13c0,.56-.45,1.01-1.01,1.01h-4.06c-.56,0-1.01-.45-1.01-1.01v-28.42Z"/></svg>