<?xml version="1.0" encoding="UTF-8"?>
<svg id="_图层_1" data-name="图层_1" xmlns="http://www.w3.org/2000/svg" viewBox="0 0 1000 1000">
  <defs>
    <style>
      .cls-1 {
        fill: #fff;
      }

      .cls-2 {
        fill: #000ad2;
      }
    </style>
  </defs>
  <circle class="cls-2" cx="500" cy="500" r="500"/>
  <g>
    <path class="cls-1" d="M819.17,592.22l-194.3-336.53c-24.23-41.97-84.8-41.97-109.03,0l-40.42,70.01c-23.66,40.97-23.66,91.45,0,132.43l54.3,94.05c34.5,59.76-8.63,134.47-77.64,134.47h312.56c48.46,0,78.74-52.46,54.52-94.42Z"/>
    <path class="cls-1" d="M497.23,597.24l-106.81-184.99c-22.94-39.74-80.3-39.74-103.24,0l-106.81,184.99c-22.94,39.74,5.74,89.41,51.62,89.41h213.61c45.88,0,74.56-49.67,51.62-89.41Z"/>
  </g>
</svg>