<svg width="200" height="200" viewBox="0 0 200 200" fill="none" xmlns="http://www.w3.org/2000/svg">
<path d="M100 195C152.467 195 195 152.467 195 100C195 47.5331 152.467 5 100 5C47.5331 5 5 47.5331 5 100C5 152.467 47.5331 195 100 195Z" fill="white"/>
<path fill-rule="evenodd" clip-rule="evenodd" d="M67.2699 38.69L67.0694 38.8437C60.0655 44.2117 36.2508 62.464 36.2508 100C36.2508 137.536 60.0655 155.788 67.0694 161.156L67.2699 161.31C68.182 162.009 68.7816 162.469 68.9674 162.706C69.0579 162.89 68.9376 162.958 68.8769 162.982C67.5194 163.535 21 151.312 21 100C21 48.6884 67.5194 36.4649 68.8769 37.0177C68.9376 37.0424 69.0579 37.1098 68.9674 37.294C68.7816 37.5306 68.182 37.9905 67.27 38.69L67.2699 38.69L67.2699 38.69ZM81.8761 56.6001H65.0953C63.8829 56.6001 62.9004 57.5858 62.9004 58.8011C62.9004 59.1651 62.9901 59.5238 63.1624 59.8443L80.8517 92.8033C80.9735 93.0302 80.8883 93.3139 80.6617 93.4357C80.5942 93.4725 80.5183 93.492 80.4416 93.492H67.2451C66.0327 93.492 65.0501 94.477 65.0501 95.6929V107.276C65.0501 108.492 66.0327 109.477 67.2451 109.477H87.6572C87.9147 109.477 88.1229 109.686 88.1229 109.943V116.958C88.1229 117.215 87.9147 117.425 87.6572 117.425H67.2451C66.0327 117.425 65.0501 118.41 65.0501 119.626V130.161C65.0501 131.377 66.0327 132.362 67.2451 132.362H87.6572C87.9147 132.362 88.1229 132.571 88.1229 132.828V148.399C88.1229 149.614 89.1061 150.6 90.3186 150.6H108.714C109.926 150.6 110.909 149.614 110.909 148.399V132.828C110.909 132.571 111.118 132.362 111.375 132.362H132.241C133.453 132.362 134.436 131.377 134.436 130.161V119.626C134.436 118.41 133.454 117.425 132.241 117.425H111.375C111.117 117.425 110.909 117.215 110.909 116.958V109.943C110.909 109.686 111.118 109.477 111.375 109.477H132.241C133.453 109.477 134.436 108.492 134.436 107.276V95.6929C134.436 94.477 133.454 93.492 132.241 93.492H119.146C118.889 93.492 118.681 93.2825 118.681 93.0255C118.681 92.9466 118.7 92.8689 118.738 92.8L136.828 59.8637C137.413 58.7991 137.025 57.4607 135.964 56.8745C135.639 56.6951 135.275 56.6014 134.905 56.6014H117.688C116.882 56.6014 116.14 57.0444 115.757 57.7558L100.215 86.5631C100.093 86.79 99.8097 86.8743 99.5844 86.7518C99.5051 86.709 99.4396 86.6434 99.3964 86.5638L83.8058 57.7518C83.4219 57.0418 82.6818 56.6001 81.8761 56.6001ZM132.931 38.8437C132.862 38.7913 132.795 38.74 132.73 38.69C131.818 37.9905 131.218 37.5306 131.033 37.294C130.942 37.1098 131.062 37.0424 131.123 37.0177C132.481 36.4649 179 48.6884 179 100C179 151.312 132.481 163.535 131.123 162.982C131.062 162.958 130.942 162.89 131.033 162.706C131.218 162.469 131.818 162.01 132.73 161.31L132.73 161.31C132.795 161.26 132.862 161.209 132.931 161.156C139.935 155.788 163.749 137.536 163.749 100C163.749 62.464 139.934 44.2117 132.931 38.8437Z" fill="#16449A"/>
</svg>
