<?xml version="1.0" encoding="UTF-8"?>
<svg id="_图层_1" data-name="图层_1" xmlns="http://www.w3.org/2000/svg" xmlns:xlink="http://www.w3.org/1999/xlink" viewBox="0 0 1000 1000">
  <defs>
    <style>
      .cls-1 {
        fill: none;
      }

      .cls-2 {
        fill: #f2f2f2;
      }

      .cls-3 {
        fill: #1a1311;
      }

      .cls-4 {
        clip-path: url(#clippath);
      }
    </style>
    <clipPath id="clippath">
      <circle class="cls-1" cx="500" cy="500" r="500"/>
    </clipPath>
  </defs>
  <g id="_组_23318" data-name="组_23318">
    <circle id="_椭圆_1166" data-name="椭圆_1166" class="cls-2" cx="500" cy="500" r="500"/>
    <g class="cls-4">
      <g id="_蒙版组_399" data-name="蒙版组_399">
        <path id="_路径_39914" data-name="路径_39914" class="cls-3" d="M714.33,401.53l-14.97-46.88-12.36,10.41,13.02,42.95-39.06-21.47-13.02,10.41,43.61,23.44-46.22,37.09-12.36-16.27,16.27-13.02-12.36-14.97-16.27,13.02-12.36-15.63,16.27-13.02-12.36-15.63-84.64,69.7,80.7,65.08,14.31-18.22c10.3,1.23,18.94,8.35,22.13,18.22l-14.31,17.58,8.45,7.16c19.87-18.4,45.82-28.82,72.89-29.28,55.69-.02,100.86,45.11,100.88,100.8,0,.46,0,.91,0,1.37-.03,19.24-5.2,38.12-14.97,54.69l14.97,11.72c-1.78,11.98-10.04,22-21.47,26.03l-14.31-11.7c-19.89,18.78-46.2,29.25-73.55,29.28-55.38.33-100.55-44.29-100.88-99.68,0-.63,0-1.26,0-1.88.43-18.89,5.33-37.41,14.31-54.03l-8.45-7.16-14.31,18.88c-10.57-1.12-19.37-8.61-22.14-18.88l14.33-17.56-68.34-55.97v89.16l22.78.66c3.42,3.73,5.28,8.62,5.2,13.67-.52,5.04-2.07,9.92-4.56,14.33h-23.44v11.06c50.94,7.35,89.32,50.12,91.12,101.56-1.31,51.88-39.78,95.29-91.13,102.83v18.22c-4.99,2.79-10.57,4.35-16.28,4.56-6.54-.2-12.97-1.75-18.88-4.56v-18.25c-50.94-7.73-88.73-51.31-89.16-102.83.76-51.02,38.62-93.85,89.16-100.87v-11.72h-23.44c-5.2-8.84-5.2-19.8,0-28.64h23.44v-89.83l-68.25,56.64,14.97,17.56c-3.24,10.21-12.14,17.59-22.78,18.87l-14.33-18.88-9.11,7.16c9.57,16.39,14.51,35.06,14.31,54.03.99,55.07-42.85,100.52-97.92,101.52-.78.01-1.55.02-2.33.01-27.16-.04-53.26-10.52-72.89-29.28l-14.97,11.7c-11.14-4.44-19.25-14.24-21.52-26.02l14.31-11.72c-9.28-16.74-14.2-35.55-14.31-54.69-.81-55.61,43.61-101.35,99.22-102.16.34,0,.67,0,1.01,0,27.34.08,53.63,10.55,73.55,29.28l8.45-6.52-14.31-18.22c3.5-9.88,12.29-16.94,22.7-18.22l14.31,18.22,80.7-65.08-84.61-69.64-12.36,15.62,16.27,13.02-12.36,15.63-16.27-13.02-12.36,14.97,15.62,13.02-12.36,16.27-45.5-37.09,42.95-23.44-12.36-10.41-39.72,21.48,13.03-42.97-12.37-10.47-14.31,46.88-46.22-37.05,12.36-14.97,16.27,13.02,13.02-14.97-16.91-14.31,12.36-14.97,16.92,13.02,11.72-14.97-35.8-27.98c3.42-11.87,11.36-21.93,22.12-28l190.05,154.91v-103.48h-18.88v20.17h-19.53v-20.17h-19.53v20.17h-20.16v-58.53l45.56,18.88v-16.31l-42.31-17.58,42.31-16.23v-15.63l-45.56,17.55v-59.22h20.19v21.47h19.53v-21.47h19.53v21.47h18.88v-46.88c5.85-2.07,12-3.16,18.2-3.23,5.78.14,11.5,1.23,16.92,3.25v255.78l190.63-154.91c10.45,6.45,18.31,16.36,22.2,28l-36.44,27.98,12.36,14.97,16.27-13.02,12.36,14.97-16.27,14.31,12.36,14.97,16.27-13.02,12.36,14.97-45.52,37.05ZM338.11,608.55c-15.46.01-27.99,12.56-27.97,28.03.01,14.94,11.75,27.24,26.68,27.94l-24.05,18.89c-17.63-7.71-29.62-24.45-31.25-43.62.11-4.46,1-8.86,2.61-13.02-1.95,0-3.25.66-4.56.66-22.66-2.14-41.08-19.22-44.92-41.66l24.73-19.53c-.54,2.35-.76,4.76-.66,7.17.8,14.28,12.39,25.58,26.69,26.03,15.1-.27,27.37-12.26,27.98-27.34.13-16.06-12.78-29.19-28.83-29.32-.59,0-1.17,0-1.76.04-38.74,3.06-68.25,36.01-67.03,74.86.1,12,2.99,23.81,8.45,34.5l14.97-11.72c10.77,5.27,18.63,15.06,21.47,26.7l-14.97,11.72c14.13,12.07,32.19,18.55,50.77,18.22,38.41,0,69.64-31.25,69.64-58.58.73-15.79-11.48-29.19-27.28-29.91-.24-.01-.47-.02-.71-.02M539.88,667.8c-14.7.8-26.01,13.28-25.38,27.98.01,14.84,11.85,26.96,26.69,27.33,8.56,0,16.68-3.82,22.14-10.41v31.25c-7.22,3.84-15.26,5.85-23.44,5.86-15.51,1.4-30.52-5.86-39.06-18.88-8.91,12.94-24.05,20.14-39.7,18.88-8.17,0-16.22-2.02-23.44-5.86v-31.25c5.11,6.67,13.07,10.53,21.47,10.41,14.95.14,27.19-11.87,27.33-26.83,0-.17,0-.33,0-.5,1.07-14.35-9.68-26.84-24.03-27.92-.45-.03-.9-.06-1.35-.07-28.64,0-40.34,27.33-40.34,52.06.51,36.1,26.36,66.84,61.83,73.55v-18.91c5.56-2.33,11.55-3.44,17.58-3.25,6.03-.25,12.04.86,17.58,3.25v18.88c34.95-7.58,60.37-37.81,61.83-73.55,0-25.38-9.77-52.06-39.7-52.06M718.2,542.77c-16.74-1.2-31.29,11.4-32.49,28.14-.03.38-.05.76-.06,1.14,1.21,15.33,13.92,27.19,29.3,27.34,14.28-.45,25.86-11.72,26.69-25.98,0-2.61-.66-4.56-.66-7.17l24.08,19.53c-3.67,23.98-24.56,41.52-48.81,40.98,1.38,4.2,2.04,8.6,1.95,13.02-1.64,19.36-13.94,36.19-31.89,43.63l-24.09-18.88c15.41-.12,27.87-12.59,27.98-28-.18-15.66-13.03-28.21-28.69-28.03s-28.21,13.03-28.03,28.69c0,.65.04,1.3.09,1.95,5.26,34.4,35.54,59.35,70.31,57.92,18.38.33,36.23-6.16,50.11-18.22l-14.97-11.72c2.82-11.46,10.4-21.17,20.83-26.69l15.63,11.72c5.46-10.69,8.36-22.5,8.45-34.5,0-32.55-25.39-74.86-65.73-74.86"/>
      </g>
    </g>
  </g>
</svg>