<svg width="32" height="32" viewBox="0 0 32 32" fill="none" xmlns="http://www.w3.org/2000/svg">
<path fill-rule="evenodd" clip-rule="evenodd" d="M1 16C1 24.2843 7.71573 31 16 31C24.2843 31 31 24.2843 31 16C31 7.71573 24.2843 1 16 1C7.71573 1 1 7.71573 1 16ZM16 0C7.16344 0 0 7.16344 0 16C0 24.8366 7.16344 32 16 32C24.8366 32 32 24.8366 32 16C32 7.16344 24.8366 0 16 0Z" fill="url(#paint0_angular_11652_72111)"/>
<g clip-path="url(#clip0_11652_72111)">
<path d="M15.9993 27.5855C22.3982 27.5855 27.5855 22.3982 27.5855 15.9993C27.5855 9.60041 22.3982 4.41309 15.9993 4.41309C9.60041 4.41309 4.41309 9.60041 4.41309 15.9993C4.41309 22.3982 9.60041 27.5855 15.9993 27.5855Z" fill="#2775CA"/>
<path d="M19.1857 17.8338C19.1857 16.1442 18.1719 15.5648 16.1443 15.3235C14.6961 15.1304 14.4064 14.7442 14.4064 14.0683C14.4064 13.3923 14.8892 12.9579 15.8547 12.9579C16.7237 12.9579 17.2065 13.2476 17.4478 13.9717C17.4961 14.1166 17.6409 14.2131 17.7858 14.2131H18.5581C18.7512 14.2131 18.8961 14.0683 18.8961 13.8752V13.8269C18.7029 12.7648 17.834 11.9442 16.7237 11.8476V10.689C16.7237 10.4959 16.5788 10.351 16.3375 10.3027H15.6133C15.4202 10.3027 15.2754 10.4476 15.2271 10.689V11.7993C13.7788 11.9925 12.8616 12.9579 12.8616 14.1649C12.8616 15.758 13.8271 16.3855 15.8547 16.627C17.2065 16.8683 17.6409 17.1579 17.6409 17.9304C17.6409 18.7029 16.965 19.2338 16.0478 19.2338C14.7926 19.2338 14.3581 18.7027 14.2133 17.9786C14.1651 17.7856 14.0202 17.6889 13.8754 17.6889H13.0547C12.8616 17.6889 12.7168 17.8338 12.7168 18.0269V18.0752C12.9098 19.282 13.6823 20.151 15.2754 20.3925V21.5511C15.2754 21.7441 15.4202 21.8889 15.6615 21.9373H16.3857C16.5788 21.9373 16.7237 21.7924 16.772 21.5511V20.3925C18.2202 20.151 19.1857 19.1372 19.1857 17.8338V17.8338Z" fill="white"/>
<path d="M13.5373 22.9023C9.77177 21.5506 7.8407 17.3506 9.24078 13.6333C9.96491 11.6057 11.558 10.0609 13.5373 9.33678C13.7304 9.24027 13.8269 9.09544 13.8269 8.85398V8.17816C13.8269 7.98502 13.7304 7.84019 13.5373 7.79199C13.489 7.79199 13.3925 7.79199 13.3441 7.84019C8.75798 9.28847 6.2476 14.1644 7.69587 18.7506C8.56484 21.454 10.6407 23.5299 13.3441 24.3989C13.5373 24.4954 13.7304 24.3989 13.7786 24.2057C13.8269 24.1575 13.8269 24.1092 13.8269 24.0127V23.3367C13.8269 23.1919 13.6821 22.9989 13.5373 22.9023ZM18.6546 7.84019C18.4614 7.74368 18.2683 7.84019 18.2201 8.03333C18.1718 8.08165 18.1718 8.12985 18.1718 8.22647V8.9023C18.1718 9.09544 18.3166 9.28847 18.4614 9.3851C22.2269 10.7367 24.158 14.9367 22.7579 18.6541C22.0338 20.6816 20.4407 22.2264 18.4614 22.9506C18.2683 23.0471 18.1718 23.1919 18.1718 23.4334V24.1092C18.1718 24.3023 18.2683 24.4472 18.4614 24.4954C18.5097 24.4954 18.6063 24.4954 18.6546 24.4472C23.2407 22.9989 25.7511 18.123 24.3028 13.5368C23.4339 10.7851 21.3097 8.70916 18.6546 7.84019V7.84019Z" fill="white"/>
</g>
<defs>
<radialGradient id="paint0_angular_11652_72111" cx="0" cy="0" r="1" gradientUnits="userSpaceOnUse" gradientTransform="translate(16 16) rotate(90) scale(16)">
<stop offset="0.385417" stop-color="#15D6E8"/>
<stop offset="0.718753" stop-color="#ADB6FF"/>
<stop offset="1" stop-color="#FF9FAE"/>
</radialGradient>
<clipPath id="clip0_11652_72111">
<rect width="23.1724" height="23.1724" fill="white" transform="translate(4.41309 4.41309)"/>
</clipPath>
</defs>
</svg>
