<svg width="236" height="236" viewBox="0 0 236 236" fill="none" xmlns="http://www.w3.org/2000/svg">
<path d="M235.997 118.037C236.145 96.1315 230.966 76.3725 221.053 60.6096C200.857 24.4958 162.24 0.000488281 118 0.000488281C52.9722 0.000488281 0.0770633 52.9132 0.00308405 117.963C-0.144874 139.868 5.03368 159.627 14.9469 175.39C35.1432 211.503 73.7604 235.999 118 235.999C183.028 235.999 235.923 183.086 235.997 118.037Z" fill="#EAAC00"/>
<path d="M118.005 213.869C65.1394 213.869 22.1343 170.863 22.1343 117.997C22.1343 65.1312 65.1394 22.1255 118.005 22.1255C170.87 22.1255 213.875 65.1312 213.875 117.997C213.875 170.863 170.87 213.869 118.005 213.869ZM118.005 34.6722C72.0621 34.6722 34.6808 72.054 34.6808 117.997C34.6808 163.94 72.0621 201.322 118.005 201.322C163.947 201.322 201.328 163.94 201.328 117.997C201.328 72.054 163.947 34.6722 118.005 34.6722Z" fill="white"/>
<path d="M75.4358 190.303C73.827 190.303 72.1962 190.2 70.5506 189.993C57.8358 188.392 45.4827 180.458 36.6569 168.214C27.0415 154.87 22.0161 137.489 22.1268 117.96L34.6718 118.034C34.5242 144.581 47.5932 174.465 72.115 177.55C87.0288 179.417 98.8654 168.811 103.765 149.15L120.052 83.8111C123.313 70.7182 129.438 60.3118 137.748 53.7211C145.732 47.3961 155.303 44.7244 165.435 45.9939C178.15 47.5954 190.503 55.5294 199.329 67.7735C208.944 81.1173 213.97 98.4981 213.859 118.027L201.314 117.953C201.462 91.4056 188.393 61.5222 163.871 58.4372C148.957 56.5552 137.12 67.1756 132.22 86.8371L115.934 152.176C112.672 165.269 106.547 175.675 98.2382 182.266C91.5524 187.565 83.7524 190.296 75.4358 190.296V190.303Z" fill="white"/>
<path d="M92.3558 97.5237L91.5265 110.043L145.396 113.612L146.226 101.093L92.3558 97.5237Z" fill="white"/>
<path d="M90.6927 122.564L89.8635 135.083L143.733 138.652L144.563 126.133L90.6927 122.564Z" fill="white"/>
</svg>
