<svg width="32" height="32" viewBox="0 0 32 32" fill="none" xmlns="http://www.w3.org/2000/svg">
<g clip-path="url(#clip0_841_13787)">
<path d="M16 32C24.8366 32 32 24.8366 32 16C32 7.16344 24.8366 0 16 0C7.16344 0 0 7.16344 0 16C0 24.8366 7.16344 32 16 32Z" fill="#201A2D"/>
<path d="M22.8062 9.62418L22.2062 10.2242C23.6379 11.7898 24.4319 13.8346 24.4319 15.9562C24.4319 18.0778 23.6379 20.1225 22.2062 21.6882L22.8062 22.2882C24.3984 20.5611 25.2824 18.2982 25.2824 15.9492C25.2824 13.6002 24.3984 11.3372 22.8062 9.61018V9.62418V9.62418ZM10.1882 9.67618C11.7539 8.24448 13.7987 7.45053 15.9202 7.45053C18.0418 7.45053 20.0866 8.24448 21.6522 9.67618L22.2522 9.07618C20.5252 7.48398 18.2622 6.60001 15.9132 6.60001C13.5642 6.60001 11.3013 7.48398 9.57422 9.07618L10.1882 9.67618V9.67618ZM9.62622 21.6942C8.19622 20.1289 7.40332 18.0853 7.40332 15.9652C7.40332 13.845 8.19622 11.8015 9.62622 10.2362L9.02622 9.63618C7.43402 11.3632 6.55005 13.6262 6.55005 15.9752C6.55005 18.3242 7.43402 20.5871 9.02622 22.3142L9.62622 21.6942ZM21.6442 22.2482C20.0786 23.6799 18.0338 24.4738 15.9122 24.4738C13.7907 24.4738 11.7459 23.6799 10.1802 22.2482L9.58022 22.8482C11.3073 24.4404 13.5702 25.3244 15.9192 25.3244C18.2682 25.3244 20.5312 24.4404 22.2582 22.8482L21.6442 22.2482ZM19.7022 13.9622C19.5822 12.7102 18.5022 12.2902 17.1362 12.1622V10.4382H16.0802V12.1302H15.2362V10.4382H14.1882V12.1742H12.0462V13.3042C12.0462 13.3042 12.8262 13.2902 12.8142 13.3042C12.9549 13.2887 13.096 13.3284 13.2079 13.415C13.3199 13.5015 13.3938 13.6282 13.4142 13.7682V18.5202C13.4112 18.5696 13.3983 18.6178 13.3764 18.6621C13.3544 18.7065 13.3237 18.7459 13.2862 18.7782C13.2494 18.8111 13.2064 18.8362 13.1596 18.852C13.1129 18.8678 13.0634 18.874 13.0142 18.8702C13.0282 18.8822 12.2462 18.8702 12.2462 18.8702L12.0462 20.1322H14.1682V21.8962H15.2242V20.1582H16.0682V21.8882H17.1262V20.1442C18.9102 20.0362 20.1542 19.5962 20.3102 17.9262C20.4362 16.5822 19.8042 15.9822 18.7942 15.7402C19.4082 15.4382 19.7882 14.8782 19.7022 13.9622V13.9622ZM18.2222 17.7182C18.2222 19.0302 15.9742 18.8802 15.2582 18.8802V16.5522C15.9742 16.5542 18.2222 16.3482 18.2222 17.7182ZM17.7322 14.4382C17.7322 15.6382 15.8562 15.4922 15.2602 15.4922V13.3762C15.8562 13.3762 17.7322 13.1882 17.7322 14.4382Z" fill="white"/>
<path d="M15.924 26.852C9.89 26.851 5 21.959 5 15.925C5 9.892 9.892 5 15.925 5C21.959 5 26.851 9.89 26.852 15.924C26.8523 17.3592 26.5698 18.7803 26.0207 20.1063C25.4716 21.4322 24.6667 22.637 23.6518 23.6518C22.637 24.6667 21.4322 25.4716 20.1063 26.0207C18.7803 26.5698 17.3592 26.8523 15.924 26.852V26.852ZM15.924 5.852C10.365 5.856 5.862 10.365 5.864 15.924C5.866 21.483 10.374 25.988 15.932 25.988C21.491 25.988 25.998 21.483 26 15.924C26.0005 14.6008 25.7402 13.2906 25.234 12.0681C24.7278 10.8456 23.9855 9.73486 23.0497 8.79943C22.1139 7.864 21.0029 7.12221 19.7802 6.61647C18.5575 6.11072 17.2472 5.85095 15.924 5.852V5.852Z" fill="white"/>
</g>
<defs>
<clipPath id="clip0_841_13787">
<rect width="32" height="32" fill="white"/>
</clipPath>
</defs>
</svg>
