<svg width="16" height="16" viewBox="0 0 16 16" fill="none" xmlns="http://www.w3.org/2000/svg">
<circle cx="8" cy="8" r="8" fill="#FBFAFC"/>
<path d="M13.0463 3.35791L12.6069 3.79723C13.6552 4.9436 14.2366 6.44078 14.2366 7.99419C14.2366 9.5476 13.6552 11.0448 12.6069 12.1911L13.0463 12.6305C14.2121 11.3659 14.8593 9.70899 14.8593 7.98906C14.8593 6.26913 14.2121 4.61219 13.0463 3.34766V3.35791Z" fill="#5A5564"/>
<path d="M3.80748 3.39592C4.95386 2.34764 6.45103 1.76631 8.00444 1.76631C9.55785 1.76631 11.055 2.34764 12.2014 3.39592L12.6407 2.95661C11.3762 1.7908 9.71924 1.14355 7.99932 1.14355C6.27939 1.14355 4.62244 1.7908 3.35791 2.95661L3.80748 3.39592Z" fill="#5A5564"/>
<path d="M3.39592 12.1955C2.34888 11.0494 1.76831 9.55317 1.76831 8.00078C1.76831 6.4484 2.34888 4.95214 3.39592 3.80602L2.95661 3.3667C1.7908 4.63123 1.14355 6.28818 1.14355 8.00811C1.14355 9.72803 1.7908 11.385 2.95661 12.6495L3.39592 12.1955Z" fill="#5A5564"/>
<path d="M12.1955 12.6011C11.0492 13.6494 9.552 14.2307 7.99859 14.2307C6.44517 14.2307 4.948 13.6494 3.80162 12.6011L3.3623 13.0404C4.62684 14.2062 6.28378 14.8534 8.00371 14.8534C9.72364 14.8534 11.3806 14.2062 12.6451 13.0404L12.1955 12.6011Z" fill="#5A5564"/>
<path d="M10.7736 6.53412C10.6857 5.61741 9.89492 5.30989 8.89474 5.21617V3.95386H8.12153V5.19274C7.91798 5.19274 7.71004 5.19274 7.50356 5.19274V3.95386H6.73622V5.22495H5.16785V6.05234C5.16785 6.05234 5.73896 6.04209 5.73018 6.05234C5.83315 6.04101 5.9365 6.0701 6.01846 6.13347C6.10041 6.19685 6.15456 6.28956 6.16949 6.39208V9.87149C6.16729 9.90764 6.15787 9.94298 6.14177 9.97543C6.12567 10.0079 6.10323 10.0368 6.07577 10.0604C6.04883 10.0845 6.0173 10.1028 5.98308 10.1144C5.94885 10.126 5.91264 10.1305 5.87661 10.1278C5.88687 10.1365 5.31429 10.1278 5.31429 10.1278L5.16785 11.0518H6.72157V12.3434H7.49477V11.0708H8.11275V12.3375H8.88741V11.0606C10.1937 10.9815 11.1045 10.6593 11.2187 9.43656C11.311 8.45248 10.8482 8.01316 10.1087 7.83597C10.5583 7.61485 10.8365 7.20482 10.7736 6.53412ZM9.6899 9.28426C9.6899 10.2449 8.04392 10.1351 7.51967 10.1351V8.43052C8.04392 8.43198 9.6899 8.28115 9.6899 9.28426ZM9.33113 6.88265C9.33113 7.76129 7.95752 7.65439 7.52113 7.65439V6.10506C7.95752 6.10506 9.33113 5.9674 9.33113 6.88265Z" fill="#F09242"/>
<path d="M7.99854 16C6.41641 15.9997 4.8699 15.5303 3.55453 14.6512C2.23916 13.772 1.21401 12.5225 0.608687 11.0608C0.00336759 9.59905 -0.154936 7.99063 0.153793 6.43892C0.462521 4.88721 1.22442 3.46188 2.34315 2.34315C3.46188 1.22442 4.88721 0.462521 6.43892 0.153793C7.99063 -0.154936 9.59905 0.00336759 11.0608 0.608687C12.5225 1.21401 13.772 2.23916 14.6512 3.55453C15.5303 4.8699 15.9997 6.41641 16 7.99854C16.0002 9.04936 15.7934 10.0899 15.3913 11.0608C14.9893 12.0317 14.3999 12.9138 13.6569 13.6569C12.9138 14.3999 12.0317 14.9893 11.0608 15.3913C10.0899 15.7934 9.04936 16.0002 7.99854 16ZM7.99854 0.623837C6.54091 0.624995 5.11635 1.05825 3.9049 1.86885C2.69345 2.67944 1.74951 3.83099 1.19237 5.17793C0.635226 6.52488 0.489905 8.00676 0.77477 9.43628C1.05964 10.8658 1.7619 12.1788 2.7928 13.2093C3.8237 14.2398 5.13696 14.9415 6.56659 15.2258C7.99622 15.5101 9.47805 15.3642 10.8248 14.8065C12.1715 14.2488 13.3227 13.3044 14.1328 12.0927C14.9429 10.8809 15.3756 9.45616 15.3762 7.99854C15.3766 7.02972 15.186 6.07033 14.8153 5.17523C14.4446 4.28013 13.9012 3.46686 13.216 2.78194C12.5308 2.09702 11.7173 1.55388 10.8221 1.18358C9.92682 0.813272 8.96735 0.623067 7.99854 0.623837Z" fill="#282138"/>
</svg>
