<svg width="72" height="72" viewBox="0 0 72 72" fill="white" xmlns="http://www.w3.org/2000/svg">
    <circle cx="36" cy="36" r="36" fill="white"/>
    <path fill-rule="evenodd" clip-rule="evenodd" d="M1.5 35.8283C1.50369 54.9816 17.0355 70.5015 36 70.5015C54.9715 70.5015 70.3238 55.1516 70.5 36.3547C70.4964 17.0192 55.1393 1.6739 36.1664 1.50142C17.0376 1.32909 1.67627 16.839 1.5 35.8283ZM72 36.3615C72 16.2015 55.98 0.181486 36.18 0.00148564C16.2 -0.178514 0.18 16.0215 0 35.8215C0 55.8015 16.2 72.0015 36 72.0015C55.8 72.0015 71.82 55.9815 72 36.3615Z" fill="#072146"/>
    <path fill-rule="evenodd" clip-rule="evenodd" d="M22.0883 7.8997C26.3182 5.72348 31.0835 4.5 36.1221 4.5C40.9393 4.5 45.5068 5.61828 49.5955 7.61844L48.8045 9.23534C44.955 7.35219 40.6573 6.3 36.1221 6.3C31.3787 6.3 26.8948 7.45108 22.9117 9.50029L22.0883 7.8997ZM52.9893 9.74461C56.5105 12.0253 59.5537 14.9645 61.9383 18.3853L60.4617 19.4147C58.2111 16.186 55.3373 13.41 52.0107 11.2554L52.9893 9.74461ZM9.44103 19.3163C11.7715 15.6595 14.8212 12.5069 18.3908 10.0579L19.4092 11.5421C16.0389 13.8544 13.1592 16.8312 10.959 20.2837L9.44103 19.3163ZM64.3158 22.3991C66.3571 26.5021 67.5 31.0954 67.5 35.943C67.5 40.9593 66.2761 45.7033 64.0995 49.9133L62.5005 49.0867C64.5492 45.124 65.7 40.6627 65.7 35.943C65.7 31.3819 64.6253 27.0623 62.7042 23.2009L64.3158 22.3991ZM4.5 35.8588C4.5 31.0493 5.61138 26.4888 7.59943 22.406L9.21777 23.194C7.34593 27.0382 6.3 31.3299 6.3 35.8588C6.3 40.6107 7.45147 45.1017 9.50047 49.0886L7.89953 49.9114C5.72364 45.6776 4.5 40.9054 4.5 35.8588ZM61.9389 53.6138C59.5599 57.0349 56.5155 59.9748 52.9888 62.2557L52.0112 60.7443C55.3429 58.5895 58.2169 55.8135 60.4611 52.5862L61.9389 53.6138ZM18.696 62.2457C15.2981 59.9491 12.3615 57.0116 10.0547 53.6046L11.5453 52.5954C13.7239 55.8133 16.4971 58.5868 19.704 60.7543L18.696 62.2457ZM35.9052 67.5C30.9616 67.5 26.281 66.391 22.1141 64.4131L22.8859 62.7869C26.8156 64.6523 31.2329 65.7 35.9052 65.7C40.535 65.7 44.9146 64.6712 48.8173 62.8376L49.5827 64.4667C45.4444 66.411 40.8039 67.5 35.9052 67.5Z" fill="#072146"/>
    <path fill-rule="evenodd" clip-rule="evenodd" d="M38.2342 34.8917L38.5385 33.0146L38.6853 32.2405L46.0419 33.5966C46.7771 33.7322 47.4837 33.2503 47.6202 32.5203C47.7566 31.7904 47.2713 31.0888 46.5362 30.9532L39.3003 29.6193C39.6816 28.3684 40.0283 27.1196 40.3723 25.8806C40.8639 24.1097 41.3499 22.359 41.9231 20.6516C42.3846 19.5823 43.1538 18.513 43.9231 17.7492C45 16.6799 46.3846 16.8327 47.3077 18.0547C47.5385 18.2839 47.7308 18.513 47.9231 18.7422C48.1154 18.9713 48.3077 19.2004 48.5385 19.4296C49.1538 20.0406 49.9231 20.1934 50.5385 19.7351C51 19.2768 51 18.513 51 17.902C51 17.5965 50.6923 17.2909 50.5385 17.1382C49.6154 16.0689 48.2308 15.6106 46.8462 15.6106C43.6154 15.4578 41.4615 16.9854 39.6154 19.4296C37.7692 21.8737 37 24.6234 36.2308 27.373C36.0515 27.818 35.9245 28.263 35.7888 28.7382C35.7679 28.8114 35.7468 28.8854 35.7252 28.9603L32.4293 28.3527C31.6942 28.2172 30.9876 28.6991 30.8511 29.429C30.7146 30.159 31.1999 30.8606 31.9351 30.9961L35.0463 31.5696L34.8462 32.4141L34.4417 34.1926L26.276 32.6873C25.5409 32.5518 24.8343 33.0337 24.6978 33.7636C24.5613 34.4936 25.0466 35.1952 25.7818 35.3307L33.8449 36.8171L33.7692 37.1496L33.1581 39.425L25.2871 37.9741C24.552 37.8385 23.8454 38.3204 23.7089 39.0504C23.5724 39.7803 24.0577 40.4819 24.7929 40.6174L32.7112 42.0772C32.1798 44.42 31.596 46.7226 31.0014 49.0677C30.8476 49.6745 30.693 50.2841 30.5385 50.898C30.0769 52.5783 29.3077 54.2587 27.9231 55.4807C26.6923 56.3973 25.4615 56.2445 24.5385 55.0225C24.2308 54.4114 23.7692 53.8004 23.3077 53.3421C22.8462 53.1894 22.0769 53.0366 21.7692 53.1894C21.3077 53.4949 21 54.2587 21 54.8697C21 55.328 21.4615 55.939 21.9231 56.2445C23.3077 57.3139 25.1538 57.4666 26.8462 57.1611C29.7692 56.7028 31.9231 54.8697 33.1538 52.2728C34.0769 50.2869 34.8462 48.1483 35.6154 46.0097C36.0374 45.004 36.3205 43.9064 36.5917 42.7925L39.0366 43.2432C39.7718 43.3788 40.4784 42.8969 40.6149 42.1669C40.7513 41.437 40.266 40.7354 39.5309 40.5998L37.2677 40.1826C37.2809 40.139 37.2942 40.0955 37.3077 40.0521L37.7692 37.7607L37.8039 37.5469L45.054 38.8835C45.7891 39.019 46.4957 38.5371 46.6322 37.8071C46.7687 37.0772 46.2834 36.3756 45.5482 36.2401L38.2342 34.8917ZM27.7486 27.4552C27.0135 27.3197 26.3069 27.8016 26.1704 28.5316C26.0339 29.2615 26.5192 29.9631 27.2543 30.0986C27.9894 30.2341 28.696 29.7522 28.8325 29.0223C28.969 28.2924 28.4837 27.5908 27.7486 27.4552ZM43.8697 44.1525C44.6048 44.288 45.3114 43.8061 45.4479 43.0762C45.5844 42.3462 45.0991 41.6446 44.364 41.5091C43.6288 41.3736 42.9223 41.8555 42.7858 42.5854C42.6493 43.3153 43.1346 44.017 43.8697 44.1525Z" fill="#072146"/>
</svg>
