<svg width="560" height="560" viewBox="0 0 560 560" fill="none" xmlns="http://www.w3.org/2000/svg">
<path d="M60 127.692C60 90.3069 90.3069 60 127.692 60H432.308C469.693 60 500 90.3069 500 127.692V432.308C500 469.693 469.693 500 432.308 500H127.692C90.3069 500 60 469.693 60 432.308V127.692Z" fill="#FFDB93"/>
<path d="M60 432.308C60 469.693 90.3069 500 127.692 500H166.363C220.769 457.692 249.587 397.968 275.12 333.031C300.653 268.094 313.889 196.959 313.846 124.909C313.815 103.197 312.59 81.5115 310.179 60H127.692C90.3069 60 60 90.3069 60 127.692V432.308Z" fill="#FFF2D8"/>
<path d="M115.325 93.8462C115.325 101.252 113.062 108.354 109.034 113.591C105.006 118.827 99.5429 121.769 93.8462 121.769V438.231C99.5429 438.231 105.006 441.173 109.034 446.409C113.062 451.646 115.325 458.748 115.325 466.154H444.675C444.675 458.748 446.938 451.646 450.966 446.409C454.994 441.173 460.457 438.231 466.154 438.231V121.769C460.457 121.769 454.994 118.827 450.966 113.591C446.938 108.354 444.675 101.252 444.675 93.8462H115.325Z" fill="#C58300"/>
<path d="M93.8462 121.769V438.231C99.7095 438.231 105.333 441.173 109.479 446.409C113.625 451.646 115.954 458.748 115.954 466.154H201.753C273.66 374.87 313.971 251.293 313.846 122.523C313.846 112.89 313.566 103.34 313.109 93.8462H115.954C115.954 101.252 113.625 108.354 109.479 113.591C105.333 118.827 99.7095 121.769 93.8462 121.769Z" fill="#F4B261"/>
<path d="M146.731 254.373V239.565C148.695 239.565 150.578 240.345 151.966 241.734C153.355 243.122 154.135 245.006 154.135 246.969H168.943C168.943 241.078 166.603 235.429 162.437 231.263C158.272 227.098 152.622 224.758 146.731 224.758V217.354H131.923V224.758C126.033 224.758 120.383 227.098 116.218 231.263C112.052 235.429 109.712 241.078 109.712 246.969C109.712 252.86 112.052 258.51 116.218 262.675C120.383 266.841 126.033 269.181 131.923 269.181V283.988C129.96 283.988 128.077 283.208 126.688 281.82C125.3 280.431 124.52 278.548 124.52 276.585H109.712C109.712 282.475 112.052 288.125 116.218 292.29C120.383 296.456 126.033 298.796 131.923 298.796V306.2H146.731V298.796C152.622 298.796 158.272 296.456 162.437 292.29C166.603 288.125 168.943 282.475 168.943 276.585C168.943 270.694 166.603 265.044 162.437 260.879C158.272 256.713 152.622 254.373 146.731 254.373ZM124.52 246.969C124.52 245.006 125.3 243.122 126.688 241.734C128.077 240.345 129.96 239.565 131.923 239.565V254.373C129.96 254.373 128.077 253.593 126.688 252.204C125.3 250.816 124.52 248.933 124.52 246.969ZM146.731 283.988V269.181C148.695 269.181 150.578 269.961 151.966 271.349C153.355 272.738 154.135 274.621 154.135 276.585C154.135 278.548 153.355 280.431 151.966 281.82C150.578 283.208 148.695 283.988 146.731 283.988Z" fill="#FFF2D8"/>
<path d="M428.076 254.373V239.565C430.04 239.565 431.923 240.345 433.312 241.734C434.7 243.122 435.48 245.006 435.48 246.969H450.288C450.278 241.081 447.935 235.437 443.771 231.274C439.608 227.111 433.964 224.767 428.076 224.758V217.354H413.269V224.758C407.378 224.758 401.728 227.098 397.563 231.263C393.397 235.429 391.057 241.078 391.057 246.969C391.057 252.86 393.397 258.51 397.563 262.675C401.728 266.841 407.378 269.181 413.269 269.181V283.988C411.305 283.988 409.422 283.208 408.033 281.82C406.645 280.431 405.865 278.548 405.865 276.585H391.057C391.057 282.475 393.397 288.125 397.563 292.29C401.728 296.456 407.378 298.796 413.269 298.796V306.2H428.076V298.796C433.967 298.796 439.617 296.456 443.782 292.29C447.948 288.125 450.288 282.475 450.288 276.585C450.288 270.694 447.948 265.044 443.782 260.879C439.617 256.713 433.967 254.373 428.076 254.373ZM413.269 254.373C411.305 254.373 409.422 253.593 408.033 252.204C406.645 250.816 405.865 248.933 405.865 246.969C405.865 245.006 406.645 243.122 408.033 241.734C409.422 240.345 411.305 239.565 413.269 239.565V254.373ZM428.076 283.988V269.181C430.04 269.181 431.923 269.961 433.312 271.349C434.7 272.738 435.48 274.621 435.48 276.585C435.48 278.548 434.7 280.431 433.312 281.82C431.923 283.208 430.04 283.988 428.076 283.988Z" fill="#FFDB93"/>
<path d="M109.702 333.224C109.702 329.544 112.685 326.56 116.366 326.56H162.262C165.942 326.56 168.926 329.544 168.926 333.224C168.926 336.904 165.942 339.887 162.262 339.887H116.366C112.685 339.887 109.702 336.904 109.702 333.224Z" fill="#FFF2D8"/>
<path d="M124.51 353.214C124.51 349.534 127.493 346.551 131.173 346.551H147.454C151.135 346.551 154.118 349.534 154.118 353.214C154.118 356.894 151.135 359.878 147.454 359.878H131.173C127.493 359.878 124.51 356.894 124.51 353.214Z" fill="#FFF2D8"/>
<path d="M391.041 333.224C391.041 329.544 394.024 326.56 397.704 326.56H443.601C447.281 326.56 450.264 329.544 450.264 333.224C450.264 336.904 447.281 339.887 443.601 339.887H397.704C394.024 339.887 391.041 336.904 391.041 333.224Z" fill="#FFDB93"/>
<path d="M405.849 353.214C405.849 349.534 408.832 346.551 412.512 346.551H428.793C432.473 346.551 435.456 349.534 435.456 353.214C435.456 356.894 432.473 359.878 428.793 359.878H412.512C408.832 359.878 405.849 356.894 405.849 353.214Z" fill="#FFDB93"/>
<path d="M242.981 469.327C242.981 448.882 259.555 432.308 280 432.308C300.445 432.308 317.019 448.882 317.019 469.327" stroke="#FFDB93" stroke-width="14.8077"/>
<path fill-rule="evenodd" clip-rule="evenodd" d="M281.58 131.438C280.596 130.876 279.388 130.876 278.405 131.438L256.005 144.238C254.47 145.115 253.937 147.07 254.814 148.604C255.404 149.637 256.482 150.216 257.592 150.217V172.616C255.824 172.616 254.392 174.049 254.392 175.816C254.392 177.584 255.824 179.016 257.592 179.016H302.392C304.159 179.016 305.592 177.584 305.592 175.816C305.592 174.049 304.159 172.616 302.392 172.616V150.217C303.502 150.216 304.58 149.637 305.171 148.604C306.047 147.07 305.514 145.115 303.98 144.238L281.58 131.438ZM267.192 153.416C265.424 153.416 263.992 154.849 263.992 156.616V166.216C263.992 167.984 265.424 169.416 267.192 169.416C268.959 169.416 270.392 167.984 270.392 166.216V156.616C270.392 154.849 268.959 153.416 267.192 153.416ZM276.792 156.616C276.792 154.849 278.224 153.416 279.992 153.416C281.759 153.416 283.192 154.849 283.192 156.616V166.216C283.192 167.984 281.759 169.416 279.992 169.416C278.224 169.416 276.792 167.984 276.792 166.216V156.616ZM292.792 153.416C291.024 153.416 289.592 154.849 289.592 156.616V166.216C289.592 167.984 291.024 169.416 292.792 169.416C294.559 169.416 295.992 167.984 295.992 166.216V156.616C295.992 154.849 294.559 153.416 292.792 153.416Z" fill="#FFF2D8"/>
<path d="M279.989 368.615C324.171 368.615 359.989 332.798 359.989 288.615C359.989 244.433 324.171 208.615 279.989 208.615C235.806 208.615 199.989 244.433 199.989 288.615C199.989 332.798 235.806 368.615 279.989 368.615Z" fill="#FFF2D8"/>
<mask id="path-15-outside-1_15711_16291" maskUnits="userSpaceOnUse" x="219" y="221.137" width="115.648" height="133.662" fill="black">
<rect fill="white" x="219" y="221.137" width="115.648" height="133.662"/>
<path fill-rule="evenodd" clip-rule="evenodd" d="M314.325 269.023C313.489 257.968 303.912 254.123 291.742 252.887L292.078 237.574L282.629 237.435L282.303 252.344C279.822 252.307 277.282 252.317 274.759 252.329L275.09 237.321L265.649 237.18L265.31 252.489C263.264 252.499 261.255 252.507 259.296 252.479L259.296 252.432L246.268 252.233L246.052 262.188C246.052 262.188 253.03 262.161 252.911 262.286C256.738 262.344 257.937 264.554 258.255 266.451L257.873 283.896C258.137 283.901 258.482 283.917 258.87 283.976L257.875 283.962L257.334 308.401C257.14 309.586 256.391 311.47 253.717 311.435C253.836 311.542 246.851 311.331 246.851 311.331L244.73 322.437L257.026 322.619C258.414 322.642 259.788 322.677 261.148 322.712C262.028 322.734 262.902 322.757 263.77 322.775L263.435 338.265L272.871 338.407L273.209 323.083C275.796 323.175 278.303 323.233 280.751 323.267L280.412 338.52L289.858 338.66L290.2 323.2C306.101 322.538 317.305 318.756 319.004 304.064C320.378 292.232 314.848 286.86 305.879 284.587C311.415 281.911 314.946 277.114 314.322 269.024L314.325 269.023ZM300.38 301.941C300.149 312.565 283.239 312.078 275.509 311.856C274.817 311.836 274.198 311.818 273.672 311.81L274.125 291.291C274.768 291.3 275.55 291.294 276.436 291.286L276.436 291.286C284.365 291.22 300.614 291.084 300.382 301.941L300.38 301.941ZM275.882 281.941C282.336 282.142 296.403 282.579 296.617 272.928C296.835 263.054 283.289 263.207 276.674 263.282C275.93 263.29 275.274 263.298 274.735 263.29L274.326 281.9C274.771 281.907 275.295 281.923 275.882 281.941Z"/>
</mask>
<path fill-rule="evenodd" clip-rule="evenodd" d="M314.325 269.023C313.489 257.968 303.912 254.123 291.742 252.887L292.078 237.574L282.629 237.435L282.303 252.344C279.822 252.307 277.282 252.317 274.759 252.329L275.09 237.321L265.649 237.18L265.31 252.489C263.264 252.499 261.255 252.507 259.296 252.479L259.296 252.432L246.268 252.233L246.052 262.188C246.052 262.188 253.03 262.161 252.911 262.286C256.738 262.344 257.937 264.554 258.255 266.451L257.873 283.896C258.137 283.901 258.482 283.917 258.87 283.976L257.875 283.962L257.334 308.401C257.14 309.586 256.391 311.47 253.717 311.435C253.836 311.542 246.851 311.331 246.851 311.331L244.73 322.437L257.026 322.619C258.414 322.642 259.788 322.677 261.148 322.712C262.028 322.734 262.902 322.757 263.77 322.775L263.435 338.265L272.871 338.407L273.209 323.083C275.796 323.175 278.303 323.233 280.751 323.267L280.412 338.52L289.858 338.66L290.2 323.2C306.101 322.538 317.305 318.756 319.004 304.064C320.378 292.232 314.848 286.86 305.879 284.587C311.415 281.911 314.946 277.114 314.322 269.024L314.325 269.023ZM300.38 301.941C300.149 312.565 283.239 312.078 275.509 311.856C274.817 311.836 274.198 311.818 273.672 311.81L274.125 291.291C274.768 291.3 275.55 291.294 276.436 291.286L276.436 291.286C284.365 291.22 300.614 291.084 300.382 301.941L300.38 301.941ZM275.882 281.941C282.336 282.142 296.403 282.579 296.617 272.928C296.835 263.054 283.289 263.207 276.674 263.282C275.93 263.29 275.274 263.298 274.735 263.29L274.326 281.9C274.771 281.907 275.295 281.923 275.882 281.941Z" fill="#F7931A"/>
<path d="M291.742 252.887L287.149 252.786L287.056 257.029L291.278 257.458L291.742 252.887ZM314.325 269.023L315.354 273.501L319.204 272.616L318.906 268.677L314.325 269.023ZM292.078 237.574L296.671 237.675L296.773 233.048L292.146 232.98L292.078 237.574ZM282.629 237.435L282.697 232.841L278.136 232.773L278.036 237.334L282.629 237.435ZM282.303 252.344L282.234 256.938L286.796 257.007L286.896 252.445L282.303 252.344ZM274.759 252.329L270.166 252.228L270.062 256.946L274.781 256.924L274.759 252.329ZM275.09 237.321L279.684 237.422L279.786 232.796L275.159 232.727L275.09 237.321ZM265.649 237.18L265.718 232.586L261.157 232.518L261.056 237.078L265.649 237.18ZM265.31 252.489L265.334 257.083L269.804 257.06L269.903 252.591L265.31 252.489ZM259.296 252.479L254.702 252.498L254.72 257.009L259.231 257.073L259.296 252.479ZM259.296 252.432L263.891 252.413L263.872 247.906L259.366 247.838L259.296 252.432ZM246.268 252.233L246.338 247.639L241.773 247.569L241.674 252.133L246.268 252.233ZM246.052 262.188L241.458 262.088L241.356 266.801L246.07 266.782L246.052 262.188ZM252.911 262.286L249.58 259.122L242.364 266.72L252.841 266.88L252.911 262.286ZM258.255 266.451L262.849 266.552L262.858 266.119L262.787 265.691L258.255 266.451ZM257.873 283.896L253.28 283.795L253.179 288.396L257.78 288.49L257.873 283.896ZM258.87 283.976L258.805 288.57L259.555 279.433L258.87 283.976ZM257.875 283.962L257.941 279.368L253.383 279.302L253.282 283.86L257.875 283.962ZM257.334 308.401L261.868 309.142L261.92 308.824L261.927 308.502L257.334 308.401ZM253.717 311.435L253.778 306.841L241.632 306.68L250.631 314.839L253.717 311.435ZM246.851 311.331L246.99 306.738L243.073 306.62L242.338 310.469L246.851 311.331ZM244.73 322.437L240.217 321.575L239.191 326.95L244.662 327.031L244.73 322.437ZM257.026 322.619L257.099 318.025L257.094 318.025L257.026 322.619ZM261.148 322.712L261.03 327.305L261.03 327.305L261.148 322.712ZM263.77 322.775L268.363 322.875L268.463 318.28L263.869 318.182L263.77 322.775ZM263.435 338.265L258.841 338.166L258.741 342.79L263.365 342.859L263.435 338.265ZM272.871 338.407L272.801 343.002L277.363 343.07L277.464 338.509L272.871 338.407ZM273.209 323.083L273.372 318.492L268.718 318.326L268.616 322.982L273.209 323.083ZM280.751 323.267L285.344 323.369L285.447 318.738L280.815 318.673L280.751 323.267ZM280.412 338.52L275.819 338.418L275.716 343.046L280.344 343.114L280.412 338.52ZM289.858 338.66L289.79 343.254L294.351 343.322L294.452 338.762L289.858 338.66ZM290.2 323.2L290.009 318.61L285.702 318.789L285.607 323.099L290.2 323.2ZM319.004 304.064L314.44 303.534L314.44 303.537L319.004 304.064ZM305.879 284.587L303.88 280.45L292.518 285.94L304.751 289.04L305.879 284.587ZM314.322 269.024L313.293 264.546L309.437 265.432L309.741 269.377L314.322 269.024ZM275.509 311.856L275.641 307.263L275.641 307.263L275.509 311.856ZM300.38 301.941L299.351 297.464L295.864 298.265L295.786 301.842L300.38 301.941ZM273.672 311.81L269.078 311.709L268.976 316.338L273.606 316.404L273.672 311.81ZM274.125 291.291L274.194 286.696L269.632 286.627L269.531 291.189L274.125 291.291ZM276.436 291.286L276.474 295.881L276.502 295.881L276.53 295.88L276.436 291.286ZM276.436 291.286L276.398 286.692L276.37 286.692L276.342 286.693L276.436 291.286ZM300.382 301.941L301.412 306.419L304.899 305.617L304.976 302.039L300.382 301.941ZM296.617 272.928L301.211 273.03L301.211 273.029L296.617 272.928ZM275.882 281.941L276.025 277.349L276.025 277.349L275.882 281.941ZM276.674 263.282L276.725 267.876L276.725 267.876L276.674 263.282ZM274.735 263.29L274.802 258.696L270.241 258.628L270.141 263.189L274.735 263.29ZM274.326 281.9L269.732 281.799L269.631 286.426L274.258 286.494L274.326 281.9ZM291.278 257.458C297.132 258.053 301.732 259.233 304.859 261.176C307.706 262.944 309.442 265.386 309.743 269.37L318.906 268.677C318.372 261.606 314.902 256.597 309.709 253.37C304.796 250.318 298.522 248.957 292.206 248.316L291.278 257.458ZM287.484 237.473L287.149 252.786L296.336 252.988L296.671 237.675L287.484 237.473ZM282.561 242.029L292.01 242.168L292.146 232.98L282.697 232.841L282.561 242.029ZM286.896 252.445L287.223 237.535L278.036 237.334L277.709 252.244L286.896 252.445ZM274.781 256.924C277.31 256.912 279.805 256.902 282.234 256.938L282.372 247.75C279.839 247.712 277.255 247.723 274.738 247.735L274.781 256.924ZM270.497 237.22L270.166 252.228L279.353 252.431L279.684 237.422L270.497 237.22ZM265.581 241.774L275.022 241.915L275.159 232.727L265.718 232.586L265.581 241.774ZM269.903 252.591L270.243 237.282L261.056 237.078L260.716 252.387L269.903 252.591ZM259.231 257.073C261.239 257.102 263.29 257.094 265.334 257.083L265.286 247.894C263.238 247.905 261.27 247.912 259.362 247.885L259.231 257.073ZM254.701 252.45L254.702 252.498L263.891 252.46L263.891 252.413L254.701 252.45ZM246.198 256.827L259.226 257.026L259.366 247.838L246.338 247.639L246.198 256.827ZM250.645 262.288L250.861 252.332L241.674 252.133L241.458 262.088L250.645 262.288ZM256.243 265.45C256.694 264.975 257.396 264.021 257.496 262.608C257.601 261.124 256.985 259.996 256.451 259.35C255.612 258.337 254.576 257.995 254.504 257.968C254.009 257.784 253.58 257.727 253.534 257.72C253.281 257.682 253.046 257.667 252.937 257.66C252.664 257.643 252.328 257.632 251.998 257.624C251.316 257.608 250.42 257.6 249.55 257.595C248.672 257.591 247.793 257.59 247.136 257.591C246.807 257.591 246.532 257.592 246.339 257.592C246.243 257.593 246.167 257.593 246.115 257.593C246.089 257.593 246.069 257.593 246.055 257.593C246.048 257.593 246.043 257.593 246.039 257.593C246.038 257.593 246.036 257.593 246.035 257.593C246.035 257.593 246.035 257.593 246.034 257.593C246.034 257.593 246.034 257.593 246.034 257.593C246.034 257.593 246.034 257.593 246.052 262.188C246.07 266.782 246.07 266.782 246.07 266.782C246.07 266.782 246.07 266.782 246.07 266.782C246.07 266.782 246.07 266.782 246.07 266.782C246.071 266.782 246.072 266.782 246.074 266.782C246.077 266.782 246.082 266.782 246.088 266.782C246.101 266.782 246.12 266.782 246.145 266.782C246.195 266.782 246.269 266.782 246.363 266.782C246.552 266.781 246.821 266.78 247.144 266.78C247.792 266.78 248.65 266.78 249.503 266.784C250.362 266.789 251.188 266.797 251.781 266.811C252.089 266.818 252.278 266.826 252.364 266.831C252.435 266.836 252.337 266.833 252.174 266.808C252.172 266.808 251.776 266.758 251.301 266.581C251.155 266.527 250.91 266.428 250.626 266.265C250.377 266.123 249.86 265.799 249.373 265.21C248.84 264.566 248.225 263.44 248.33 261.958C248.43 260.547 249.131 259.594 249.58 259.122L256.243 265.45ZM262.787 265.691C262.528 264.149 261.85 262.088 260.105 260.388C258.284 258.613 255.819 257.735 252.981 257.692L252.841 266.88C253.361 266.888 253.621 266.966 253.707 266.998C253.78 267.025 253.751 267.026 253.693 266.97C253.584 266.864 253.665 266.856 253.724 267.211L262.787 265.691ZM262.467 283.997L262.849 266.552L253.662 266.351L253.28 283.795L262.467 283.997ZM259.555 279.433C258.897 279.333 258.337 279.31 257.967 279.302L257.78 288.49C257.938 288.493 258.067 288.501 258.186 288.519L259.555 279.433ZM257.81 288.556L258.805 288.57L258.936 279.382L257.941 279.368L257.81 288.556ZM261.927 308.502L262.469 284.063L253.282 283.86L252.741 308.299L261.927 308.502ZM253.657 316.029C256.223 316.063 258.392 315.115 259.891 313.426C261.235 311.912 261.697 310.191 261.868 309.142L252.8 307.659C252.794 307.692 252.791 307.689 252.806 307.65C252.823 307.609 252.881 307.482 253.019 307.325C253.172 307.154 253.373 307.004 253.592 306.911C253.802 306.822 253.896 306.842 253.778 306.841L253.657 316.029ZM246.851 311.331C246.712 315.923 246.712 315.923 246.712 315.923C246.712 315.923 246.712 315.923 246.712 315.923C246.712 315.923 246.713 315.923 246.713 315.923C246.714 315.923 246.715 315.923 246.717 315.923C246.721 315.923 246.726 315.924 246.733 315.924C246.746 315.924 246.766 315.925 246.792 315.926C246.844 315.927 246.92 315.929 247.016 315.932C247.209 315.938 247.484 315.946 247.813 315.955C248.47 315.973 249.348 315.997 250.224 316.017C251.094 316.036 251.985 316.053 252.66 316.058C252.988 316.061 253.313 316.061 253.571 316.054C253.676 316.052 253.885 316.046 254.106 316.024C254.143 316.021 254.518 315.99 254.957 315.866C255.09 315.828 255.322 315.757 255.596 315.634C255.818 315.534 256.373 315.268 256.927 314.727C257.526 314.143 258.447 312.882 258.298 311.062C258.162 309.405 257.214 308.403 256.803 308.031L250.631 314.839C250.223 314.468 249.275 313.468 249.14 311.813C248.99 309.995 249.911 308.735 250.508 308.152C251.061 307.613 251.613 307.349 251.832 307.25C252.103 307.129 252.331 307.059 252.459 307.023C252.715 306.95 252.919 306.918 252.996 306.906C253.095 306.891 253.172 306.883 253.214 306.879C253.345 306.866 253.416 306.866 253.341 306.868C253.24 306.871 253.039 306.872 252.729 306.87C252.127 306.865 251.294 306.849 250.433 306.83C249.578 306.81 248.717 306.787 248.068 306.769C247.744 306.76 247.474 306.753 247.285 306.747C247.191 306.744 247.116 306.742 247.066 306.741C247.041 306.74 247.022 306.739 247.009 306.739C247.002 306.739 246.998 306.739 246.994 306.738C246.993 306.738 246.992 306.738 246.991 306.738C246.991 306.738 246.99 306.738 246.99 306.738C246.99 306.738 246.99 306.738 246.99 306.738C246.99 306.738 246.99 306.738 246.851 311.331ZM249.243 323.299L251.364 312.192L242.338 310.469L240.217 321.575L249.243 323.299ZM257.094 318.025L244.798 317.843L244.662 327.031L256.957 327.213L257.094 318.025ZM261.266 318.119C259.91 318.084 258.513 318.048 257.099 318.025L256.952 327.213C258.314 327.235 259.667 327.27 261.03 327.305L261.266 318.119ZM263.869 318.182C263.012 318.163 262.148 318.141 261.266 318.119L261.03 327.305C261.909 327.327 262.793 327.35 263.671 327.369L263.869 318.182ZM268.028 338.365L268.363 322.875L259.176 322.676L258.841 338.166L268.028 338.365ZM272.94 333.813L263.504 333.671L263.365 342.859L272.801 343.002L272.94 333.813ZM268.616 322.982L268.277 338.306L277.464 338.509L277.803 323.185L268.616 322.982ZM280.815 318.673C278.396 318.639 275.922 318.582 273.372 318.492L273.046 327.675C275.67 327.768 278.21 327.827 280.687 327.861L280.815 318.673ZM285.006 338.622L285.344 323.369L276.157 323.165L275.819 338.418L285.006 338.622ZM289.926 334.066L280.48 333.926L280.344 343.114L289.79 343.254L289.926 334.066ZM285.607 323.099L285.265 338.559L294.452 338.762L294.794 323.302L285.607 323.099ZM314.44 303.537C313.743 309.563 311.269 312.83 307.644 314.906C303.645 317.197 297.803 318.285 290.009 318.61L290.392 327.791C298.498 327.453 306.209 326.319 312.212 322.88C318.589 319.227 322.566 313.257 323.568 304.592L314.44 303.537ZM304.751 289.04C308.678 290.036 311.18 291.546 312.646 293.499C314.064 295.389 315.037 298.395 314.44 303.534L323.568 304.594C324.345 297.901 323.239 292.305 319.995 287.982C316.797 283.722 312.049 281.41 307.008 280.133L304.751 289.04ZM309.741 269.377C309.995 272.67 309.385 274.917 308.45 276.507C307.509 278.106 306.018 279.417 303.88 280.45L307.878 288.723C311.277 287.081 314.318 284.655 316.371 281.165C318.43 277.664 319.273 273.468 318.903 268.671L309.741 269.377ZM313.295 264.545L313.293 264.546L315.351 273.502L315.354 273.501L313.295 264.545ZM275.377 316.448C279.138 316.557 285.885 316.775 291.768 315.448C294.719 314.782 297.892 313.638 300.42 311.537C303.116 309.296 304.885 306.111 304.973 302.041L295.786 301.842C295.759 303.084 295.328 303.821 294.547 304.47C293.598 305.259 292.017 305.971 289.746 306.484C285.183 307.513 279.611 307.377 275.641 307.263L275.377 316.448ZM273.606 316.404C274.092 316.411 274.674 316.428 275.377 316.448L275.641 307.263C274.96 307.243 274.304 307.224 273.738 307.216L273.606 316.404ZM269.531 291.189L269.078 311.709L278.265 311.912L278.718 291.392L269.531 291.189ZM276.397 286.692C275.493 286.699 274.772 286.705 274.194 286.696L274.055 295.885C274.764 295.895 275.607 295.888 276.474 295.881L276.397 286.692ZM276.342 286.693L276.341 286.693L276.53 295.88L276.531 295.88L276.342 286.693ZM304.976 302.039C305.062 298.009 303.554 294.731 300.995 292.334C298.596 290.086 295.512 288.826 292.633 288.072C286.914 286.576 280.242 286.66 276.398 286.692L276.475 295.881C280.56 295.847 285.976 295.829 290.307 296.962C292.451 297.523 293.882 298.261 294.712 299.039C295.383 299.668 295.819 300.444 295.789 301.843L304.976 302.039ZM301.409 306.419L301.412 306.419L299.353 297.463L299.351 297.464L301.409 306.419ZM292.024 272.825C291.998 273.968 291.631 274.559 291.11 275.03C290.444 275.633 289.281 276.226 287.49 276.668C283.855 277.564 279.364 277.453 276.025 277.349L275.739 286.534C278.854 286.63 284.623 286.838 289.689 285.59C292.247 284.959 295.045 283.865 297.279 281.841C299.657 279.687 301.129 276.713 301.211 273.03L292.024 272.825ZM276.725 267.876C280.163 267.837 284.52 267.821 287.955 268.795C289.634 269.27 290.668 269.874 291.238 270.457C291.679 270.907 292.052 271.538 292.024 272.826L301.211 273.029C301.291 269.38 300.053 266.328 297.808 264.032C295.693 261.869 292.968 260.664 290.461 259.954C285.524 258.554 279.8 258.652 276.622 258.687L276.725 267.876ZM274.667 267.884C275.279 267.893 276.002 267.884 276.725 267.876L276.622 258.687C275.858 258.696 275.269 258.702 274.802 258.696L274.667 267.884ZM278.919 282.001L279.328 263.391L270.141 263.189L269.732 281.799L278.919 282.001ZM276.025 277.349C275.449 277.331 274.884 277.313 274.393 277.306L274.258 286.494C274.658 286.5 275.14 286.515 275.739 286.534L276.025 277.349Z" fill="#FFDB93" mask="url(#path-15-outside-1_15711_16291)"/>
<path d="M161.531 396.019C161.531 391.93 164.846 388.615 168.935 388.615H391.043C395.132 388.615 398.446 391.93 398.446 396.019C398.446 400.108 395.132 403.423 391.043 403.423H168.935C164.846 403.423 161.531 400.108 161.531 396.019Z" fill="#FFDB93"/>
</svg>
