<svg width="560" height="560" viewBox="0 0 560 560" fill="none" xmlns="http://www.w3.org/2000/svg">
<path d="M60 127.692C60 90.3069 90.3069 60 127.692 60H432.308C469.693 60 500 90.3069 500 127.692V432.308C500 469.693 469.693 500 432.308 500H127.692C90.3069 500 60 469.693 60 432.308V127.692Z" fill="#CBD5E1"/>
<path d="M60 432.308C60 469.693 90.3069 500 127.692 500H166.363C220.769 457.692 249.587 397.968 275.12 333.031C300.653 268.094 313.889 196.959 313.846 124.909C313.815 103.197 312.59 81.5115 310.179 60H127.692C90.3069 60 60 90.3069 60 127.692V432.308Z" fill="#EDEFF0"/>
<path d="M115.325 93.8462C115.325 101.252 113.062 108.354 109.034 113.591C105.006 118.827 99.5428 121.769 93.8461 121.769V438.231C99.5428 438.231 105.006 441.173 109.034 446.409C113.062 451.646 115.325 458.748 115.325 466.154H444.674C444.674 458.748 446.938 451.646 450.966 446.409C454.994 441.173 460.457 438.231 466.154 438.231V121.769C460.457 121.769 454.994 118.827 450.966 113.591C446.938 108.354 444.674 101.252 444.674 93.8462H115.325Z" fill="#475569"/>
<path d="M93.8461 121.769V438.231C99.7094 438.231 105.333 441.173 109.479 446.409C113.625 451.646 115.954 458.748 115.954 466.154H201.753C273.66 374.87 313.971 251.293 313.846 122.523C313.846 112.89 313.566 103.34 313.109 93.8462H115.954C115.954 101.252 113.625 108.354 109.479 113.591C105.333 118.827 99.7094 121.769 93.8461 121.769Z" fill="#94A3B8"/>
<path d="M146.731 254.373V239.565C148.695 239.565 150.578 240.345 151.966 241.734C153.355 243.122 154.135 245.006 154.135 246.969H168.943C168.943 241.078 166.603 235.429 162.437 231.263C158.272 227.098 152.622 224.758 146.731 224.758V217.354H131.923V224.758C126.033 224.758 120.383 227.098 116.218 231.263C112.052 235.429 109.712 241.078 109.712 246.969C109.712 252.86 112.052 258.51 116.218 262.675C120.383 266.841 126.033 269.181 131.923 269.181V283.988C129.96 283.988 128.077 283.208 126.688 281.82C125.3 280.431 124.52 278.548 124.52 276.585H109.712C109.712 282.475 112.052 288.125 116.218 292.29C120.383 296.456 126.033 298.796 131.923 298.796V306.2H146.731V298.796C152.622 298.796 158.272 296.456 162.437 292.29C166.603 288.125 168.943 282.475 168.943 276.585C168.943 270.694 166.603 265.044 162.437 260.879C158.272 256.713 152.622 254.373 146.731 254.373ZM124.52 246.969C124.52 245.006 125.3 243.122 126.688 241.734C128.077 240.345 129.96 239.565 131.923 239.565V254.373C129.96 254.373 128.077 253.593 126.688 252.204C125.3 250.816 124.52 248.933 124.52 246.969ZM146.731 283.988V269.181C148.695 269.181 150.578 269.961 151.966 271.349C153.355 272.738 154.135 274.621 154.135 276.585C154.135 278.548 153.355 280.431 151.966 281.82C150.578 283.208 148.695 283.988 146.731 283.988Z" fill="#EDEFF0"/>
<path d="M428.076 254.373V239.565C430.04 239.565 431.923 240.345 433.312 241.734C434.7 243.122 435.48 245.006 435.48 246.969H450.288C450.278 241.081 447.935 235.437 443.771 231.274C439.608 227.111 433.964 224.767 428.076 224.758V217.354H413.269V224.758C407.378 224.758 401.728 227.098 397.563 231.263C393.397 235.429 391.057 241.078 391.057 246.969C391.057 252.86 393.397 258.51 397.563 262.675C401.728 266.841 407.378 269.181 413.269 269.181V283.988C411.305 283.988 409.422 283.208 408.033 281.82C406.645 280.431 405.865 278.548 405.865 276.585H391.057C391.057 282.475 393.397 288.125 397.563 292.29C401.728 296.456 407.378 298.796 413.269 298.796V306.2H428.076V298.796C433.967 298.796 439.617 296.456 443.782 292.29C447.948 288.125 450.288 282.475 450.288 276.585C450.288 270.694 447.948 265.044 443.782 260.879C439.617 256.713 433.967 254.373 428.076 254.373ZM413.269 254.373C411.305 254.373 409.422 253.593 408.033 252.204C406.645 250.816 405.865 248.933 405.865 246.969C405.865 245.006 406.645 243.122 408.033 241.734C409.422 240.345 411.305 239.565 413.269 239.565V254.373ZM428.076 283.988V269.181C430.04 269.181 431.923 269.961 433.312 271.349C434.7 272.738 435.48 274.621 435.48 276.585C435.48 278.548 434.7 280.431 433.312 281.82C431.923 283.208 430.04 283.988 428.076 283.988Z" fill="#CBD5E1"/>
<path d="M109.702 333.224C109.702 329.544 112.685 326.56 116.366 326.56H162.262C165.942 326.56 168.926 329.544 168.926 333.224C168.926 336.904 165.942 339.887 162.262 339.887H116.366C112.685 339.887 109.702 336.904 109.702 333.224Z" fill="#EDEFF0"/>
<path d="M124.51 353.214C124.51 349.534 127.493 346.551 131.173 346.551H147.454C151.135 346.551 154.118 349.534 154.118 353.214C154.118 356.894 151.135 359.878 147.454 359.878H131.173C127.493 359.878 124.51 356.894 124.51 353.214Z" fill="#EDEFF0"/>
<path d="M391.041 333.224C391.041 329.544 394.024 326.56 397.704 326.56H443.601C447.281 326.56 450.264 329.544 450.264 333.224C450.264 336.904 447.281 339.887 443.601 339.887H397.704C394.024 339.887 391.041 336.904 391.041 333.224Z" fill="#CBD5E1"/>
<path d="M405.849 353.214C405.849 349.534 408.832 346.551 412.512 346.551H428.793C432.473 346.551 435.456 349.534 435.456 353.214C435.456 356.894 432.473 359.878 428.793 359.878H412.512C408.832 359.878 405.849 356.894 405.849 353.214Z" fill="#CBD5E1"/>
<path d="M242.981 469.327C242.981 448.882 259.555 432.308 280 432.308C300.445 432.308 317.019 448.882 317.019 469.327" stroke="#CBD5E1" stroke-width="14.8077"/>
<path fill-rule="evenodd" clip-rule="evenodd" d="M281.58 131.438C280.596 130.876 279.389 130.876 278.405 131.438L256.005 144.238C254.47 145.115 253.937 147.07 254.814 148.604C255.404 149.637 256.482 150.216 257.592 150.217V172.616C255.825 172.616 254.392 174.049 254.392 175.816C254.392 177.584 255.825 179.016 257.592 179.016H302.392C304.159 179.016 305.592 177.584 305.592 175.816C305.592 174.049 304.159 172.616 302.392 172.616V150.217C303.502 150.216 304.581 149.637 305.171 148.604C306.048 147.07 305.515 145.115 303.98 144.238L281.58 131.438ZM267.192 153.416C265.425 153.416 263.992 154.849 263.992 156.616V166.216C263.992 167.984 265.425 169.416 267.192 169.416C268.959 169.416 270.392 167.984 270.392 166.216V156.616C270.392 154.849 268.959 153.416 267.192 153.416ZM276.792 156.616C276.792 154.849 278.225 153.416 279.992 153.416C281.759 153.416 283.192 154.849 283.192 156.616V166.216C283.192 167.984 281.759 169.416 279.992 169.416C278.225 169.416 276.792 167.984 276.792 166.216V156.616ZM292.792 153.416C291.025 153.416 289.592 154.849 289.592 156.616V166.216C289.592 167.984 291.025 169.416 292.792 169.416C294.559 169.416 295.992 167.984 295.992 166.216V156.616C295.992 154.849 294.559 153.416 292.792 153.416Z" fill="#EDEFF0"/>
<g clip-path="url(#clip0_15711_16360)">
<circle cx="279.989" cy="288.615" r="80" fill="#EDEFF0"/>
<path d="M281.765 228.786V228.843C281.821 229.127 281.821 229.467 281.821 229.808V270.76C281.765 270.987 281.594 271.044 281.424 271.158C280.231 271.726 279.095 272.237 277.902 272.748C276.255 273.487 274.551 274.282 272.904 275.02L266.94 277.747C265.293 278.485 263.646 279.223 262.055 279.962C260.124 280.87 258.136 281.722 256.205 282.631C254.558 283.37 252.911 284.165 251.207 284.903C249.844 285.528 248.48 286.096 247.174 286.721C247.06 286.778 246.947 286.834 246.833 286.834C246.776 286.834 246.776 286.834 246.72 286.778L248.253 284.222C251.207 279.337 254.103 274.509 257.057 269.624C260.181 264.399 263.362 259.173 266.486 253.948C269.382 249.12 272.336 244.292 275.233 239.464C277.334 235.943 279.493 232.421 281.594 228.899C281.651 228.786 281.708 228.729 281.708 228.615H281.765C281.708 228.672 281.765 228.729 281.765 228.786Z" fill="#838385"/>
<path d="M316.632 286.778L316.689 286.834L308.34 291.776L282.099 307.282C281.985 307.339 281.871 307.396 281.815 307.452C281.644 307.452 281.644 307.282 281.644 307.225V306.714V271.612C281.644 271.442 281.644 271.215 281.701 271.044C281.758 270.817 281.928 270.874 282.099 270.931C282.837 271.271 283.632 271.612 284.371 271.953C286.586 272.975 288.801 273.998 291.016 274.963C292.947 275.815 294.822 276.724 296.753 277.576C298.684 278.428 300.615 279.337 302.546 280.189C304.193 280.927 305.897 281.722 307.545 282.461C309.192 283.199 310.896 283.994 312.543 284.733C313.849 285.301 315.156 285.926 316.462 286.494C316.462 286.664 316.519 286.721 316.632 286.778Z" fill="#131313"/>
<path d="M281.758 342.725C281.758 342.781 281.701 342.838 281.701 342.895H281.645C281.645 342.781 281.531 342.725 281.474 342.611C277.953 337.669 274.431 332.671 270.91 327.73C267.331 322.675 263.696 317.563 260.118 312.508C256.653 307.623 253.131 302.681 249.667 297.797C248.758 296.49 247.849 295.241 246.94 293.934C246.884 293.821 246.827 293.764 246.713 293.594C246.884 293.594 246.997 293.707 247.054 293.764C251.995 296.661 256.88 299.557 261.822 302.454C267.502 305.805 273.125 309.156 278.805 312.508L281.701 314.212C281.815 314.325 281.815 314.439 281.815 314.552V341.929C281.815 342.213 281.815 342.497 281.758 342.725Z" fill="#838385"/>
<path d="M246.655 286.891V286.835C248.472 286.039 250.233 285.187 252.05 284.392C254.379 283.313 256.708 282.291 259.037 281.211C260.798 280.416 262.615 279.564 264.376 278.769C266.989 277.576 269.545 276.44 272.157 275.248C273.918 274.452 275.679 273.657 277.496 272.805C278.746 272.237 280.052 271.669 281.302 271.101C281.416 271.044 281.586 270.988 281.643 270.874C281.7 270.874 281.7 270.931 281.643 270.988V307.055C281.643 307.225 281.586 307.396 281.7 307.509C281.586 307.68 281.472 307.509 281.416 307.453C280.904 307.169 280.393 306.885 279.882 306.544C268.92 300.069 257.901 293.537 246.939 287.062C246.882 287.005 246.768 286.948 246.655 286.891Z" fill="#333535"/>
<path d="M316.521 293.594H316.577C316.577 293.707 316.464 293.821 316.407 293.934C305.956 308.645 295.505 323.413 285.054 338.124C283.975 339.657 282.839 341.191 281.76 342.725C281.703 342.668 281.703 342.611 281.703 342.554V342.213V314.666V314.155C284.088 312.735 286.417 311.372 288.803 309.952C298.004 304.499 307.206 299.103 316.35 293.65C316.407 293.707 316.464 293.65 316.521 293.594Z" fill="#2F3030"/>
<path d="M281.703 270.987V270.874V270.533V229.297C281.703 229.127 281.646 229.013 281.76 228.843C293.29 247.984 304.82 267.068 316.293 286.209C316.407 286.38 316.577 286.607 316.634 286.834C315.839 286.55 315.101 286.153 314.362 285.812C313.453 285.414 312.488 284.96 311.579 284.562C311.011 284.278 310.386 284.051 309.818 283.767C308.853 283.313 307.887 282.915 306.922 282.461C306.354 282.233 305.786 281.95 305.218 281.666L301.469 279.962C300.844 279.678 300.219 279.394 299.538 279.11L296.811 277.917C296.243 277.69 295.675 277.406 295.107 277.122L291.359 275.418C290.734 275.134 290.109 274.85 289.428 274.566L286.701 273.373C286.076 273.089 285.508 272.805 284.884 272.521C283.804 272.01 282.725 271.499 281.589 271.044C281.76 270.987 281.703 270.987 281.703 270.987Z" fill="#2F3030"/>
</g>
<path d="M161.531 396.019C161.531 391.93 164.846 388.615 168.935 388.615H391.043C395.132 388.615 398.446 391.93 398.446 396.019C398.446 400.108 395.132 403.423 391.043 403.423H168.935C164.846 403.423 161.531 400.108 161.531 396.019Z" fill="#CBD5E1"/>
<defs>
<clipPath id="clip0_15711_16360">
<rect width="160" height="160" fill="white" transform="translate(199.989 208.615)"/>
</clipPath>
</defs>
</svg>
