<svg width="560" height="560" viewBox="0 0 560 560" fill="none" xmlns="http://www.w3.org/2000/svg">
<path d="M60 127.692C60 90.3069 90.3069 60 127.692 60H432.308C469.693 60 500 90.3069 500 127.692V432.308C500 469.693 469.693 500 432.308 500H127.692C90.3069 500 60 469.693 60 432.308V127.692Z" fill="#0090FF"/>
<path d="M60 432.308C60 469.693 90.3069 500 127.692 500H166.363C220.769 457.692 249.587 397.968 275.12 333.031C300.653 268.094 313.889 196.959 313.846 124.909C313.815 103.197 312.59 81.5115 310.179 60H127.692C90.3069 60 60 90.3069 60 127.692V432.308Z" fill="#8DCDFF"/>
<path d="M115.325 93.8462C115.325 101.252 113.062 108.354 109.034 113.591C105.006 118.827 99.5428 121.769 93.8462 121.769V438.231C99.5428 438.231 105.006 441.173 109.034 446.409C113.062 451.646 115.325 458.748 115.325 466.154H444.675C444.675 458.748 446.938 451.646 450.966 446.409C454.994 441.173 460.457 438.231 466.154 438.231V121.769C460.457 121.769 454.994 118.827 450.966 113.591C446.938 108.354 444.675 101.252 444.675 93.8462H115.325Z" fill="#05355B"/>
<path d="M93.8462 121.769V438.231C99.7095 438.231 105.333 441.173 109.479 446.409C113.625 451.646 115.954 458.748 115.954 466.154H201.753C273.66 374.87 313.971 251.293 313.846 122.523C313.846 112.89 313.566 103.34 313.109 93.8462H115.954C115.954 101.252 113.625 108.354 109.479 113.591C105.333 118.827 99.7095 121.769 93.8462 121.769Z" fill="#2A72A8"/>
<path d="M146.731 254.373V239.565C148.695 239.565 150.578 240.345 151.966 241.734C153.355 243.122 154.135 245.006 154.135 246.969H168.943C168.943 241.078 166.603 235.429 162.437 231.263C158.272 227.098 152.622 224.758 146.731 224.758V217.354H131.923V224.758C126.033 224.758 120.383 227.098 116.218 231.263C112.052 235.429 109.712 241.078 109.712 246.969C109.712 252.86 112.052 258.51 116.218 262.675C120.383 266.841 126.033 269.181 131.923 269.181V283.988C129.96 283.988 128.077 283.208 126.688 281.82C125.3 280.431 124.52 278.548 124.52 276.585H109.712C109.712 282.475 112.052 288.125 116.218 292.29C120.383 296.456 126.033 298.796 131.923 298.796V306.2H146.731V298.796C152.622 298.796 158.272 296.456 162.437 292.29C166.603 288.125 168.943 282.475 168.943 276.585C168.943 270.694 166.603 265.044 162.437 260.879C158.272 256.713 152.622 254.373 146.731 254.373ZM124.52 246.969C124.52 245.006 125.3 243.122 126.688 241.734C128.077 240.345 129.96 239.565 131.923 239.565V254.373C129.96 254.373 128.077 253.593 126.688 252.204C125.3 250.816 124.52 248.933 124.52 246.969ZM146.731 283.988V269.181C148.695 269.181 150.578 269.961 151.966 271.349C153.355 272.738 154.135 274.621 154.135 276.585C154.135 278.548 153.355 280.431 151.966 281.82C150.578 283.208 148.695 283.988 146.731 283.988Z" fill="#8DCDFF"/>
<path d="M428.076 254.373V239.565C430.04 239.565 431.923 240.345 433.312 241.734C434.7 243.122 435.48 245.006 435.48 246.969H450.288C450.278 241.081 447.935 235.437 443.771 231.274C439.608 227.111 433.964 224.767 428.076 224.758V217.354H413.269V224.758C407.378 224.758 401.728 227.098 397.563 231.263C393.397 235.429 391.057 241.078 391.057 246.969C391.057 252.86 393.397 258.51 397.563 262.675C401.728 266.841 407.378 269.181 413.269 269.181V283.988C411.305 283.988 409.422 283.208 408.033 281.82C406.645 280.431 405.865 278.548 405.865 276.585H391.057C391.057 282.475 393.397 288.125 397.563 292.29C401.728 296.456 407.378 298.796 413.269 298.796V306.2H428.076V298.796C433.967 298.796 439.617 296.456 443.782 292.29C447.948 288.125 450.288 282.475 450.288 276.585C450.288 270.694 447.948 265.044 443.782 260.879C439.617 256.713 433.967 254.373 428.076 254.373ZM413.269 254.373C411.305 254.373 409.422 253.593 408.033 252.204C406.645 250.816 405.865 248.933 405.865 246.969C405.865 245.006 406.645 243.122 408.033 241.734C409.422 240.345 411.305 239.565 413.269 239.565V254.373ZM428.076 283.988V269.181C430.04 269.181 431.923 269.961 433.312 271.349C434.7 272.738 435.48 274.621 435.48 276.585C435.48 278.548 434.7 280.431 433.312 281.82C431.923 283.208 430.04 283.988 428.076 283.988Z" fill="#0090FF"/>
<path d="M109.702 333.224C109.702 329.544 112.685 326.56 116.366 326.56H162.262C165.942 326.56 168.926 329.544 168.926 333.224C168.926 336.904 165.942 339.887 162.262 339.887H116.366C112.685 339.887 109.702 336.904 109.702 333.224Z" fill="#8DCDFF"/>
<path d="M124.51 353.214C124.51 349.534 127.493 346.551 131.173 346.551H147.454C151.135 346.551 154.118 349.534 154.118 353.214C154.118 356.894 151.135 359.878 147.454 359.878H131.173C127.493 359.878 124.51 356.894 124.51 353.214Z" fill="#8DCDFF"/>
<path d="M391.041 333.224C391.041 329.544 394.024 326.56 397.704 326.56H443.601C447.281 326.56 450.264 329.544 450.264 333.224C450.264 336.904 447.281 339.887 443.601 339.887H397.704C394.024 339.887 391.041 336.904 391.041 333.224Z" fill="#0090FF"/>
<path d="M405.849 353.214C405.849 349.534 408.832 346.551 412.512 346.551H428.793C432.473 346.551 435.457 349.534 435.457 353.214C435.457 356.894 432.473 359.878 428.793 359.878H412.512C408.832 359.878 405.849 356.894 405.849 353.214Z" fill="#0090FF"/>
<path d="M242.981 469.327C242.981 448.882 259.555 432.308 280 432.308C300.445 432.308 317.019 448.882 317.019 469.327" stroke="#0090FF" stroke-width="14.8077"/>
<path fill-rule="evenodd" clip-rule="evenodd" d="M281.58 131.438C280.596 130.876 279.389 130.876 278.405 131.438L256.005 144.238C254.47 145.115 253.937 147.07 254.814 148.604C255.404 149.637 256.482 150.216 257.592 150.217V172.616C255.825 172.616 254.392 174.049 254.392 175.816C254.392 177.584 255.825 179.016 257.592 179.016H302.392C304.159 179.016 305.592 177.584 305.592 175.816C305.592 174.049 304.159 172.616 302.392 172.616V150.217C303.502 150.216 304.581 149.637 305.171 148.604C306.048 147.07 305.515 145.115 303.98 144.238L281.58 131.438ZM267.192 153.416C265.425 153.416 263.992 154.849 263.992 156.616V166.216C263.992 167.984 265.425 169.416 267.192 169.416C268.959 169.416 270.392 167.984 270.392 166.216V156.616C270.392 154.849 268.959 153.416 267.192 153.416ZM276.792 156.616C276.792 154.849 278.225 153.416 279.992 153.416C281.759 153.416 283.192 154.849 283.192 156.616V166.216C283.192 167.984 281.759 169.416 279.992 169.416C278.225 169.416 276.792 167.984 276.792 166.216V156.616ZM292.792 153.416C291.025 153.416 289.592 154.849 289.592 156.616V166.216C289.592 167.984 291.025 169.416 292.792 169.416C294.559 169.416 295.992 167.984 295.992 166.216V156.616C295.992 154.849 294.559 153.416 292.792 153.416Z" fill="#8DCDFF"/>
<g clip-path="url(#clip0_15711_16338)">
<path d="M279.989 368.615C324.171 368.615 359.989 332.798 359.989 288.615C359.989 244.433 324.171 208.615 279.989 208.615C235.806 208.615 199.989 244.433 199.989 288.615C199.989 332.798 235.806 368.615 279.989 368.615Z" fill="#0090FF"/>
<path d="M280.274 274.269C282.134 266.454 284.374 259.429 286.754 254.844C287.629 252.654 291.179 247.409 295.074 243.944C301.559 238.169 308.834 236.704 316.409 241.459L315.744 242.514L316.409 241.459C320.274 243.884 321.824 246.379 321.144 248.729C320.644 250.479 318.729 251.879 317.704 251.734C316.204 251.884 314.694 251.584 313.254 250.524C312.042 249.59 311.106 248.344 310.549 246.919C309.489 244.419 308.099 243.569 306.394 243.769C305.159 243.909 303.724 244.699 303.269 245.229L302.094 246.529C301.181 247.502 300.37 248.566 299.674 249.704C297.294 253.669 295.099 260.934 292.054 275.989L312.234 278.944L311.124 287.029L290.644 284.029L289.769 289.349L289.544 290.679C289.424 291.369 289.294 292.119 289.144 292.919L309.824 295.949L308.639 304.024L287.474 300.924C285.029 311.314 281.809 322.449 279.534 326.844C278.654 329.039 275.109 334.274 271.214 337.744C264.729 343.514 257.454 344.984 249.879 340.229C246.014 337.804 244.464 335.304 245.144 332.954C245.644 331.204 247.559 329.809 248.584 329.954C250.084 329.804 251.594 330.104 253.034 331.159C254.144 331.979 255.064 333.169 255.739 334.769C256.799 337.264 258.189 338.119 259.894 337.919C261.129 337.774 262.564 336.984 263.019 336.454C267.554 331.404 271.149 321.674 275.694 299.204L255.514 296.244L256.624 288.159L277.104 291.159L277.984 285.844C278.178 284.65 278.387 283.458 278.609 282.269L258.009 279.254L259.189 271.179L280.274 274.269Z" fill="#FBFAFC"/>
</g>
<path d="M161.531 396.019C161.531 391.93 164.846 388.615 168.935 388.615H391.043C395.132 388.615 398.446 391.93 398.446 396.019C398.446 400.108 395.132 403.423 391.043 403.423H168.935C164.846 403.423 161.531 400.108 161.531 396.019Z" fill="#0090FF"/>
<defs>
<clipPath id="clip0_15711_16338">
<rect width="160" height="160" fill="white" transform="translate(199.989 208.615)"/>
</clipPath>
</defs>
</svg>
