<svg width="440" height="440" viewBox="0 0 440 440" fill="none" xmlns="http://www.w3.org/2000/svg">
<path d="M0 67.6923C0 30.3069 30.3069 0 67.6923 0H372.308C409.693 0 440 30.3069 440 67.6923V372.308C440 409.693 409.693 440 372.308 440H67.6923C30.3069 440 0 409.693 0 372.308V67.6923Z" fill="#CBD5E1"/>
<path d="M0 372.308C0 409.693 30.3069 440 67.6923 440H106.363C160.769 397.692 189.587 337.968 215.12 273.031C240.653 208.094 253.889 136.959 253.846 64.9092C253.815 43.1968 252.59 21.5115 250.179 0H67.6924C30.3069 0 0 30.3069 0 67.6923V372.308Z" fill="#EDEFF0"/>
<path d="M55.3254 33.8462C55.3254 41.2519 53.0624 48.3542 49.0343 53.5908C45.0061 58.8274 39.5428 61.7693 33.8461 61.7693V378.231C39.5428 378.231 45.0061 381.173 49.0343 386.409C53.0624 391.646 55.3254 398.748 55.3254 406.154H384.674C384.674 398.748 386.938 391.646 390.966 386.409C394.994 381.173 400.457 378.231 406.154 378.231V61.7693C400.457 61.7693 394.994 58.8274 390.966 53.5908C386.938 48.3542 384.674 41.2519 384.674 33.8462H55.3254Z" fill="#133B86"/>
<path d="M33.8461 61.7693V378.231C39.7094 378.231 45.3326 381.173 49.4785 386.409C53.6245 391.646 55.9537 398.748 55.9537 406.154H141.753C213.66 314.87 253.971 191.293 253.846 62.5232C253.846 52.8897 253.566 43.34 253.109 33.8462H55.9537C55.9537 41.2519 53.6245 48.3542 49.4785 53.5908C45.3326 58.8274 39.7094 61.7693 33.8461 61.7693Z" fill="#34599E"/>
<path d="M86.7311 194.373V179.565C88.6948 179.565 90.578 180.345 91.9664 181.734C93.3549 183.122 94.135 185.006 94.135 186.969H108.943C108.943 181.078 106.603 175.429 102.437 171.263C98.2716 167.098 92.622 164.758 86.7311 164.758V157.354H71.9235V164.758C66.0326 164.758 60.383 167.098 56.2175 171.263C52.052 175.429 49.7119 181.078 49.7119 186.969C49.7119 192.86 52.052 198.51 56.2175 202.675C60.383 206.841 66.0326 209.181 71.9235 209.181V223.988C69.9598 223.988 68.0766 223.208 66.6881 221.82C65.2997 220.431 64.5196 218.548 64.5196 216.585H49.7119C49.7119 222.475 52.052 228.125 56.2175 232.29C60.383 236.456 66.0326 238.796 71.9235 238.796V246.2H86.7311V238.796C92.622 238.796 98.2716 236.456 102.437 232.29C106.603 228.125 108.943 222.475 108.943 216.585C108.943 210.694 106.603 205.044 102.437 200.879C98.2716 196.713 92.622 194.373 86.7311 194.373ZM64.5196 186.969C64.5196 185.006 65.2997 183.122 66.6881 181.734C68.0766 180.345 69.9598 179.565 71.9235 179.565V194.373C69.9598 194.373 68.0766 193.593 66.6881 192.204C65.2997 190.816 64.5196 188.933 64.5196 186.969ZM86.7311 223.988V209.181C88.6948 209.181 90.578 209.961 91.9664 211.349C93.3549 212.738 94.135 214.621 94.135 216.585C94.135 218.548 93.3549 220.431 91.9664 221.82C90.578 223.208 88.6948 223.988 86.7311 223.988Z" fill="#EDEFF0"/>
<path d="M368.076 194.373V179.565C370.04 179.565 371.923 180.345 373.312 181.734C374.7 183.122 375.48 185.006 375.48 186.969H390.288C390.278 181.081 387.935 175.437 383.771 171.274C379.608 167.111 373.964 164.767 368.076 164.758V157.354H353.269V164.758C347.378 164.758 341.728 167.098 337.563 171.263C333.397 175.429 331.057 181.078 331.057 186.969C331.057 192.86 333.397 198.51 337.563 202.675C341.728 206.841 347.378 209.181 353.269 209.181V223.988C351.305 223.988 349.422 223.208 348.033 221.82C346.645 220.431 345.865 218.548 345.865 216.585H331.057C331.057 222.475 333.397 228.125 337.563 232.29C341.728 236.456 347.378 238.796 353.269 238.796V246.2H368.076V238.796C373.967 238.796 379.617 236.456 383.782 232.29C387.948 228.125 390.288 222.475 390.288 216.585C390.288 210.694 387.948 205.044 383.782 200.879C379.617 196.713 373.967 194.373 368.076 194.373ZM353.269 194.373C351.305 194.373 349.422 193.593 348.033 192.204C346.645 190.816 345.865 188.933 345.865 186.969C345.865 185.006 346.645 183.122 348.033 181.734C349.422 180.345 351.305 179.565 353.269 179.565V194.373ZM368.076 223.988V209.181C370.04 209.181 371.923 209.961 373.312 211.349C374.7 212.738 375.48 214.621 375.48 216.585C375.48 218.548 374.7 220.431 373.312 221.82C371.923 223.208 370.04 223.988 368.076 223.988Z" fill="#CBD5E1"/>
<path d="M49.7021 273.224C49.7021 269.544 52.6855 266.56 56.3656 266.56H102.262C105.942 266.56 108.926 269.544 108.926 273.224C108.926 276.904 105.942 279.887 102.262 279.887H56.3656C52.6855 279.887 49.7021 276.904 49.7021 273.224Z" fill="#EDEFF0"/>
<path d="M64.5099 293.214C64.5099 289.534 67.4932 286.551 71.1734 286.551H87.4544C91.1345 286.551 94.1179 289.534 94.1179 293.214C94.1179 296.894 91.1345 299.878 87.4544 299.878H71.1734C67.4932 299.878 64.5099 296.894 64.5099 293.214Z" fill="#EDEFF0"/>
<path d="M331.041 273.224C331.041 269.544 334.024 266.56 337.704 266.56H383.601C387.281 266.56 390.264 269.544 390.264 273.224C390.264 276.904 387.281 279.887 383.601 279.887H337.704C334.024 279.887 331.041 276.904 331.041 273.224Z" fill="#CBD5E1"/>
<path d="M345.849 293.214C345.849 289.534 348.832 286.551 352.512 286.551H368.793C372.473 286.551 375.456 289.534 375.456 293.214C375.456 296.894 372.473 299.878 368.793 299.878H352.512C348.832 299.878 345.849 296.894 345.849 293.214Z" fill="#CBD5E1"/>
<path d="M182.981 409.327C182.981 388.882 199.555 372.308 220 372.308C240.445 372.308 257.019 388.882 257.019 409.327" stroke="#CBD5E1" stroke-width="14.8077"/>
<path fill-rule="evenodd" clip-rule="evenodd" d="M221.58 71.438C220.596 70.8758 219.389 70.8758 218.405 71.438L196.005 84.238C194.47 85.1148 193.937 87.0695 194.814 88.604C195.404 89.6366 196.482 90.2157 197.592 90.2169V112.616C195.825 112.616 194.392 114.049 194.392 115.816C194.392 117.584 195.825 119.016 197.592 119.016H242.392C244.159 119.016 245.592 117.584 245.592 115.816C245.592 114.049 244.159 112.616 242.392 112.616V90.2169C243.502 90.2161 244.581 89.6369 245.171 88.604C246.048 87.0695 245.515 85.1148 243.98 84.238L221.58 71.438ZM207.192 93.4164C205.425 93.4164 203.992 94.8491 203.992 96.6164V106.216C203.992 107.984 205.425 109.416 207.192 109.416C208.959 109.416 210.392 107.984 210.392 106.216V96.6164C210.392 94.8491 208.959 93.4164 207.192 93.4164ZM216.792 96.6164C216.792 94.8491 218.225 93.4164 219.992 93.4164C221.759 93.4164 223.192 94.8491 223.192 96.6164V106.216C223.192 107.984 221.759 109.416 219.992 109.416C218.225 109.416 216.792 107.984 216.792 106.216V96.6164ZM232.792 93.4164C231.025 93.4164 229.592 94.8491 229.592 96.6164V106.216C229.592 107.984 231.025 109.416 232.792 109.416C234.559 109.416 235.992 107.984 235.992 106.216V96.6164C235.992 94.8491 234.559 93.4164 232.792 93.4164Z" fill="#EDEFF0"/>
<path d="M219.989 304.615C261.962 304.615 295.989 270.589 295.989 228.615C295.989 186.642 261.962 152.615 219.989 152.615C178.015 152.615 143.989 186.642 143.989 228.615C143.989 270.589 178.015 304.615 219.989 304.615Z" fill="white"/>
<path fill-rule="evenodd" clip-rule="evenodd" d="M193.805 179.568L193.644 179.691C188.041 183.985 168.989 198.587 168.989 228.616C168.989 258.644 188.041 273.246 193.644 277.54L193.805 277.664C194.534 278.223 195.014 278.591 195.163 278.78C195.235 278.928 195.139 278.982 195.09 279.001C194.004 279.444 156.789 269.665 156.789 228.616C156.789 187.566 194.004 177.787 195.09 178.23C195.139 178.249 195.235 178.303 195.163 178.451C195.014 178.64 194.534 179.008 193.805 179.568ZM205.49 193.896H192.065C191.095 193.896 190.309 194.684 190.309 195.656C190.309 195.948 190.381 196.235 190.519 196.491L204.67 222.858C204.767 223.04 204.699 223.267 204.518 223.364C204.464 223.394 204.403 223.409 204.342 223.409H193.785C192.815 223.409 192.029 224.197 192.029 225.17V234.436C192.029 235.409 192.815 236.197 193.785 236.197H210.114C210.32 236.197 210.487 236.364 210.487 236.57V242.182C210.487 242.388 210.32 242.556 210.114 242.556H193.785C192.815 242.556 192.029 243.344 192.029 244.316V252.744C192.029 253.717 192.815 254.505 193.785 254.505H210.114C210.32 254.505 210.487 254.672 210.487 254.878V267.335C210.487 268.307 211.274 269.096 212.244 269.096H226.96C227.929 269.096 228.716 268.307 228.716 267.335V254.878C228.716 254.672 228.883 254.505 229.089 254.505H245.781C246.751 254.505 247.537 253.717 247.537 252.744V244.316C247.537 243.344 246.752 242.556 245.781 242.556H229.089C228.882 242.556 228.716 242.388 228.716 242.182V236.57C228.716 236.364 228.883 236.197 229.089 236.197H245.781C246.751 236.197 247.537 235.409 247.537 234.436V225.17C247.537 224.197 246.752 223.409 245.781 223.409H235.306C235.1 223.409 234.933 223.242 234.933 223.036C234.933 222.973 234.949 222.911 234.979 222.856L249.451 196.507C249.919 195.655 249.609 194.584 248.76 194.115C248.5 193.972 248.209 193.897 247.913 193.897H234.139C233.494 193.897 232.901 194.251 232.594 194.82L220.161 217.866C220.063 218.048 219.836 218.115 219.656 218.017C219.593 217.983 219.54 217.93 219.506 217.867L207.033 194.817C206.726 194.249 206.134 193.896 205.49 193.896ZM246.333 179.691C246.278 179.649 246.225 179.608 246.173 179.568C245.443 179.008 244.963 178.64 244.815 178.451C244.742 178.303 244.838 178.249 244.887 178.23C245.973 177.787 283.189 187.566 283.189 228.616C283.189 269.665 245.973 279.444 244.887 279.001C244.838 278.982 244.742 278.928 244.815 278.78C244.963 278.591 245.443 278.224 246.173 277.664C246.225 277.624 246.278 277.583 246.333 277.54C251.937 273.246 270.988 258.644 270.988 228.616C270.988 198.587 251.936 183.985 246.333 179.691Z" fill="#16449A"/>
<path d="M101.531 336.019C101.531 331.93 104.846 328.615 108.935 328.615H331.043C335.132 328.615 338.446 331.93 338.446 336.019C338.446 340.108 335.132 343.423 331.043 343.423H108.935C104.846 343.423 101.531 340.108 101.531 336.019Z" fill="#CBD5E1"/>
</svg>
