<svg width="24" height="24" viewBox="0 0 24 24" fill="none" xmlns="http://www.w3.org/2000/svg">
<path d="M4.98334 19.6633H16.8658L16.2983 17.8258C16.3825 17.8992 21.1667 22 21.1667 22V4.0625C21.11 2.9475 20.15 2 18.96 2L4.98751 2.0025C3.79834 2.0025 2.83334 2.95167 2.83334 4.06667V17.6C2.83334 18.7758 3.79668 19.6633 4.98334 19.6633ZM13.7733 6.73583L13.7458 6.74583L13.7558 6.73583H13.7733ZM7.41418 7.79333C8.94168 6.68167 10.3575 6.735 10.3575 6.735L10.4717 6.8475C8.60251 7.29333 7.75501 8.12833 7.75501 8.12833C7.84168 8.11 11.6158 5.9325 16.1892 8.18333C16.1892 8.18333 15.34 7.4025 13.5858 6.9025L13.7408 6.75C13.9833 6.75083 15.2667 6.79583 16.64 7.8C16.64 7.8 18.1767 10.425 18.1767 13.65C18.1258 13.5883 17.2233 15.0383 14.9008 15.0883C14.9008 15.0883 14.5075 14.6433 14.2275 14.255C15.5858 13.865 16.0942 13.085 16.0942 13.085C13.45 14.75 11.1325 14.49 8.36001 13.365C8.33418 13.365 8.32251 13.3533 8.30918 13.34V13.335C8.29584 13.3225 8.28418 13.31 8.25834 13.31H8.20834C8.03834 13.1983 7.92501 13.1433 7.92501 13.1433C7.92501 13.1433 8.43251 13.9233 9.73668 14.3133C9.39418 14.7042 9.05501 15.1483 9.05501 15.1483C6.73334 15.0933 5.88668 13.6433 5.88668 13.6433C5.88668 10.4133 7.41418 7.79333 7.41418 7.79333Z" fill="white"/>
<path d="M13.9234 12.6425C14.5159 12.6425 14.9984 12.1425 14.9984 11.5258C14.9984 10.9133 14.5184 10.4133 13.9234 10.4133V10.4158C13.3334 10.4158 12.85 10.9142 12.8484 11.5308C12.8484 12.1425 13.3309 12.6425 13.9234 12.6425Z" fill="white"/>
<path d="M10.075 12.6425C10.6675 12.6425 11.15 12.1425 11.15 11.5258C11.15 10.9133 10.6708 10.4133 10.0783 10.4133L10.075 10.4158C9.4825 10.4158 9 10.9142 9 11.5308C9 12.1425 9.4825 12.6425 10.075 12.6425Z" fill="white"/>
</svg>
