<svg width="24" height="24" viewBox="0 0 24 24" fill="none" xmlns="http://www.w3.org/2000/svg">
<path fill-rule="evenodd" clip-rule="evenodd" d="M12 22.0004C6.5 22.0004 2 17.5004 2 11.9504C2.05 6.45041 6.5 1.95041 12.05 2.00041C17.55 2.05041 22 6.50041 22 12.1004C21.95 17.5504 17.5 22.0004 12 22.0004Z" fill="white"/>
<g opacity="0.6">
<path opacity="0.6" d="M11.9906 9.65524L6.46484 12.1683L11.9906 15.433L17.5142 12.1683L11.9906 9.65524Z" fill="black"/>
</g>
<g opacity="0.45">
<path opacity="0.45" d="M6.46484 12.1683L11.9906 15.433V3L6.46484 12.1683Z" fill="black"/>
</g>
<g opacity="0.8">
<path opacity="0.8" d="M11.9906 3V15.433L17.5142 12.1683L11.9906 3Z" fill="black"/>
</g>
<g opacity="0.45">
<path opacity="0.45" d="M6.46484 13.2153L11.9906 21V16.4799L6.46484 13.2153Z" fill="black"/>
</g>
<g opacity="0.8">
<path opacity="0.8" d="M11.9906 16.4799V21L17.5185 13.2153L11.9906 16.4799Z" fill="black"/>
</g>
</svg>
