<svg width="24" height="24" viewBox="0 0 24 24" fill="none" xmlns="http://www.w3.org/2000/svg">
<path fill-rule="evenodd" clip-rule="evenodd" d="M12 2C6.5 2 2 6.6131 2 12.2513C2 16.8004 4.875 20.6446 8.8125 21.9901C9.3125 22.0542 9.5 21.7979 9.5 21.4775V19.7476C6.6875 20.3883 6.125 18.4021 6.125 18.4021C5.6875 17.2489 5 16.9285 5 16.9285C4.0625 16.2878 5.0625 16.2878 5.0625 16.2878C6.0625 16.3519 6.625 17.3129 6.625 17.3129C7.5 18.8506 8.9375 18.4021 9.5625 18.1459C9.625 17.5052 9.9375 17.0567 10.1875 16.8004C7.9375 16.5441 5.625 15.6471 5.625 11.7388C5.625 10.6496 6 9.68851 6.625 8.98373C6.5 8.72744 6.1875 7.70231 6.75 6.29275C6.75 6.29275 7.5625 6.03647 9.5 7.31788C10.3125 7.0616 11.125 6.99753 12 6.99753C12.875 6.99753 13.6875 7.12567 14.5 7.31788C16.4375 5.97239 17.25 6.22868 17.25 6.22868C17.8125 7.63824 17.4375 8.66337 17.375 8.91966C18 9.62443 18.375 10.5214 18.375 11.6747C18.375 15.583 16.0625 16.48 13.8125 16.7363C14.1875 17.0567 14.5 17.6974 14.5 18.6584V21.4775C14.5 21.7338 14.6875 22.0542 15.1875 21.9901C19.125 20.6446 22 16.8004 22 12.2513C22 6.6131 17.5 2 12 2Z" fill="white"/>
</svg>
