<svg width="24" height="24" viewBox="0 0 24 24" fill="none" xmlns="http://www.w3.org/2000/svg">
<g clip-path="url(#clip0)">
<path d="M22.1691 7.02225L16.28 16.3289L12.0526 9.63559L15.4218 4.30226C15.5087 4.16814 15.6431 4.06962 15.7995 4.0254C15.956 3.98118 16.1237 3.99431 16.2709 4.06224L22.1326 6.91559L22.1509 6.92444C22.1783 6.9511 22.1874 6.98669 22.1691 7.01336V7.02225ZM15.7322 17.1911L10.19 14.4978V8.41776L15.7322 17.1911ZM22.2148 8.67557V19.3689C22.2148 19.9022 21.7309 20.1067 21.1283 19.8133L16.5631 17.5911L22.2148 8.67557ZM9.26783 6.98666V19.3689C9.26783 19.76 9.0487 19.9911 8.72914 19.9911C8.60197 19.9894 8.47696 19.959 8.36393 19.9022L3.33305 17.4578C3.03174 17.3067 2.78522 16.9244 2.78522 16.6044V4.58665C2.78522 4.26665 2.96783 4.08003 3.21435 4.08003C3.30565 4.08003 3.39696 4.09777 3.50653 4.15111L9.23133 6.93333C9.24959 6.95111 9.26783 6.9689 9.26783 6.99556V6.98666Z" fill="white"/>
</g>
<defs>
<clipPath id="clip0">
<rect width="21" height="16" fill="white" transform="translate(2 4)"/>
</clipPath>
</defs>
</svg>
