<svg width="24" height="24" viewBox="0 0 24 24" fill="none" xmlns="http://www.w3.org/2000/svg">
<path d="M1.85999 10.37L21.46 2.82002C21.87 2.66002 22.3 3.02003 22.21 3.46003L18.69 20.36C18.6713 20.4521 18.6297 20.538 18.5691 20.6098C18.5084 20.6816 18.4307 20.737 18.343 20.7708C18.2554 20.8047 18.1606 20.816 18.0675 20.8036C17.9743 20.7912 17.8858 20.7556 17.81 20.7L13.01 17.22C12.8674 17.118 12.6952 17.0657 12.5199 17.0711C12.3447 17.0765 12.1761 17.1394 12.04 17.25L9.38 19.42C9.30882 19.4804 9.22364 19.5221 9.13223 19.5413C9.04083 19.5604 8.9461 19.5563 8.85666 19.5295C8.76721 19.5027 8.6859 19.4539 8.62012 19.3876C8.55433 19.3213 8.50618 19.2397 8.48001 19.15L6.64001 13.21L1.85999 11.43C1.74939 11.3923 1.65338 11.3209 1.58539 11.2258C1.51739 11.1308 1.48083 11.0169 1.48083 10.9C1.48083 10.7832 1.51739 10.6692 1.58539 10.5742C1.65338 10.4791 1.74939 10.4077 1.85999 10.37ZM7.78 13.32L8.78 16.86C8.86 17.11 9.22001 17.08 9.26001 16.83L9.51999 14.88C9.56999 14.52 9.74999 14.18 10.02 13.93L17.72 6.77003C17.86 6.64003 17.69 6.41003 17.52 6.52003L8.19 12.26C8.01532 12.3677 7.8807 12.5296 7.80667 12.721C7.73264 12.9124 7.72326 13.1228 7.78 13.32Z" fill="white"/>
</svg>
