<svg width="24" height="24" viewBox="0 0 24 24" fill="none" xmlns="http://www.w3.org/2000/svg">
<path d="M23 5.90769C22.215 6.21538 21.4299 6.46154 20.514 6.52308C21.4299 6.03077 22.0841 5.23077 22.4112 4.30769C21.5607 4.8 20.6449 5.10769 19.6636 5.29231C18.8785 4.49231 17.7664 4 16.5888 4C14.2336 4 12.271 5.78462 12.271 8.06154C12.271 8.36923 12.3364 8.67692 12.4019 8.98462C8.80374 8.8 5.66355 7.2 3.50467 4.73846C3.11215 5.35385 2.91589 6.03077 2.91589 6.76923C2.91589 8.18462 3.70093 9.41538 4.81308 10.1538C4.09346 10.1538 3.43925 9.96923 2.85047 9.66154V9.72308C2.85047 11.6923 4.35514 13.2923 6.31776 13.6615C5.92523 13.7231 5.59813 13.7846 5.20561 13.7846C4.94393 13.7846 4.68224 13.7846 4.42056 13.7231C4.94393 15.3231 6.57944 16.4923 8.41122 16.5538C6.97196 17.6615 5.07477 18.2769 3.04673 18.2769C2.71963 18.2769 2.3271 18.2769 2 18.2154C3.96262 19.3231 6.25234 20 8.6729 20C16.5888 20 20.9065 13.8462 20.9065 8.49231V8C21.6916 7.38462 22.4112 6.70769 23 5.90769Z" fill="white"/>
</svg>
