<svg width="24" height="24" viewBox="0 0 24 24" fill="none" xmlns="http://www.w3.org/2000/svg">
<path fill-rule="evenodd" clip-rule="evenodd" d="M2 11.9504C2 17.5004 6.5 22.0004 12 22.0004C17.5 22.0004 21.95 17.5504 22 12.1004C22 6.50041 17.55 2.05041 12.05 2.00041C6.5 1.95041 2.05 6.45041 2 11.9504ZM8.86486 17.051C9.44144 17.4517 10.3119 17.679 11.4761 17.7332V19H12.5239V17.7169C13.6105 17.6195 14.4588 17.273 15.0686 16.6775C15.6895 16.0712 16 15.297 16 14.355C16 13.4022 15.7062 12.6551 15.1185 12.1137C14.5419 11.5615 13.7159 11.1663 12.6403 10.9281L12.4906 10.8956V7.17633C13.0561 7.19799 13.5218 7.27378 13.8877 7.40371V7.46868C13.7103 7.57695 13.5662 7.71771 13.4553 7.89095C13.3444 8.06419 13.289 8.2645 13.289 8.49188C13.289 8.80588 13.3888 9.08198 13.5884 9.32019C13.7879 9.55839 14.0929 9.67749 14.5031 9.67749C14.869 9.67749 15.1629 9.56381 15.3846 9.33643C15.6175 9.09822 15.7339 8.78422 15.7339 8.39443C15.7339 7.8314 15.4678 7.34957 14.9356 6.94896C14.4033 6.54834 13.5994 6.32096 12.5239 6.26682V5H11.4761V6.28306C10.4006 6.38051 9.55787 6.69992 8.94802 7.2413C8.34927 7.78268 8.0499 8.49188 8.0499 9.36891C8.0499 10.3217 8.34373 11.0905 8.93139 11.6752C9.53015 12.249 10.3895 12.6659 11.5094 12.9258V16.8074C11.1767 16.7966 10.8663 16.7695 10.578 16.7262C10.3008 16.6829 10.0568 16.6234 9.84615 16.5476V16.4826C10.0236 16.3743 10.1677 16.2336 10.2786 16.0603C10.3895 15.8871 10.4449 15.6868 10.4449 15.4594C10.4449 15.1454 10.3451 14.8693 10.1455 14.6311C9.94595 14.3929 9.64103 14.2738 9.23077 14.2738C8.86486 14.2738 8.56549 14.3929 8.33264 14.6311C8.11088 14.8585 8 15.1671 8 15.5568C8 16.1415 8.28829 16.6396 8.86486 17.051ZM10.1622 7.80974C10.4615 7.49575 10.9106 7.29544 11.5094 7.20882V10.652C10.8663 10.4787 10.4061 10.2568 10.1289 9.98608C9.86279 9.70456 9.72973 9.33643 9.72973 8.88167C9.72973 8.47022 9.87387 8.11292 10.1622 7.80974ZM13.8046 16.1903C13.5163 16.5043 13.0783 16.6991 12.4906 16.7749V13.1369C13.1559 13.2885 13.6161 13.5104 13.8711 13.8028C14.1261 14.0951 14.2536 14.4849 14.2536 14.9722C14.2536 15.4594 14.1039 15.8654 13.8046 16.1903Z" fill="white"/>
</svg>
