<svg width="24" height="24" viewBox="0 0 24 24" fill="none" xmlns="http://www.w3.org/2000/svg">
<path d="M15.366 0C9.118 0 6.701 7.498 11.596 12.4C14.73 15.54 19.46 15.898 22.162 13.192C26.721 8.626 22.17 0 15.366 0ZM20.275 11.287C18.29 13.275 15.213 12.203 15.463 9.569C15.519 8.979 15.021 8.483 14.434 8.54C11.825 8.789 10.725 5.718 12.72 3.719C14.715 1.721 17.782 2.824 17.532 5.437C17.476 6.031 17.976 6.524 18.561 6.467C21.168 6.219 22.271 9.287 20.275 11.287V11.287ZM8.477 18.34L10.596 20.462L9.183 21.878L7.77 20.462L7.064 21.17L8.477 22.585L7.064 24L4.945 21.877L2.825 24L0 21.17L8.891 12.265C9.271 12.812 9.702 13.332 10.184 13.815C10.66 14.292 11.176 14.717 11.718 15.094L8.477 18.34V18.34Z" fill="#3B99FC"/>
</svg>
