<svg width="24" height="24" viewBox="0 0 24 24" fill="none" xmlns="http://www.w3.org/2000/svg">
<path d="M6.76 5.29L4.96 3.5L3.55 4.91L5.34 6.7L6.76 5.29ZM4 10.95H1V12.95H4V10.95ZM13 1H11V3.95H13V1ZM20.45 4.91L19.04 3.5L17.25 5.29L18.66 6.7L20.45 4.91ZM17.24 18.61L19.03 20.41L20.44 19L18.64 17.21L17.24 18.61ZM20 10.95V12.95H23V10.95H20ZM12 5.95C8.69 5.95 6 8.64 6 11.95C6 15.26 8.69 17.95 12 17.95C15.31 17.95 18 15.26 18 11.95C18 8.64 15.31 5.95 12 5.95ZM11 22.9H13V19.95H11V22.9ZM3.55 18.99L4.96 20.4L6.75 18.6L5.34 17.19L3.55 18.99Z" fill="white"/>
</svg>
