<?xml version="1.0" encoding="UTF-8"?>
<svg width="150px" height="150px" viewBox="0 0 150 150" version="1.1" xmlns="http://www.w3.org/2000/svg" xmlns:xlink="http://www.w3.org/1999/xlink">
    <title>Favicon</title>
    <g id="Page-1" stroke="none" stroke-width="1" fill="none" fill-rule="evenodd">
        <g id="Favicon">
            <rect id="Rectangle" fill="#30698C" x="0" y="0" width="150" height="150" rx="30"></rect>
            <path d="M41.7557438,25.4677438 L29.6687438,38.2517438 C29.3457438,38.0327438 28.9057438,38.0567438 28.6097438,38.3347438 C28.2687438,38.6557438 28.2517438,39.1947438 28.5727438,39.5357438 C28.5877438,39.5507438 28.6057438,39.5607438 28.6197438,39.5747438 L18.7447438,53.9747438 C18.4237438,53.7597438 17.9857438,53.7857438 17.6927438,54.0617438 C17.3517438,54.3827438 17.3357438,54.9197438 17.6557438,55.2617438 C17.8027438,55.4167438 17.9947438,55.5017438 18.1917438,55.5207438 L14.7467438,90.2167438 C14.5717438,90.2377438 14.4037438,90.3097438 14.2657438,90.4387438 C13.9257438,90.7597438 13.9097438,91.2987438 14.2307438,91.6397438 C14.4877438,91.9127438 14.8807438,91.9727438 15.2037438,91.8237438 L26.0607438,106.208744 C26.0577438,106.213744 26.0537438,106.214744 26.0487438,106.219744 C25.3677438,106.861744 25.3347438,107.936744 25.9787438,108.618744 C26.5267438,109.203744 27.3917438,109.309744 28.0587438,108.926744 L37.5437438,122.015744 C37.2527438,122.339744 37.2517438,122.837744 37.5557438,123.161744 C37.8767438,123.502744 38.4137438,123.519744 38.7547438,123.196744 C38.8037438,123.152744 38.8437438,123.100744 38.8787438,123.047744 L73.4597438,136.450744 C73.4637438,136.450744 73.4667438,136.450744 73.4717438,136.451744 C73.4777438,136.454744 73.4837438,136.454744 73.4887438,136.454744 C73.4947438,136.454744 73.4997438,136.454744 73.5057438,136.454744 C73.5087438,136.454744 73.5127438,136.454744 73.5177438,136.451744 L88.2517438,132.134744 C88.3817438,132.495744 88.5857438,132.837744 88.8647438,133.133744 C89.9637438,134.301744 91.7997438,134.356744 92.9677438,133.257744 C93.7527438,132.517744 94.0317438,131.443744 93.7967438,130.463744 L108.625744,125.908744 C108.662744,126.028744 108.724744,126.143744 108.816744,126.241744 C109.136744,126.583744 109.673744,126.599744 110.015744,126.276744 C110.356744,125.955744 110.372744,125.418744 110.050744,125.078744 C110.026744,125.053744 110.000744,125.032744 109.975744,125.011744 L131.390744,98.3957438 C131.697744,98.5477438 132.080744,98.5047438 132.346744,98.2547438 C132.688744,97.9337438 132.704744,97.3967438 132.382744,97.0557438 C132.277744,96.9417438 132.145744,96.8677438 132.006744,96.8257438 L133.392744,79.0167438 C133.792744,79.0067438 134.191744,78.8537438 134.506744,78.5587438 C135.188744,77.9147438 135.220744,76.8407438 134.579744,76.1587438 C134.304744,75.8667438 133.952744,75.6957438 133.585744,75.6417438 L134.222744,59.6277438 C134.381744,59.5997438 134.533744,59.5287438 134.659744,59.4107438 C135.000744,59.0877438 135.016744,58.5507438 134.694744,58.2107438 C134.449744,57.9487438 134.078744,57.8787438 133.763744,58.0047438 L113.814744,28.4807438 C114.108744,28.1567438 114.111744,27.6587438 113.805744,27.3327438 C113.484744,26.9927438 112.949744,26.9767438 112.608744,27.2957438 L96.7807438,20.4357438 C97.0037438,19.9187438 96.9147438,19.2997438 96.5057438,18.8627438 C95.9557438,18.2797438 95.0377438,18.2517438 94.4547438,18.8017438 C94.2547438,18.9887438 94.1237438,19.2197438 94.0537438,19.4637438 L77.8967438,14.9007438 C77.9107438,14.6757438 77.8367438,14.4447438 77.6697438,14.2657438 C77.3477438,13.9257438 76.8107438,13.9097438 76.4697438,14.2307438 C76.2697438,14.4197438 76.1847438,14.6817438 76.2107438,14.9357438 L60.6417438,20.0627438 C60.5687438,19.9157438 60.4747438,19.7787438 60.3567438,19.6527438 C59.7127438,18.9707438 58.6397438,18.9387438 57.9577438,19.5817438 C57.5607438,19.9557438 57.3847438,20.4767438 57.4337438,20.9817438 L43.2097438,24.6117438 C43.1727438,24.5397438 43.1297438,24.4697438 43.0717438,24.4077438 C42.7497438,24.0667438 42.2127438,24.0497438 41.8727438,24.3727438 C41.5637438,24.6627438 41.5237438,25.1287438 41.7557438,25.4677438 Z M121.190744,42.8417438 C121.073744,42.9747438 121.004744,43.1347438 120.985744,43.2997438 L88.2897438,39.3987438 C88.3327438,39.1457438 88.2627438,38.8777438 88.0737438,38.6767438 C88.0307438,38.6307438 87.9837438,38.5917438 87.9347438,38.5577438 L94.9827438,21.2327438 C95.4627438,21.3957438 96.0097438,21.2997438 96.4127438,20.9427438 L121.190744,42.8417438 Z M132.107744,78.4857438 C132.275744,78.6647438 132.473744,78.7977438 132.685744,78.8867438 L119.386744,108.636744 C119.190744,108.595744 118.983744,108.626744 118.802744,108.725744 L112.544744,79.2637438 C112.948744,79.1367438 113.329744,78.9227438 113.657744,78.6127438 C114.227744,78.0757438 114.530744,77.3647438 114.565744,76.6397438 L131.653744,77.4607438 C131.682744,77.8307438 131.833744,78.1947438 132.107744,78.4857438 Z M55.9817438,127.234744 C56.0807438,127.081744 56.1237438,126.904744 56.1147438,126.726744 L83.0557438,110.679744 C83.1227438,110.799744 83.2027438,110.913744 83.3017438,111.018744 C83.7067438,111.449744 84.2817438,111.619744 84.8247438,111.527744 L89.6367438,128.570744 C89.4057438,128.690744 89.1867438,128.842744 88.9887438,129.028744 C88.4197438,129.564744 88.1167438,130.276744 88.0817438,131.001744 L71.4707438,129.051744 L55.9817438,127.234744 Z M26.6557438,105.852744 L19.8157438,73.5297438 C19.9467438,73.5087438 20.0687438,73.4557438 20.1797438,73.3757438 L43.1487438,93.9937438 C42.8917438,94.2487438 42.8337438,94.6287438 42.9757438,94.9437438 L36.3477438,99.8707438 L28.0957438,106.007744 C27.6607438,105.739744 27.1297438,105.687744 26.6557438,105.852744 Z M29.7737438,39.5717438 C29.8137438,39.5327438 29.8477438,39.4927438 29.8787438,39.4507438 L44.1747438,50.0707438 C43.8127438,50.6837438 43.8687438,51.4817438 44.3547438,52.0427438 L42.1017438,53.9077438 L20.2077438,72.0267438 C20.1077438,71.9477438 19.9947438,71.8917438 19.8757438,71.8647438 L29.0487438,39.7857438 C29.3017438,39.8287438 29.5727438,39.7607438 29.7737438,39.5717438 Z M120.982744,43.4807438 C120.999744,43.6627438 121.070744,43.8397438 121.205744,43.9837438 C121.362744,44.1487438 121.567744,44.2367438 121.778744,44.2467438 L112.589744,73.7437438 C111.846744,73.4967438 111.024744,73.5587438 110.318744,73.9307438 L87.9617438,39.9357438 C87.9877438,39.9167438 88.0147438,39.8997438 88.0387438,39.8767438 C88.1317438,39.7887438 88.1977438,39.6837438 88.2427438,39.5717438 L120.982744,43.4807438 Z M118.411744,109.747744 L86.2227438,109.679744 C86.1857438,109.321744 86.0377438,108.972744 85.7717438,108.689744 C85.7087438,108.621744 85.6407438,108.562744 85.5677438,108.507744 L109.966744,78.8487438 C110.671744,79.3597438 111.555744,79.5187438 112.373744,79.3147438 L118.643744,108.837744 C118.638744,108.842744 118.634744,108.845744 118.629744,108.848744 C118.377744,109.086744 118.304744,109.440744 118.411744,109.747744 Z M55.8887438,126.192744 C55.6017438,125.887744 55.1417438,125.843744 54.8047438,126.068744 L44.1847438,95.3197438 C44.2337438,95.2887438 44.2827438,95.2527438 44.3267438,95.2117438 C44.4407438,95.1047438 44.5147438,94.9737438 44.5547438,94.8327438 L82.9337438,109.300744 C82.7977438,109.694744 82.8117438,110.130744 82.9777438,110.518744 L56.0817438,126.537744 C56.0467438,126.413744 55.9847438,126.293744 55.8887438,126.192744 Z M20.3127438,73.2557438 C20.5927438,72.9437438 20.6027438,72.4757438 20.3347438,72.1517438 L44.4807438,52.1727438 C44.7737438,52.4467438 45.1397438,52.5977438 45.5157438,52.6237438 L43.7317438,93.7467438 C43.5777438,93.7497438 43.4237438,93.7927438 43.2887438,93.8797438 L20.3127438,73.2557438 Z M43.9087438,93.7637438 L45.6947438,52.6267438 C46.0907438,52.6137438 46.4867438,52.4627438 46.7987438,52.1677438 C46.8167438,52.1507438 46.8327438,52.1327438 46.8497438,52.1147438 L72.4517438,72.3447438 C71.6777438,73.3227438 71.6187438,74.6897438 72.2977438,75.7277438 L44.3347438,93.9867438 C44.2127438,93.8687438 44.0657438,93.7927438 43.9087438,93.7637438 Z M87.8077438,40.0277438 L110.161744,74.0177438 C109.991744,74.1217438 109.830744,74.2427438 109.679744,74.3847438 C109.166744,74.8687438 108.869744,75.4947438 108.789744,76.1427438 L95.5877438,75.3317438 L77.6277438,74.2277438 C77.6497438,73.4867438 77.3877438,72.7347438 76.8397438,72.1517438 C76.5747438,71.8707438 76.2657438,71.6547438 75.9347438,71.5037438 L87.3377438,40.0957438 C87.4977438,40.1177438 87.6587438,40.0957438 87.8077438,40.0277438 Z M109.556744,78.4887438 C109.641744,78.5787438 109.732744,78.6617438 109.825744,78.7387438 L85.4197438,108.405744 C85.0207438,108.161744 84.5407438,108.095744 84.0957438,108.214744 L75.7027438,76.8757438 C76.0677438,76.7457438 76.4147438,76.5407438 76.7147438,76.2557438 C77.2537438,75.7497438 77.5507438,75.0877438 77.6127438,74.4067438 L108.776744,76.3217438 C108.728744,77.0937438 108.984744,77.8817438 109.556744,78.4887438 Z M44.4497438,94.1257438 L72.3997438,75.8747438 C72.4657438,75.9637438 72.5357438,76.0507438 72.6137438,76.1337438 C73.3857438,76.9527438 74.5197438,77.2227438 75.5307438,76.9307438 L83.9267438,108.271744 C83.7277438,108.346744 83.5377438,108.462744 83.3737438,108.617744 C83.2127438,108.769744 83.0897438,108.945744 83.0017438,109.133744 L44.5887438,94.6557438 C44.6017438,94.4707438 44.5557438,94.2857438 44.4497438,94.1257438 Z M86.8397438,39.8407438 C86.9327438,39.9397438 87.0447438,40.0077438 87.1647438,40.0527438 L75.7687438,71.4357438 C74.7607438,71.0487438 73.5767438,71.2377438 72.7367438,72.0277438 C72.6757438,72.0857438 72.6197438,72.1457438 72.5647438,72.2067438 L46.9677438,51.9807438 C47.2587438,51.6117438 47.3757438,51.1487438 47.3167438,50.7037438 L60.8707438,46.9187438 L86.7327438,39.7007438 C86.7627438,39.7487438 86.7977438,39.7967438 86.8397438,39.8407438 Z M28.4487438,106.291744 C28.3867438,106.225744 28.3187438,106.167744 28.2507438,106.114744 L43.0677438,95.0977438 C43.0867438,95.1247438 43.1047438,95.1507438 43.1277438,95.1767438 C43.3627438,95.4267438 43.7167438,95.5007438 44.0227438,95.3947438 L54.6587438,126.192744 C54.5387438,126.319744 54.4647438,126.473744 54.4377438,126.634744 L28.6907438,108.288744 C29.0457438,107.658744 28.9707438,106.844744 28.4487438,106.291744 Z M93.0897438,129.151744 C92.2227438,128.229744 90.8947438,128.004744 89.7987438,128.491744 L84.9987438,111.487744 C85.2527438,111.415744 85.4937438,111.283744 85.6997438,111.091744 C86.0547438,110.756744 86.2317438,110.308744 86.2317438,109.857744 L118.499744,109.926744 C118.519744,109.956744 118.542744,109.985744 118.566744,110.014744 L93.1757438,129.253744 C93.1467438,129.219744 93.1197438,129.185744 93.0897438,129.151744 Z M131.647744,77.2797438 L114.567744,76.4617438 C114.558744,75.7587438 114.299744,75.0597438 113.780744,74.5077438 C113.484744,74.1927438 113.133744,73.9597438 112.756744,73.8087438 L121.968744,44.2367438 C122.052744,44.2217438 122.135744,44.1917438 122.212744,44.1507438 L132.753744,75.7297438 C132.546744,75.8067438 132.351744,75.9247438 132.179744,76.0857438 C131.836744,76.4097438 131.657744,76.8437438 131.647744,77.2797438 Z M94.3927438,20.8537438 C94.5187438,20.9877438 94.6637438,21.0897438 94.8187438,21.1647438 L87.7767438,38.4737438 C87.4777438,38.3527438 87.1247438,38.4057438 86.8747438,38.6407438 C86.8277438,38.6857438 86.7877438,38.7357438 86.7517438,38.7887438 L60.7077438,21.4117438 C60.7997438,21.1697438 60.8327438,20.9107438 60.8087438,20.6547438 L94.0127438,20.0557438 C94.0507438,20.3457438 94.1767438,20.6247438 94.3927438,20.8537438 Z M86.6697438,38.9487438 C86.5957438,39.1367438 86.5907438,39.3447438 86.6557438,39.5357438 L47.2827438,50.5277438 C47.2157438,50.2517438 47.0797438,49.9887438 46.8717438,49.7687438 C46.7557438,49.6457438 46.6277438,49.5447438 46.4887438,49.4637438 L47.1347438,48.0227438 L58.5937438,22.4317438 C59.1647438,22.6177438 59.8167438,22.4937438 60.2837438,22.0527438 C60.4327438,21.9137438 60.5497438,21.7507438 60.6357438,21.5777438 L86.6697438,38.9487438 Z M57.8857438,21.9817438 C58.0437438,22.1487438 58.2287438,22.2777438 58.4267438,22.3667438 L46.3307438,49.3827438 C45.7227438,49.1097438 44.9867438,49.2107438 44.4717438,49.6957438 C44.3977438,49.7657438 44.3327438,49.8407438 44.2757438,49.9197438 L34.9037438,42.9597438 L29.9687438,39.2937438 C30.0747438,39.0497438 30.0597438,38.7667438 29.9257438,38.5317438 L57.6697438,21.6977438 C57.7307438,21.7967438 57.8027438,21.8927438 57.8857438,21.9817438 Z M28.7637438,39.6807438 C28.8007438,39.7037438 28.8377438,39.7237438 28.8777438,39.7387438 L19.6967438,71.8427438 C19.6577438,71.8427438 19.6197438,71.8457438 19.5827438,71.8497438 L18.5047438,55.4927438 C18.6317438,55.4557438 18.7527438,55.3947438 18.8547438,55.2977438 C19.1967438,54.9767438 19.2127438,54.4397438 18.8917438,54.0977438 C18.8887438,54.0947438 18.8847438,54.0917438 18.8817438,54.0887438 L28.7637438,39.6807438 Z M18.3447438,55.7737438 L19.4047438,71.8897438 C19.2957438,71.9287438 19.1927438,71.9877438 19.1017438,72.0717438 C18.7617438,72.3927438 18.7457438,72.9317438 19.0667438,73.2737438 C19.1257438,73.3357438 19.1927438,73.3827438 19.2627438,73.4227438 L15.1547438,89.1727438 L14.9517438,89.9507438 L18.3447438,55.7737438 Z M15.3567438,91.7317438 C15.3827438,91.7127438 15.4077438,91.6967438 15.4297438,91.6757438 C15.7707438,91.3547438 15.7877438,90.8177438 15.4667438,90.4757438 C15.3527438,90.3547438 15.2107438,90.2757438 15.0617438,90.2377438 L19.4287438,73.4967438 C19.4967438,73.5177438 19.5667438,73.5327438 19.6357438,73.5367438 L26.4867438,105.920744 C26.3867438,105.967744 26.2897438,106.026744 26.1987438,106.094744 L15.3567438,91.7317438 Z M38.7907438,121.996744 C38.4947438,121.683744 38.0167438,121.647744 37.6767438,121.894744 L28.2077438,108.828744 C28.2657438,108.787744 28.3227438,108.741744 28.3767438,108.691744 C28.4587438,108.614744 28.5317438,108.528744 28.5947438,108.439744 L54.4287438,126.848744 C54.4317438,126.883744 54.4367438,126.917744 54.4437438,126.951744 L38.9897438,122.798744 C39.0627438,122.524744 39.0007438,122.220744 38.7907438,121.996744 Z M39.7037438,123.174744 L54.5177438,127.155744 C54.5537438,127.226744 54.5967438,127.296744 54.6537438,127.356744 C54.8997438,127.618744 55.2737438,127.686744 55.5867438,127.561744 L71.7107438,135.580744 L39.7037438,123.174744 Z M73.5007438,136.271744 L55.7727438,127.453744 C55.7987438,127.435744 55.8217438,127.419744 55.8437438,127.398744 L88.0787438,131.180744 C88.0827438,131.444744 88.1207438,131.708744 88.1967438,131.964744 L73.5007438,136.271744 Z M108.591744,125.730744 L93.7477438,130.292744 C93.6507438,129.972744 93.5007438,129.666744 93.2917438,129.389744 L118.697744,110.139744 C119.021744,110.386744 119.485744,110.373744 119.791744,110.085744 C120.089744,109.805744 120.139744,109.363744 119.936744,109.028744 L130.968744,98.6327438 L109.825744,124.911744 C109.515744,124.747744 109.122744,124.787744 108.851744,125.041744 C108.656744,125.226744 108.570744,125.482744 108.591744,125.730744 Z M131.147744,98.2197438 L119.828744,108.885744 C119.749744,108.800744 119.657744,108.735744 119.556744,108.691744 L132.855744,78.9477438 C132.972744,78.9817438 133.091744,79.0037438 133.213744,79.0127438 L131.830744,96.7937438 C131.601744,96.7757438 131.365744,96.8477438 131.183744,97.0187438 C130.843744,97.3407438 130.826744,97.8777438 131.147744,98.2197438 Z M133.460744,59.3737438 C133.618744,59.5417438 133.829744,59.6307438 134.044744,59.6397438 L133.406744,75.6257438 C133.245744,75.6197438 133.083744,75.6367438 132.924744,75.6777438 L122.367744,44.0487438 C122.373744,44.0427438 122.380744,44.0387438 122.386744,44.0327438 L133.553744,58.1307438 C133.533744,58.1457438 133.513744,58.1577438 133.495744,58.1737438 C133.154744,58.4957438 133.139744,59.0327438 133.460744,59.3737438 Z M132.774744,56.8587438 L122.509744,43.8987438 C122.744744,43.5767438 122.725744,43.1207438 122.441744,42.8187438 C122.234744,42.5987438 121.937744,42.5157438 121.662744,42.5687438 L114.289744,29.5017438 L132.774744,56.8587438 Z M112.488744,27.4377438 C112.269744,27.7607438 112.293744,28.2017438 112.571744,28.4977438 C112.844744,28.7877438 113.272744,28.8407438 113.604744,28.6527438 L121.487744,42.6237438 C121.430744,42.6487438 121.375744,42.6817438 121.323744,42.7197438 L96.5397438,20.8157438 C96.5997438,20.7457438 96.6527438,20.6727438 96.6977438,20.5957438 L112.488744,27.4377438 Z M76.2477438,15.1137438 C76.2867438,15.2277438 76.3457438,15.3367438 76.4337438,15.4307438 C76.7547438,15.7717438 77.2917438,15.7887438 77.6327438,15.4677438 C77.7497438,15.3567438 77.8257438,15.2217438 77.8657438,15.0777438 L94.0157438,19.6397438 C94.0037438,19.7177438 93.9977438,19.7977438 93.9997438,19.8777438 L88.7877438,19.9707438 L60.7817438,20.4767438 C60.7647438,20.3927438 60.7417438,20.3087438 60.7127438,20.2267438 L76.2477438,15.1137438 Z M57.4617438,21.1587438 C57.4867438,21.2887438 57.5277438,21.4167438 57.5857438,21.5397438 L29.8207438,38.3847438 C29.8167438,38.3807438 29.8137438,38.3757438 29.8087438,38.3717438 C29.8087438,38.3717438 29.8057438,38.3687438 29.8047438,38.3677438 L41.8747438,25.6037438 C42.1977438,25.9107438 42.7067438,25.9187438 43.0367438,25.6077438 C43.2687438,25.3887438 43.3457438,25.0707438 43.2727438,24.7807438 L57.4617438,21.1587438 L57.4617438,21.1587438 Z" id="Fill-5" stroke="#FFFFFF" fill="#FFFFFF"></path>
        </g>
    </g>
</svg>